<?xml version="1.0" standalone="no"?><!-- Generator: Gravit.io --><svg xmlns="http://www.w3.org/2000/svg" xmlns:xlink="http://www.w3.org/1999/xlink" style="isolation:isolate" viewBox="0 0 378 100" width="378" height="100"><defs><clipPath id="_clipPath_9KqVI6uVN9JHd7z8LS45nl2dODfkDSoK"><rect width="378" height="100"/></clipPath></defs><g clip-path="url(#_clipPath_9KqVI6uVN9JHd7z8LS45nl2dODfkDSoK)"><clipPath id="_clipPath_lZaapPFW76BQyA1Q7rsIbaqMqqXzRiFF"><rect x="0" y="0" width="378" height="100" transform="matrix(1,0,0,1,0,0)" fill="rgb(255,255,255)"/></clipPath><g clip-path="url(#_clipPath_lZaapPFW76BQyA1Q7rsIbaqMqqXzRiFF)"><g id="Group"><g id="Group"><g id="Group"><g id="Group"><path d=" M 92.6 53.5 C 92.7 52.9 92.7 52.2 92.7 51.6 L 100 51.9 C 100 51.3 100 50.7 100 50.1 C 100 49.5 100 48.9 100 48.3 L 92.7 48.6 C 92.7 48 92.7 47.3 92.6 46.7 L 85.3 47.3 C 85.1 45.4 84.8 43.5 84.4 41.6 L 91.5 39.8 C 91 37.7 90.3 35.7 89.5 33.7 L 96.2 30.9 C 95.5 29.3 94.7 27.6 93.9 26.1 L 87.5 29.6 C 87.9 30.4 88.3 31.2 88.7 32 L 82.1 35 C 81 32.6 80 30.7 78.4 28.6 L 84.1 24.2 C 84.6 24.8 84.6 25 85.1 25.7 L 91.1 21.5 C 89.7 19.6 88.2 17.7 86.6 15.9 L 81.2 20.9 C 81.7 21.5 81.7 21.5 82.2 22.1 L 76.7 26.7 C 75.5 25.2 74.6 24.4 73.2 23.1 L 77.9 17.6 C 78.3 17.9 78.7 18.3 79.1 18.6 L 84.1 13.2 C 81.9 11.2 79.5 9.3 77 7.7 L 73 14 C 70.8 12.6 69.4 11.7 67 10.7 L 64.2 17.5 C 63.8 17.4 62.6 16.9 62.2 16.7 L 64.7 9.9 C 63.7 9.5 62.8 9.2 61.8 9 L 63.8 2 C 62.1 1.5 60.3 1.1 58.6 0.8 L 57.3 8 C 56.6 7.9 55.9 7.8 55.3 7.7 L 54.4 14.9 C 54 14.9 52.6 14.8 52.2 14.8 L 53 7.5 C 52.1 7.4 52.2 7.4 51.4 7.3 L 51.6 0 C 51.1 0 50.5 0 50 0 C 22.4 0 0 22.4 0 50 C 0 77.6 22.4 100 50 100 C 50.5 100 50.7 100 51.3 100 L 51 92.7 C 51.8 92.7 52.7 92.6 53.6 92.6 L 54.5 99.9 C 54.8 99.9 58.1 99.4 58.4 99.4 L 56.9 92.2 C 56.7 92.2 54.9 92.5 54.1 92.6 L 53.4 85.3 C 52.3 85.4 51.2 85.5 50.1 85.5 L 50.1 78.2 C 34.6 78.2 22 65.6 22 50.1 C 22 34.6 34.6 22 50.1 22 C 54.5 22 58.7 23 62.6 24.9 L 65.9 18.4 C 66.4 18.6 67.9 19.5 68.4 19.8 L 65 26.2 C 69.8 29.2 73.6 33.6 75.8 38.7 L 82.5 35.8 C 82.7 36.3 83.4 38.3 83.6 38.9 L 76.9 41.6 C 77.8 44.3 78.2 47.2 78.2 50 C 78.2 55.3 76.7 60.4 74 64.9 L 80.2 68.8 C 79.3 70.2 78.4 71.5 77.3 72.8 L 82.9 77.5 C 82.4 78.1 81.9 78.7 81.4 79.2 L 86.8 84.2 C 88.8 82 90.7 79.7 92.3 77.2 L 86.2 73.2 C 87.4 71.3 88.5 69.3 89.4 67.3 L 82.7 64.1 C 82.8 63.7 83.5 62.2 83.6 61.9 L 90.5 64.3 C 90.8 63.6 91 62.8 91.2 62.1 L 98.2 64.2 C 98.7 62.5 99.1 60.7 99.4 59 L 92.2 57.7 C 92.4 56.8 92.5 56.8 92.6 55.8 L 85.3 55 C 85.3 54.6 85.4 53.3 85.4 52.9 L 92.6 53.5 L 92.6 53.5 L 92.6 53.5 Z " fill="rgb(255,103,31)"/><path d=" M 77.8 82.3 L 73.1 76.8 C 71.7 78 70.8 78.7 69.2 79.7 L 65.3 73.5 C 64.9 73.7 62.3 75.3 62.3 75.3 L 65.8 81.7 C 65.8 81.7 68.4 80.3 68.5 80.3 L 72.3 86.5 C 73.8 85.6 75.3 84.5 76.7 83.3 L 81.3 89 C 82.2 88.3 83.1 87.5 84 86.7 L 79 81.3 C 78.6 81.6 78.2 81.9 77.8 82.3 Z " fill="rgb(242,103,39)"/><path d=" M 62.2 91 C 64.1 90.4 65.9 89.7 67.7 88.9 L 70.7 95.5 C 72.3 94.8 73.9 93.9 75.5 93 L 71.8 86.7 C 71.6 86.8 69.7 87.9 69.5 88 L 65.9 81.6 C 64.1 82.5 62.2 83.3 60.2 83.8 L 62.2 91 L 62.2 91 L 62.2 91 Z " fill="rgb(242,103,39)"/></g><g id="Group"><path d=" M 128.9 64.9 L 118.7 64.9 L 137.2 35.2 L 148.8 35.2 L 167.3 64.9 L 156.3 64.9 L 153.5 60.4 L 131.5 60.4 L 128.9 64.9 L 128.9 64.9 L 128.9 64.9 Z  M 142.7 42.7 L 136 53.4 L 149.3 53.4 L 142.7 42.7 L 142.7 42.7 L 142.7 42.7 Z " fill="rgb(48,60,66)"/><path d=" M 171 35.3 L 197 35.3 C 205 35.3 210.7 37.2 210.7 46.6 C 210.7 55.7 204.9 57.8 196.9 57.8 C 194.1 57.8 182.5 57.8 180.8 57.8 L 180.8 64.9 L 171 64.9 L 171 35.3 L 171 35.3 L 171 35.3 Z  M 196.2 51 C 199.8 51 200.8 50 200.8 46.9 C 200.8 43.8 199.8 42.7 196.1 42.7 C 193.4 42.7 180.9 42.7 180.9 42.7 L 180.9 51 C 182.6 51 194.1 51 196.2 51 Z " fill="rgb(48,60,66)"/><path d=" M 215.6 35.3 L 241.6 35.3 C 249.6 35.3 255.3 37.2 255.3 46.6 C 255.3 55.7 249.5 57.8 241.5 57.8 C 238.6 57.8 227.1 57.8 225.5 57.8 L 225.5 64.9 L 215.7 64.9 L 215.7 35.3 L 215.6 35.3 L 215.6 35.3 Z  M 240.8 51 C 244.4 51 245.4 50 245.4 46.9 C 245.4 43.8 244.4 42.7 240.7 42.7 C 238 42.7 225.5 42.7 225.5 42.7 L 225.5 51 C 227.3 51 238.7 51 240.8 51 Z " fill="rgb(48,60,66)"/><path d=" M 274.8 42.8 L 258.2 42.8 L 258.2 35.4 L 301.3 35.4 L 301.3 42.8 L 284.7 42.8 L 284.7 64.9 L 274.8 64.9 L 274.8 42.8 L 274.8 42.8 L 274.8 42.8 Z " fill="rgb(48,60,66)"/><path d=" M 307 35.3 L 316.9 35.3 L 316.9 64.8 L 307 64.8 L 307 35.3 L 307 35.3 L 307 35.3 Z " fill="rgb(48,60,66)"/><path d=" M 322.5 50.1 C 322.5 37.1 330 34.5 346.8 34.5 C 363.6 34.5 371.2 37.1 371.2 50.1 C 371.2 63.1 363.6 65.6 346.8 65.6 C 330 65.6 322.5 63.1 322.5 50.1 Z  M 360.5 50.1 C 360.5 42.4 357.3 42 346.7 42 C 336.2 42 333.2 42.4 333.2 50 C 333.2 57.7 336.2 58.3 346.8 58.3 C 357.5 58.3 360.5 57.8 360.5 50.1 Z " fill="rgb(48,60,66)"/></g></g></g><g id="Group"><g id="Group"><path d=" M 378 35.3 C 378 36.9 376.8 38.1 375.2 38.1 C 373.6 38.1 372.4 36.9 372.4 35.3 C 372.4 33.8 373.7 32.5 375.2 32.5 C 376.7 32.6 378 33.8 378 35.3 Z  M 373 35.3 C 373 36.5 373.9 37.5 375.1 37.5 C 376.3 37.5 377.2 36.5 377.2 35.3 C 377.2 34.1 376.3 33.1 375.1 33.1 C 373.9 33.1 373 34.1 373 35.3 Z  M 374.7 36.8 L 374.1 36.8 L 374.1 34 C 374.4 34 374.7 33.9 375.2 33.9 C 375.7 33.9 376 34 376.2 34.1 C 376.4 34.2 376.5 34.4 376.5 34.7 C 376.5 35 376.3 35.2 375.9 35.3 L 375.9 35.3 C 376.2 35.4 376.3 35.6 376.4 36 C 376.5 36.4 376.5 36.6 376.6 36.7 L 375.9 36.7 C 375.8 36.6 375.8 36.3 375.7 36 C 375.7 35.7 375.5 35.6 375.1 35.6 L 374.8 35.6 L 374.8 36.8 L 374.7 36.8 L 374.7 36.8 Z  M 374.7 35.2 L 375 35.2 C 375.4 35.2 375.6 35.1 375.6 34.8 C 375.6 34.5 375.4 34.4 375 34.4 C 374.8 34.4 374.7 34.4 374.6 34.4 L 374.6 35.2 L 374.7 35.2 L 374.7 35.2 Z " fill="rgb(48,60,66)"/></g></g></g></g></g></svg>