<?xml version="1.0" encoding="utf-8"?>
<!-- Generator: Adobe Illustrator 23.0.3, SVG Export Plug-In . SVG Version: 6.00 Build 0)  -->
<svg version="1.1" id="Layer_1" xmlns="http://www.w3.org/2000/svg" xmlns:xlink="http://www.w3.org/1999/xlink" x="0px" y="0px"
	 viewBox="0 0 215.2 56.9" style="enable-background:new 0 0 215.2 56.9;" xml:space="preserve">
<style type="text/css">
	.st0{fill:#103A5E;}
</style>
<title>APPTIO2019</title>
<g>
	<path class="st0" d="M3.5,10.6H0.9l4.9-7.8h3.1l4.9,7.8h-2.9L10,9.4H4.3L3.5,10.6z M7.2,4.7L5.4,7.6h3.5L7.2,4.7z"/>
	<path class="st0" d="M15.2,2.8H22c2.1,0,3.6,0.5,3.6,3S24.1,8.8,22,8.8h-4.2v1.8h-2.6V2.8z M21.8,6.9c0.9,0,1.2-0.3,1.2-1.1
		s-0.3-1.1-1.2-1.1h-4v2.2H21.8z"/>
	<path class="st0" d="M27.5,2.8h6.8c2.1,0,3.6,0.5,3.6,3s-1.5,2.9-3.6,2.9h-4.2v1.8h-2.6V2.8z M34.1,6.9c0.9,0,1.2-0.3,1.2-1.1
		s-0.3-1.1-1.2-1.1h-4v2.2H34.1z"/>
	<path class="st0" d="M43.7,4.8h-4.4v-2h11.3v2h-4.4v5.8h-2.6V4.8z"/>
	<path class="st0" d="M52.8,2.8h2.7v7.7h-2.6L52.8,2.8z"/>
	<path class="st0" d="M57.5,6.7c0-3.4,2-4.1,6.4-4.1s6.4,0.7,6.4,4.1s-2,4.1-6.4,4.1S57.5,10.1,57.5,6.7z M67.5,6.7
		c0-2-0.8-2.1-3.6-2.1c-2.8,0-3.5,0.1-3.5,2.1s0.8,2.2,3.6,2.2C66.7,8.9,67.4,8.7,67.5,6.7L67.5,6.7z"/>
	<path class="st0" d="M26.3,28.5h-6c-0.9-2.8-3.7-4.7-6.7-4.6c-4.7,0-8,3.8-8,9.3c0,5.1,3.2,9.4,8.1,9.4c3.2,0.1,6-2,6.9-5h6.2
		c-1.7,5.3-5.9,9.7-13.1,9.7C5.4,47.3,0,41.2,0,33.2s5.8-14,13.7-14C21,19.2,25.3,24.1,26.3,28.5z"/>
	<path class="st0" d="M30.7,18.6H36v27.9h-5.2V18.6z"/>
	<path class="st0" d="M49.4,27.3c5.3-0.2,9.7,3.9,9.9,9.2c0,0.2,0,0.4,0,0.7c0.2,5.5-4.1,10-9.6,10.2s-10-4.1-10.2-9.6
		c0-0.2,0-0.4,0-0.6c-0.1-5.3,4-9.7,9.3-9.9C49.1,27.3,49.3,27.3,49.4,27.3z M49.4,42.5c2.8,0,4.6-2.3,4.6-5.3S52.4,32,49.4,32
		s-4.6,2.2-4.6,5.3S46.8,42.5,49.4,42.5z"/>
	<path class="st0" d="M80.1,46.5h-5.2v-2.3h-0.1c-1.1,1.9-3.2,3-5.4,2.9c-3,0-6.7-1.9-6.7-8.2v-11h5.2v10.3c0,2.7,1.3,4.2,3.3,4.2
		c2.3,0,3.7-1.6,3.7-4.7v-9.8h5.2L80.1,46.5z"/>
	<path class="st0" d="M103.3,46.5h-5v-2h-0.2c-1.5,1.7-3.8,2.7-6.1,2.7c-3.6,0-8.4-2.9-8.4-10c0-5.9,4.1-9.9,8.8-9.9
		c2.2-0.1,4.3,0.9,5.6,2.8h0.2V18.6h5.1L103.3,46.5z M93.7,42.6c2.5,0,4.7-2.2,4.7-5.3s-2-5.5-4.6-5.5c-3.2,0-4.8,2.8-4.8,5.5
		S90.5,42.6,93.7,42.6z"/>
	<path class="st0" d="M126.6,46.5h-5v-2.3h-0.2c-1.4,1.9-3.6,3-6,2.9c-3.6,0-8.4-2.9-8.4-9.9c0-6,4.1-9.8,8.8-9.8
		c2.3-0.1,4.4,1,5.6,2.9h0.2v-2.4h5L126.6,46.5z M117,42.5c2.5,0,4.6-2.2,4.6-5.3s-2-5.4-4.6-5.4c-3.2,0-4.8,2.7-4.8,5.3
		S113.8,42.5,117,42.5z"/>
	<path class="st0" d="M131.6,18.6h5v11.5h0.2c1.5-1.8,3.8-2.8,6.1-2.7c3.6,0,8.4,3,8.4,9.9c0,6.1-4.3,9.8-8.8,9.8
		c-2.2,0.1-4.3-0.9-5.6-2.7h-0.1v2h-5.1L131.6,18.6z M141.1,32c-2.5,0-4.6,2.1-4.6,5.3s2.1,5.3,4.6,5.3c3.2,0,4.8-2.7,4.8-5.3
		C145.9,34.5,144.4,32,141.1,32z"/>
	<path class="st0" d="M154.7,19.1h5.5v5h-5.5V19.1z M154.8,27.9h5.2v18.5h-5.2V27.9z"/>
	<path class="st0" d="M164.8,18.6h5.2v27.9h-5.2V18.6z"/>
	<path class="st0" d="M174.7,19.1h5.5v5h-5.5V19.1z M174.8,27.9h5.2v18.5h-5.2V27.9z"/>
	<path class="st0" d="M182.9,27.9h2.2V22h5.3v5.9h4.4v4.4h-4.4v7.2c0,2.2,0.7,2.8,2.3,2.8c0.8,0,1.5-0.1,2.2-0.3v4.3
		c-1.2,0.3-2.4,0.5-3.6,0.5c-4.6,0-6.2-2.6-6.2-6.7v-7.7h-2.2L182.9,27.9z"/>
	<path class="st0" d="M204.2,55.5h-4.9l3.4-9.2l-6.7-18.4h5.4l2.7,8c0.5,1.5,0.9,3.1,1.2,4.6h0.2c0.3-1.5,0.7-3.1,1.2-4.6l2.6-8h5.1
		L204.2,55.5z"/>
	<path class="st0" d="M73.4,0c1.1,0,2,0.9,2,2s-0.9,2-2,2s-2-0.9-2-2S72.3,0,73.4,0z M73.4,3.6c0.8,0,1.5-0.7,1.5-1.5c0,0,0,0,0,0
		c0-0.8-0.6-1.6-1.5-1.6c0,0,0,0-0.1,0c-0.8,0-1.5,0.7-1.5,1.5C71.9,2.8,72.5,3.5,73.4,3.6C73.4,3.5,73.4,3.6,73.4,3.6z M74.4,3.1
		h-0.7l-0.5-0.7h-0.1v0.7h-0.6V0.9h0.9c0.6,0,0.8,0.3,0.8,0.7c0,0.3-0.2,0.6-0.5,0.6L74.4,3.1z M73.4,1.3h-0.2v0.5h0.2
		c0.2,0,0.3-0.1,0.3-0.3S73.7,1.3,73.4,1.3z"/>
</g>
</svg>
