<svg id="Layer_1" data-name="Layer 1" xmlns="http://www.w3.org/2000/svg" viewBox="0 0 1200 285.85892"><defs><style>.cls-1{fill:#060909;}.cls-2{fill:#1672b9;}.cls-3{fill:#fdfdfe;}</style></defs><path class="cls-1" d="M148.21131,223.68413a7.61562,7.61562,0,0,1,2.67549,2.52138c5.39391,6.173,11.44651,11.51712,19.51369,13.77947,12.38654,3.47364,23.09843-.42748,32.85005-8.038,1.27739-.99691,2.3541-3.06867,3.75223-2.84538,1.32323.21136,2.35328,2.11128,3.56067,3.21565,17.51158,16.01711,37.58218,22.42564,60.79155,15.32165,25.72016-7.87248,42.11765-33.05749,39.53994-59.84358a65.75848,65.75848,0,0,0-3.64549-16.41953c1.20212-.17734,1.67424.79931,2.30073,1.42951,19.97967,20.09785,51.09512,17.33387,67.76542-.6513,18.56719-20.03172,13.3296-51.12036-10.87566-64.48115a47.6272,47.6272,0,0,0-57.40175,8.23088q-9.63351,9.72-19.3762,19.33155a4.58865,4.58865,0,0,0-1.553,3.88453c1.56865,31.7294-22.63975,60.40891-54.17333,64.14965-19.22247,2.2803-36.06179-3.11785-50.50323-16.04055-1.39554-1.24875-1.62714-1.94326-.13472-3.39159,6.54821-6.35465,12.981-12.82949,19.384-19.33124,1.1714-1.18946,1.81389-1.23635,3.173-.12465,9.83991,8.04875,20.84283,10.09375,32.46711,4.754,11.73513-5.39072,17.649-15.04747,17.94879-27.97372a26.30635,26.30635,0,0,0-2.811-12.35629,2.08105,2.08105,0,0,1,.40064-2.879c14.63918-14.55022,29.09672-29.28491,43.84084-43.72737C331.8078,48.79007,389.37527,57.52143,412.2778,99.46263a72.80006,72.80006,0,0,1-75.2173,107.13679c-1.68792-.25913-2.21778.08368-2.72635,1.75607-8.54116,28.08569-26.56989,47.09971-55.27189,53.99191-27.64634,6.6387-51.89216-1.08612-71.86914-21.47665-1.22226-1.24755-1.9517-.99715-3.16094-.35577-9.55926,5.07026-19.54275,7.38434-30.28557,4.47253-9.81968-2.66161-16.85854-9.02184-22.62642-17.0567C150.21275,226.66672,149.35945,225.36379,148.21131,223.68413Z"/><path class="cls-2" d="M144.16337,112.08946c-3.19987-2.79074-6.22222-5.77525-9.77155-8.16908-22.82977-15.39749-55.45719-6.90452-67.30353,17.55913-8.75939,18.08887-2.56809,39.985,14.61221,51.67738a47.639,47.639,0,0,0,60.22447-5.33836c6.883-6.7616,13.63373-13.65772,20.50845-20.42786a3.81288,3.81288,0,0,0,1.07574-3.21q-.73848-26.91882,17.89527-46.38329c23.004-23.97748,62.92693-24.82378,86.96066-1.86749,1.24293,1.18722,1.38441,1.827.06764,3.1135-6.634,6.48136-13.17414,13.05932-19.69489,19.65512-.969.98015-1.50126,1.15261-2.68106.15491-9.06862-7.66893-19.4061-9.97131-30.58366-5.882-11.42683,4.18049-17.971,12.777-19.867,24.76989a27.84085,27.84085,0,0,0,2.63,16.59316,2.107,2.107,0,0,1-.53167,2.867c-14.79882,14.71873-29.15113,29.91619-44.44173,44.1034-21.21132,19.68068-46.37108,25.19161-73.69261,15.84789-26.62908-9.1069-42.9446-28.3975-48.0148-56.10445-7.52557-41.12473,20.972-79.436,62.45549-84.93908a72.73041,72.73041,0,0,1,20.78468.35406c1.5022.23252,2.01634-.11327,2.46521-1.592,8.86172-29.193,27.73946-48.4513,57.76761-54.73861,26.54253-5.55749,49.83731,2.18033,69.01708,21.56369,1.2534,1.26672,2.03954,1.67749,3.83073.71882,10.44635-5.5911,21.37064-7.61637,32.85492-3.4673,7.6272,2.75557,13.529,7.81583,18.30461,14.26658,1.30622,1.76437,2.92311,3.341,3.50131,5.58827a63.72784,63.72784,0,0,0-10.5798-10.30785c-12.28757-9.05983-27.23488-8.95359-40.53738.33063a40.9817,40.9817,0,0,0-5.2105,4.2432c-1.21376,1.1869-1.87626,1.11516-2.99139-.12322a63.03745,63.03745,0,0,0-23.90072-16.249c-39.78111-15.94814-82.47032,15.73039-78.63874,58.39916a69.33869,69.33869,0,0,0,3.074,14.9064c.21857.68473.75127,1.33433.37864,2.13146Z"/><path class="cls-2" d="M247.44721,141.32811a21.61218,21.61218,0,1,1-43.22262-.08648A21.89322,21.89322,0,0,1,225.756,119.80637C237.464,119.76932,247.47545,129.70257,247.44721,141.32811Zm-21.66287,11.51414c1.86542,0,3.73155-.03088,5.596.01133,1.16132.02627,1.47526-.30057.93726-1.42854-1.28356-2.69108-2.4483-5.439-3.74042-8.12575a1.66932,1.66932,0,0,1,.52018-2.41544,5.91272,5.91272,0,0,0,.52443-8.87092,5.984,5.984,0,0,0-8.61359.14352,5.8149,5.8149,0,0,0,.62691,8.69675,1.89655,1.89655,0,0,1,.58186,2.6307c-1.03554,2.63647-1.99412,5.30316-3.02876,7.94-.41743,1.06384-.20768,1.48188,1.0005,1.43783C222.05166,152.79378,223.91891,152.84384,225.78434,152.84225Z"/><path class="cls-2" d="M144.13106,112.13354l.32241.06281c-.24882.37473-.21467-.01346-.28988-.10714Z"/><path class="cls-3" d="M225.78434,152.843c-1.86543.0008-3.73268-.04926-5.59562.01869-1.20818.044-1.41793-.374-1.0005-1.43783,1.03464-2.63684,1.99322-5.30353,3.02876-7.94a1.89655,1.89655,0,0,0-.58186-2.6307,5.8149,5.8149,0,0,1-.62691-8.69675,5.984,5.984,0,0,1,8.61359-.14352,5.91272,5.91272,0,0,1-.52443,8.87092,1.66932,1.66932,0,0,0-.52018,2.41544c1.29212,2.68678,2.45686,5.43467,3.74042,8.12575.538,1.128.22406,1.45481-.93726,1.42854C229.51589,152.81137,227.64976,152.84225,225.78434,152.843Z"/><path class="cls-2" d="M447.75537,110.93851v-.24658c0-24.38135,18.22412-44.57618,43.09815-44.57618,15.39257,0,24.62793,5.66456,33.49365,13.792L519.791,84.587c-7.51123-7.26514-16.13086-12.6836-29.06055-12.6836-20.687,0-36.32568,16.87012-36.32568,38.54248v.2461c0,21.7959,15.88476,38.78857,36.44873,38.78857,12.437,0,20.93359-4.80225,29.67675-13.42187l4.30957,4.18652c-9.1123,8.98926-18.96338,15.023-34.23242,15.023C465.97949,155.2681,447.75537,135.689,447.75537,110.93851Z"/><path class="cls-2" d="M544.17383,67.59378h6.40283v80.28614h50.60986v5.91064H544.17383Z"/><path class="cls-2" d="M610.917,110.93851v-.24658c0-23.519,17.36231-44.57618,43.46778-44.57618s43.22168,20.81055,43.22168,44.33008v.2461c0,23.51953-17.36231,44.57617-43.46778,44.57617S610.917,134.458,610.917,110.93851Zm80.04,0v-.24658c0-21.30274-15.51562-38.78858-36.81836-38.78858s-36.57226,17.23975-36.57226,38.54248v.2461c0,21.30322,15.51562,38.78857,36.81836,38.78857S690.957,132.24124,690.957,110.93851Z"/><path class="cls-2" d="M719.15723,117.95706V67.59378h6.40332v49.74756c0,20.31787,10.959,32.01611,29.18359,32.01611,17.48535,0,28.69141-10.58984,28.69141-31.40039V67.59378h6.40332v49.62451c0,24.751-14.40723,37.92676-35.34082,37.92676C733.81055,155.14505,719.15723,142.09232,719.15723,117.95706Z"/><path class="cls-2" d="M815.20605,67.59378h28.69141c27.08984,0,45.80664,18.59375,45.80664,42.85205v.2461c0,24.2583-18.7168,43.09863-45.80664,43.09863H815.20605Zm6.40333,5.91065v74.37549h22.28808c24.01172,0,39.15723-16.37745,39.15723-36.94141v-.24658c0-20.44092-15.14551-37.1875-39.15723-37.1875Z"/><path class="cls-2" d="M907.06836,110.93851v-.24658c0-24.5044,18.34766-44.57618,44.45215-44.57618,15.88476,0,25.49023,5.54151,33.74023,13.42237L975.5332,90.74368c-6.89648-6.40332-14.28418-10.71289-24.13574-10.71289-16.5,0-28.44434,13.54493-28.44434,30.415v.2461c0,16.87011,11.94434,30.66162,28.44434,30.66162,10.58984,0,17.36231-4.31006,24.751-11.20557l9.72851,9.85108c-8.98925,9.35839-18.84082,15.269-34.97168,15.269C925.78516,155.2681,907.06836,135.689,907.06836,110.93851Z"/><path class="cls-2" d="M1002.87012,67.59378H1019.002l26.22852,40.75879L1071.459,67.59378h16.13086v86.19678h-15.14648V91.97513l-27.21289,40.63574h-.49317l-26.96679-40.38965v61.56934h-14.90039Z"/><path class="cls-2" d="M1127.36523,120.78958l-23.02734-32.01611h16.25488l15.02246,21.42627,15.02344-21.42627h15.88477L1143.49609,120.42l24.0127,33.37061h-16.25488l-16.00782-22.78076-15.88476,22.78076h-15.88477Z"/><path class="cls-1" d="M451.33154,213.28958l2.71338-3.22656a11.8182,11.8182,0,0,0,8.10352,3.33691c2.78662,0,4.54638-1.28369,4.54638-3.22705v-.07324c0-1.833-1.02636-2.82324-5.79345-3.92334-5.46289-1.31982-8.543-2.9331-8.543-7.66308v-.07373c0-4.39991,3.6665-7.44336,8.76318-7.44336a14.22545,14.22545,0,0,1,9.31348,3.22705l-2.41992,3.40966a11.65835,11.65835,0,0,0-6.9668-2.63964c-2.64014,0-4.18018,1.35644-4.18018,3.043v.07373c0,1.98,1.17334,2.85986,6.08692,4.0332,5.42676,1.31982,8.25,3.26318,8.25,7.5166v.07324c0,4.80371-3.77686,7.66358-9.167,7.66358A15.81046,15.81046,0,0,1,451.33154,213.28958Z"/><path class="cls-1" d="M484.1123,191.36283h4.51026v25.667H484.1123Z"/><path class="cls-1" d="M502.812,191.36283h4.80371l7.81006,12.13671,7.81006-12.13671h4.80322v25.667h-4.51025V198.62308l-8.103,12.1001h-.147L507.249,198.69632v18.3335h-4.437Z"/><path class="cls-1" d="M541.97266,191.36283h10.12011c5.97705,0,9.75342,3.41015,9.75342,8.58007v.07325c0,5.75683-4.62012,8.76367-10.2666,8.76367h-5.09668v8.25h-4.51025Zm9.75341,13.34667c3.41016,0,5.53711-1.90625,5.53711-4.583v-.07325c0-3.00683-2.16357-4.58349-5.53711-4.58349h-5.24316v9.23974Z"/><path class="cls-1" d="M573.80029,191.36283h4.51026v21.56054h13.49316v4.10645H573.80029Z"/><path class="cls-1" d="M603.83008,191.36283h19.03125v4.03369H608.34082v6.67334h12.87012v4.0332H608.34082v6.89355H623.044v4.03321H603.83008Z"/><path class="cls-1" d="M634.9248,212.00638h4.877v5.02344h-4.877Z"/><path class="cls-1" d="M671.26172,191.36283H690.292v4.03369H675.77148v6.67334H688.6416v4.0332H675.77148v6.89355h14.70411v4.03321H671.26172Z"/><path class="cls-1" d="M703.16211,191.36283h19.10351v4.10693H707.67188v7.00342h12.94433v4.10644H707.67188v10.4502h-4.50977Z"/><path class="cls-1" d="M734.5498,191.36283h19.10352v4.10693H739.05957v7.00342h12.94434v4.10644H739.05957v10.4502H734.5498Z"/><path class="cls-1" d="M766.19336,191.36283h4.50976v25.667h-4.50976Z"/><path class="cls-1" d="M783.75684,204.26956v-.07324a12.98893,12.98893,0,0,1,13.2373-13.27344,13.38075,13.38075,0,0,1,10.04688,3.99659l-2.89747,3.33691a10.206,10.206,0,0,0-7.18652-3.18994c-4.91308,0-8.46973,4.0332-8.46973,9.05664v.07324c0,5.02344,3.55665,9.13037,8.46973,9.13037,3.15332,0,5.16992-1.28369,7.37012-3.33691l2.89648,2.93359a13.24269,13.24269,0,0,1-10.41308,4.54639A12.9088,12.9088,0,0,1,783.75684,204.26956Z"/><path class="cls-1" d="M819.544,191.36283h4.50976v25.667H819.544Z"/><path class="cls-1" d="M838.24316,191.36283h19.03028v4.03369H842.75293v6.67334h12.87012v4.0332H842.75293v6.89355H857.457v4.03321H838.24316Z"/><path class="cls-1" d="M870.14453,191.36283h4.18067l13.75,17.74707V191.36283h4.43652v25.667h-3.77734l-14.15333-18.26026v18.26026h-4.43652Z"/><path class="cls-1" d="M912.752,195.543H904.6123v-4.18017h20.82715V195.543h-8.14062v21.48682H912.752Z"/><path class="cls-1" d="M933.06543,212.00638h4.87695v5.02344h-4.87695Z"/><path class="cls-1" d="M967.67969,213.28958l2.71289-3.22656a11.81817,11.81817,0,0,0,8.10351,3.33691c2.78614,0,4.54688-1.28369,4.54688-3.22705v-.07324c0-1.833-1.02735-2.82324-5.79395-3.92334-5.46289-1.31982-8.543-2.9331-8.543-7.66308v-.07373c0-4.39991,3.667-7.44336,8.76368-7.44336a14.22281,14.22281,0,0,1,9.3125,3.22705l-2.41993,3.40966a11.6572,11.6572,0,0,0-6.96679-2.63964c-2.63965,0-4.17969,1.35644-4.17969,3.043v.07373c0,1.98,1.17383,2.85986,6.08691,4.0332,5.42676,1.31982,8.25,3.26318,8.25,7.5166v.07324c0,4.80371-3.77636,7.66358-9.167,7.66358A15.80834,15.80834,0,0,1,967.67969,213.28958Z"/><path class="cls-1" d="M1000.20312,191.36283h19.03028v4.03369h-14.52051v6.67334H1017.583v4.0332h-12.87012v6.89355h14.7041v4.03321h-19.21387Z"/><path class="cls-1" d="M1030.96777,204.26956v-.07324a12.98894,12.98894,0,0,1,13.23731-13.27344,13.38071,13.38071,0,0,1,10.04687,3.99659l-2.89746,3.33691a10.206,10.206,0,0,0-7.18652-3.18994c-4.91309,0-8.46973,4.0332-8.46973,9.05664v.07324c0,5.02344,3.55664,9.13037,8.46973,9.13037,3.15332,0,5.16992-1.28369,7.37012-3.33691l2.89648,2.93359a13.24271,13.24271,0,0,1-10.41309,4.54639A12.9088,12.9088,0,0,1,1030.96777,204.26956Z"/><path class="cls-1" d="M1066.09473,206.13968V191.36283h4.50976v14.59375c0,4.7666,2.457,7.333,6.49024,7.333,3.99707,0,6.4541-2.41992,6.4541-7.1499V191.36283h4.50976V205.92c0,7.66309-4.32714,11.51319-11.03711,11.51319C1070.34863,217.43314,1066.09473,213.583,1066.09473,206.13968Z"/><path class="cls-1" d="M1101.58887,191.36283h11.44043a10.33948,10.33948,0,0,1,7.40625,2.56689,7.75451,7.75451,0,0,1,2.127,5.53662v.07324c0,4.2168-2.53027,6.74707-6.123,7.77344l6.92969,9.7168h-5.31641l-6.30664-8.94678h-5.64746v8.94678h-4.50976Zm11.11035,12.72363c3.22656,0,5.28027-1.68653,5.28027-4.29v-.07324c0-2.75-1.98047-4.25342-5.31738-4.25342h-6.56348v8.6167Z"/><path class="cls-1" d="M1135.43262,191.36283h19.03027v4.03369h-14.52051v6.67334h12.87012v4.0332h-12.87012v6.89355h14.7041v4.03321h-19.21386Z"/><path class="cls-1" d="M1166.52637,212.00638h4.87695v5.02344h-4.87695Z"/></svg>