<?xml version="1.0" standalone="no"?>
<!DOCTYPE svg PUBLIC "-//W3C//DTD SVG 20010904//EN"
 "http://www.w3.org/TR/2001/REC-SVG-20010904/DTD/svg10.dtd">
<svg version="1.0" xmlns="http://www.w3.org/2000/svg"
 width="377.000000pt" height="66.000000pt" viewBox="0 0 377.000000 66.000000"
 preserveAspectRatio="xMidYMid meet">

<g transform="translate(0.000000,66.000000) scale(0.100000,-0.100000)"
fill="#000000" stroke="none">
<path d="M234 445 c-15 -23 -15 -27 0 -50 29 -44 96 -29 96 21 0 53 -67 73
-96 29z m74 -8 c2 -12 -3 -17 -17 -17 -12 0 -21 6 -21 13 0 31 32 34 38 4z"/>
<path d="M507 452 c-24 -27 -21 -59 8 -78 30 -20 63 -10 76 23 21 55 -45 98
-84 55z m62 -29 c-15 -18 -34 -1 -25 22 5 14 9 15 21 5 12 -10 13 -16 4 -27z"/>
<path d="M1060 392 c-51 -27 -84 -97 -75 -159 13 -88 99 -146 190 -129 30 6
35 11 35 35 0 28 0 28 -39 18 -74 -20 -131 27 -131 108 0 71 86 119 151 85 17
-9 19 -7 19 19 0 17 -6 31 -16 35 -31 12 -100 6 -134 -12z"/>
<path d="M667 200 c-5 -21 0 -25 21 -11 10 6 10 10 -1 20 -12 9 -16 7 -20 -9z"/>
</g>
</svg>
