<?xml version="1.0" standalone="no"?>
<!DOCTYPE svg PUBLIC "-//W3C//DTD SVG 20010904//EN"
 "http://www.w3.org/TR/2001/REC-SVG-20010904/DTD/svg10.dtd">
<svg version="1.0" xmlns="http://www.w3.org/2000/svg"
 width="250.000000pt" height="73.000000pt" viewBox="0 0 250.000000 73.000000"
 preserveAspectRatio="xMidYMid meet">

<g transform="translate(0.000000,73.000000) scale(0.100000,-0.100000)"
fill="#000000" stroke="none">
<path d="M2208 714 c-35 -18 -58 -62 -58 -109 0 -31 -3 -35 -25 -35 -18 0 -25
-5 -25 -20 0 -15 7 -20 25 -20 l25 0 0 -135 0 -135 25 0 25 0 0 135 0 135 80
0 80 0 0 -105 c0 -145 16 -175 94 -175 39 0 45 5 39 30 -3 12 -16 20 -37 22
l-31 3 -3 113 -3 112 41 0 c33 0 40 3 40 20 0 17 -7 20 -40 20 -39 0 -40 1
-40 36 0 33 -2 35 -27 32 -23 -2 -29 -8 -31 -35 l-3 -33 -81 0 -81 0 6 40 c7
53 22 70 62 70 21 0 35 6 39 17 13 33 -47 44 -96 17z"/>
<path d="M320 490 l0 -230 30 0 30 0 0 230 0 230 -30 0 -30 0 0 -230z"/>
<path d="M1400 630 l0 -90 -32 20 c-85 52 -184 -5 -203 -116 -13 -83 34 -173
99 -190 41 -10 96 5 122 33 l24 26 0 -27 c0 -21 5 -26 25 -26 l25 0 0 230 0
230 -30 0 -30 0 0 -90z m-31 -116 c29 -24 31 -30 31 -93 0 -101 -43 -145 -117
-120 -46 15 -66 57 -61 127 4 47 10 60 37 84 39 35 70 36 110 2z"/>
<path d="M93 560 c-71 -36 -103 -109 -83 -190 20 -84 96 -131 187 -117 43 7
58 20 50 41 -5 12 -13 13 -38 6 -76 -22 -149 31 -149 107 0 90 68 147 149 123
26 -7 31 -5 36 12 9 26 6 28 -56 34 -42 4 -63 1 -96 -16z"/>
<path d="M1578 564 c-32 -17 -48 -43 -48 -76 0 -36 24 -63 77 -88 54 -25 63
-35 63 -68 0 -34 -40 -49 -93 -35 -41 11 -56 6 -57 -20 0 -15 56 -29 103 -24
63 6 99 39 99 91 0 45 -17 66 -82 96 -56 26 -70 52 -44 81 19 21 55 25 84 9
14 -7 20 -6 25 7 14 39 -72 58 -127 27z"/>
<path d="M1846 558 c-52 -31 -76 -78 -76 -149 0 -100 67 -164 163 -156 87 8
138 67 138 162 0 95 -51 155 -138 162 -37 3 -57 -1 -87 -19z m127 -39 c56 -43
60 -148 7 -201 -78 -78 -187 24 -151 142 14 46 53 80 91 80 15 0 39 -9 53 -21z"/>
<path d="M568 560 c-99 -30 -154 -148 -114 -245 16 -38 27 -43 46 -20 8 10 9
19 3 28 -34 42 -19 121 33 166 29 26 43 31 88 31 38 0 61 -6 78 -20 21 -16 28
-17 42 -7 16 12 15 14 -6 33 -42 39 -110 52 -170 34z"/>
<path d="M832 446 c3 -136 16 -171 70 -190 34 -12 90 0 116 24 27 25 32 25 32
0 0 -15 7 -20 25 -20 l25 0 0 155 0 155 -30 0 -30 0 0 -109 c0 -94 -3 -112
-21 -135 -16 -20 -29 -26 -59 -26 -60 0 -70 22 -70 157 l0 113 -31 0 -31 0 4
-124z"/>
<path d="M715 441 c-50 -23 -83 -58 -100 -108 -10 -29 -20 -40 -44 -47 -18 -5
-45 -24 -61 -43 -51 -58 -38 -161 27 -213 l28 -21 9 21 c8 17 6 25 -5 34 -66
49 -65 137 1 171 29 15 30 15 30 -5 0 -13 7 -20 20 -20 14 0 20 7 20 23 0 13
7 46 15 75 17 55 51 90 97 99 21 4 28 11 28 29 0 29 -12 30 -65 5z"/>
</g>
</svg>
