<?xml version="1.0" standalone="no"?>
<!DOCTYPE svg PUBLIC "-//W3C//DTD SVG 20010904//EN"
 "http://www.w3.org/TR/2001/REC-SVG-20010904/DTD/svg10.dtd">
<svg version="1.0" xmlns="http://www.w3.org/2000/svg"
 width="1877.000000pt" height="348.000000pt" viewBox="0 0 1877.000000 348.000000"
 preserveAspectRatio="xMidYMid meet">

<g transform="translate(0.000000,348.000000) scale(0.100000,-0.100000)"
fill="#000000" stroke="none">
<path d="M487 3454 c-79 -19 -200 -83 -265 -140 -103 -90 -179 -219 -207 -350
-22 -102 -22 -1655 0 -1759 47 -222 220 -410 450 -487 l70 -23 1063 -3 1063
-3 252 -197 c553 -434 619 -484 626 -476 5 5 27 148 50 319 24 171 45 320 48
331 4 19 14 22 81 28 108 10 155 23 252 69 116 54 240 176 293 287 69 143 67
114 67 1035 0 922 2 891 -67 1033 -53 107 -177 233 -283 284 -146 72 -27 68
-1820 67 -1356 -1 -1624 -3 -1673 -15z m1643 -439 c218 -46 424 -186 547 -371
26 -39 41 -53 52 -49 195 75 429 -46 483 -249 11 -43 15 -47 63 -61 128 -37
256 -149 319 -277 71 -145 71 -307 1 -457 -44 -91 -152 -203 -237 -244 -124
-59 -91 -58 -1226 -55 l-1037 3 -57 23 c-125 50 -231 157 -280 281 -32 81 -32
242 1 324 47 120 158 232 270 273 25 10 51 23 57 30 6 8 14 47 17 87 26 306
256 595 567 711 123 46 325 59 460 31z"/>
<path d="M1450 2358 c-66 -46 -93 -111 -79 -192 8 -46 34 -83 79 -113 47 -32
143 -32 191 0 57 38 79 81 79 152 0 71 -22 114 -79 152 -48 32 -144 32 -191 1z"/>
<path d="M2540 2208 c-66 -46 -93 -111 -79 -192 8 -46 34 -83 79 -113 47 -32
143 -32 191 0 57 38 79 81 79 152 0 71 -22 114 -79 152 -48 32 -144 32 -191 1z"/>
<path d="M1940 2048 c-66 -46 -93 -111 -79 -192 8 -46 34 -83 79 -113 47 -32
143 -32 191 0 57 38 79 81 79 152 0 71 -22 114 -79 152 -48 32 -144 32 -191 1z"/>
<path d="M3080 1898 c-66 -46 -93 -111 -79 -192 8 -46 34 -83 79 -113 25 -18
47 -23 95 -23 48 0 70 5 95 23 61 41 75 70 75 152 0 82 -14 111 -75 153 -25
17 -47 22 -95 22 -48 0 -70 -5 -95 -22z"/>
<path d="M6201 3217 l-22 -24 3 -749 3 -749 23 -57 c30 -74 103 -155 167 -184
39 -19 67 -24 128 -24 69 0 81 3 102 25 17 16 25 35 25 60 0 57 -35 85 -106
85 -72 0 -105 20 -141 84 l-28 51 -5 731 c-5 702 -6 733 -24 753 -28 30 -95
29 -125 -2z"/>
<path d="M11071 3214 c-20 -26 -21 -38 -21 -382 l0 -354 -68 63 c-152 144
-358 199 -565 153 -226 -51 -401 -223 -463 -454 -23 -88 -23 -262 0 -350 60
-223 242 -404 457 -455 82 -19 256 -19 337 0 215 51 401 235 455 451 27 105
29 197 22 761 -9 631 -3 593 -89 593 -36 0 -48 -5 -65 -26z m-366 -679 c86
-23 149 -61 215 -131 99 -107 136 -213 128 -373 -11 -207 -121 -358 -313 -431
-82 -31 -224 -32 -309 -1 -126 45 -214 125 -272 246 -116 245 -20 541 213 659
90 45 232 58 338 31z"/>
<path d="M15963 3189 c-51 -15 -83 -61 -83 -121 0 -44 4 -54 34 -84 30 -30 40
-34 84 -34 102 0 155 92 110 187 -22 45 -88 69 -145 52z"/>
<path d="M5233 2695 c-107 -23 -189 -70 -279 -160 -132 -130 -184 -263 -184
-470 0 -127 17 -208 61 -299 82 -168 224 -284 404 -331 78 -20 262 -20 340 0
128 34 275 132 275 184 0 30 -52 81 -83 81 -14 0 -48 -16 -77 -36 -73 -50
-132 -73 -217 -85 -204 -28 -395 68 -480 241 -41 84 -52 136 -53 244 0 212 90
370 256 448 52 24 83 32 153 36 140 8 242 -31 347 -130 67 -63 103 -71 144
-30 16 17 30 38 30 48 0 48 -112 159 -212 210 -117 59 -287 79 -425 49z"/>
<path d="M7266 2694 c-232 -52 -409 -222 -472 -455 -23 -87 -24 -262 -1 -349
31 -116 83 -207 166 -290 129 -128 261 -180 456 -180 63 0 138 7 175 16 220
51 399 229 456 454 22 86 22 254 0 340 -54 211 -211 382 -411 446 -103 33
-266 41 -369 18z m279 -159 c163 -43 285 -167 330 -336 20 -73 19 -212 -1
-280 -70 -235 -288 -376 -526 -339 -324 50 -499 401 -352 708 97 202 326 305
549 247z"/>
<path d="M12032 2690 c-214 -56 -375 -224 -428 -445 -22 -93 -23 -268 0 -359
53 -217 234 -400 447 -451 95 -22 258 -20 349 6 86 23 217 89 250 124 33 35
31 82 -4 112 -38 32 -63 29 -133 -16 -291 -190 -663 -60 -748 260 -27 99 -81
89 478 89 458 0 495 1 509 18 26 29 29 56 18 149 -27 217 -131 378 -301 468
-124 65 -293 83 -437 45z m339 -173 c90 -43 143 -97 189 -190 21 -45 42 -103
46 -129 l6 -48 -430 0 -430 0 9 39 c37 167 141 291 283 340 50 17 80 21 166
18 90 -3 113 -7 161 -30z"/>
<path d="M13465 2694 c-110 -24 -206 -75 -291 -157 -87 -82 -143 -170 -176
-277 -33 -108 -33 -292 0 -400 59 -190 207 -347 385 -410 78 -28 271 -39 356
-20 97 21 195 75 277 152 l74 71 0 -90 c0 -81 2 -92 23 -111 33 -31 96 -30
125 1 22 23 22 28 22 364 0 305 -2 348 -20 417 -73 286 -324 477 -625 475 -44
0 -111 -7 -150 -15z m276 -160 c88 -26 150 -63 209 -123 229 -235 168 -641
-119 -784 -278 -139 -605 12 -676 314 -62 264 86 526 336 593 73 20 183 20
250 0z"/>
<path d="M14892 2690 c-97 -26 -164 -64 -217 -122 -59 -66 -79 -128 -73 -229
4 -69 9 -85 39 -129 69 -101 185 -162 384 -199 202 -38 294 -79 342 -150 48
-71 19 -179 -63 -231 -62 -39 -131 -54 -244 -54 -147 1 -244 35 -337 118 -60
55 -95 59 -142 20 -23 -19 -31 -34 -31 -58 0 -72 149 -174 314 -216 98 -25
280 -27 375 -5 129 31 244 114 293 212 32 66 33 196 2 263 -48 103 -173 183
-345 220 -287 63 -350 86 -390 142 -30 41 -36 115 -14 161 21 46 91 92 160
108 29 6 92 10 141 7 109 -5 172 -31 258 -106 62 -54 102 -66 147 -41 56 30
41 97 -40 172 -128 119 -363 168 -559 117z"/>
<path d="M16985 2704 c-89 -21 -119 -31 -180 -62 -48 -24 -92 -56 -140 -106
-126 -128 -179 -267 -179 -471 1 -176 36 -289 130 -414 76 -102 207 -185 336
-216 93 -22 257 -19 346 5 84 23 180 69 235 112 31 25 37 36 37 68 0 30 -6 43
-26 59 -35 28 -63 26 -108 -4 -113 -77 -228 -110 -347 -101 -210 15 -373 146
-424 341 -27 106 -83 95 478 95 580 0 532 -11 529 119 -7 260 -167 483 -399
557 -47 15 -248 28 -288 18z m246 -174 c141 -44 249 -178 275 -340 l7 -40
-431 0 -430 0 14 60 c36 155 143 276 283 321 78 25 201 25 282 -1z"/>
<path d="M18423 2695 c-81 -22 -132 -52 -200 -118 l-63 -60 0 50 c0 67 -16
108 -46 122 -56 25 -109 4 -125 -48 -6 -24 -9 -230 -7 -602 3 -541 4 -568 22
-588 27 -30 105 -30 132 0 18 20 19 46 24 438 6 467 3 452 81 536 85 92 205
131 371 121 106 -7 108 -7 133 18 49 49 24 107 -57 131 -64 19 -195 19 -265 0z"/>
<path d="M8443 2690 c-43 -18 -44 -31 -40 -448 3 -336 6 -404 20 -445 64 -187
196 -314 377 -363 89 -24 255 -24 335 0 81 24 144 58 210 111 l55 45 0 -54 c0
-75 25 -106 86 -106 52 0 80 23 89 72 3 18 5 284 3 591 l-3 559 -28 24 c-41
35 -113 27 -134 -15 -4 -9 -10 -198 -13 -421 l-5 -405 -27 -50 c-71 -136 -224
-212 -402 -202 -149 8 -258 63 -325 164 -62 93 -64 110 -70 530 -7 423 -4 409
-72 418 -19 3 -44 0 -56 -5z"/>
<path d="M15943 2676 l-28 -24 -3 -569 c-1 -312 0 -578 3 -591 15 -59 96 -83
146 -43 l24 19 3 587 2 586 -29 30 c-37 36 -79 38 -118 5z"/>
</g>
</svg>
