<svg id="Layer_1" data-name="Layer 1" xmlns="http://www.w3.org/2000/svg" viewBox="0 0 1024.23 98.21"><defs><style>.cls-1{fill:#102752;}.cls-2{fill:#25d692;}</style></defs><path class="cls-1" d="M178.43,463.38h-.59c-27.54,0-49.95,21.78-49.95,48.54s22.41,48.55,49.9,48.54h.65a51.78,51.78,0,0,0,28.26-9l.62-.43V533.56l-2.58,3.13a36.28,36.28,0,0,1-26.89,11.81,36.57,36.57,0,1,1,27-61.22l2.59,3.22V472.89l-.62-.43A52.79,52.79,0,0,0,178.43,463.38Z" transform="translate(-127.89 -462.89)"/><polygon class="cls-1" points="136.09 0.75 123.06 4.64 123.06 95.57 179.24 95.57 183.38 83.84 136.09 83.84 136.09 0.75"/><path class="cls-1" d="M560.73,520.11c0,13.63-2.7,29.27-23.71,29.27-16.65,0-24.75-9.57-24.75-29.27V463.9l-13,3.89v52.32c-.09,14.39,3.15,24.7,9.92,31.5,6.26,6.3,15.63,9.5,27.85,9.5,32.33,0,36.62-21.91,36.74-41V463.9l-13,3.89Z" transform="translate(-127.89 -462.89)"/><path class="cls-1" d="M688.09,479.16c-8.62-9-21.68-14-36.78-14H621.06v93.31h30.25c14.76,0,27.73-5.1,36.54-14.36,8-8.43,12.1-19.93,11.48-32.23C700,498.83,696.06,487.52,688.09,479.16Zm-10.61,56.57a35.19,35.19,0,0,1-26.17,11H634.09V477h17.22c10.83,0,20.29,3.73,26.64,10.49,5.9,6.28,8.82,14.89,8.23,24.22v.2A31.88,31.88,0,0,1,677.48,535.73Z" transform="translate(-127.89 -462.89)"/><path class="cls-1" d="M773,504.62l-1.76-.6c-9.68-3.36-20.65-7.16-20.65-14.75,0-9.32,5.56-13.66,17.48-13.66,12.32,0,21.38,5.11,25.39,9.48l2.53,2.75v-15l-.44-.43c-2.82-2.74-11.14-9.1-27.48-9.1-15.06,0-31.15,6.83-31.15,26,0,17,19.59,23.53,29,26.69l1.15.38c10.55,3.47,22.5,7.42,22.5,15.74,0,10.31-7.37,15.54-21.89,15.54-9.37,0-23-6.62-28.64-11.37l-2.39-2v14.87l.5.44c3.59,3.09,13.75,10.3,30.53,10.3,23.6,0,35.56-9.35,35.56-27.77C803.24,514.91,785,508.72,773,504.62Z" transform="translate(-127.89 -462.89)"/><path class="cls-1" d="M889.32,463.39c-27.55,0-50,21.77-50,48.54s22.42,48.55,50,48.55,50-21.78,50-48.55S916.87,463.39,889.32,463.39Zm0,85.11A36.57,36.57,0,1,1,926,511.93,36.66,36.66,0,0,1,889.32,548.5Z" transform="translate(-127.89 -462.89)"/><polygon class="cls-1" points="854.12 95.57 867.15 95.57 867.15 55.53 902.14 55.53 906.28 43.8 867.15 43.8 867.15 14.61 910.18 14.61 914.31 2.76 854.12 2.76 854.12 95.57"/><polygon class="cls-1" points="950.58 2.63 946.46 14.48 978.83 14.48 978.83 95.57 991.86 95.57 991.86 14.48 1020.1 14.48 1024.23 2.63 950.58 2.63"/><path class="cls-2" d="M361.6,511.2a36.23,36.23,0,0,1,66.54-19.84h13.72a48.3,48.3,0,0,0-92,13.8H319.34v12.07H361.6Z" transform="translate(-127.89 -462.89)"/><path class="cls-2" d="M434.07,512.71a36.24,36.24,0,0,1-67.21,18.81H353.33a48.31,48.31,0,0,0,92.43-12.78h30.57V506.67H434.07Z" transform="translate(-127.89 -462.89)"/></svg>