<?xml version="1.0" encoding="utf-8"?>
<!-- Generator: Adobe Illustrator 22.0.0, SVG Export Plug-In . SVG Version: 6.00 Build 0)  -->
<svg version="1.1" id="Layer_1" xmlns="http://www.w3.org/2000/svg" xmlns:xlink="http://www.w3.org/1999/xlink" x="0px" y="0px"
	 viewBox="0 0 220 113" style="enable-background:new 0 0 220 113;" xml:space="preserve">
<style type="text/css">
	.st0{fill:#FFFFFF;}
	.st1{fill:#25548D;}
	.st2{fill:#3D7AB4;}
	.st3{fill:#3D87C3;}
	.st4{fill:#366EAA;}
	.st5{fill:#1D4680;}
	.st6{fill:#3E94D0;}
	.st7{fill:#46A8C6;}
	.st8{fill:#2E5F9A;}
	.st9{fill:#C24327;}
	.st10{fill:#D15527;}
	.st11{fill:#E68D24;}
	.st12{fill:#EDC51A;}
	.st13{fill:#B12F25;}
	.st14{fill:#EEA71F;}
</style>
<path id="Stroke_Layer" class="st0" d="M26.102,85.695l2.949-17.511c0.075-0.448-0.161-0.891-0.576-1.078L0.59,54.553
	c-0.6-0.27-0.78-1.037-0.363-1.546L43.393,0.366c0.322-0.392,0.886-0.482,1.313-0.208l36.263,23.27
	c0.403,0.258,0.932,0.195,1.263-0.151l5.712-5.976c0.364-0.381,0.962-0.414,1.365-0.075l20.874,17.502
	c0.36,0.302,0.883,0.312,1.254,0.025L142.41,10.79c0.33-0.255,0.784-0.279,1.139-0.059l8.87,5.495
	c0.287,0.178,0.643,0.199,0.949,0.056l23.031-10.728c0.376-0.175,0.822-0.1,1.12,0.19l25.736,25.034
	c0.213,0.207,0.323,0.498,0.3,0.794l-1.156,14.946c-0.029,0.374,0.154,0.732,0.473,0.929l15.736,9.683
	c0.442,0.272,0.602,0.837,0.369,1.301l-23.458,46.672c-0.271,0.54-0.955,0.718-1.455,0.378l-27.038-18.348
	c-0.447-0.303-1.053-0.197-1.37,0.239l-3.136,4.312c-0.341,0.469-1.008,0.55-1.451,0.178l-16.343-13.713
	c-0.374-0.314-0.92-0.312-1.292,0.005l-30.615,26.121c-0.293,0.25-0.704,0.31-1.056,0.153l-13.781-6.147
	c-0.265-0.118-0.568-0.115-0.831,0.008l-31.019,14.522c-0.318,0.149-0.692,0.12-0.983-0.077L26.528,86.69
	C26.203,86.47,26.036,86.081,26.102,85.695z"/>
<g id="Stained_Glass">
	<g id="Layer_4_1_">
		<polygon class="st1" points="71.207,42.85 45.107,6.95 35.307,64.15 46.107,68.95 		"/>
		<polygon class="st2" points="8.207,51.95 35.307,64.15 45.107,6.95 		"/>
		<polygon class="st3" points="82.507,30.95 45.107,6.95 71.207,42.85 		"/>
		<polygon class="st4" points="80.307,55.45 86.507,33.45 82.507,30.95 71.207,42.85 		"/>
		<polygon class="st5" points="46.107,68.95 73.207,81.15 80.307,55.45 71.207,42.85 		"/>
		<polygon class="st3" points="35.307,64.15 32.007,83.75 46.107,68.95 		"/>
		<polygon class="st6" points="46.107,68.95 32.007,83.75 66.107,106.75 73.207,81.15 		"/>
		<polygon class="st7" points="66.107,106.75 97.507,92.05 73.207,81.15 		"/>
		<polygon class="st8" points="80.307,55.45 104.507,88.85 144.107,70.35 86.507,33.45 		"/>
		<polygon class="st1" points="80.307,55.45 73.207,81.15 97.507,92.05 104.507,88.85 		"/>
		<polygon class="st2" points="104.507,88.85 97.507,92.05 111.407,98.25 		"/>
		<polygon class="st6" points="111.407,98.25 144.107,70.35 104.507,88.85 		"/>
		<polygon class="st7" points="144.107,70.35 89.007,24.15 86.507,33.45 		"/>
		<polygon class="st6" points="89.007,24.15 82.507,30.95 86.507,33.45 		"/>
		<g>
			<polygon class="st9" points="173.707,66.75 192.907,98.05 196.607,50.05 189.207,45.35 			"/>
			<polygon class="st10" points="212.207,59.65 196.607,50.05 192.907,98.05 			"/>
			<polygon class="st11" points="164.907,79.05 192.907,98.05 173.707,66.75 			"/>
			<polygon class="st11" points="189.207,45.35 197.907,33.25 175.907,11.85 171.207,34.35 			"/>
			<polygon class="st12" points="175.907,11.85 152.507,22.75 171.207,34.35 			"/>
			<polygon class="st11" points="143.307,17.05 110.607,42.35 148.107,24.85 			"/>
			<polygon class="st10" points="152.507,22.75 143.307,17.05 148.107,24.85 			"/>
			<polygon class="st10" points="166.907,55.55 148.107,24.85 110.607,42.35 162.407,77.35 			"/>
			<polygon class="st9" points="166.907,55.55 171.207,34.35 152.507,22.75 148.107,24.85 			"/>
			<polygon class="st13" points="171.207,34.35 166.907,55.55 173.707,66.75 189.207,45.35 			"/>
			<polygon class="st9" points="173.707,66.75 166.907,55.55 162.407,77.35 164.907,79.05 164.907,79.05 			"/>
			<polygon class="st11" points="160.907,84.55 164.907,79.05 162.407,77.35 			"/>
			<polygon class="st12" points="110.607,42.35 160.907,84.55 162.407,77.35 			"/>
			<polygon class="st14" points="196.607,50.05 197.907,33.25 189.207,45.35 			"/>
		</g>
	</g>
</g>
<g id="CloudZero">
	<g id="CloudZero_Word">
		<path class="st0" d="M30.007,56.85L30.007,56.85c0-5.6,4.3-10,10.1-10c3.9,0,6.4,1.6,8.1,4l-4,3c-1.1-1.3-2.4-2.2-4.2-2.2
			c-2.7,0-4.6,2.3-4.6,5.1v0.1c0,2.9,1.9,5.1,4.6,5.1c2,0,3.2-0.9,4.3-2.3l4,2.8c-1.8,2.5-4.2,4.3-8.5,4.3
			C34.407,66.75,30.007,62.55,30.007,56.85z"/>
		<path class="st0" d="M49.807,47.15h5.3v14.5h9.3v4.7h-14.6V47.15z"/>
		<path class="st0" d="M64.707,56.85L64.707,56.85c0-5.6,4.4-10,10.3-10s10.3,4.4,10.3,9.9v0.1c0,5.5-4.4,10-10.3,10
			C69.107,66.75,64.707,62.35,64.707,56.85z M79.907,56.85L79.907,56.85c0-2.8-2-5.2-4.9-5.2s-4.9,2.4-4.9,5.1v0.1
			c0,2.8,2,5.2,4.9,5.2C78.007,61.95,79.907,59.55,79.907,56.85z"/>
		<path class="st0" d="M87.207,57.95v-10.8h5.4v10.7c0,2.8,1.4,4.1,3.5,4.1c2.2,0,3.6-1.3,3.6-3.9v-10.9h5.4v10.6
			c0,6.2-3.5,8.9-9,8.9S87.207,63.95,87.207,57.95z"/>
		<path class="st0" d="M107.707,47.15h7.4c6.8,0,10.8,3.9,10.8,9.5v0.1c0,5.5-4,9.6-10.9,9.6h-7.3V47.15z M113.007,51.85v9.8h2.2
			c3.2,0,5.3-1.8,5.3-4.8v-0.1c0-3.1-2.1-4.9-5.3-4.9H113.007L113.007,51.85z"/>
		<path class="st0" d="M126.807,62.45l9.6-10.8h-9.3v-4.5h16.6v3.8l-9.6,10.9h9.6v4.5h-16.9V62.45z"/>
		<path class="st0" d="M146.007,47.15h15.4v4.5h-10.2v2.9h9.2v4.2h-9.2v3h10.3v4.5h-15.5V47.15L146.007,47.15z"/>
		<path class="st0" d="M164.007,47.15h9.1c2.9,0,5,0.8,6.2,2.1c1.1,1.1,1.7,2.6,1.7,4.5v0.1c0,3-1.6,4.9-3.9,5.9l4.6,6.7h-6.1
			l-3.9-5.8h-2.4v5.8h-5.3L164.007,47.15L164.007,47.15z M172.807,56.35c1.8,0,2.8-0.9,2.8-2.3v-0.1c0-1.5-1.1-2.3-2.9-2.3h-3.5v4.7
			H172.807L172.807,56.35z"/>
		<path class="st0" d="M182.007,56.85L182.007,56.85c0-5.6,4.4-10,10.3-10c5.9,0,10.3,4.4,10.3,9.9v0.1c0,5.5-4.4,10-10.3,10
			C186.407,66.75,182.007,62.35,182.007,56.85z M197.207,56.85L197.207,56.85c0-2.8-2-5.2-4.9-5.2s-4.9,2.4-4.9,5.1v0.1
			c0,2.8,2,5.2,4.9,5.2C195.207,61.95,197.207,59.55,197.207,56.85z"/>
	</g>
</g>
</svg>
