<svg xmlns="http://www.w3.org/2000/svg" xmlns:xlink="http://www.w3.org/1999/xlink" viewBox="0 0 101 18" fill="#fff" fill-rule="evenodd" stroke="#000" stroke-linecap="round" stroke-linejoin="round"><use xlink:href="#A" x=".5" y=".5"/><symbol id="A" overflow="visible"><path d="M23.977.028c.512.117 1.053.16 1.565.322 3.144.994 4.97 3.13 5.47 6.375.292 1.886.03 3.685-.892 5.366-1.214 2.193-3.13 3.407-5.556 3.846l-.702.117h-1.685L21.972 16c-1.316-.146-2.544-.556-3.64-1.287a7.34 7.34 0 0 1-2.632-3.027c-.102-.22-.16-.205-.292-.015l-.82 1.097c-.907 1.17-1.974 2.106-3.363 2.676-.775.322-1.565.483-2.383.614H7.077l-.614-.102c-2.9-.54-4.942-2.15-5.995-4.942C.218 10.366.118 9.68 0 8.992V7.047l.102-.614c.512-2.705 2-4.664 4.518-5.776C5.38.32 6.185.174 7.003.043h1.945l.25.044c1.477.175 2.807.746 3.977 1.667.2.146.22.263.058.453l-1.5 1.9c-.146.2-.263.2-.44.044a4.7 4.7 0 0 0-1.024-.658 5.57 5.57 0 0 0-3.114-.497c-1.608.175-2.807.994-3.5 2.5-.54 1.155-.6 2.37-.44 3.612.25 1.945 1.638 3.495 3.524 3.9a5.14 5.14 0 0 0 4.109-.804 8.91 8.91 0 0 0 3.539-4.65 28.08 28.08 0 0 1 1.243-3.071c.848-1.8 2.193-3.07 4.02-3.846.76-.322 1.58-.453 2.383-.614l1.945.015zm-1.506 2.94c-1.565.044-3.144.907-3.992 2.866-.556 1.272-.57 2.617-.175 3.948.25.877.746 1.623 1.448 2.223 1.1.936 2.427 1.228 3.846 1.082 1.682-.16 3.012-.95 3.802-2.5.643-1.257.73-2.603.4-3.963-.526-2.266-2.383-3.67-5.337-3.655zm68.592 13.086c-.716-.117-1.448-.22-2.135-.483-2.866-1.082-4.533-3.13-5.03-6.14-.307-1.857-.073-3.64.804-5.322 1.184-2.266 3.114-3.524 5.6-3.992L90.916 0h1.945l.98.175c2.954.687 4.928 2.442 5.82 5.366.175.585.234 1.184.336 1.77v1.374l-.102.673c-.483 2.998-2.135 5.06-4.97 6.156-.702.278-1.448.38-2.18.497-.556.044-1.126.044-1.682.044zm.833-2.954c2.15 0 3.83-1.038 4.577-2.924a5.65 5.65 0 0 0-.073-4.445c-.497-1.184-1.4-2-2.588-2.442-1.214-.453-2.456-.453-3.685-.058-.804.263-1.5.702-2.018 1.374-1.316 1.652-1.477 3.5-.82 5.44.673 1.96 2.427 3.056 4.606 3.056zM79.2 10.434c.058-.687-.03-1.287-.03-1.886V.734c0-.424 0-.424.4-.424h2.383c.263 0 .366.088.366.35v14.794c0 .25-.088.35-.35.35-.848 0-1.696-.015-2.53 0-.234 0-.35-.117-.483-.292l-4.738-6.624-2.252-3.158c-.044-.073-.102-.132-.2-.22v.483l.015 9.46c0 .25-.088.35-.336.35a68.08 68.08 0 0 0-2.442 0c-.263 0-.395-.088-.366-.366.015-.2 0-.38 0-.57V.554a.21.21 0 0 1 .25-.25h2.75c.2 0 .278.132.366.25l6.946 9.54a1.46 1.46 0 0 0 .234.322zm-36-.102V8.446l-.03-1.404V.734c0-.4.015-.424.424-.424h2.193c.54 0 .54 0 .54.526v14.622c.03.263-.088.35-.35.35a69.45 69.45 0 0 0-2.5 0c-.22 0-.366-.088-.483-.263L36.04 5.807c-.058-.088-.102-.175-.205-.234-.073.102-.03.205-.03.307l.015 9.5c0 .424 0 .44-.44.44h-2.3c-.278 0-.366-.088-.366-.366V.734c0-.278.073-.395.366-.38h2.442c.263 0 .424.102.57.307l6.287 8.656.8 1.067c-.015-.03 0-.03.03-.044zm11.507-10h6.068c.4 0 .4 0 .4.424V2.76c0 .468-.015.483-.468.483h-3.875c-.658 0-.585-.044-.585.6v11.512c0 .468 0 .468-.468.468h-2.192c-.468 0-.483-.015-.483-.468v-11.7c0-.322-.102-.4-.4-.4L48.6 3.27c-.292 0-.4-.088-.395-.395V.814c0-.453 0-.453.44-.453L54.7.33zm11.757 7.75v7.296c0 .424 0 .44-.44.44H63.79c-.483 0-.497-.015-.497-.483V.804c0-.468 0-.483.453-.483H66c.44 0 .44 0 .44.424l.015 7.326z" stroke="none" fill="#1c1c1c" fill-rule="nonzero"/></symbol></svg>