<svg id="Layer_1" data-name="Layer 1" xmlns="http://www.w3.org/2000/svg" viewBox="0 0 647.28433 116.78277"><defs><style>.cls-1{fill:#5c5c5c;}</style></defs><path class="cls-1" d="M639.54632,61.35839c-.45727,2.99917-.77917,6.02625-1.39387,8.993a47.13145,47.13145,0,0,1-38.45,37.18258c-13.68186,2.43408-26.81517,1.0027-38.88624-6.223-13.05548-7.815-20.43449-19.50576-22.60379-34.48118-1.65276-11.40954-.38077-22.44586,4.94472-32.77846,7.00971-13.60053,18.37872-21.62784,33.21051-24.79978,12.05117-2.57726,23.8805-1.62748,35.14064,3.55861,15.08249,6.94654,23.8191,18.88752,26.95147,35.02851.4828,2.48779.73028,5.021,1.08659,7.53317Zm-82.7157-2.3957c.05773.76356.13691,2.09.26145,3.41226.82749,8.78684,4.353,16.22536,11.41085,21.69407,7.1023,5.50319,15.28377,7.32948,24.14431,6.31013,8.72672-1.004,16.15422-4.56627,21.30986-11.80457,7.20985-10.12222,8.01586-21.3495,4.06669-32.76558-7.56607-21.87191-35.31891-24.9719-49.93794-12.97641C560.04115,39.43357,556.98194,48.30238,556.83062,58.96269Z"/><path class="cls-1" d="M92.5104,19.91408l-11.562,14.65814c-.98936-.7361-1.87761-1.45158-2.819-2.089C67.58171,25.341,56.2895,23.85036,44.44619,28.60264c-7.61846,3.057-12.48179,9.01428-14.9378,16.68947C25.9642,56.368,26.326,67.28741,32.5685,77.42967,37.304,85.12353,44.46982,89.282,53.44056,90.38945c10.74844,1.32688,19.725-2.45989,27.92823-9.1133,9.0266-7.32124,14.57164-16.74561,18.3864-27.52489a161.98959,161.98959,0,0,1,8.34068-19.87c7.24819-14.14056,19.26492-22.14261,34.76135-24.94459,13.45106-2.43214,26.34465-.6703,38.219,6.36652,12.33959,7.31255,19.501,18.3306,22.12879,32.263,2.2444,11.89953,1.1972,23.53662-4.2843,34.46872-7.0639,14.08792-18.764,22.30266-34.05624,25.42471A55.64313,55.64313,0,0,1,132.956,104.9108a46.25957,46.25957,0,0,1-25.30978-22.8893c-.41238-.81641-.85374-1.61825-1.39983-2.65027-.566.75559-.93951,1.28563-1.34482,1.79026-3.33084,4.14707-6.42829,8.51183-10.051,12.38814-8.21078,8.78548-18.56448,13.47418-30.4861,14.69931-12.34932,1.26912-24.02451-.78072-34.55868-7.64031-11.78321-7.67292-18.504-18.65986-20.86266-32.3938-1.91092-11.12678-1.039-22.01965,3.73145-32.308C19.71589,20.72076,31.81926,11.83748,48.25336,8.88855,60.89218,6.62064,73.027,8.18,84.32916,14.52107,87.11072,16.08165,89.67387,18.02939,92.5104,19.91408Zm60.85511,5.96685c-1.76555.15486-3.5469.20891-5.29412.48093-11.303,1.75976-19.39341,7.7528-23.878,18.32669a35.87229,35.87229,0,0,0-2.32995,17.26322c.81324,9.75649,4.89065,17.767,13.11938,23.32923,7.22894,4.88643,15.32659,6.24823,23.85935,4.94025,8.23447-1.26224,15.18763-4.94358,20.0749-11.82556,6.39329-9.00273,7.42-19.06983,4.85995-29.494C180.28709,34.69113,168.52977,26.01046,153.36551,25.88093Z"/><path class="cls-1" d="M460.93682,42.12969v64.61422H441.9863V9.90091h1.53486c5.4471,0,10.89456.03175,16.341-.02618a2.66661,2.66661,0,0,1,2.46312,1.24887Q484.49277,41.599,506.71814,72.03239c.43292.59338.9167,1.14986,1.6747,2.09508V9.99063h18.903v96.83869h-1.712c-5.22477,0-10.45076-.06145-15.67358.03958a3.29275,3.29275,0,0,1-3.10342-1.62381Q484.70657,74.317,462.51984,43.45031c-.373-.51986-.79082-1.00774-1.18775-1.51053Z"/><path class="cls-1" d="M281.11044,73.57511c0-1.30456.00352-2.60912-.00053-3.91367Q281.02,40.73609,280.901,11.81087c-.008-1.504.40257-1.97556,1.96112-1.94839,5.60813.09774,11.219.03838,16.99125.03838v96.92849h-2.60807c-4.94588,0-9.89259-.04919-14.83711.0328a3.05965,3.05965,0,0,1-2.86086-1.46983Q257.58932,74.67856,235.566,44.01123a7.875,7.875,0,0,0-1.95408-2.04284,13.06247,13.06247,0,0,0-.1536,1.46587q.14406,30.91617.32506,61.83214c.00787,1.23519-.388,1.606-1.63236,1.59039-5.22294-.06547-10.44849-.09368-15.67008.01247-1.58335.03218-1.9513-.481-1.94747-1.96325q.064-24.772.02656-49.54436Q214.56,33.7483,214.5611,12.135c.00029-2.23277.00621-2.23369,2.27418-2.23395,5.16818-.00059,10.33712.048,15.504-.03441a2.93166,2.93166,0,0,1,2.7197,1.41349q22.115,30.39771,44.29135,60.751c.41758.57226.86966,1.11948,1.30566,1.67838Z"/><path class="cls-1" d="M343.87056,27.68673H312.89245V10.03036h81.00778v17.5918H363.0476v79.07131h-19.177Z"/><path class="cls-1" d="M427.28906,106.75489h-18.9977v-96.724h18.9977Z"/></svg>