<?xml version="1.0" standalone="no"?>
<!DOCTYPE svg PUBLIC "-//W3C//DTD SVG 20010904//EN"
 "http://www.w3.org/TR/2001/REC-SVG-20010904/DTD/svg10.dtd">
<svg version="1.0" xmlns="http://www.w3.org/2000/svg"
 width="600.000000pt" height="180.000000pt" viewBox="0 0 600.000000 180.000000"
 preserveAspectRatio="xMidYMid meet">

<g transform="translate(0.000000,180.000000) scale(0.100000,-0.100000)"
fill="#000000" stroke="none">
<path d="M2080 915 l0 -285 35 0 35 0 0 64 c0 61 2 65 37 95 20 17 39 31 43
31 4 0 37 -43 74 -95 63 -89 69 -95 102 -95 41 0 45 -10 -53 127 -40 56 -73
105 -73 110 0 4 37 45 82 90 l83 83 -40 0 c-38 0 -47 -7 -140 -100 -55 -55
-103 -100 -107 -100 -5 0 -8 81 -8 180 l0 180 -35 0 -35 0 0 -285z"/>
<path d="M2950 915 l0 -285 29 0 c24 0 30 5 33 25 l3 25 39 -27 c33 -24 48
-28 106 -28 61 0 72 3 107 31 21 16 48 50 61 75 48 91 13 238 -70 288 -66 41
-149 34 -208 -15 l-30 -26 0 111 0 111 -35 0 -35 0 0 -285z m258 56 c20 -11
46 -34 56 -51 24 -42 26 -124 2 -168 -34 -64 -120 -91 -186 -57 -48 25 -60 51
-60 135 1 83 10 102 71 139 42 26 69 26 117 2z"/>
<path d="M5158 1113 c-3 -66 -4 -68 -30 -71 -22 -3 -28 -9 -28 -27 0 -18 6
-24 28 -27 l27 -3 5 -161 c5 -176 10 -189 64 -200 46 -8 116 12 116 34 0 34
-14 44 -43 31 -21 -9 -33 -9 -52 -1 l-26 12 3 142 3 143 48 3 c42 3 47 5 47
28 0 22 -4 24 -50 24 l-50 0 0 70 0 70 -30 0 c-29 0 -29 0 -32 -67z"/>
<path d="M3560 1043 c-48 -8 -104 -56 -132 -112 -47 -92 -33 -177 43 -253 37
-37 55 -48 93 -53 92 -14 174 16 210 76 29 49 -22 55 -70 8 -28 -27 -40 -32
-86 -32 -76 -1 -124 35 -142 106 l-6 27 176 0 176 0 -7 43 c-17 108 -87 182
-181 190 -27 3 -60 3 -74 0z m113 -65 c38 -20 77 -75 77 -109 0 -5 -60 -9
-140 -9 -95 0 -140 4 -140 11 0 27 36 83 64 100 35 21 106 25 139 7z"/>
<path d="M4010 1043 c-46 -9 -107 -60 -130 -110 -32 -69 -26 -166 15 -225 58
-83 170 -112 262 -67 52 25 93 76 72 90 -22 14 -59 10 -66 -6 -8 -23 -57 -45
-100 -45 -107 0 -179 135 -122 229 27 45 57 69 96 77 42 8 100 -12 119 -41 12
-18 20 -22 41 -16 15 4 28 12 30 17 5 15 -35 62 -66 79 -31 16 -113 26 -151
18z"/>
<path d="M4417 1036 c-87 -32 -137 -106 -137 -204 0 -109 70 -197 167 -209 74
-8 114 2 162 43 57 49 74 86 75 164 0 54 -5 74 -26 111 -50 85 -155 127 -241
95z m117 -60 c45 -19 86 -88 86 -145 0 -159 -205 -209 -265 -64 -31 75 -4 162
62 201 45 25 71 27 117 8z"/>
<path d="M4836 1036 c-58 -22 -78 -47 -84 -105 -4 -44 -1 -52 22 -74 15 -14
37 -27 49 -30 150 -37 177 -50 177 -87 0 -68 -113 -90 -201 -38 -44 26 -45 26
-57 7 -7 -10 -12 -22 -12 -27 0 -16 80 -53 129 -59 126 -15 201 28 201 116 0
73 -12 82 -185 137 -52 16 -60 23 -63 46 -2 17 4 34 17 47 30 30 121 29 163 0
l30 -22 20 21 21 20 -40 25 c-51 32 -134 42 -187 23z"/>
<path d="M2491 878 c4 -143 7 -167 25 -198 25 -43 56 -60 112 -60 49 0 97 18
129 49 28 27 29 27 36 -8 4 -20 14 -31 33 -35 14 -4 27 -6 28 -4 2 2 0 96 -2
211 l-4 207 -34 0 -34 0 0 -135 c0 -125 -2 -138 -22 -166 -30 -40 -67 -59
-117 -59 -32 0 -43 5 -60 29 -19 26 -21 43 -21 180 l0 151 -36 0 -36 0 3 -162z"/>
</g>
</svg>
