<svg id="Layer_1" data-name="Layer 1" xmlns="http://www.w3.org/2000/svg" viewBox="0 0 809.52576 213.26106"><defs><style>.cls-1{opacity:0.59;}.cls-2{fill:#0d78fe;}.cls-3{opacity:0.87;}.cls-4{fill:#636363;}</style></defs><g class="cls-1"><path class="cls-2" d="M208.31007,116.86091l-.68843-.79273-1.04306-1.12651-2.08612-2.23215-4.17225-4.44344-.52153-.56327-.20861-.25033a3.60778,3.60778,0,0,1-.31292-.459,3.06661,3.06661,0,0,1,.18774-3.19177,21.47162,21.47162,0,0,1,1.56461-1.7732l2.08612-2.19043,3.96363-4.36a17.18935,17.18935,0,0,0,2.29474-3.27521,13.08211,13.08211,0,0,0-3.50468-16.66812,13.47849,13.47849,0,0,0-1.91924-1.23082,17.64946,17.64946,0,0,0-1.77319-.77186L196.899,71.446l-5.23617-2.08613a3.52552,3.52552,0,0,1-1.7732-1.48114,3.42124,3.42124,0,0,1-.459-2.253,1.14839,1.14839,0,0,1,0-.29206,3.63422,3.63422,0,0,1,0-.41723l.37551-1.29339,1.02218-2.52422,1.502-5.13185.37551-1.27254c.12515-.43808.22947-.77186.4172-1.52287a12.541,12.541,0,0,0-9.28326-15.11205q-.16635-.03975-.33374-.075a14.22935,14.22935,0,0,0-1.9401-.25034H179.751l-2.52422.20862-4.98582.41722-2.46163.20861-2.08612.146a4.17224,4.17224,0,0,1-3.77588-2.54507,3.77539,3.77539,0,0,1-.18774-.56325v-.897l-.39638-2.29474L161.66435,23.34a11.80746,11.80746,0,0,0-13.86722-9.30228q-.19116.03767-.381.08162a11.01438,11.01438,0,0,0-2.712,1.08479c-.50065.25033-.751.41722-1.04306.58411l-1.04306.50067-6.92593,4.17225-1.6689,1.00133a5.46636,5.46636,0,0,1-1.08478.52154,4.88172,4.88172,0,0,1-2.27386.22947,4.9861,4.9861,0,0,1-2.08614-.79273,4.71519,4.71519,0,0,1-.87617-.73014,4.50626,4.50626,0,0,1-.3755-.43809c-.12517-.146-.33378-.459-.50067-.66756l-4.02622-5.54908c-1.46029-2.08613-3.65072-2.79541-4.8398-1.75235a3.98448,3.98448,0,0,0,.22947,5.0067l3.755,5.77856c.18776.2712.29206.459.52153.79273a10.43548,10.43548,0,0,0,.751.95961,10.743,10.743,0,0,0,1.81492,1.68976,11.30679,11.30679,0,0,0,9.8465,1.75235,12.01592,12.01592,0,0,0,2.44076-1.0222l1.71062-.93876,7.072-3.85932.91789-.50067a6.99011,6.99011,0,0,1,.79272-.47982,4.00522,4.00522,0,0,1,1.06394-.39636,4.56862,4.56862,0,0,1,2.33645.18775,4.42256,4.42256,0,0,1,2.94144,3.50469l1.25166,8.90775.37549,2.399v.58411l.146.83445a11.74556,11.74556,0,0,0,.47981,1.68975A12.26641,12.26641,0,0,0,167.422,47.16348a20.90854,20.90854,0,0,0,2.858-.10431l2.46162-.146,5.09014-.41723,2.52421-.146a4.17213,4.17213,0,0,1,1.2934.1043,3.67158,3.67158,0,0,1,2.75143,4.40347h0q-.0265.1148-.06033.22773a7.48342,7.48342,0,0,1-.31293,1.0222l-.39638,1.27254-1.6063,5.111-.751,2.60765-.41722,1.2934a7.97,7.97,0,0,1-.25034.897,8.09231,8.09231,0,0,0-.2086,1.04306,12.72531,12.72531,0,0,0,1.43942,8.3445,12.95489,12.95489,0,0,0,6.42526,5.67426l5.19445,2.08612,5.257,2.08612a8.99646,8.99646,0,0,1,.83446.37551,3.77661,3.77661,0,0,1,.47981.31292,3.24609,3.24609,0,0,1,.73013,4.15139,7.884,7.884,0,0,1-1.12651,1.33511l-3.98449,4.31826-2.08612,2.08613a32.98149,32.98149,0,0,0-2.35732,2.67024,13.28857,13.28857,0,0,0-1.08478,13.85186,13.831,13.831,0,0,0,1.31426,2.08612l.751.897.50066.73015,4.17226,4.506,2.08612,2.253,1.0222,1.12652a2.52434,2.52434,0,0,1,.31293.3755.80276.80276,0,0,1,.16688.22948,2.94142,2.94142,0,0,1-.68841,3.901,2.48169,2.48169,0,0,1-.47982.27119l-.33377.06258-.73013.292-2.92058,1.14736-5.862,2.29473-1.502.5841a14.60242,14.60242,0,0,0-2.31559,1.21,13.60153,13.60153,0,0,0-5.98719,13.70583,18.484,18.484,0,0,0,.54239,2.08613l.459,1.52288.91789,3.0666,1.83578,6.154a2.60759,2.60759,0,0,1-.22947,2.08614,2.6494,2.6494,0,0,1-1.58547,1.27254,2.35754,2.35754,0,0,1-.50065,0h-.77187l-3.23351-.16689-6.50871-.47981-1.62716-.12515a15.37589,15.37589,0,0,0-2.712,0,13.81013,13.81013,0,0,0-11.724,10.43061l-.25033,1.2934-.12516.81358-.25035,1.62719-.52153,3.25433-.52153,3.25435-.25033,1.62716-.12516.81359a3.58478,3.58478,0,0,1,0,.3755,2.50335,2.50335,0,0,1-3.04141,1.812q-.03357-.00849-.06691-.018a2.35685,2.35685,0,0,1-.47981-.2086,6.25636,6.25636,0,0,1-.58412-.31293l-.73014-.41722-2.87884-1.6689-5.88286-3.29606-.3755-.20861-.62584-.33378a11.07793,11.07793,0,0,0-1.2934-.56325,13.78926,13.78926,0,0,0-8.34448-.50066,13.95613,13.95613,0,0,0-5.06928,2.46163,14.1839,14.1839,0,0,0-2.08612,1.961c-.31293.35464-.58413.751-.87617,1.12651l-.47981.70927-3.79674,5.50736-1.89837,2.75367-.47981.68843c-.1669.22948-.146.16689-.22948.292a1.7737,1.7737,0,0,1-.35463.35465,2.44079,2.44079,0,0,1-3.43131-.37523q-.04913-.0612-.09424-.12545l-3.73418-5.40306-1.89837-2.75367-.95961-1.41857a15.87424,15.87424,0,0,0-1.75235-2.08612,13.977,13.977,0,0,0-10.30544-4.17225,13.72684,13.72684,0,0,0-5.48651,1.356c-1.00133.50065-1.31426.70927-1.83579,1.00134l-1.46028.83446-5.79943,3.31692L74.673,187.351l-.6467.3755-.22947.12515a2.71185,2.71185,0,0,1-.95962.18775,2.545,2.545,0,0,1-1.81493-.79273,2.086,2.086,0,0,1-.50067-.83445,3.16919,3.16919,0,0,1-.146-.58411l-.2712-1.648-1.0222-6.57128-.52153-3.27523a13.85185,13.85185,0,0,0-10.78525-11.47366,14.60281,14.60281,0,0,0-2.77455-.2086H52.91477l-3.27521.25033-6.55043.47981H41.92091a1.96029,1.96029,0,0,1-.50067,0,2.08628,2.08628,0,0,1-.9179-.39637,2.54506,2.54506,0,0,1-1.08478-1.68976,2.086,2.086,0,0,1,0-1.00134v-.12517l.1043-.35463.25034-.66759.45894-1.56459,1.85665-6.25838.459-1.54373.22947-.77186.31292-1.23081a13.5598,13.5598,0,0,0,0-5.36134,13.72674,13.72674,0,0,0-5.716-8.76172,13.33127,13.33127,0,0,0-2.33645-1.27254l-.897-.35464-.751-.292-2.96229-1.16823-5.82029-2.3156-.73014-.29206-.33378-.1043a2.31547,2.31547,0,0,1-.459-.2712,2.50331,2.50331,0,0,1-.68842-.77186,2.87891,2.87891,0,0,1-.35464-2.08613,3.5048,3.5048,0,0,1,.41722-.95961s1.02221-1.16822,1.648-1.85665l4.17225-4.58947,2.08612-2.29473.25034-.29206.39636-.47981a9.82579,9.82579,0,0,0,.77186-1.00134,12.5167,12.5167,0,0,0,1.23082-2.21129,13.39291,13.39291,0,0,0-2.08613-14.123c-.31291-.35464-.4798-.54239-.64669-.70929L29.7588,95.645l-1.04306-1.1056L24.5435,90.11682l-2.08613-2.19043a3.75472,3.75472,0,0,1-.64669-.95961,3.12919,3.12919,0,0,1,1.29339-3.88019l.2712-.12516h.146l.33378-.146,1.356-.54239,2.69109-1.08477,5.36134-2.08613L34.682,78.518a14.12428,14.12428,0,0,0,2.08613-1.06392,13.03826,13.03826,0,0,0,5.716-13.95618l-.2712-1.04306-.20861-.66756L41.1699,59.117,39.501,53.81827l-.81359-2.60765a3.75545,3.75545,0,0,1-.16689-1.14737,3.44206,3.44206,0,0,1,.79273-2.08612,3.50473,3.50473,0,0,1,1.94009-1.23082h1.23082l2.62851.16689,5.21531.31292,2.58678.146h1.41856a13.35386,13.35386,0,0,0,1.961,0,12.5167,12.5167,0,0,0,10.66009-9.76306l.1669-.87617v-.605l.16689-1.23081.33378-2.4199.66756-4.79809.33377-2.37818a5.44454,5.44454,0,0,1,.31292-1.25167,4.29759,4.29759,0,0,1,1.46028-1.81493,4.1723,4.1723,0,0,1,4.58948-.16689l7.69779,4.17225a35.85923,35.85923,0,0,0,4.36,2.19043A11.70317,11.70317,0,0,0,98.2045,26.53178a11.286,11.286,0,0,0,1.98182-2.08613l.41722-.56325.2712-.41722.54239-.83445,4.17225-6.42526,1.0222-1.56459.47981-.73015.33378-.45894a5.11092,5.11092,0,0,1,1.75234-1.33512,5.257,5.257,0,0,1,4.17225,0,7.44747,7.44747,0,0,0,2.33645.56325,3.02486,3.02486,0,0,0,2.29473-.52153,2.08612,2.08612,0,0,0,.43809-2.35732,5.09017,5.09017,0,0,0-2.33646-2.94143,11.11912,11.11912,0,0,0-9.07464-.33378,11.26525,11.26525,0,0,0-4.02622,2.73283l-.79273.98047-.605.79273-1.08478,1.502L96.014,18.79226l-.584.79274-.29206.39637-.18775.22947a4.44339,4.44339,0,0,1-.83445.79273,4.63129,4.63129,0,0,1-2.08612.85531,4.5477,4.5477,0,0,1-2.35733-.39637c-.47981-.16688-1.98181-1.1265-3.15-1.81492l-7.57263-4.44344a11.97432,11.97432,0,0,0-6.25836-1.73149,12.16214,12.16214,0,0,0-11.01474,7.09282,17.48353,17.48353,0,0,0-.62583,1.6689c-.12517.52153-.29206,1.23081-.35464,1.62718l-.39637,2.35731-1.60631,9.3667a3.88023,3.88023,0,0,1-3.35867,2.89971,4.71588,4.71588,0,0,1-.58412,0H53.60319L51.0164,38.1515l-5.1944-.4381-2.62851-.20861H41.35765a14.33059,14.33059,0,0,0-2.08612.25034A12.80878,12.80878,0,0,0,29.07039,49.66689a13.12152,13.12152,0,0,0,.50067,4.17224l.77186,2.64938,1.56459,5.31961.79273,2.6911.18775.66756v.31292a3.254,3.254,0,0,1,0,.56325,3.33777,3.33777,0,0,1-.70928,2.08612,3.23327,3.23327,0,0,1-.83445.751l-.52153.25035-1.25167.50067-5.3822,2.08613-2.712,1.04306-1.356.52153-.18775.33377-.52153.22947-1.06393.50068a13.24686,13.24686,0,0,0-5.88286,16.54294,13.97678,13.97678,0,0,0,2.566,4.00533l2.08612,2.21129,4.06794,4.4643,1.0222,1.12651.50067.56325.3755.41722a2.89964,2.89964,0,0,1,.52153.95961,2.94143,2.94143,0,0,1-.12517,2.08613,2.0865,2.0865,0,0,1-.27119.459,1.085,1.085,0,0,1-.16689.20861v.12517l-.2712.29205-2.08612,2.253-4.17225,4.54775a37.0447,37.0447,0,0,0-2.73282,2.81626,14.08127,14.08127,0,0,0-2.08612,4.69378,13.64317,13.64317,0,0,0,1.46029,10.0551,13.33034,13.33034,0,0,0,3.35865,4.02622,13.06025,13.06025,0,0,0,2.23216,1.37685l1.1265.52153.73015.292,5.90372,2.37817,2.9623,1.18909.751.292.58412.25034a2.37844,2.37844,0,0,1,.45894.25033,2.712,2.712,0,0,1,1.08479,1.7315,2.50349,2.50349,0,0,1,0,1.02218v.33379l-.29206.79269-.47982,1.54373L29.67536,154.432l-.47981,1.54373-.22947.77186-.12517.41723-.16689.64668a13.1636,13.1636,0,0,0-.25033,5.44478,13.72674,13.72674,0,0,0,5.63253,9.07463,13.35109,13.35109,0,0,0,5.02756,2.23214,13.05891,13.05891,0,0,0,2.73282.29206h2.08612l6.55042-.459,3.29608-.22947h1.75234a2.58675,2.58675,0,0,1,1.60632,1.16821,2.41993,2.41993,0,0,1,.35464,1.00134l.50067,3.27521,1.00134,6.57129.25033,1.648a15.16708,15.16708,0,0,0,.66756,2.62853,13.47664,13.47664,0,0,0,2.92057,4.8398,13.95626,13.95626,0,0,0,10.05513,4.42259A14.12293,14.12293,0,0,0,78.4072,198.616l1.25167-.62585.79274-.459,1.46028-.83445,5.79942-3.31693,1.46029-.83446,1.10564-.605a2.27405,2.27405,0,0,1,.95961-.22948,2.50328,2.50328,0,0,1,1.81492.70928,4.37968,4.37968,0,0,1,.37551.47981l.93876,1.37684,1.89836,2.75368,3.81762,5.54909a13.91447,13.91447,0,0,0,19.37782,3.424q.38612-.27015.75327-.566a13.05948,13.05948,0,0,0,2.08613-2.08613c.27119-.33379.6467-.81359.79272-1.04306l.47981-.68842,1.71061-2.83713,3.77589-5.52823.459-.66755.16689-.20861a2.77707,2.77707,0,0,1,.35464-.33378,2.54489,2.54489,0,0,1,.897-.43808,2.37818,2.37818,0,0,1,1.48115,0h.35465l.35464.2086,5.79942,3.29608,2.89972,1.648.73014.41722c.27119.146.3755.22948.87617.47981a13.831,13.831,0,0,0,19.96419-9.03291,10.13269,10.13269,0,0,1,.25033-1.25167l.12516-.81358.25035-1.62718.50065-3.27521.897-5.82028a2.60765,2.60765,0,0,1,2.08613-1.94009h.56324l1.62718.1043,6.50871.4381,3.25433.22948h1.12651a10.20285,10.20285,0,0,0,1.356,0,13.43515,13.43515,0,0,0,2.6911-.50066,13.70584,13.70584,0,0,0,9.29065-17.01125l0,0-.02823-.09494-3.56727-11.6197a2.77456,2.77456,0,0,1,1.16821-2.7954l.47981-.25033,1.41857-.58411,5.84115-2.35731,2.89971-1.16825.73013-.29205,1.10564-.50067a13.06032,13.06032,0,0,0,2.08612-1.356,13.47636,13.47636,0,0,0,2.92058-18.25358A11.11982,11.11982,0,0,0,208.31007,116.86091Z"/><path class="cls-2" d="M65.9739,137.2632a61.62417,61.62417,0,0,1-8.09415-15.2287,63.14637,63.14637,0,0,1-2.08613-7.40573c-.22947-1.21-.50067-2.35733-.68842-3.50469l-.35464-3.35866a2.87885,2.87885,0,0,0-3.17091-2.08612,2.50335,2.50335,0,0,0-2.54507,2.33645v3.73416a38.232,38.232,0,0,0,.39637,3.94277,63.25076,63.25076,0,0,0,1.56459,8.46967,65.06613,65.06613,0,0,0,8.1776,17.81548,63.7412,63.7412,0,0,0,88.4055,17.61667q1.57834-1.05384,3.09186-2.2002a66.75667,66.75667,0,0,0,10.72269-10.09685c1.52287-1.961,3.08746-3.9219,4.46429-5.98718a62.89514,62.89514,0,0,0,3.755-6.5087A64.29556,64.29556,0,0,0,59.17313,69.31814a64.94058,64.94058,0,0,0-8.07329,17.87807,62.5819,62.5819,0,0,0-1.5646,8.4488c-.12516,1.356-.33378,2.67024-.3755,3.94277V103.322a2.50334,2.50334,0,0,0,2.69526,2.2954q.09215-.00737.18357-.02155a2.712,2.712,0,0,0,2.6911-2.08612l.35464-3.37952c.16689-1.14737.45894-2.3156.68842-3.52555a62.37446,62.37446,0,0,1,2.08612-7.4266A61.64513,61.64513,0,0,1,65.953,73.9285a54.88184,54.88184,0,0,1,76.63459-12.29526q.66932.48424,1.32383.98847a54.23919,54.23919,0,0,1-21.44534,95.96165A55.44917,55.44917,0,0,1,65.9739,137.2632Z"/><path class="cls-2" d="M92.3425,85.58993a18.04488,18.04488,0,0,0-1.33512,5.88287,16.689,16.689,0,0,0,4.00535,12.24553,20.52732,20.52732,0,0,0,4.79808,4.00536,34.27512,34.27512,0,0,0,10.26373,3.98449,25.22157,25.22157,0,0,1,6.92593,2.54507,7.19715,7.19715,0,0,1,3.44211,3.62986,7.98982,7.98982,0,0,1,0,4.98583,7.823,7.823,0,0,1-2.858,3.9845,11.66135,11.66135,0,0,1-4.98583,2.08612,11.99519,11.99519,0,0,1-5.04841-.16689,12.934,12.934,0,0,1-7.03024-4.90238c-.20861-.27121-1.60631,0-3.08747.64669s-2.23214,1.37684-2.08612,1.8358a17.21056,17.21056,0,0,0,9.24153,10.13855c.39637.18775.85531.33379,1.27253.50066-.56324,3.463.33378,7.44746,2.712,9.22066a27.24652,27.24652,0,0,0,3.0666,0,22.548,22.548,0,0,0,2.67024,0,9.67957,9.67957,0,0,0,2.7954-8.5531,18.775,18.775,0,0,0,5.92459-2.29473,17.77374,17.77374,0,0,0,7.4892-8.67827,18.108,18.108,0,0,0,1.31426-5.90373,16.689,16.689,0,0,0-4.04708-12.24554,20.485,20.485,0,0,0-4.819-3.98448,34.358,34.358,0,0,0-10.26373-3.96364,25.15829,25.15829,0,0,1-6.92592-2.54507,7.19719,7.19719,0,0,1-3.44211-3.62986,8.01072,8.01072,0,0,1,0-4.98583,7.86468,7.86468,0,0,1,2.94143-4.02622,11.74481,11.74481,0,0,1,5.0067-2.08612,12.07861,12.07861,0,0,1,5.09014.16689,12.99639,12.99639,0,0,1,7.072,4.92325c.20861.2712,1.5646,0,3.02488-.62584s2.08613-1.33512,2.08613-1.7732a17.12708,17.12708,0,0,0-9.17895-10.11769c-.39636-.18776-.85531-.33378-1.29339-.50068.54239-3.48381-.3755-7.48918-2.79541-9.28324a26.721,26.721,0,0,0-3.004,0,21.85694,21.85694,0,0,0-2.5868,0,9.74218,9.74218,0,0,0-2.87885,8.59481,18.77552,18.77552,0,0,0-5.88287,2.253A17.732,17.732,0,0,0,92.3425,85.58993Z"/></g><g class="cls-3"><path class="cls-4" d="M262.54388,120.3873l8.35645-11.97168,20.98486-25.67334h17.02686l-27.959,34.25537,29.71827,45.50488H293.33051L271.02582,127.526l-8.105,7.64453v27.332H248.28168V50.29013h14.63916V105.026l-.75391,15.36133Z"/><path class="cls-4" d="M311.59515,163.00273H293.05658l-22.12744-34.69826-7.5083,7.082v27.61622H247.78168V49.79032h15.63916v55.23584l-.69776,14.23145,7.76709-11.12793,21.15772-25.8872h18.31787l-28.394,34.78858Zm-17.99023-1H309.7475l-29.41309-45.03808,27.52393-33.72217H292.1225l-20.835,25.48974L262.8046,120.8875H261.642l.7793-15.88575-.00049-54.21142H248.78168v111.2124h13.63916V134.95488l8.70166-8.207Z"/><path class="cls-4" d="M368.94019,162.50253l-2.07325-10.457h-.7539a22.12544,22.12544,0,0,1-8.76465,8.72656,26.18388,26.18388,0,0,1-12.97412,3.17287q-12.62916,0-18.84912-7.21191-6.21973-7.21-6.21973-21.85059V82.74228h14.89014v49.1831q0,9.15971,3.26709,13.7383,3.26659,4.58056,10.24121,4.5791,9.29809,0,13.66552-6.38183,4.366-6.38233,4.3667-21.38282V82.74228h14.82764v79.76025Z"/><path class="cls-4" d="M344.37445,164.44511c-8.53223,0-15.00146-2.48437-19.22754-7.38574-4.208-4.877-6.34131-12.33887-6.34131-22.17676V82.24247h15.89014v49.68311c0,5.97168,1.06787,10.4961,3.17432,13.44825,2.06738,2.89941,5.376,4.36914,9.834,4.36914,5.99512,0,10.4541-2.07422,13.25293-6.16407,2.83936-4.15136,4.2793-11.25,4.2793-21.10058V82.24247H381.0639v80.76026H368.52972l-2.124-10.457a22.72256,22.72256,0,0,1-8.81348,8.66309A26.796,26.796,0,0,1,344.37445,164.44511ZM319.8056,83.24247v51.64014c0,9.5918,2.05176,16.833,6.09815,21.52442,4.02783,4.66994,10.24219,7.03808,18.4707,7.03808a25.80851,25.80851,0,0,0,12.73047-3.10937,21.73745,21.73745,0,0,0,8.5708-8.53223l.14307-.25781h1.459l2.07324,10.457H380.0639V83.24247H366.23627v39.23584c0,10.05567-1.49854,17.34473-4.4541,21.665-2.99659,4.37891-7.7334,6.59961-14.07813,6.59961-4.7998,0-8.38232-1.61133-10.64844-4.78906-2.22949-3.124-3.35986-7.84473-3.35986-14.02832V83.24247Z"/><path class="cls-4" d="M439.09988,81.2999q14.05019,0,21.88892,10.81738,7.83925,10.81787,7.83923,30.36084,0,19.61718-7.94156,30.541-7.94055,10.92627-22.0577,10.9258-14.25276,0-22.12629-10.88965h-1.08657l-2.918,9.44726H400.75183V50.29013h15.95068V76.97324q0,2.95752-.27111,8.79786-.27223,5.84179-.4072,7.42822h.67835Q424.3028,81.29964,439.09988,81.2999ZM434.9603,95.14609q-9.63844,0-13.87983,6.022-4.2424,6.022-4.378,20.15674v1.15332q0,14.56785,4.34317,21.09375,4.34368,6.52734,14.18576,6.52637a14.17,14.17,0,0,0,12.86182-7.13869q4.377-7.13962,4.378-20.626Q452.47122,95.14683,434.9603,95.14609Z"/><path class="cls-4" d="M438.829,164.44511c-9.53711,0-17.06543-3.66308-22.38086-10.88964h-.46289l-2.918,9.44726H400.25189V49.79032h16.9502V76.97343c0,1.96143-.08887,4.84668-.27149,8.8208-.1455,3.13672-.26367,5.37451-.35058,6.67676,5.13769-7.74463,12.71191-11.6709,22.51953-11.6709,9.49219,0,16.99316,3.709,22.29492,11.02393,5.26465,7.26562,7.93359,17.5791,7.93359,30.65429,0,13.125-2.7041,23.499-8.03711,30.835C455.92279,160.7,448.36517,164.44511,438.829,164.44511Zm-23.582-11.88964h1.711l.14941.207c5.125,7.08886,12.4336,10.68261,21.72168,10.68261,9.19824,0,16.4834-3.60644,21.65332-10.71972,5.206-7.16114,7.8457-17.33789,7.8457-30.24707,0-12.85937-2.60546-22.97608-7.74414-30.06739-5.10253-7.041-12.33105-10.61084-21.48437-10.61084-9.63672,0-17.03027,3.92579-21.97656,11.66846l-.14746.231h-1.49512l.0459-.54248c.08886-1.04492.22558-3.53807.40625-7.40918.18164-3.958.26953-6.82811.26953-8.77441V50.79032H401.252V162.00273H412.329Zm19.98437-1.957c-6.709,0-11.62207-2.2705-14.60156-6.749-2.93847-4.415-4.42773-11.60451-4.42773-21.3711V121.325c.09082-9.48633,1.59375-16.36328,4.46875-20.44483,2.915-4.13623,7.72265-6.23388,14.28906-6.23388,11.95215,0,18.01172,9.31543,18.01172,27.6875,0,9.041-1.498,16.06933-4.45117,20.88769a14.70312,14.70312,0,0,1-13.28907,7.37695Zm-.27148-54.95214c-6.22266,0-10.75488,1.95459-13.4707,5.81006-2.75684,3.9121-4.19825,10.59813-4.28711,19.87354v1.14843c0,9.56543,1.43359,16.56933,4.25976,20.8164,2.78321,4.18262,7.416,6.30371,13.76953,6.30371a13.59369,13.59369,0,0,0,12.43653-6.90039c2.85547-4.6582,4.30371-11.50976,4.30371-20.36425,0-17.958-5.56445-26.68754-17.01172-26.68754Z"/><path class="cls-4" d="M513.56982,163.94492q-16.21,0-25.35253-10.85352-9.14062-10.853-9.14161-29.8916,0-19.54321,8.48243-30.72168,8.48143-11.17749,23.30957-11.17822,13.75927,0,21.73925,9.5913,7.97754,9.59253,7.97852,26.39454v9.15918H494.28079q.31348,11.61182,5.46582,17.84863,5.15186,6.23877,14.51364,6.2373a46.90279,46.90279,0,0,0,11.4668-1.334,54.925,54.925,0,0,0,11.40332-4.43457v13.77344a41.38829,41.38829,0,0,1-10.93262,4.18359A58.71116,58.71116,0,0,1,513.56982,163.94492Zm-2.70211-69.80811a13.91028,13.91028,0,0,0-11.27832,5.12012q-4.24072,5.12109-5.05762,14.92822h31.541q-.12744-9.87964-4.14746-14.96436A13.32507,13.32507,0,0,0,510.86771,94.13681Z"/><path class="cls-4" d="M513.57025,164.44511c-10.91113,0-19.57031-3.71191-25.73535-11.03125-6.14355-7.29492-9.25879-17.46093-9.25879-30.21386,0-13.07812,2.8877-23.51612,8.584-31.02392,5.72753-7.54834,13.7041-11.376,23.708-11.376,9.28418,0,16.72754,3.2876,22.124,9.77148,5.37011,6.458,8.09375,15.44629,8.09375,26.71436v9.65918H494.79779c.27051,7.34375,2.06445,13.07129,5.335,17.03027,3.31836,4.01856,8.07129,6.05567,14.128,6.05567a46.58187,46.58187,0,0,0,11.34473-1.31934,54.72033,54.72033,0,0,0,11.29883-4.39453l.72656-.37012v14.88477l-.25977.14258a42.10555,42.10555,0,0,1-11.06445,4.23339A59.47577,59.47577,0,0,1,513.57025,164.44511Zm-2.70215-82.645c-9.67383,0-17.38281,3.69434-22.91113,10.98047-5.56152,7.32959-8.38086,17.564-8.38086,30.41942,0,12.51074,3.03613,22.46,9.02441,29.56934,5.96583,7.084,14.36719,10.67578,24.96973,10.67578a58.46768,58.46768,0,0,0,12.51953-1.21387,40.95178,40.95178,0,0,0,10.541-3.99219V145.573a54.67578,54.67578,0,0,1-10.78125,4.10937,47.6581,47.6581,0,0,1-11.58887,1.34864c-6.36914,0-11.38183-2.15918-14.89941-6.41895-3.49121-4.22754-5.36914-10.335-5.58008-18.15332l-.01367-.51367h46.31836v-8.65918c0-11.02832-2.64551-19.80127-7.86328-26.07471-5.19629-6.24459-12.38086-9.41109-21.3545-9.41109ZM526.58,114.68534H493.9892l.04492-.541c.5498-6.61133,2.28906-11.727,5.1709-15.20606A14.44779,14.44779,0,0,1,510.8681,93.637a13.85866,13.85866,0,0,1,11.4502,5.27393c2.7373,3.46144,4.16894,8.59864,4.25488,15.26758Zm-31.502-1h30.48633c-.14648-6.19628-1.502-10.95654-4.03125-14.15429a12.90048,12.90048,0,0,0-10.665-4.894,13.49082,13.49082,0,0,0-10.89355,4.939c-2.66989,3.22452-4.31638,7.96964-4.89646,14.10928Z"/><path class="cls-4" d="M584.98,163.94492q-16.27926,0-24.743-10.56543-8.46322-10.563-8.46375-30.32422,0-20.12037,8.85285-30.938,8.85333-10.81713,25.58581-10.81738a43.88822,43.88822,0,0,1,20.43055,4.6875l-4.60486,13.62988q-9.66533-4.18139-15.95472-4.18261-18.6154,0-18.614,27.47608,0,13.41356,4.63715,20.15626,4.63614,6.74414,13.58777,6.74316a35.98259,35.98259,0,0,0,19.2622-5.625v14.78418a28.39577,28.39577,0,0,1-8.72284,3.82129A47.302,47.302,0,0,1,584.98,163.94492Z"/><path class="cls-4" d="M584.98041,164.44511c-10.96192,0-19.418-3.61816-25.13379-10.75293-5.68848-7.0996-8.57324-17.40722-8.57324-30.63671,0-13.46875,3.0166-23.98437,8.96582-31.2544,5.97461-7.29981,14.71289-11.001,25.97265-11.001A44.58621,44.58621,0,0,1,606.872,85.54325l.38184.19727-4.916,14.55127-.49805-.21533c-6.35351-2.748-11.65429-4.1416-15.75683-4.1416-12.18946,0-18.11426,8.82373-18.11426,26.97607,0,8.79883,1.53027,15.48438,4.5498,19.87305,2.97559,4.331,7.40918,6.52637,13.17481,6.52637a35.6523,35.6523,0,0,0,18.999-5.54981l.76367-.47265V159.24l-.22656.14843a29.03239,29.03239,0,0,1-8.875,3.8877A48.043,48.043,0,0,1,584.98041,164.44511Zm1.23144-82.645c-10.94531,0-19.42383,3.57763-25.19922,10.63427-5.79882,7.08691-8.73925,17.38965-8.73925,30.62109,0,12.99609,2.81054,23.09375,8.35449,30.01172,5.51562,6.88672,13.709,10.37793,24.35254,10.37793a47.057,47.057,0,0,0,11.13281-1.13965,27.968,27.968,0,0,0,8.34277-3.6084v-13.625a36.4889,36.4889,0,0,1-18.76269,5.23828c-6.11524,0-10.8252-2.34179-13.999-6.96-3.13574-4.55762-4.72558-11.43457-4.72558-20.43946,0-18.56347,6.43066-27.97607,19.11426-27.97607,4.13086,0,9.39453,1.34863,15.65429,4.00976l4.293-12.70752a43.73251,43.73251,0,0,0-19.81842-4.437Z"/><path class="cls-4" d="M682.22522,122.47812q0,19.54395-8.73242,30.50488-8.73486,10.96291-24.31543,10.96192a30.03114,30.03114,0,0,1-17.21485-5.04787,32.07933,32.07933,0,0,1-11.498-14.49609,55.59677,55.59677,0,0,1-4.02149-21.92286q0-19.3982,8.6709-30.28858,8.67042-10.88815,24.44043-10.88964,15.07911,0,23.875,11.14209Q682.22577,103.58358,682.22522,122.47812Zm-50.57715,0q0,27.62109,17.78027,27.62012,17.59131,0,17.59278-27.62012,0-27.33033-17.71778-27.332-9.30029,0-13.47753,7.06738Q631.6466,109.28207,631.64807,122.47812Z"/><path class="cls-4" d="M649.17767,164.44511a30.66017,30.66017,0,0,1-17.49511-5.13378,32.71283,32.71283,0,0,1-11.67774-14.71485,56.33638,56.33638,0,0,1-4.06152-22.11817c0-12.9873,2.9541-23.28271,8.7793-30.60009,5.85449-7.35108,14.209-11.07813,24.832-11.07813,10.166,0,18.33105,3.8125,24.26757,11.332,5.90821,7.4834,8.90332,17.69287,8.90332,30.34619,0,13.084-2.97461,23.45216-8.84179,30.81641C667.9892,160.69316,659.6767,164.44511,649.17767,164.44511Zm.377-82.645c-10.30371,0-18.39453,3.60059-24.04883,10.70117-5.68164,7.13574-8.5625,17.22217-8.5625,29.977a55.361,55.361,0,0,0,3.98144,21.72657,31.73759,31.73759,0,0,0,11.31739,14.27832,29.68361,29.68361,0,0,0,16.93554,4.96192c10.17872,0,18.22852-3.625,23.92481-10.77344,5.72168-7.18359,8.623-17.3418,8.623-30.19336,0-12.42285-2.92285-22.42431-8.68847-29.72607-5.73731-7.26757-13.6377-10.95214-23.48242-10.95214Zm-.126,68.79833c-12.12988,0-18.28027-9.46094-18.28027-28.12012,0-8.84961,1.42871-15.75293,4.24707-20.519,2.86914-4.85254,7.54883-7.313,13.9082-7.313,12.08887,0,18.21777,9.36426,18.21777,27.832-.00006,18.65917-6.087,28.1201-18.09283,28.1201Zm-.125-54.95215c-5.98144,0-10.37109,2.29541-13.04687,6.82178-2.72657,4.60986-4.1084,11.34228-4.1084,20.01025,0,18.249,5.65234,27.12012,17.28027,27.12012,11.502,0,17.09277-8.87109,17.09277-27.12012-.00006-18.05519-5.63189-26.832-17.21783-26.832Z"/><path class="cls-4" d="M746.35205,139.78574q0,11.68359-7.58868,17.92089-7.58817,6.23877-21.73651,6.2383-14.21229,0-22.82905-4.832V144.47324q12.54054,6.49069,23.34382,6.49121,13.95436,0,13.95495-9.44727a8.06906,8.06906,0,0,0-1.54333-5.04883,18.62832,18.62832,0,0,0-5.07978-4.18261,83.20259,83.20259,0,0,0-9.83972-4.90332Q702.74958,122.046,698.41,116.70859q-4.3407-5.33645-4.34112-13.84571,0-10.23925,7.36377-15.90185,7.36185-5.66016,20.03228-5.66113a51.59914,51.59914,0,0,1,23.72968,5.69725L740.3067,99.76181q-11.512-5.33643-19.35657-5.33691-11.96181,0-11.96179,7.64454a7.96511,7.96511,0,0,0,3.11963,6.34619q3.11865,2.59643,13.60108,7.13964,8.8102,3.82325,12.79742,6.99511a20.29743,20.29743,0,0,1,5.91644,7.31934A23.34862,23.34862,0,0,1,746.35205,139.78574Z"/><path class="cls-4" d="M717.02728,164.44511c-9.51855,0-17.28125-1.64746-23.07324-4.8955l-.25586-.14356v-15.7549l.72949.37793c8.251,4.27051,16.02735,6.43555,23.11426,6.43555,9.05371,0,13.45508-2.92676,13.45508-8.94727a7.62231,7.62231,0,0,0-1.44141-4.74511,18.21737,18.21737,0,0,0-4.94336-4.05957,83.0977,83.0977,0,0,0-9.77734-4.8711c-8.22559-3.57325-13.88184-7.2129-16.8125-10.81739-2.95508-3.63281-4.45313-8.39746-4.45313-14.16113,0-6.959,2.543-12.44238,7.5586-16.29834,4.97558-3.8252,11.81738-5.76465,20.33691-5.76465a52.32442,52.32442,0,0,1,23.95606,5.75147l.40136.20459L740.582,100.44072l-.48535-.2251c-7.57324-3.51074-14.01563-5.29053-19.14649-5.29053-7.71289,0-11.46191,2.33691-11.46191,7.14454a7.42826,7.42826,0,0,0,2.93945,5.96143c2.03516,1.69336,6.57032,4.07031,13.48047,7.06543,5.88574,2.55468,10.22949,4.93066,12.91016,7.0625a20.89092,20.89092,0,0,1,6.05762,7.5,23.955,23.955,0,0,1,1.97656,10.127c0,7.90918-2.61426,14.06836-7.77149,18.30762C733.955,162.3084,726.5351,164.44511,717.02728,164.44511Zm-22.3291-5.62695c5.61426,3.07031,13.125,4.62695,22.3291,4.62695,9.26953,0,16.47559-2.06054,21.41895-6.124,4.91406-4.04,7.40625-9.93945,7.40625-17.53516a22.978,22.978,0,0,0-1.88281-9.70507,19.90033,19.90033,0,0,0-5.77442-7.13868c-2.6123-2.07811-6.87988-4.40917-12.68555-6.92772-7.0957-3.07618-11.584-5.43555-13.72168-7.21387a8.48209,8.48209,0,0,1-3.2998-6.731c0-5.4043,4.19238-8.14453,12.46191-8.14453,5.166,0,11.584,1.73584,19.08008,5.15966l4.53516-11.84423a51.31166,51.31166,0,0,0-23.10059-5.44043c-8.29394,0-14.93066,1.86963-19.72754,5.55761-4.75586,3.65674-7.168,8.87353-7.168,15.50538,0,5.52832,1.42286,10.08007,4.22852,13.53026,2.8291,3.47852,8.3584,7.02149,16.43555,10.53028a84.17209,84.17209,0,0,1,9.90039,4.93554,19.18025,19.18025,0,0,1,5.21679,4.30567,8.59335,8.59335,0,0,1,1.64649,5.35253c0,6.60059-4.86328,9.94727-14.45508,9.94727-7.03809,0-14.7207-2.07715-22.84375-6.17383Z"/><path class="cls-4" d="M788.67719,150.24277a31.70663,31.70663,0,0,0,10.80664-1.94727v12.76465a26.94271,26.94271,0,0,1-6.31446,2.05566,38.148,38.148,0,0,1-8.01074.82912q-20.98534,0-20.98535-25.38476v-42.981H754.686V88.0787l10.17872-6.2017,5.0263-16.875h9.11035V82.74228h19.791V95.57919h-19.791v42.69287q-.00009,6.13039,2.66992,9.04981A9.04427,9.04427,0,0,0,788.67719,150.24277Z"/><path class="cls-4" d="M785.15814,164.44511c-14.25683,0-21.48535-8.709-21.48535-25.88476v-42.481h-9.4873V87.79814l10.25488-6.24805,5.07715-17.04785h9.9834V82.24247h19.791V96.07939h-19.791v42.19287c0,3.93946.85449,6.8711,2.53906,8.71192a8.49233,8.49233,0,0,0,6.63672,2.75879,31.36136,31.36136,0,0,0,10.63769-1.918l.66895-.24121v13.78515l-.27637.13867a27.57849,27.57849,0,0,1-6.43262,2.09766A38.83028,38.83028,0,0,1,785.15814,164.44511ZM755.18549,95.07939h9.4873v43.48094c0,16.74512,6.70117,24.88477,20.48535,24.88477a37.8148,37.8148,0,0,0,7.90625-.81836,27.47278,27.47278,0,0,0,5.91895-1.87891v-11.748A32.15956,32.15956,0,0,1,788.6767,150.743a9.56218,9.56218,0,0,1-7.375-3.084c-1.8584-2.03125-2.80078-5.18946-2.80078-9.38672V95.07939h19.791V83.24247h-19.791V65.50224h-8.23731L765.288,82.20439l-10.10253,6.15527Z"/></g></svg>