<?xml version="1.0" encoding="utf-8"?>
<!-- Generator: Adobe Illustrator 14.0.0, SVG Export Plug-In . SVG Version: 6.00 Build 43363)  -->
<!DOCTYPE svg PUBLIC "-//W3C//DTD SVG 1.1//EN" "http://www.w3.org/Graphics/SVG/1.1/DTD/svg11.dtd">
<svg version="1.1" id="Layer_1" xmlns="http://www.w3.org/2000/svg" xmlns:xlink="http://www.w3.org/1999/xlink" x="0px" y="0px"
	 width="250px" height="64px" viewBox="0 0 250 64" enable-background="new 0 0 250 64" xml:space="preserve">
<g>
	<g>
		<path fill="#231F20" d="M124.612,19.747c1.564,0,2.856,1.215,2.856,2.702c0,1.496-1.292,2.708-2.856,2.708s-2.86-1.213-2.86-2.708
			C121.752,20.961,123.048,19.747,124.612,19.747z"/>
		<path fill="#231F20" d="M197.713,19.747c1.557,0,2.862,1.215,2.862,2.702c0,1.496-1.306,2.708-2.862,2.708
			c-1.564,0-2.858-1.213-2.858-2.708C194.854,20.961,196.148,19.747,197.713,19.747z"/>
		<path fill="#231F20" d="M104.926,33.88v10.112h-4.435v-1.698c-1.161,1.249-2.584,2.035-4.801,2.095
			c-3.496,0.101-6.236-2.027-6.236-5.209c0-4.898,5.216-5.972,10.321-5.972h0.573c0-1.351-0.598-2.604-3.296-2.604
			c-1.833,0-3.387,0.585-4.49,1.603l-2.686-2.673c1.848-1.814,4.432-2.747,7.3-2.747c2.838,0,4.395,0.401,5.983,1.825
			C104.651,29.952,104.926,32.474,104.926,33.88z M100.349,36.694h-0.423c-0.749,0-2.555,0.089-3.917,0.459
			c-0.94,0.262-1.728,0.878-1.728,1.731c0,1.22,1.217,1.75,2.311,1.75c2.353,0,3.757-1.498,3.757-3.432V36.694z"/>
		<path fill="#231F20" d="M114.68,27.188v-5.29h-4.771v5.29h-3.293v3.991h3.293v7.139c0,2.385,0.405,3.807,1.354,4.758
			c0.898,0.901,2.262,1.313,4.291,1.313c1.276,0,2.572-0.252,3.575-0.687v-3.785c-0.609,0.206-1.485,0.345-2.583,0.345
			c-1.488,0-1.866-0.809-1.866-2.176V31.18h4.449v-3.991H114.68z"/>
		<path fill="#231F20" d="M240.956,35.892v1.262H228.64c0.093,1.722,2.025,3.191,4.306,3.281c2.138,0.084,3.313-0.751,4.406-1.947
			l3.036,2.216c-1.841,2.328-4.118,3.686-7.35,3.686c-5.119,0-9.299-3.179-9.299-8.792c0-4.497,2.786-8.81,8.694-8.81
			C238.523,26.787,240.956,31.51,240.956,35.892z M235.887,33.704c-0.219-1.831-1.223-3.17-3.612-3.121
			c-2.025,0.045-3.402,1.411-3.618,3.121H235.887z"/>
		<polygon fill="#231F20" points="81.311,19.608 81.311,36.164 70.967,19.608 64.503,19.608 64.503,43.992 69.759,43.992 
			69.759,26.884 80.396,43.992 86.565,43.992 86.565,19.608 		"/>
		<polygon fill="#231F20" points="188.566,27.188 185.859,37.627 183.142,27.188 178.14,27.188 175.517,37.604 172.813,27.188 
			167.53,27.188 172.915,43.992 177.706,43.992 180.582,33.431 183.829,43.992 188.266,43.992 193.635,27.188 		"/>
		<rect x="122.195" y="27.188" fill="#231F20" width="4.84" height="16.804"/>
		<rect x="195.302" y="27.188" fill="#231F20" width="4.835" height="16.804"/>
		<path fill="#231F20" d="M164.561,28.331c-1.03-1.052-2.284-1.551-4.159-1.538c-1.844,0.015-3.984,0.917-4.996,2.228v-1.826h-4.634
			v16.802h4.837v-9.131c0-1.191,0.328-2.065,0.884-2.69c0.495-0.55,1.202-0.898,2.098-0.949c1.101-0.065,1.684,0.408,2.097,0.936
			c0.519,0.661,0.664,1.795,0.664,3.333v8.501h4.832V33.502C166.183,31.453,165.907,29.745,164.561,28.331z"/>
		<path fill="#231F20" d="M220.979,19.608v24.384h-4.551v-1.867c-1.065,1.228-2.811,2.264-5.218,2.264
			c-2.329,0-4.342-0.779-5.82-2.271c-1.598-1.591-2.478-3.913-2.478-6.521c0-5.103,3.424-8.81,8.135-8.81
			c2.068,0,3.778,0.636,5.103,1.884v-9.063H220.979z M216.269,35.597c0-2.264-1.458-4.549-4.262-4.549
			c-2.803,0-4.262,2.285-4.262,4.549c0,2.249,1.459,4.536,4.262,4.536C214.811,40.133,216.269,37.846,216.269,35.597z"/>
		<path fill="#231F20" d="M147.999,35.597c0,5.095-3.813,8.792-9.087,8.792c-5.271,0-9.1-3.697-9.1-8.792
			c0-5.103,3.828-8.81,9.1-8.81C144.186,26.787,147.999,30.494,147.999,35.597z M138.912,31.048c-2.809,0-4.269,2.285-4.269,4.549
			c0,2.249,1.46,4.536,4.269,4.536c2.801,0,4.263-2.287,4.263-4.536C143.175,33.333,141.713,31.048,138.912,31.048z"/>
		<path fill="#231F20" d="M240.452,25.497c0-1.197,0.889-2.114,2.052-2.114c1.15,0,2.047,0.917,2.047,2.114
			c0,1.212-0.896,2.136-2.047,2.136C241.341,27.633,240.452,26.709,240.452,25.497z M239.993,25.497c0,1.427,1.15,2.499,2.511,2.499
			c1.362,0,2.496-1.072,2.496-2.499c0-1.402-1.134-2.478-2.496-2.478C241.144,23.02,239.993,24.095,239.993,25.497z M241.531,26.96
			h0.454v-1.253h0.48l0.792,1.253h0.487l-0.842-1.286c0.442-0.045,0.775-0.264,0.775-0.795c0-0.553-0.333-0.828-1.025-0.828h-1.122
			V26.96z M241.985,24.417h0.6c0.313,0,0.639,0.066,0.639,0.443c0,0.465-0.363,0.481-0.766,0.481h-0.473V24.417z"/>
	</g>
	<g>
		<path fill="#0081C6" d="M48.779,48.702H8.805V8.728h39.975V48.702z M52.586,4.921H5v54.157h47.586V4.921z"/>
		<path fill="#FFFFFF" d="M22.42,50.825c0.356,0,0.648,0.273,0.648,0.611c0,0.34-0.292,0.613-0.648,0.613
			c-0.353,0-0.646-0.273-0.646-0.613C21.774,51.099,22.068,50.825,22.42,50.825z"/>
		<path fill="#FFFFFF" d="M38.978,50.825c0.355,0,0.649,0.273,0.649,0.611c0,0.34-0.294,0.613-0.649,0.613
			c-0.353,0-0.648-0.273-0.648-0.613C38.329,51.099,38.625,50.825,38.978,50.825z"/>
		<path fill="#FFFFFF" d="M17.959,54.025v2.29h-1.004v-0.383c-0.264,0.28-0.584,0.462-1.085,0.474
			c-0.792,0.023-1.414-0.459-1.414-1.18c0-1.11,1.18-1.353,2.339-1.353h0.127c0-0.307-0.132-0.59-0.743-0.59
			c-0.416,0-0.769,0.133-1.021,0.363l-0.605-0.606c0.418-0.411,1.004-0.62,1.653-0.62c0.643,0,0.996,0.088,1.354,0.411
			C17.897,53.137,17.959,53.707,17.959,54.025z M16.923,54.663h-0.095c-0.168,0-0.579,0.021-0.884,0.104
			c-0.215,0.06-0.395,0.2-0.395,0.393c0,0.275,0.277,0.396,0.524,0.396c0.535,0,0.849-0.34,0.849-0.777V54.663z"/>
		<path fill="#FFFFFF" d="M20.171,52.509v-1.198h-1.08v1.198h-0.75v0.906h0.75v1.614c0,0.545,0.089,0.865,0.304,1.077
			c0.206,0.207,0.512,0.3,0.971,0.3c0.291,0,0.586-0.06,0.814-0.155v-0.858c-0.139,0.048-0.339,0.079-0.586,0.079
			c-0.339,0-0.423-0.184-0.423-0.492v-1.564h1.009v-0.906H20.171z"/>
		<path fill="#FFFFFF" d="M48.774,54.48v0.287h-2.787c0.018,0.39,0.455,0.723,0.974,0.744c0.482,0.02,0.746-0.174,0.996-0.442
			l0.689,0.505c-0.418,0.525-0.934,0.832-1.663,0.832c-1.162,0-2.108-0.721-2.108-1.993c0-1.015,0.635-1.992,1.97-1.992
			C48.223,52.421,48.774,53.488,48.774,54.48z M47.623,53.988c-0.046-0.419-0.273-0.721-0.817-0.709
			c-0.458,0.01-0.77,0.321-0.816,0.709H47.623z"/>
		<polygon fill="#FFFFFF" points="12.614,50.795 12.614,54.544 10.272,50.795 8.805,50.795 8.805,56.315 9.995,56.315 9.995,52.439 
			12.405,56.315 13.803,56.315 13.803,50.795 		"/>
		<polygon fill="#FFFFFF" points="36.908,52.509 36.292,54.875 35.678,52.509 34.544,52.509 33.95,54.867 33.339,52.509 
			32.142,52.509 33.363,56.315 34.446,56.315 35.102,53.921 35.833,56.315 36.84,56.315 38.055,52.509 		"/>
		<rect x="21.875" y="52.509" fill="#FFFFFF" width="1.093" height="3.807"/>
		<rect x="38.433" y="52.509" fill="#FFFFFF" width="1.093" height="3.807"/>
		<path fill="#FFFFFF" d="M31.467,52.768c-0.228-0.237-0.515-0.349-0.939-0.347c-0.417,0.002-0.904,0.207-1.132,0.504v-0.413h-1.053
			v3.807h1.099v-2.069c0-0.269,0.074-0.468,0.199-0.608c0.114-0.124,0.274-0.207,0.478-0.217c0.247-0.014,0.38,0.093,0.475,0.215
			c0.117,0.147,0.146,0.404,0.146,0.753v1.927h1.094V53.94C31.834,53.477,31.777,53.089,31.467,52.768z"/>
		<path fill="#FFFFFF" d="M44.25,50.795v5.521h-1.034v-0.421c-0.238,0.276-0.635,0.512-1.18,0.512c-0.524,0-0.982-0.179-1.318-0.514
			c-0.362-0.361-0.563-0.887-0.563-1.479c0-1.155,0.776-1.992,1.842-1.992c0.469,0,0.857,0.141,1.156,0.426v-2.052H44.25z
			 M43.184,54.413c0-0.511-0.33-1.029-0.965-1.029c-0.638,0-0.969,0.519-0.969,1.029c0,0.512,0.332,1.027,0.969,1.027
			C42.854,55.44,43.184,54.925,43.184,54.413z"/>
		<path fill="#FFFFFF" d="M27.717,54.413c0,1.156-0.864,1.993-2.057,1.993c-1.197,0-2.063-0.837-2.063-1.993
			c0-1.155,0.865-1.992,2.063-1.992C26.854,52.421,27.717,53.258,27.717,54.413z M25.66,53.384c-0.638,0-0.966,0.519-0.966,1.029
			c0,0.512,0.328,1.027,0.966,1.027c0.635,0,0.966-0.516,0.966-1.027C26.626,53.902,26.295,53.384,25.66,53.384z"/>
	</g>
</g>
</svg>
