<?xml version="1.0" standalone="no"?>
<!DOCTYPE svg PUBLIC "-//W3C//DTD SVG 20010904//EN"
 "http://www.w3.org/TR/2001/REC-SVG-20010904/DTD/svg10.dtd">
<svg version="1.0" xmlns="http://www.w3.org/2000/svg"
 width="204.000000pt" height="34.000000pt" viewBox="0 0 204.000000 34.000000"
 preserveAspectRatio="xMidYMid meet">

<g transform="translate(0.000000,34.000000) scale(0.100000,-0.100000)"
fill="#000000" stroke="none">
<path d="M0 170 l0 -170 35 0 35 0 0 156 0 155 26 -20 c22 -17 41 -21 100 -21
l74 0 0 -135 0 -135 35 0 35 0 0 150 c0 200 10 190 -190 190 l-150 0 0 -170z"/>
<path d="M592 324 c-21 -14 -22 -22 -22 -154 0 -178 -9 -170 192 -170 l147 0
-14 33 -13 32 -121 3 -121 3 0 34 0 35 113 0 c140 0 149 5 155 86 3 49 0 63
-18 87 -21 27 -22 27 -149 27 -98 0 -131 -3 -149 -16z m246 -86 l-3 -33 -80
-3 c-56 -2 -85 -8 -97 -19 -17 -15 -18 -13 -18 35 l0 52 101 0 100 0 -3 -32z"/>
<path d="M1151 314 c-19 -24 -21 -40 -21 -144 0 -104 2 -120 21 -144 20 -26
22 -26 148 -26 177 0 171 -6 171 170 0 176 6 170 -171 170 -126 0 -128 0 -148
-26z m79 -24 c16 -16 33 -20 95 -20 l75 0 0 -100 0 -100 -100 0 -100 0 0 120
c0 66 2 120 5 120 3 0 14 -9 25 -20z"/>
<path d="M1720 320 c-27 -27 -28 -128 -2 -159 15 -19 29 -21 132 -23 l115 -3
3 -32 3 -32 -122 -3 -123 -3 -13 -32 -13 -33 150 0 c182 0 190 4 190 99 0 93
-10 100 -150 103 l-115 3 -3 54 -3 53 27 -21 c23 -18 40 -21 119 -21 l93 0 11
31 c6 18 11 34 11 35 0 2 -65 4 -145 4 -132 0 -147 -2 -165 -20z"/>
</g>
</svg>
