<svg xmlns="http://www.w3.org/2000/svg" role="img" viewBox="-4.08 -4.08 211.90 41.90"><title>Neos (FOSP) logo</title><path d="M0 17v17h7V2.9l2.6 2c2.2 1.7 4.1 2.1 10 2.1H27v27h7V19C34-1 35 0 15 0H0v17zM59.2 1.6C57.1 3 57 3.8 57 17c0 17.8-.9 17 19.2 17h14.7l-1.4-3.3-1.3-3.2-12.1-.3-12.1-.3V20h11.3c14 0 14.9-.5 15.5-8.6.3-4.9 0-6.3-1.8-8.7C86.9 0 86.8 0 74.1 0 64.3 0 61 .3 59.2 1.6zm24.6 8.6l-.3 3.3-8 .3c-5.6.2-8.5.8-9.7 1.9-1.7 1.5-1.8 1.3-1.8-3.5V7h20.1l-.3 3.2zm31.3-7.6C113.2 5 113 6.6 113 17s.2 12 2.1 14.4c2 2.6 2.2 2.6 14.8 2.6 17.7 0 17.1.6 17.1-17s.6-17-17.1-17c-12.6 0-12.8 0-14.8 2.6zM123 5c1.6 1.6 3.3 2 9.5 2h7.5v20h-20V15c0-6.6.2-12 .5-12s1.4.9 2.5 2zm49-3c-2.7 2.7-2.8 12.8-.2 15.9 1.5 1.9 2.9 2.1 13.2 2.3l11.5.3.3 3.2.3 3.2-12.2.3-12.3.3-1.3 3.2L170 34h15c18.2 0 19-.4 19-9.9 0-9.3-1-10-15-10.3l-11.5-.3-.3-5.4-.3-5.3 2.7 2.1c2.3 1.8 4 2.1 11.9 2.1h9.3l1.1-3.1c.6-1.8 1.1-3.4 1.1-3.5 0-.2-6.5-.4-14.5-.4-13.2 0-14.7.2-16.5 2z"/></svg>