<?xml version="1.0" standalone="no"?>
<!DOCTYPE svg PUBLIC "-//W3C//DTD SVG 20010904//EN"
 "http://www.w3.org/TR/2001/REC-SVG-20010904/DTD/svg10.dtd">
<svg version="1.0" xmlns="http://www.w3.org/2000/svg"
 width="428.000000pt" height="118.000000pt" viewBox="0 0 428.000000 118.000000"
 preserveAspectRatio="xMidYMid meet">

<g transform="translate(0.000000,118.000000) scale(0.100000,-0.100000)"
fill="#000000" stroke="none">
<path d="M376 1164 c-30 -30 -13 -74 29 -74 46 0 60 48 23 74 -28 20 -33 20
-52 0z"/>
<path d="M749 1131 c-30 -31 -38 -75 -19 -110 5 -10 41 -37 79 -60 128 -76
196 -182 208 -322 15 -174 -81 -334 -245 -412 -61 -29 -75 -32 -167 -32 -94 0
-104 2 -168 34 -68 34 -168 128 -182 171 -7 22 -55 29 -55 8 0 -18 37 -77 67
-110 29 -30 25 -58 -7 -58 -46 0 -143 180 -161 301 -10 65 -10 90 6 172 15 79
16 99 5 112 -15 18 -44 20 -58 3 -24 -30 -45 -136 -45 -228 1 -167 63 -310
185 -425 81 -77 129 -106 232 -140 65 -22 98 -27 180 -26 210 0 386 92 501
261 161 238 133 552 -68 754 -129 130 -228 167 -288 107z"/>
<path d="M185 1038 c-72 -76 -94 -112 -79 -136 6 -9 22 -18 36 -20 19 -2 34 9
72 58 26 33 58 68 71 76 48 32 43 84 -8 84 -25 0 -43 -12 -92 -62z"/>
<path d="M507 1059 c-120 -28 -246 -128 -302 -238 -68 -137 -76 -318 -12 -309
21 3 22 9 28 98 9 142 41 214 134 299 51 47 100 73 178 96 63 18 75 29 57 50
-14 17 -27 17 -83 4z"/>
<path d="M4214 1015 c-9 -23 3 -45 24 -45 25 0 44 23 36 44 -8 20 -53 21 -60
1z"/>
<path d="M383 835 c-43 -46 -52 -68 -32 -81 12 -7 109 93 109 113 0 26 -35 12
-77 -32z"/>
<path d="M2814 831 c-76 -47 -98 -131 -49 -189 30 -36 61 -48 139 -57 100 -11
138 -76 75 -129 -50 -42 -129 -35 -186 17 -25 22 -53 17 -53 -11 0 -22 22 -43
65 -64 79 -40 171 -28 226 28 27 28 32 41 32 78 -2 83 -48 123 -155 135 -60 6
-75 12 -95 35 -30 35 -29 49 6 88 25 28 36 33 73 33 24 0 63 -9 86 -19 31 -14
46 -16 54 -8 52 52 -143 109 -218 63z"/>
<path d="M1761 814 c-97 -49 -144 -149 -121 -260 10 -47 21 -65 63 -109 93
-95 225 -102 318 -18 71 64 97 143 78 231 -32 150 -197 226 -338 156z m182
-38 c65 -28 117 -107 117 -179 0 -45 -36 -112 -77 -143 -43 -33 -133 -45 -183
-24 -43 18 -97 82 -110 130 -39 144 115 275 253 216z"/>
<path d="M2335 816 c-27 -13 -62 -36 -77 -52 -54 -58 -58 -82 -58 -344 0 -229
1 -240 19 -240 27 0 32 22 31 145 -1 60 -1 114 -1 119 1 5 11 0 24 -12 56 -53
156 -75 237 -52 118 33 195 197 147 313 -52 124 -201 180 -322 123z m184 -44
c19 -9 48 -34 65 -55 28 -35 31 -46 31 -106 0 -57 -4 -74 -28 -109 -70 -107
-225 -109 -304 -5 -25 32 -28 45 -28 109 0 66 3 76 31 111 17 21 46 46 65 55
44 23 124 23 168 0z"/>
<path d="M3260 813 c-170 -87 -171 -327 -1 -415 68 -36 136 -37 206 -4 28 12
56 30 64 39 22 27 31 20 31 -23 0 -33 4 -40 19 -40 27 0 31 18 31 129 0 130
-13 193 -50 245 -43 59 -98 88 -179 93 -58 4 -73 1 -121 -24z m183 -37 c99
-41 142 -172 87 -264 -34 -56 -86 -86 -154 -90 -54 -3 -66 0 -107 26 -156 100
-90 340 94 342 26 0 62 -6 80 -14z"/>
<path d="M3812 819 c-26 -13 -55 -39 -70 -62 -27 -40 -27 -43 -27 -211 0 -164
1 -171 20 -171 19 0 20 8 25 165 6 191 12 209 86 242 68 30 142 7 180 -56 16
-26 20 -58 24 -191 5 -152 6 -160 25 -160 19 0 20 8 23 130 4 150 -9 222 -46
267 -56 66 -160 86 -240 47z"/>
<path d="M4220 605 l0 -236 23 3 22 3 0 230 0 230 -22 3 -23 3 0 -236z"/>
<path d="M300 690 c-7 -14 -11 -53 -8 -104 2 -65 9 -92 32 -139 45 -89 157
-180 200 -164 27 11 18 24 -39 56 -100 57 -160 167 -153 286 3 72 -12 103 -32
65z"/>
<path d="M587 304 c-14 -15 -6 -34 14 -34 14 0 19 5 17 17 -3 18 -20 27 -31
17z"/>
</g>
</svg>
