<svg id="Layer_1" data-name="Layer 1" xmlns="http://www.w3.org/2000/svg" xmlns:xlink="http://www.w3.org/1999/xlink" viewBox="0 0 1366 768"><defs><style>.cls-1{fill:url(#linear-gradient);}.cls-2{fill:url(#linear-gradient-2);}.cls-3{fill:#4e4e4e;}</style><linearGradient id="linear-gradient" x1="722.59534" y1="421.78948" x2="1224.10631" y2="421.78948" gradientUnits="userSpaceOnUse"><stop offset="0" stop-color="#7ccbf4"/><stop offset="1" stop-color="#1b8bff"/></linearGradient><linearGradient id="linear-gradient-2" x1="122.82645" y1="547.8053" x2="244.50268" y2="547.8053" xlink:href="#linear-gradient"/></defs><path class="cls-1" d="M804.68869,150.85264A178.718,178.718,0,0,0,739.244,161.89177c-3.6561,1.333-5.20471.65313-6.67-2.86255-2.81432-6.75272-6.01627-13.35141-9.261-19.91329-1.24673-2.52137-1.01331-3.60838,1.85136-4.5702,15.91722-5.34426,32.009-9.56892,48.76809-11.70079,11.244-1.43032,22.46813-2.8319,33.71858-2.39312,61.15739,2.3853,115.51232,22.23586,161.12607,63.91241a233.66571,233.66571,0,0,1,52.12713,70.11286,4.28142,4.28142,0,0,0,3.72157,2.60973c45.58421,7.86366,85.68392,27.32531,120.43644,57.69508,40.21675,35.145,65.06538,79.3301,74.36561,131.756,14.9528,84.28889-5.51587,158.12718-67.48732,218.78073-25.15863,24.62355-54.68282,42.84651-87.01743,56.58305-5.06184,2.15035-5.1247,2.06229-5.13641-3.44291-.01648-7.83162.19393-15.67056-.09386-23.49155-.1262-3.4318,1.18558-4.86185,4.15844-6.2623,26.43465-12.45223,50.38964-28.565,70.95289-49.42774,31.99629-32.4623,51.93478-71.04086,57.08731-116.54272,6.46528-57.09533-4.89477-109.99044-39.96766-156.458-25.09626-33.24964-58.21015-55.82-97.13563-70.15082a205.47255,205.47255,0,0,0-47.38809-10.9721c-3.98331-.46518-6.09737-2.11038-7.73582-5.74079-11.92928-26.43273-27.49452-50.44222-48.5-70.63225C921.49985,180.26763,885.737,163.56936,845.853,155.05836,831.9875,152.09955,817.96618,150.42773,804.68869,150.85264Z"/><path class="cls-2" d="M244.33948,704.80556c.00226,4.16474-.16519,8.33832.05277,12.49165.19063,3.63221-.916,4.239-4.29441,3.00717a169.45605,169.45605,0,0,1-49.68694-28.21066c-34.75892-28.46014-57.58541-64.5162-64.81923-108.92293-8.82328-54.164,3.42559-103.80159,37.36261-147.404,20.42361-26.2404,46.68006-45.28063,76.32463-59.93627,3.88158-1.919,5.0168-1.58317,4.85931,2.97132-.27616,7.98641-.21435,15.99473.03036,23.98395.10161,3.31707-1.05883,5.1657-3.97587,6.61724-14.38152,7.15632-27.07256,16.98538-38.48924,27.9551-14.5547,13.98487-26.75254,30.17-34.55563,49.06716-17.99591,43.58163-19.95362,87.223,1.17451,130.39442,15.389,31.44467,39.71171,54.07525,71.07385,69.242,3.54784,1.71571,5.53192,3.51,5.02931,7.7593C243.998,697.43537,244.33721,701.14057,244.33948,704.80556Z"/><path class="cls-3" d="M348.08615,372.19086c0-11.01968.18732-21.18662-.105-31.33974-.09788-3.39875,2.01472-4.165,4.15231-5.33621Q429.157,293.31325,506.18405,251.118q70.68368-38.71595,141.42613-77.32407c4.03291-2.192,4.96231-3.92237,2.92935-8.25716-26.80763-57.16037-71.55362-90.967-133.337-102.36532-103.53294-19.10062-184.078,61.25712-200.65313,133.26282a164.778,164.778,0,0,0-4.13712,37.13619q.00788,241.457.114,482.91381c.00424,5.06421-1.04056,6.96222-6.42169,6.53784a178.45067,178.45067,0,0,0-19.9834-.05682c-3.14531.10582-4.24357-.986-3.86113-3.995a27.938,27.938,0,0,0,.0235-3.49637c0-158.80507.34124-317.61117-.17408-476.41456-.19613-60.448,22.27514-110.479,65.28511-151.77113,32.11781-30.835,70.19136-50.853,114.69883-55.7717,102.80876-11.36177,194.75684,49.05493,223.84593,143.474,3.23459,10.49894,3.20365,10.50094-6.34947,15.73233Q516.55114,280.00419,353.51339,369.28719C351.94091,370.14828,350.35217,370.97959,348.08615,372.19086Z"/><path class="cls-3" d="M651.12689,678.79377c0,9.79413-.05285,18.622.03942,27.44837a4.41387,4.41387,0,0,1-2.38563,4.42709c-40.62024,23.94493-82.59066,26.89187-124.79949,5.62451-30.09456-15.16342-46.30266-40.89894-48.07523-74.80423-1.67448-32.02876,6.85294-60.72087,30.46729-83.5753,33.29046-32.2191,90.12964-34.35457,124.83108-4.72807,17.64946,15.06827,26.37564,35.12424,30.74,57.39592,1.959,9.99668,2.47759,20.13817,2.99337,30.29327.2098,4.12953-.93429,5.255-5.13343,5.24157-48.3214-.15452-96.64348-.09881-144.96536-.09826-6.14433.00006-6.14427.002-4.72787,6.134,5.824,25.21362,25.74423,43.00151,53.015,46.837,28.0665,3.94736,54.74842.05749,79.2494-15.05925C645.02525,682.29551,647.745,680.77434,651.12689,678.79377Zm-81.59322-61.84932c18.82815,0,37.657-.08636,56.48371.07872,3.43109.03,4.3561-1.02684,3.84435-4.25139a60.82649,60.82649,0,0,0-5.31235-17.59694c-11.849-24.0062-36.91571-35.76113-66.439-31.13112-24.44288,3.83324-44.29575,24.20649-48.1163,49.13053-.51331,3.34874.5552,3.84953,3.5554,3.83031C532.21026,616.88482,550.87212,616.94426,569.53367,616.94445Z"/><path class="cls-3" d="M721.96877,535.21333c0,1.71395-.00006,3.48648-.00006,5.259q.00073,53.71922-.0122,107.4385A61.556,61.556,0,0,0,726.9339,672.679c7.56153,17.48526,20.20217,28.20395,39.811,29.24531,21.42486,1.13786,36.87232-8.06425,46.2276-27.34706a62.25991,62.25991,0,0,0,5.88415-27.58526c-.00269-30.316.07341-60.63237-.09587-90.94737-.02063-3.70588,1.14738-5.55964,4.40321-7.213,9.15-4.64673,18.08713-9.713,27.01762-14.56456,1.206,1.048.76829,2.106.7689,3.00968.02789,38.81114.12523,77.62258-.00909,116.43324-.10734,31.015-20.02282,61.22605-47.0499,71.85948a58.68444,58.68444,0,0,1-21.413,4.28124c-12.13652.03271-24.42207,1.44891-36.35532-1.36353-28.00169-6.59954-44.059-25.78074-53.02388-51.93607a76.9563,76.9563,0,0,1-3.81518-25.06367c-.01782-31.64857.0484-63.29732-.08775-94.94527-.01489-3.45994.98969-5.35379,4.12207-6.93543,8.15987-4.12037,16.10457-8.66549,24.16089-12.99323C718.7379,535.93736,719.8541,534.72713,721.96877,535.21333Z"/><path class="cls-3" d="M884.61655,672.8424c14.43214,13.81319,30.22274,23.013,48.539,27.60478,14.61222,3.6631,29.10636,3.25855,43.1-2.5754,10.0064-4.17164,16.57787-11.34581,17.95806-22.65774,1.14427-9.37792-2.48229-16.19069-10.34375-20.98169-8.647-5.26988-18.36485-7.65928-28.01231-10.18794-13.82336-3.62318-27.83272-6.66917-40.79155-12.97663-13.964-6.79672-25.32126-16.09823-29.33715-31.98055-4.67605-18.49294-.6778-45.718,26.01438-57.8067,30.74742-13.92518,61.47617-11.42215,91.4672,3.39061,5.28629,2.61092,7.87934,6.29794,7.22675,12.63659-.65821,6.3921-.14506,12.9048-.14506,20.17545-13.34468-9.50595-27.95684-13.51593-43.06952-16.01108-11.12572-1.83686-22.20292-2.23952-32.869,2.48429-5.42958,2.40478-10.15756,5.6726-13.49932,10.69867-6.54913,9.85009-4.72212,19.8273,4.98911,26.5,7.92969,5.44857,17.05326,8.13511,26.114,10.92771,12.38135,3.816,24.99936,6.90034,36.9666,11.9955a120.72866,120.72866,0,0,1,14.6027,7.558c35.73329,21.34736,26.46333,68.22135,1.30537,84.47307-12.8247,8.28468-26.91375,12.0542-41.83549,13.3882-27.91919,2.496-53.12572-4.15913-74.88566-22.40094a8.81682,8.81682,0,0,1-3.57109-7.6713C884.77149,690.96655,884.61655,682.49726,884.61655,672.8424Z"/><path class="cls-3" d="M451.26979,551.76719q0,82.69855.096,165.39686c.01181,4.4371-.91811,6.081-5.66773,5.80173-7.4692-.43915-14.99035-.31124-22.475-.03283-3.61032.13432-4.82926-1.11833-4.30628-4.51113a9.94137,9.94137,0,0,0,.01035-1.49749q0-156.90248-.09127-313.80478c-.00439-3.98331,1.064-6.26649,4.69226-8.07878,7.4313-3.712,14.61789-7.91431,21.90164-11.92129,5.8371-3.21113,5.83917-3.21543,5.83933,3.25052Q451.27092,469.0686,451.26979,551.76719Z"/><path class="cls-3" d="M380.702,629.03356c0,29.65017-.0796,59.30077.09425,88.9499.0235,3.99954-1.09553,5.10675-5.01647,4.95522-7.817-.30214-15.65684-.21573-23.48089-.02728-3.10483.07476-4.29825-.59812-4.29114-4.054q.16741-81.45423.00186-162.909c-.00537-2.80591,1.04992-4.09627,3.31875-5.33054,8.47167-4.60889,16.92321-9.2671,25.21557-14.1879,3.76044-2.23146,4.223-1.03636,4.21135,2.65383C380.66043,569.06687,380.702,599.05025,380.702,629.03356Z"/><path class="cls-3" d="M345.34232,507.37555c0-13.50672.01577-26.10395-.0209-38.701a3.09311,3.09311,0,0,1,1.84546-3.16615c11.83864-5.85406,23.66033-11.74239,36.227-17.98825,0,13.49268-.01495,26.2267.01928,38.9606a3.06681,3.06681,0,0,1-2.04932,3.02805C369.63373,495.29476,357.92593,501.126,345.34232,507.37555Z"/></svg>