<?xml version="1.0" standalone="no"?>
<!DOCTYPE svg PUBLIC "-//W3C//DTD SVG 20010904//EN"
 "http://www.w3.org/TR/2001/REC-SVG-20010904/DTD/svg10.dtd">
<svg version="1.0" xmlns="http://www.w3.org/2000/svg"
 width="2850.000000pt" height="496.000000pt" viewBox="0 0 2850.000000 496.000000"
 preserveAspectRatio="xMidYMid meet">

<g transform="translate(0.000000,496.000000) scale(0.100000,-0.100000)"
fill="#000000" stroke="none">
<path d="M1668 4949 c-845 -82 -1525 -738 -1644 -1586 -24 -172 -15 -453 20
-620 138 -657 601 -1175 1234 -1383 328 -107 703 -119 1044 -31 449 116 851
412 1096 807 459 740 340 1703 -286 2306 -389 375 -920 559 -1464 507z m381
-1253 c356 -124 520 -523 354 -859 -49 -97 -180 -229 -274 -275 -128 -62 -284
-82 -409 -53 -304 71 -521 376 -480 674 37 261 210 459 462 527 101 28 243 22
347 -14z"/>
<path d="M22345 3890 c-475 -54 -873 -298 -1130 -693 -408 -628 -290 -1489
270 -1979 417 -364 984 -478 1511 -303 523 174 921 638 1015 1183 26 156 26
379 -1 537 -53 312 -194 581 -424 810 -288 287 -628 435 -1036 449 -69 3 -161
1 -205 -4z m332 -495 c214 -41 377 -127 528 -279 211 -213 318 -497 302 -805
-25 -495 -367 -895 -834 -976 -317 -55 -635 45 -864 274 -279 280 -380 712
-254 1095 90 273 272 486 519 606 91 44 207 81 291 93 73 10 239 6 312 -8z"/>
<path d="M6430 2351 l0 -1471 260 0 260 0 0 440 0 440 308 0 c466 0 640 29
877 147 272 136 446 346 523 633 23 85 25 114 25 270 0 156 -2 185 -25 271
-100 372 -381 617 -818 712 -89 19 -134 21 -752 24 l-658 4 0 -1470z m1213
999 c218 -32 399 -147 476 -304 39 -80 50 -133 51 -236 1 -271 -161 -478 -440
-561 -70 -21 -98 -23 -427 -27 l-353 -4 0 571 0 571 313 0 c171 0 343 -5 380
-10z"/>
<path d="M13366 2990 c-124 -15 -233 -46 -345 -101 -182 -89 -298 -232 -336
-414 -59 -279 54 -512 308 -635 128 -61 161 -70 492 -125 149 -25 290 -52 315
-60 177 -59 221 -242 82 -338 -70 -49 -146 -69 -284 -74 -205 -9 -320 23 -418
114 -59 54 -100 123 -115 191 -7 32 -7 32 -69 32 -35 0 -138 3 -231 7 l-168 6
6 -59 c10 -95 34 -172 84 -274 38 -79 60 -109 132 -181 74 -74 101 -93 191
-138 162 -79 314 -111 533 -111 220 0 394 37 547 116 181 93 295 229 335 396
19 82 19 248 0 321 -52 199 -200 330 -451 402 -49 14 -190 41 -314 60 -302 48
-361 65 -428 129 -46 43 -64 81 -65 136 -1 58 24 104 81 147 57 43 128 64 243
70 233 13 414 -71 463 -215 9 -25 16 -54 16 -64 0 -21 24 -22 295 -11 l168 6
-7 59 c-3 33 -17 91 -30 130 -104 298 -393 469 -818 482 -73 3 -168 1 -212 -4z"/>
<path d="M27415 2989 c-127 -16 -232 -46 -344 -100 -175 -85 -286 -217 -331
-395 -60 -232 16 -462 192 -587 143 -101 240 -132 619 -196 307 -51 349 -64
411 -127 101 -101 54 -247 -98 -304 -92 -34 -159 -42 -294 -37 -147 5 -225 26
-308 84 -65 44 -124 129 -143 203 l-13 50 -61 0 c-34 0 -137 3 -230 7 l-168 6
6 -59 c10 -95 34 -172 83 -274 39 -80 61 -109 134 -181 73 -73 102 -94 191
-138 177 -87 344 -117 599 -108 98 4 187 14 242 26 307 70 510 239 573 478 19
71 21 249 4 318 -31 128 -101 228 -212 302 -130 87 -238 118 -637 182 -224 36
-289 58 -351 120 -56 56 -75 110 -59 171 30 113 165 180 365 180 212 0 374
-84 419 -218 9 -25 16 -54 16 -64 0 -21 24 -22 295 -11 l168 6 -7 59 c-3 33
-17 91 -30 130 -104 298 -393 469 -818 482 -73 3 -169 0 -213 -5z"/>
<path d="M9908 2975 c-131 -22 -282 -79 -395 -150 l-43 -26 0 70 0 71 -260 0
-260 0 0 -1030 0 -1030 260 0 260 0 0 633 c0 692 0 697 59 802 73 131 262 195
572 195 l89 0 0 234 c0 204 -2 235 -16 240 -26 10 -184 5 -266 -9z"/>
<path d="M11155 2980 c-361 -48 -661 -255 -815 -565 -153 -307 -157 -674 -9
-984 64 -135 117 -208 226 -311 104 -98 215 -169 343 -217 153 -57 223 -68
425 -67 161 1 190 4 280 27 375 100 660 386 755 758 130 510 -93 1031 -534
1249 -205 101 -443 140 -671 110z m287 -461 c126 -27 249 -104 325 -204 195
-257 173 -637 -50 -860 -115 -115 -243 -168 -407 -168 -263 1 -470 156 -557
418 -23 70 -27 96 -27 210 0 114 4 140 27 211 64 192 216 338 407 388 67 18
210 20 282 5z"/>
<path d="M15685 2976 c-146 -23 -289 -77 -389 -145 l-46 -32 0 71 0 70 -250 0
-250 0 0 -1470 0 -1470 250 0 250 0 0 516 0 516 33 -22 c65 -44 214 -109 302
-131 78 -21 114 -24 270 -24 214 0 289 16 450 95 305 149 511 429 571 772 24
136 15 350 -19 480 -77 291 -268 536 -524 670 -200 105 -418 139 -648 104z
m220 -438 c88 -18 190 -74 265 -145 132 -124 189 -255 197 -449 5 -102 2 -132
-16 -199 -77 -280 -308 -465 -581 -465 -215 0 -396 112 -489 301 -62 126 -76
192 -75 344 0 119 3 138 32 223 39 113 69 166 133 237 130 141 324 197 534
153z"/>
<path d="M17985 2979 c-257 -35 -469 -141 -636 -317 -123 -130 -201 -272 -251
-460 -26 -99 -36 -353 -18 -473 57 -391 327 -713 697 -834 110 -36 239 -55
379 -55 347 0 656 136 830 364 49 65 103 161 119 214 l6 22 -263 0 -264 0 -51
-49 c-137 -132 -373 -175 -590 -106 -187 59 -302 182 -367 393 l-7 22 784 0
784 0 7 46 c3 26 6 99 6 163 0 336 -103 604 -308 803 -130 127 -272 206 -444
248 -97 24 -306 34 -413 19z m320 -418 c82 -29 161 -86 217 -156 50 -62 103
-174 114 -243 l7 -42 -538 0 -537 0 5 28 c11 56 49 143 88 201 75 113 180 187
319 226 78 21 245 14 325 -14z"/>
<path d="M20375 2979 c-130 -19 -267 -73 -358 -143 l-47 -36 0 70 0 70 -260 0
-260 0 0 -1030 0 -1030 260 0 260 0 0 633 c0 688 0 695 57 799 79 145 240 208
534 208 l129 0 0 229 0 229 -31 6 c-43 8 -211 5 -284 -5z"/>
<path d="M25310 2984 c-159 -20 -320 -72 -429 -139 l-71 -44 0 70 0 69 -250 0
-250 0 0 -1470 0 -1470 250 0 250 0 0 516 0 515 43 -26 c78 -49 189 -97 286
-123 87 -23 113 -26 286 -26 217 0 278 12 430 83 116 54 186 103 282 194 491
470 421 1306 -140 1686 -78 53 -226 119 -317 141 -83 20 -291 34 -370 24z
m215 -446 c88 -18 190 -74 265 -145 132 -124 189 -255 197 -449 5 -102 2 -132
-16 -199 -32 -117 -85 -209 -166 -291 -148 -150 -360 -208 -569 -154 -261 67
-426 306 -426 618 0 128 18 208 72 322 66 138 186 243 331 289 82 27 209 31
312 9z"/>
<path d="M461 1245 c-170 -48 -309 -162 -387 -317 -129 -257 -62 -574 161
-755 109 -88 237 -133 385 -133 263 0 482 151 577 398 35 90 44 265 19 362
-50 195 -185 348 -371 422 -72 28 -92 32 -205 35 -90 2 -140 -1 -179 -12z"/>
</g>
</svg>
