<svg id="layer" xmlns="http://www.w3.org/2000/svg" viewBox="0 0 652 136"><defs><style>.cls-1{fill:#cececf;}.cls-2{fill:#d20b2d;}.cls-3{fill:#231815;}</style></defs><path class="cls-1" d="M21.9,82.7a43.5973,43.5973,0,0,0,14,2.8c4.2,0,9.9-1,9.7-5.5-.3-7.9-20.9-12.8-21.3-23-.3-6.2,4.9-10.7,16.3-10.7a79.79377,79.79377,0,0,1,11.9,1.1l.7,6a39.07672,39.07672,0,0,0-11.5-1.8c-4.2,0-9.2.9-9,4.9C33,64.3,53.5,69.2,54,79.9c.3,8-8.9,10.8-16.7,10.8A69.13162,69.13162,0,0,1,22.9,89Z"/><path class="cls-1" d="M83.4,51.7c11.4,0,16.8,6,17.2,15.5.4,9.8-3.9,18.3-16.4,18.3-11.2,0-16.5-6.8-16.9-15.6-.5-10.3,4.6-18.2,16.1-18.2m.4-5.4c-16.4,0-25.6,9.3-25,23.3.6,13,10.5,21.2,25.4,21.2,19.3,0,25.3-12.5,24.8-23.6-.6-13-10.2-20.9-25.2-20.9"/><path class="cls-1" d="M111.3,52.6l.1-5.3h6.3c-.5-10.1,0-16.4,13.8-16.4a50.20917,50.20917,0,0,1,9.5,1l.6,5.5a35.405,35.405,0,0,0-9.2-1.2c-7.7,0-7.5,5.1-7.2,11.1h13.5l-.2,5.3H125.4c.4,15.7,0,24.3.4,37.2H117c.4-12.4.3-24.8.3-37.2Z"/><path class="cls-1" d="M142.3,52.6V47.3h6.6l.2-7.8,7.8-1.5v9.3h13.4v5.3H156.8c0,8.3-.3,19.7-.1,25.1.2,4,1,7.3,6.4,7.3a33.67555,33.67555,0,0,0,7.8-1l-.8,5.8a45.29673,45.29673,0,0,1-9.1,1c-8.2,0-12.2-2.8-12.5-10.2-.2-4.8.4-18.7.4-27.9h-6.6Z"/><path class="cls-1" d="M231.4,82.9h.2l15.5-35.6h8.2L235.6,89.9h-9.4L214,55.1h-.2L200.6,89.8h-9.2L172.2,47.2h8.3c4.9,12.1,10.4,24,15.6,35.6h.2l13.5-35.6h8.8Z"/><path class="cls-1" d="M288.1,89.8c.7-6.6.6-16.5.7-24.9-6.1,5.6-27.8,4.4-27.4,14.5.2,5.3,6.3,6.9,11.4,6.9a37.36717,37.36717,0,0,0,10.1-1.5L281.5,90a61.353,61.353,0,0,1-9.7.9c-7.2,0-18-1.3-18.4-11.3-.8-17.9,35.5-11,34.9-22.6-.2-5.2-7-6.1-11.7-6.1a50.03424,50.03424,0,0,0-18,3.4l.6-5.6a79.49886,79.49886,0,0,1,18.2-2.2c16.3,0,19,5.5,19.2,11,.3,6.4-.5,23-.1,32.5h-8.4Z"/><path class="cls-1" d="M315.9,54.1h.2c2.9-5.2,7.2-7.7,14.4-7.7a23.37146,23.37146,0,0,1,3.9.4l.6,6.3a26.01332,26.01332,0,0,0-5.6-.7c-8.1,0-12.1,5.5-12.9,11.9-.8,5.5-.3,15.1.1,25.6h-8.7c.3-12.3.7-24.7-.2-42.6h8.2Z"/><path class="cls-1" d="M345,63.2c1.2-7.5,6.7-12.4,15.7-12.4,8.8,0,12.8,5.3,13.1,12.4Zm36.7,4.4a26.61921,26.61921,0,0,0,.1-3.9c-.5-11.7-9.1-17.5-22-17.5-15.9,0-24,10.1-23.4,23.2.5,10.5,6.1,21.2,26.4,21.2a68.09569,68.09569,0,0,0,14.9-1.7l1.1-6.3c-4.7,1.4-10,2.7-14.9,2.7-11.2,0-18.6-5.5-19-15.4l-.1-2.4h36.9Z"/><path class="cls-1" d="M437.7,30.1c-6.2,1.4-12.7,2.2-18.9,3.1l-.7.1v1.9h.3c4.5.4,6.6,2.3,6.6,6.2V66.7c0,4.9-1.3,8-7.7,8.3H417v2l14.6-.3,14.6.3V75.1h-.3c-6.4-.3-7.7-3.4-7.7-8.3V30Z"/><path class="cls-2" d="M616.2,113.2c4.9,1.9,4.8,5.3-.6,7.9-5.6,2.6-15.3.2-22.4-1-27-4.6-59.8-7.3-102.9-5.2-47.3,2.4-83.5,6.5-122,13.4-9.8,1.8-10.1-2.3-3.7-4.1,38.8-11.3,77.6-18.9,127.9-21.9,49.1-2.8,95.1-.3,123.7,10.9"/><path class="cls-3" d="M463.6,53.8c.8,11.5-8,34.2-32.7,34.2-17.4,0-31.8-11-31.8-32.2,0-21.1,12.4-35,32.9-35,9.3,0,18.4,3.5,24.3,10.1,6,7,7.3,14.2,7.3,22.9m-33,37.6c26,0,44.4-15.2,44.4-38.4,0-25-22.3-35.6-44.2-35.6-24.1,0-43.2,14.4-43.2,37.2,0,22.2,17.2,36.8,43,36.8"/><path class="cls-3" d="M549.9,89.6c0,1.7-1.5,2.1-3,.5-1.6-1.7-4.1-4.5-6.6-6.9,0,0-50.2-47.1-50.7-47.5-.4-.4-1.2-.7-1.2,0,0,.8,1.1,54.4,1.1,54.4-1.2-.1-3.1-.6-4.1-.6-1.2,0-3.1.5-4.1.6,0,0,.8-66.7.8-69.5s1.7-2.8,4.1-.4c17.9,18.3,55.6,51.3,56.1,51.8s1.2.7,1.2,0-.8-53.1-.8-53.1c1,.1,2.7.6,3.8.6s2.7-.5,3.8-.6c.1,0-.4,69-.4,70.7"/><path class="cls-3" d="M570,49.9h26.3c3.5,0,6.9-.4,10.4-.5a21.87953,21.87953,0,0,0-.4,2.7,18.08363,18.08363,0,0,0,.4,2.9c-3.5-.1-6.9-.5-10.4-.5H570l.3,30.4c7.1.2,23.8-.2,30.8-.4,3.6-.1,7.1-1,10.7-1.5-.1,1.1-.3,2.6-.3,3.7,0,1,.2,2.1.3,3.1H560s.6-23,.6-37.5-.6-33.5-.6-33.5,17,.3,25.2.3,25.9-.3,25.9-.3c-.1,1.1-.3,2.4-.3,3.4a18.91923,18.91923,0,0,0,.3,3.1,69.53369,69.53369,0,0,0-14.6-1.4l-17.2-.2h-9Z"/><path class="cls-3" d="M617.2,20.7h.7c.4,0,1,0,1,.6s-.7.6-1,.6h-.8V20.7Zm-.7,3.4h.6V22.4h.4c.5,0,.7.2,1.2,1.1l.4.6h.8l-.5-.8c-.5-.8-.7-.9-.9-1h0a1.1604,1.1604,0,0,0,1.1-1.1,1.23446,1.23446,0,0,0-.4-.8,1.9434,1.9434,0,0,0-1.3-.3h-1.4v4Zm1.7-5.7a3.7,3.7,0,1,0,3.7,3.7,3.69144,3.69144,0,0,0-3.7-3.7m-.1.6a3.1,3.1,0,1,1-3.1,3.1,3.11557,3.11557,0,0,1,3.1-3.1"/></svg>