<?xml version="1.0" standalone="no"?>
<!DOCTYPE svg PUBLIC "-//W3C//DTD SVG 20010904//EN"
 "http://www.w3.org/TR/2001/REC-SVG-20010904/DTD/svg10.dtd">
<svg version="1.0" xmlns="http://www.w3.org/2000/svg"
 width="200.000000pt" height="200.000000pt" viewBox="0 0 200.000000 200.000000"
 preserveAspectRatio="xMidYMid meet">

<g transform="translate(0.000000,200.000000) scale(0.100000,-0.100000)"
fill="#000000" stroke="none">
<path d="M980 1310 l0 -240 35 0 35 0 0 200 0 199 73 3 72 3 3 38 3 37 -110 0
-111 0 0 -240z"/>
<path d="M820 1510 c0 -27 3 -30 30 -30 27 0 30 3 30 30 0 27 -3 30 -30 30
-27 0 -30 -3 -30 -30z"/>
<path d="M110 921 c0 -17 6 -21 30 -21 l30 0 0 -95 c0 -89 1 -95 20 -95 20 0
21 5 18 113 l-3 112 -47 3 c-43 3 -48 1 -48 -17z"/>
<path d="M810 927 c-18 -9 -26 -22 -28 -45 -4 -43 9 -57 69 -77 42 -14 50 -21
47 -38 -3 -19 -9 -22 -43 -21 -22 1 -49 3 -59 5 -29 6 -29 -16 0 -31 63 -34
144 -6 144 50 0 34 -23 54 -77 70 -44 13 -57 28 -43 50 7 12 33 14 84 8 29 -4
30 17 1 30 -33 15 -64 15 -95 -1z"/>
<path d="M1807 933 c-4 -3 -7 -55 -7 -115 0 -101 1 -108 20 -108 19 0 20 7 20
95 l0 95 30 0 c23 0 30 4 30 20 0 17 -7 20 -43 20 -24 0 -47 -3 -50 -7z"/>
<path d="M300 915 c0 -8 9 -15 20 -15 11 0 20 7 20 15 0 8 -9 15 -20 15 -11 0
-20 -7 -20 -15z"/>
<path d="M430 820 c0 -103 1 -110 20 -110 17 0 19 8 22 83 l3 82 38 -72 c20
-40 43 -73 50 -73 7 0 29 33 49 73 l37 72 0 -82 c1 -76 3 -83 21 -83 19 0 20
7 20 110 l0 110 -30 0 c-27 0 -33 -6 -59 -65 -16 -36 -34 -65 -39 -65 -5 0
-21 29 -37 65 -26 62 -29 65 -61 65 l-34 0 0 -110z"/>
<path d="M1020 820 c0 -103 1 -110 20 -110 16 0 20 7 20 30 0 26 3 30 29 30
96 0 145 77 86 135 -21 22 -33 25 -90 25 l-65 0 0 -110z m128 68 c7 -7 12 -21
12 -33 0 -31 -19 -45 -62 -45 l-38 0 0 45 0 45 38 0 c21 0 43 -5 50 -12z"/>
<path d="M1270 915 c0 -8 9 -15 20 -15 11 0 20 7 20 15 0 8 -9 15 -20 15 -11
0 -20 -7 -20 -15z"/>
<path d="M1410 820 c0 -91 3 -110 15 -110 10 0 15 11 15 35 0 32 3 35 29 35
21 0 34 -9 52 -35 16 -23 32 -35 48 -35 l23 0 -27 36 c-25 33 -27 38 -12 49
22 16 38 60 30 82 -15 44 -34 53 -105 53 l-68 0 0 -110z m134 58 c19 -30 -4
-53 -58 -56 l-46 -3 0 41 0 41 46 -3 c31 -2 51 -9 58 -20z"/>
<path d="M1670 915 c0 -8 9 -15 20 -15 11 0 20 7 20 15 0 8 -9 15 -20 15 -11
0 -20 -7 -20 -15z"/>
<path d="M307 854 c-4 -4 -7 -38 -7 -76 0 -62 2 -68 20 -68 19 0 21 5 18 72
-3 65 -13 89 -31 72z"/>
<path d="M1277 853 c-4 -3 -7 -37 -7 -75 0 -61 2 -68 20 -68 18 0 20 7 20 75
0 56 -3 75 -13 75 -8 0 -17 -3 -20 -7z"/>
<path d="M1677 854 c-4 -4 -7 -38 -7 -76 0 -62 2 -68 20 -68 19 0 21 5 18 72
-3 65 -13 89 -31 72z"/>
<path d="M173 535 c0 -22 2 -30 4 -17 2 12 2 30 0 40 -3 9 -5 -1 -4 -23z"/>
<path d="M228 535 c2 -19 6 -35 8 -35 2 0 4 16 4 35 0 19 -4 35 -8 35 -4 0 -6
-16 -4 -35z"/>
<path d="M325 549 c-5 -14 -1 -27 11 -38 17 -15 17 -15 4 2 -11 15 -11 23 -2
38 7 10 8 19 3 19 -5 0 -13 -10 -16 -21z"/>
<path d="M414 556 c-9 -23 -1 -49 16 -53 12 -4 13 -3 1 5 -8 6 -12 20 -9 36 6
28 1 35 -8 12z"/>
<path d="M511 533 c2 -31 3 -33 6 -10 2 15 9 27 14 27 6 0 7 5 4 10 -13 22
-25 8 -24 -27z"/>
<path d="M570 544 c0 -24 -2 -25 -17 -13 -15 13 -15 12 -2 -8 20 -32 29 -28
29 12 0 19 -2 35 -5 35 -3 0 -5 -12 -5 -26z"/>
<path d="M611 557 c-1 -10 6 -20 15 -24 8 -3 13 -12 10 -19 -3 -8 -1 -14 4
-14 15 0 12 28 -4 37 -7 4 -16 15 -19 23 -4 12 -6 11 -6 -3z"/>
<path d="M680 541 c0 -17 4 -32 8 -35 4 -2 6 11 4 30 -5 42 -12 45 -12 5z"/>
<path d="M731 550 c-1 -15 -6 -31 -13 -38 -9 -9 -9 -12 0 -12 13 0 26 43 19
62 -3 7 -6 2 -6 -12z"/>
<path d="M838 535 c2 -19 6 -35 8 -35 2 0 4 16 4 35 0 19 -4 35 -8 35 -4 0 -6
-16 -4 -35z"/>
<path d="M940 561 c0 -5 7 -12 16 -15 14 -5 15 -4 4 9 -14 17 -20 19 -20 6z"/>
<path d="M991 547 c-1 -20 -5 -26 -13 -21 -8 5 -7 0 2 -11 14 -18 15 -18 18 3
2 12 1 30 -1 40 -3 10 -5 6 -6 -11z"/>
<path d="M1034 556 c-9 -22 -1 -49 16 -54 13 -5 13 -3 1 11 -7 9 -11 26 -8 37
6 23 -1 27 -9 6z"/>
<path d="M1205 560 c-3 -5 -1 -10 4 -10 6 0 11 5 11 10 0 6 -2 10 -4 10 -3 0
-8 -4 -11 -10z"/>
<path d="M1452 540 c0 -19 2 -27 5 -17 2 9 2 25 0 35 -3 9 -5 1 -5 -18z"/>
<path d="M467 520 c-9 -11 -13 -20 -7 -20 5 0 14 9 20 20 6 11 9 20 8 20 -2 0
-11 -9 -21 -20z"/>
<path d="M1079 531 c8 -5 10 -14 6 -22 -6 -11 -5 -11 5 -2 14 12 6 33 -13 33
-8 0 -7 -3 2 -9z"/>
<path d="M1540 510 c0 -6 7 -10 15 -10 8 0 15 2 15 4 0 2 -7 6 -15 10 -8 3
-15 1 -15 -4z"/>
<path d="M778 503 c6 -2 18 -2 25 0 6 3 1 5 -13 5 -14 0 -19 -2 -12 -5z"/>
<path d="M1808 503 c7 -3 16 -2 19 1 4 3 -2 6 -13 5 -11 0 -14 -3 -6 -6z"/>
</g>
</svg>
