<svg id="Layer_1" data-name="Layer 1" xmlns="http://www.w3.org/2000/svg" viewBox="0 0 1498 1188"><defs><style>.cls-1{fill:#202d38;}.cls-2{fill:#1b70ba;}.cls-3{fill:#c9dd4e;}.cls-4{fill:#934a9a;}.cls-5{fill:#81cc7f;}.cls-6{fill:#cc4039;}.cls-7{fill:#df5644;}.cls-8{fill:#098fca;}.cls-9{fill:#f48923;}.cls-10{fill:#7a828a;}.cls-11{fill:#f16d2f;}.cls-12{fill:#e6b52d;}.cls-13{fill:#e8614a;}.cls-14{fill:#7a8289;}.cls-15{fill:#5fc397;}.cls-16{fill:#b0da5f;}.cls-17{fill:#ee7b2e;}.cls-18{fill:#c23b8f;}.cls-19{fill:#7b8289;}.cls-20{fill:#1ab2c5;}.cls-21{fill:#4fb463;}.cls-22{fill:#fed502;}</style></defs><path class="cls-1" d="M1404.7804,1085.611a40.83955,40.83955,0,0,1-14.93055,7.31732c-19.9143,4.9574-33.41577-5.38781-33.43969-25.76532-.03247-27.7973.08191-55.59521-.11158-83.39117-.027-3.87891,1.106-4.61432,4.71289-4.55218,12.98182.22363,25.971-.002,38.95484.1535,3.07129.03674,4.05261-.89069,3.95581-3.94623-.2002-6.31879-.24268-12.65576.01269-18.97052.13916-3.44067-.83544-4.58008-4.40918-4.5224-12.81567.207-25.63891-.0412-38.45507.15979-3.54663.0556-4.92188-.59131-4.7771-4.55774.33935-9.3089-.00318-18.64068.17346-27.95862.05627-2.96844-.61511-4.05621-3.822-3.9613-8.15052.24115-16.32.27893-24.46753-.00842-3.74988-.13221-4.36756,1.35968-4.30261,4.62658.18164,9.15125-.105,18.31293.147,27.46082.09924,3.603-1.10376,4.52447-4.52735,4.392-6.48291-.2508-12.98535.03345-19.47436-.12085-2.81836-.067-4.25073.46-4.13464,3.76086.23413,6.64978.184,13.31659.015,19.97034-.07251,2.85162.88611,3.75012,3.7207,3.66724,6.3208-.18494,12.67261.2622,18.97-.16529,4.47608-.30377,5.4878,1.09949,5.45508,5.46778q-.31713,42.1929-.07507,84.38971c.06311,15.45477,3.47253,29.84124,15.77258,40.47265,19.17127,16.57068,54.40491,16.38269,75.62866-.14679v-.99927C1411.86768,1100.84894,1408.36328,1093.31427,1404.7804,1085.611Z"/><path class="cls-2" d="M1137.20837,163.18848l-.00158.00122h.0028a46.69946,46.69946,0,0,0,6.67627,18.05176l-.00134.00482.00305-.00244c5.82813,9.7658,14.54969,16.11779,24.62928,20.86731l-.00025.00018c1.60327.40051,3.21411.774,4.809,1.20538A49.78157,49.78157,0,0,0,1201.0354,107.698c-3.45483-1.05152-7.02441-1.72681-10.54077-2.57642q-2.99853.00018-5.99683,0a11.23408,11.23408,0,0,1-1.86157.55579c-24.46179,2.97034-40.40723,17.45849-45.43591,41.30725h.00122A46.77181,46.77181,0,0,0,1137.20837,163.18848Z"/><path class="cls-1" d="M738.55121,1034.946c-.019-9.8114.24121-19.61749-.75873-29.42651-2.71643-26.647-18.99475-45.66931-45.0047-52.055-17.4378-4.28119-34.96442-3.81885-52.46649-.45929-14.8667,2.85382-28.703,8.26385-40.922,17.38269-1.28631.9599-3.41559,1.50921-1.85785,4.17694,4.32849,7.413,8.38513,14.98474,12.5694,22.53009,19.44232-13.66663,34.77667-18.58368,56.1167-18.13117,25.81128.54737,39.95788,14.5337,39.79047,39.03156-.02436,3.56049-1.056,4.41022-4.48621,4.36682-14.654-.18536-29.31183-.08209-43.9682-.07782a105.82071,105.82071,0,0,0-30.53027,4.17865c-20.9693,6.27869-33.095,20.54627-34.66791,40.81641-1.6236,20.92346,8.18506,37.76428,27.44757,47.21576,13.58478,6.66546,28.07428,7.81439,42.83587,6.84381,17.13111-1.12622,32.53724-6.39313,45.11133-20.58429,0,5.95923.15467,10.75146-.05877,15.52722-.12568,2.81164.70977,3.717,3.594,3.64313,7.65631-.19629,15.32733-.25128,22.97937.01428,3.63232.126,4.37836-1.20465,4.363-4.56525C738.51489,1088.56506,738.60333,1061.75531,738.55121,1034.946Zm-32.59229,30.71918a11.82371,11.82371,0,0,1-1.4931,5.68439c-8.41229,16.69543-27.97644,26.66662-48.50146,24.73047-6.46692-.61005-12.82361-1.5929-18.67157-4.68585-8.982-4.75055-13.29163-12.23682-12.85254-22.32105.45269-10.3941,6.16748-16.75592,15.83374-19.97516a62.52806,62.52806,0,0,1,19.61767-2.82806c5.98383-.03339,11.9679-.007,17.95191-.00739,8.14489-.00036,16.2915.09552,24.43359-.05475,2.68359-.04962,3.84387.53345,3.71326,3.50672C705.7572,1055.02234,705.85406,1060.34918,705.95892,1065.66516Z"/><path class="cls-1" d="M1078.53491,1008.45605c-1.87207-28.96423-18.55517-48.72808-46.781-55.32464-16.97-3.96607-34.02338-3.40039-51.03211-.09906-14.70123,2.85351-28.37683,8.18927-40.535,17.10071-1.76056,1.29034-3.556,2.17077-1.80481,5.06738,3.86517,6.39294,7.34735,13.0188,10.92987,19.5802.91632,1.67841,1.45355,2.57275,3.56171.92487,15.73748-12.30079,33.88287-17.09961,53.612-16.74421,25.91462.46692,40.42792,14.75843,40.17682,39.296-.03418,3.34223-.99414,4.132-4.19751,4.09711-14.82312-.16131-29.64892-.08819-44.47375-.06549a105.30691,105.30691,0,0,0-30.05066,4.06158c-21.7016,6.4499-33.96759,21.07618-35.14655,41.99921-1.21673,21.592,9.33881,39.56983,30.36573,47.19855,30.12164,10.92834,59.02343,9.34558,84.93121-13.52326,0,5.00782.14966,9.63581-.05444,14.24811-.12867,2.90937.99267,3.688,3.74914,3.635,7.65943-.14734,15.33045-.2409,22.98291.03259,3.675.13141,4.36377-1.26385,4.33814-4.5935-.14209-18.48474.01977-36.97168-.09339-55.45679C1078.90833,1042.74506,1079.64209,1025.58582,1078.53491,1008.45605Zm-31.92334,56.80719a13.372,13.372,0,0,1-1.9353,6.582c-9.20386,17.87146-28.0929,25.10034-47.8512,24.21051a45.30425,45.30425,0,0,1-17.86786-4.05451c-9.55383-4.6026-14.90344-13.2774-14.15216-23.14166.78351-10.28851,6.32856-16.91113,17.08991-20.174a63.59492,63.59492,0,0,1,18.71692-2.42639c5.82312.01251,11.64612.00268,17.46917.0028,8.31861.00006,16.63965.11554,24.95435-.06384,2.82813-.061,3.717.76715,3.59839,3.59894C1046.41821,1054.94464,1046.48315,1060.10992,1046.61157,1065.26324Z"/><path class="cls-1" d="M1274.9043,1049.3537c-.05762-12.47675.495-24.96216-.43311-37.4306-2.14343-28.7923-18.208-50.08289-44.11926-57.9729-13.93543-4.24329-28.18567-4.5102-42.47205-1.98206-15.79394,2.7948-29.57544,9.52747-41.19848,22.49921,0-7.1427-.11792-12.97016.05249-18.78919.07934-2.70849-.6073-3.79468-3.54871-3.726-7.98743.18677-15.98425.16022-23.97327.00909-2.6687-.05053-3.74316.49335-3.738,3.48706q.13293,80.4029.00976,160.806c-.00366,2.74958.63794,3.7389,3.55762,3.67133,8.32056-.19263,16.65332-.23456,24.971.01178,3.50464.10382,4.06176-1.3266,4.043-4.36768q-.16554-26.71683-.02906-53.43518c.06494-12.14184-.5393-24.29809.48658-36.42346,1.00573-11.88715,4.39282-22.9375,13.02807-31.5802,14.48145-14.49359,32.33594-16.50281,51.33643-12.68469,13.54516,2.72186,22.20678,11.26959,26.63025,24.26282,2.72265,7.997,3.13269,16.27111,3.13134,24.6076-.00427,28.29926.07239,56.59888-.09045,84.89722-.02148,3.7539.96,4.87805,4.72095,4.73132,7.48083-.29205,14.9917-.32129,22.46972.00678,4.101.17993,5.33863-.9408,5.2959-5.17823C1274.814,1092.96893,1275.00525,1071.16028,1274.9043,1049.3537Z"/><path class="cls-1" d="M874.00439,1029.47565c-12.73413-3.9643-25.99493-5.50159-39.02893-8.08777-8.14782-1.61658-16.39764-3.14661-23.42157-7.97247-9.21313-6.33-10.00128-18.0127-1.89874-25.74329a28.35424,28.35424,0,0,1,14.09107-7.0755c22.18444-4.63056,43.30951-1.783,63.02508,9.65613,2.62714,1.52441,3.75391,1.52227,5.17627-1.39667a148.81987,148.81987,0,0,1,9.56018-17.46112c3.06238-4.59638,1.3382-6.35834-2.75726-8.42377-14.649-7.38837-30.30438-10.96808-46.4867-12.10077-20.36273-1.42553-40.30389.32654-58.18212,11.52613-15.76038,9.87292-23.1825,24.30621-22.03052,42.87951,1.19208,19.22119,12.08612,30.89191,29.60034,37.35279,12.73126,4.69647,26.07751,6.46582,39.31988,8.80914,8.98731,1.59027,18.10273,2.84918,26.341,7.16388,11.52594,6.03662,12.50592,20.02942,2.02624,27.82416a28.3916,28.3916,0,0,1-11.84912,4.978c-27.819,5.28314-53.40985-.67023-77.709-15.50665-2.788,5.29858-5.50519,10.42407-8.18744,15.56775-5.83112,11.18213-5.85547,11.2492,5.662,17.00781,23.31153,11.65558,48.13709,14.788,73.77015,12.421,14.74682-1.36169,28.75-5.34607,40.77154-14.553,16.9455-12.97833,22.31024-37.14081,12.343-55.625C897.63531,1038.65338,886.29352,1033.30145,874.00439,1029.47565Z"/><path class="cls-1" d="M247.0188,951.92474c-7.8125.33277-15.65454.25135-23.47382.00989-3.04663-.09411-4.34491,1.0921-5.48309,3.72272q-14.92484,34.49552-30.076,68.89319c-8.37884,19.14447-16.765,38.28576-25.3219,57.82592-.92261-1.94079-1.6795-3.40307-2.32635-4.91253q-25.97672-60.61551-51.90967-121.24976c-1.00177-2.34424-1.65009-4.38519-5.05316-4.28662-8.98487.26026-17.98468.20813-26.97351.02844-3.52015-.07037-3.34986,1.16828-2.21955,3.74231q35.325,80.44392,70.50733,160.9505c1.01226,2.31806,2.16974,3.31244,4.76928,3.26612,8.49018-.15119,16.98847-.20056,25.47547.02252,2.93078.077,4.04461-1.24384,5.05859-3.61585,4.76123-11.13794,9.64374-22.22418,14.50476-33.31933q27.66678-63.149,55.38819-126.27393C251.35315,953.39282,251.7384,951.72375,247.0188,951.92474Z"/><path class="cls-1" d="M565.31061,1088.03339c-.8728-2.123-1.65332-2.44629-3.51166-.97a32.77011,32.77011,0,0,1-12.5708,5.78608c-20.035,5.10815-33.51593-5.11383-33.53211-25.48841-.02209-27.80529.06122-55.611-.08758-83.41546-.01917-3.58155.64947-4.82788,4.55548-4.74378,12.9834.27967,25.97772.009,38.965.17682,3.06359.03967,4.04712-.78137,3.93866-3.88837-.22644-6.48559-.26575-12.993.0122-19.47454.14667-3.4198-1.09741-4.10706-4.24115-4.06757-12.8208.16083-25.647-.06134-38.46637.14868-3.60284.059-4.9179-.69067-4.78418-4.60785.31806-9.31305-.02807-18.64721.17493-27.96661.06854-3.14618-.94348-3.961-3.97241-3.89166-8.32221.19055-16.65576.2174-24.976-.01026-3.24036-.08856-3.87372,1.10669-3.82416,4.03754.16046,9.48773-.06006,18.98218.1289,28.46887.06073,3.04749-.75506,4.06281-3.889,3.958-6.82013-.228-13.6554.03162-20.4798-.11847-2.754-.06067-3.8302.71838-3.74536,3.64288.19317,6.65436.24011,13.325-.01557,19.97516-.12689,3.29907,1.20526,3.85419,4.08008,3.77857,6.65662-.17481,13.329.13855,19.97882-.13617,3.3808-.13959,4.10456,1.02594,4.07111,4.19281-.1565,14.81671-.06946,29.636-.06946,47.606.55243,13.97815-1.18433,31.16822.83325,48.24237,2.05615,17.40125,10.45,30.67316,27.02143,37.79114,11.32366,4.86389,23.303,5.34479,35.31506,4.00269a52.12064,52.12064,0,0,0,25.41864-9.443c2.02228-1.47589,2.856-2.72522,1.61377-5.32739C570.39441,1100.30505,567.83423,1094.17175,565.31061,1088.03339Z"/><path class="cls-3" d="M846.71826,699.88013q-4.44021-.01941-8.88061-.0398l-.00257-.001c-5.31262,1.49774-10.77258,2.50439-15.86358,4.74462A57.59247,57.59247,0,0,0,802.546,720.90063h-.00012c-2.74494,5.00287-5.42157,10.03583-7.00781,15.55884l-.00092-.00085q-.51159,2.38358-1.02319,4.767h-.00006l.00006.00006a42.37523,42.37523,0,0,0,.07727,16.01147h-.00037c5.29437,26.01624,25.89649,41.97815,52.30945,40.52728,28.80981-1.58233,50.24408-29.82122,44.30383-58.15728-2.41394-11.51471-8.43115-20.785-16.76758-28.77643l-.00152-.00275a60.00656,60.00656,0,0,0-27.71643-10.94726Z"/><path class="cls-4" d="M300.38989,105.97937a48.5334,48.5334,0,1,0,48.55817,48.36438A48.20172,48.20172,0,0,0,300.38989,105.97937Z"/><path class="cls-1" d="M434.786,953.5152c.04077-2.48157-.85547-3.10437-3.17786-3.04749-21.95288.53711-41.82647,5.79419-56.84069,25.39643,0-7.3642-.13581-13.47876.05688-19.58295.09741-3.0874-.54077-4.475-4.07233-4.35144-7.81927.27362-15.65838.22577-23.48175.01782-3.18915-.08478-3.85577,1.11884-3.8518,4.04883q.10922,79.93863-.02167,159.87726c-.007,3.49615,1.3244,4.10443,4.369,4.04034,7.82537-.16485,15.66949-.32312,23.4801.0539,4.17077.20129,4.78436-1.3581,4.76562-5.03235-.14019-27.47827-.39123-54.96247.03754-82.4347.274-17.5509,5.73157-33.09918,21.4032-43.23089,10.19971-6.59418,21.68707-8.03845,33.49774-7.53815,2.69592.1142,3.91553-.12414,3.8468-3.238C434.61292,970.171,434.64911,961.8399,434.786,953.5152Z"/><path class="cls-5" d="M992.52081,475.01062c-6.6726-.01837-13.37829-.911-19.98321.78064l.00024.00073a65.33012,65.33012,0,0,0-14.88434,6.04639c-15.56817,11.77106-22.617,27.20611-20.1134,46.74939l-.0011.00073.00153-.00067c.94287,5.317,3.46484,10.09692,5.15912,15.15845l-.00013.00006h.00013a21.4175,21.4175,0,0,1,5.29626,7.95624q6.46564,4.62735,12.93128,9.25549l-.00055.00091h.00061a47.3256,47.3256,0,0,0,27.4469,5.08307c33.46362-3.7434,51.54528-41.74206,33.37036-70.14343-3.84424-6.0072-9.24018-10.35284-14.405-15.002l-.002-.002q-7.40853-2.94-14.81622-5.88214Z"/><path class="cls-6" d="M542.78632,188.95007c11.27972-10.87469,17.085-23.83032,15.34533-39.75988-2.73858-25.07666-26.81292-43.18433-51.69592-38.80164-25.6181,4.51208-42.11029,29.65137-36.05688,54.54034,3.87524,15.93348,18.51184,34.37128,45.14807,34.304,10.24908-.34473,19.0639-4.49091,27.25836-10.28143Z"/><path class="cls-7" d="M481.57593,422.24615l.0003.00031c.6734-1.33276,1.35962-2.65906,2.0177-3.99915a43.13328,43.13328,0,0,0-68.70813-49.88226c-14.65472,13.85413-17.48785,37.46015-6.11627,54.39087,11.58594,17.24963,28.135,22.19257,47.93244,18.25214h.00006C467.04938,437.477,475.54413,431.491,481.57593,422.24615Z"/><path class="cls-8" d="M960.88287,191.34308v.00006l.00019-.00031q3.97586,1.52463,7.952,3.04877l.00025-.00116c5.376,1.89038,10.96386,1.74591,16.53357,1.75531l-.00006.00037q6.48147-1.497,12.96283-2.9939l.00189.0008c4.478-2.85,9.209-5.33393,13.11462-9.01734l.00012.00025c5.514-6.15381,9.85327-12.94959,11.573-21.17646,1.29242-5.36621.471-10.83276.7702-16.24719h.00013l-.00037-.00085c-.42816-1.77491-.80042-3.56568-1.293-5.32251-6.212-22.158-29.81494-35.57691-52.02722-29.63672A42.99541,42.99541,0,0,0,948.05579,180.648l.00079-.00159C951.5152,185.19879,956.21307,188.25409,960.88287,191.34308Z"/><path class="cls-9" d="M685.02747,741.00122l.00213-.00238h-.00378c-2.98944-14.01331-11.36969-23.8031-23.83777-30.387-5.21234-2.26386-10.80835-2.84839-16.33191-3.7489q-1.06367-.02949-2.1272-.059a47.439,47.439,0,0,0-26.66516,10.50489l-.00024-.00049c-12.41718,12.151-17.112,26.54834-12.53614,43.5625,4.09156,15.21344,19.59791,31.15094,43.10224,29.98431,18.05029-.89587,33.6911-14.17224,38.28082-33.59765C686.28265,751.84827,685.8233,746.4259,685.02747,741.00122Z"/><path class="cls-10" d="M558.84943,322.43042q-6.97879-31.59522-13.94635-63.187c-3.52069-16.04523-6.97065-32.106-10.48169-48.15338a9.26388,9.26388,0,0,1-.2074-5.23267c5.42889,9.38629,10.5592,18.23029,15.665,27.08844q40.44242,70.16483,80.87866,140.33331c.33093.5741.72119,1.114,1.08374,1.66993l-.00006.00006h.00006a64.76359,64.76359,0,0,1,13.9151-8.07764l.00085-.00073q-29.45435-50.98159-58.91418-101.96-21.98924-38.003-44.05682-75.96l-.001.00074c-8.19446,5.79052-17.00928,9.9367-27.25836,10.28143.15722.98505.26678,1.98053.47857,2.95374q13.441,61.76247,26.899,123.5213c4.96912-2.77167,10.49487-2.83625,15.9433-3.27692Z"/><path class="cls-1" d="M305.19971,955.519c.00457-2.93554-.97022-3.61835-3.71637-3.56091-7.82428.1637-15.66364.28558-23.478-.03748-4.02734-.16644-5.3269.74793-5.28906,5.08039.22857,26.14093.11365,52.28473.11365,78.42761,0,26.47583.11145,52.95264-.11207,79.42663-.03631,4.30268,1.21186,5.27155,5.27021,5.0998,7.81372-.33075,15.65338-.19928,23.4779-.0409,2.72022.05506,3.73932-.58178,3.73462-3.54193Q305.0733,1035.94568,305.19971,955.519Z"/><path class="cls-11" d="M559.16809,516.63239l.00214.002c-5.06848,21.86908,1.33313,39.06244,18.225,48.964a42.6252,42.6252,0,0,0,19.36164,5.52673l.00036.00165.00043-.00073a64.54224,64.54224,0,0,0,15.844-2.46289l.00043.0003q1.04609-.40539,2.09216-.80969l.00074.00037-.00019-.00019a89.14808,89.14808,0,0,0,13.03583-9.2514c8.09412-9.94879,12.29877-21.0882,10.55866-34.095-2.26056-16.89655-16.77314-35.92707-43.27015-35.021l-.00018-.00091-.00024.00042c-5.40186.41346-10.46588,2.10974-15.45984,4.06971l-.00006-.00025a64.37089,64.37089,0,0,0-11.85865,8.78748,58.57262,58.57262,0,0,0-8.53,14.28936Z"/><path class="cls-12" d="M710.86865,511.77863l-.00024-.00007.00024.00037c-10.08795,15.48975-11.311,31.24732-1.397,47.32153,3.30377,5.35657,8.11279,9.19141,13.12573,12.80738l.00019-.00031A58.42061,58.42061,0,0,0,737.98,577.07166a46.35178,46.35178,0,0,0,10.70947.008l-.00048-.00085c5.55053-.77246,10.61023-3.00739,15.666-5.25251v-.00012c15.95984-10.856,22.01843-25.85065,18.71564-44.75824-2.9436-11.34131-9.7569-19.79791-19.46271-26.09857l-.00116.00006c-13.52826-6.6037-27.05365-6.52075-40.576.01825l-.00464.00147C718.748,504.33142,714.38055,507.57294,710.86865,511.77863Z"/><path class="cls-13" d="M631.84131,374.9491c-.04682.04718-.08844.09582-.135.14306-11.48,11.63965-15.91248,25.431-11.51947,41.34693,5.66266,20.51617,26.67016,32.66162,47.5517,28.02014,1.28942-.28662,2.6065-.44849,3.9107-.6684,4.94507-2.1,9.37848-5.08429,13.84668-8.00866l.00073-.001q1.649-1.861,3.29785-3.72223c14.76117-16.684,13.36957-42.33374-3.30981-56.93512-11.60663-10.16064-25.09521-12.18524-39.72687-8.25293l-.00134.00055a64.76359,64.76359,0,0,0-13.9151,8.07764Z"/><path class="cls-14" d="M947.99591,551.70258q-.20847.35979-.41687.71966-41.04318,70.85137-82.08649,141.70264-.41463-.13917-.82934-.27826,12.8605-52.99742,25.72113-105.99475l.00061-.00067c-5.63281.3316-10.5484-2.081-15.57642-4.06238Q860.8993,641.27312,846.99,698.75812l-.27148,1.122h-.00025l.00037.00055a60.00656,60.00656,0,0,1,27.71643,10.94726l.00207.00141q5.72672-9.93888,11.45307-19.87464,37.51666-64.99832,75.03644-129.99573l.00055-.00091Q954.46146,556.32943,947.99591,551.70258Z"/><path class="cls-10" d="M555.77545,580.78833q-40.96032-71.05545-81.92041-142.1109.47123-.45914.94245-.91827,41.74867,39.02947,83.49731,78.05688l.87329.81635.00208-.00007a58.57262,58.57262,0,0,1,8.53-14.28936,13.03823,13.03823,0,0,1-1.637-1.127q-42.25434-39.472-84.48688-78.96948l-.0003-.00031c-6.0318,9.24482-14.52655,15.23084-24.8739,18.76191a15.03818,15.03818,0,0,0,.76318,1.81933q42.16039,72.87753,84.34192,145.7428l.00177-.00061a42.10969,42.10969,0,0,1,13.96649-7.78125Z"/><path class="cls-10" d="M1143.88757,181.24384l-.00305.00244a5.46612,5.46612,0,0,1-.57422,1.57025c-1.08349,2.03833-3.25232,3.15338-4.89013,4.63006q-34.27442,30.90171-68.72168,61.61182a24.02666,24.02666,0,0,1-2.00672,1.46362,42.71993,42.71993,0,0,1,9.09387,13.64557q37.49525-33.508,74.98951-67.01538.38634.29618.773.59241-36.49037,63.1517-72.98072,126.30359h-.00024l.00024.00012c4.98047,2.04358,9.92481,4.15094,13.95264,7.88l.00049.00013Q1131.0183,267.02,1168.5166,202.11133l.00025-.00018C1158.43726,197.36163,1149.7157,191.00964,1143.88757,181.24384Z"/><path class="cls-10" d="M783.07068,527.06793q.44155-.39441.88312-.78894,27.83414-24.86178,55.66461-49.72754,34.20639-30.60287,68.39416-61.2265a19.33391,19.33391,0,0,1,2.46308-1.61816h.00116a45.82451,45.82451,0,0,1-11.4173-12.58661c-10.15723,10.28717-21.32306,19.46844-32.03845,29.14184q-42.36438,38.24469-84.88422,76.317a10.51283,10.51283,0,0,1-4.58887,2.62732q19.7862-34.61637,39.57331-69.23261h.0003c-5.17053-1.49633-9.525-4.57757-14.08752-7.25421q-19.71369,34.12491-39.42664,68.24945l.00055.00037C773.31378,507.27,780.12708,515.72662,783.07068,527.06793Z"/><path class="cls-15" d="M891.76868,310.73175q6.3132.20829,12.62359.42145l.00006.00006-.00036-.00122c5.56421.3114,10.33435-2.26593,15.282-4.198v.00006l.00006-.00018c11.97186-8.27948,18.18384-19.414,16.93451-34.22614-.7149-8.47632-5.03595-15.272-10.18652-21.67132-4.46839-2.882-8.78522-6.023-13.75806-8.04218l.00006-.00012c-.98254-.14258-1.97772-.22638-2.94568-.43658a35.05793,35.05793,0,0,0-36.98486,14.87011,35.681,35.681,0,0,0,1.16772,39.90943c1.34821,1.87964,3.44349,3.193,4.1651,5.53424l.00251.00323q6.8506,3.916,13.69909,7.8346Z"/><path class="cls-14" d="M642.72894,706.80389q-.13971-.64041-.27936-1.28082-14.81853-67.94568-29.637-135.89191l-.211-.96752.00043-.00019-.00043-.0003a64.54224,64.54224,0,0,1-15.844,2.46289l-.00043.00073.22333,1.02753q13.54413,62.31243,27.08685,124.62323-.49758.17541-.99511.351-19.16932-33.16434-38.33869-66.32861a35.76735,35.76735,0,0,1-13.9552,8.3222l-.00348.00256q22.64493,39.09082,45.28864,78.18366l.00024.00049A47.439,47.439,0,0,1,642.72894,706.80389Z"/><path class="cls-6" d="M468.69891,306.40021a33.05848,33.05848,0,0,0,33.13752-32.848,33.41185,33.41185,0,0,0-33.32795-33.31305,33.08141,33.08141,0,0,0,.19043,66.161Z"/><path class="cls-16" d="M817.1463,439.97534c9.04413.62921,17.87647.42578,25.53644-5.51452,13.29285-10.30854,16.30615-27.85077,7.16778-42.15253-.88281-1.38159-1.69543-2.80792-2.54071-4.21344l.00007-.00006h-.00007a64.87166,64.87166,0,0,0-13.65795-8.23181l.00018-.00031c-.97858-.13061-1.97131-.19513-2.93366-.40167a30.73343,30.73343,0,0,0-37.18713,29.9082c-.12518,9.26148,4.06537,16.49207,9.50275,23.35028l.00006.00006c4.56256,2.67664,8.917,5.75788,14.08752,7.25421Z"/><path class="cls-15" d="M1093.52,331.92834c-4.02783-3.72906-8.97217-5.83642-13.95264-7.88l-.00024-.00012c-.16345-.02082-.32886-.0279-.49329-.04157-2.48254-.20581-5.06091.309-7.39465-1.01025l-.00086-.00116c-5.06933,1.41681-10.35485,2.17816-14.98388,4.93323v.00006c-7.09436,5.034-12.1095,11.43451-13.561,20.26965a16.15865,16.15865,0,0,1-1.50769,3.55908l-.00146.00183c1.90844,4.91065,1.42627,10.44,3.93493,15.19556h-.00012l5.09546,7.04718c3.70728,3.942,8.62293,6.112,13.0979,8.929l.0044.00079c2.48352.09375,4.968.16559,7.45019.28528a29.05737,29.05737,0,0,0,21.07886-7.30475c10.6477-9.126,15.70276-28.183,1.23462-43.98346Z"/><path class="cls-7" d="M570.85742,378.9668l-.00006-.00031c17.04865-10.34942,19.14862-28.6449,11.86725-41.38275-5.19428-9.08679-13.24719-13.89514-23.521-15.10321-.11889-.014-.23407-.034-.35351-.047l-.00067-.00311-.00159.00061c-5.44843.44067-10.97418.50525-15.9433,3.27692-13.05035,8.26049-18.38147,20.06006-15.193,33.62732,3.00439,12.78466,13.21246,21.30639,27.3847,22.8609a36.11222,36.11222,0,0,0,15.76111-3.2295Z"/><path class="cls-17" d="M584.76086,630.76532c14.69263-17.65472,7.12079-39.36908-8.61639-47.31781-6.41339-3.23938-13.14423-3.21057-19.98926-2.68738-.12665.00971-.25305.01819-.37976.0282h-.00006a42.10969,42.10969,0,0,0-13.96649,7.78125l-.00189.00159a56.508,56.508,0,0,0-4.776,6.35168c-6.14148,11.00647-6.0083,22.0846,1.23883,32.397,7.93151,11.28643,19.25232,14.51745,32.50421,11.80365l.00433-.00147a35.76735,35.76735,0,0,0,13.9552-8.3222Z"/><path class="cls-10" d="M794.514,741.22565l-.00006-.00006q-.63383-.00257-1.26764-.00544-27.48285-.11113-54.96564-.21081-26.06067-.05566-52.11993-.01087-.56553.00011-1.13111.00037l-.00213.00238c.79583,5.42468,1.25518,10.847-.117,16.25623q54.83982-.01117,109.68042-.02033h.00037A42.37523,42.37523,0,0,1,794.514,741.22565Z"/><path class="cls-10" d="M1050.18835,374.8075q-27.21075,47.01974-54.41107,94.04577c-1.005,1.73859-1.90222,3.5398-2.82641,5.32666-.14313.2768-.28357.555-.42871.83069h-.00135l.00049.00189q7.40781,2.94159,14.81622,5.88214l.00251.001c5.3388-9.19019,10.71118-18.35968,16.00891-27.5722q20.23068-35.18052,40.4068-70.39057l-.0033-.00207c-4.475-2.817-9.39062-4.987-13.0979-8.929Q1050.42126,374.40467,1050.18835,374.8075Z"/><path class="cls-10" d="M595.01868,489.486l.00024-.00042-.22082-1.01014q-11.83824-54.14895-23.67579-108.29705-.13246-.6058-.26489-1.21161l-.00012-.00013a36.11222,36.11222,0,0,1-15.76111,3.2295c.2276.79724.49988,1.58477.67652,2.39312q11.9013,54.48122,23.78607,108.96619l.00006.00025C584.5528,491.59576,589.61682,489.89948,595.01868,489.486Z"/><path class="cls-10" d="M1023.0213,162.95947q.63611-.00036,1.27216-.00146c10.70788-.00806,21.41565-.03858,32.12341-.01221q39.82452.09815,79.648.24048.57091.00165,1.142.00342l.00158-.00122a46.77181,46.77181,0,0,1-.00683-16.20386h-.00122q-56.703-.13806-113.40869-.27234h-.00013C1023.49231,152.12671,1024.31372,157.59326,1023.0213,162.95947Z"/><path class="cls-18" d="M369.02216,297.11823a23.73535,23.73535,0,1,0-23.90088-23.64307A23.52748,23.52748,0,0,0,369.02216,297.11823Z"/><path class="cls-10" d="M847.30981,388.09479h.00007l.44824-.78q21.8313-37.99045,43.66369-75.98322.17239-.29993.34467-.59985l.0022.00006-.0008-.00256q-6.84906-3.91791-13.69909-7.8346l-.00348-.002q-22.2075,38.48612-44.41327,76.97l-.00018.00031A64.87166,64.87166,0,0,1,847.30981,388.09479Z"/><path class="cls-1" d="M289.12848,881.38678c-12.372-.03461-21.47772,8.60559-21.61456,20.50952-.13642,11.87146,8.95373,20.72711,21.33648,20.78595,12.51581.05939,21.66053-8.87762,21.60211-21.11169C310.39691,889.92639,301.41132,881.4212,289.12848,881.38678Z"/><path class="cls-10" d="M672.10187,444.57544q19.12628,33.15609,38.25244,66.31189.25708.44559.5141.89123l.00024.00007c3.5119-4.20569,7.87934-7.44721,12.15753-10.78949l.00336-.00263q-18.76785-32.60376-37.53277-65.20489l-.00086.00055c-4.4682,2.92437-8.90161,5.90869-13.84668,8.00866Z"/><path class="cls-10" d="M926.422,251.05646q.2254-.39048.45074-.781,16.74051-29.00766,33.48084-58.01514l.52929-.91717v-.00006c-4.6698-3.089-9.36767-6.14429-12.82629-10.69672l-.00079.00159c-1.26661,2.50439-2.41431,5.08209-3.81122,7.51691q-15.74881,27.44834-31.58057,54.8493l-.00006.00012C917.63678,245.03345,921.95361,248.1745,926.422,251.05646Z"/><path class="cls-10" d="M801.8302,720.23962q-19.01807-17.54892-38.03748-35.09613-19.92984-18.3782-39.8692-36.74591l-.00006.00055c-.09711.273-.21283.53437-.3175.80261a43.45668,43.45668,0,0,1-7.965,12.375c-.05249.0611-.10315.1233-.15576.18427l-.00012.00006q39.53979,36.8952,79.08032,73.79175l.9718.9068.00092.00085c1.58624-5.523,4.26287-10.556,7.00781-15.55884l.00024-.00042Z"/><path class="cls-10" d="M837.26807,698.84857q-22.47025-39.12369-44.93879-78.24487c-.12707.15491-.26513.29327-.39477.44427a29.30279,29.30279,0,0,1-12.665,8.40534c-.15.05395-.295.11548-.44611.16784v.00019q2.48236,4.30855,4.96448,8.617,18.81629,32.69321,37.63178,65.38672l.55188.95892c5.091-2.24023,10.551-3.24688,15.86358-4.74462l.00177-.00049Q837.5525,699.34366,837.26807,698.84857Z"/><path class="cls-10" d="M970.55127,469.661q-8.4375-26.42926-16.86939-52.86017l-.00012.00006c-.182.04688-.36249.09943-.54352.14984-4.633,1.29041-8.95843,3.67627-13.84265,4.07123-.27588.02228-.55236.04224-.83191.05127l-.00128.00067c.76349,2.37073,1.53961,4.73749,2.28845,7.11286q8.29056,26.3,16.57221,52.60278.16517.52441.33044,1.04883a65.33012,65.33012,0,0,1,14.88434-6.04639l-.00024-.00073q-.20352-.628-.407-1.25616C971.60217,472.91125,971.07068,471.28815,970.55127,469.661Z"/><path class="cls-10" d="M913.75818,538.79376l.00079.00226c.09833.11462.17981.237.27521.353,3.41077,4.14441,5.006,9.12329,6.45416,14.16955.0282.09815.0575.19586.08557.29407q10.69455-4.769,21.38929-9.538l.73632-.32831.00013-.00006c-1.69428-5.06153-4.21625-9.84143-5.15912-15.15845l-.00153.00067-1.08472.46546Q925.1066,533.92383,913.75818,538.79376Z"/><path class="cls-10" d="M960.52594,230.22839q-13.38153,55.33613-26.899,110.63941l.0011.00043c.20758-.00947.41211-.00293.619-.00837a37.75107,37.75107,0,0,1,14.89044,2.83936c.16455.06457.33044.12195.49469.18835h.001q17.712-73.22955,35.42572-146.4599.15508-.64077.31-1.28155l.00006-.00037c-5.56971-.0094-11.15754.13507-16.53357-1.75531l-.00025.00116c-.09173.39624-.18176.79279-.27331,1.18909C965.8941,207.13141,963.31262,218.70471,960.52594,230.22839Z"/><path class="cls-10" d="M998.68262,193.95569q12.01089,27.60232,24.01812,55.20312c.17249-.12188.35022-.23309.52417-.352a58.85579,58.85579,0,0,1,13.08954-6.43481c.0951-.03491.18909-.07184.28418-.10651l.00037-.00006q-12.36016-28.567-24.72034-57.13476-.21515-.49742-.43036-.99475l-.00012-.00025c-3.90558,3.68341-8.6366,6.1673-13.11462,9.01734l-.00012.00006Z"/><path class="cls-10" d="M661.7326,709.663q11.98481-20.93059,23.96613-41.86261l-.0011-.00109c-.16-.072-.3172-.14844-.47668-.22132a42.05274,42.05274,0,0,1-12.204-7.89569c-.1521-.14844-.31085-.28644-.46039-.43884q-13.55475,23.30181-27.10956,46.6037l-.59088,1.01581c5.52356.90051,11.11957,1.485,16.33191,3.7489l.0011.00042Z"/><path class="cls-10" d="M671.37622,620.93726l.00317-.002c.14692-.18811.30823-.35779.4596-.54016,3.26782-3.93738,7.53955-6.58563,11.89966-9.12176.09851-.05732.19629-.11554.29486-.1728l.00085-.00024Q656.28418,585.226,628.534,559.35162l-.80341-.74908a89.14808,89.14808,0,0,1-13.03583,9.2514l.00019.00019q.31017.29049.6203.58087Q643.34622,594.6861,671.37622,620.93726Z"/><path class="cls-10" d="M700.8996,609.64551c.20678.05285.40692.11926.61194.17572a44.218,44.218,0,0,1,13.49261,6.61511c.1424.09906.28723.19324.42908.29346l.00006.00006q10.9704-19.29612,21.94067-38.59216l.60608-1.066a58.42061,58.42061,0,0,1-15.38244-5.16413l-.00019.00031-.53528.931Q711.48083,591.24178,700.8996,609.64551Z"/><path class="cls-19" d="M757.23206,592.21381c.02191-.02277.04583-.04163.06781-.06427,3.862-3.986,8.71038-6.07068,13.99993-7.30457.09174-.02136.18085-.04761.27283-.06848l.00037-.00024q-3.35871-6.0261-6.717-12.05213l-.50049-.898-.00049.00018c-5.05578,2.24512-10.11548,4.48005-15.666,5.25251l.00048.00085q.30213.53521.60437,1.07068Q753.26243,585.1814,757.23206,592.21381Z"/><path class="cls-16" d="M890.80542,587.84631a27.20363,27.20363,0,0,0,12.09637-2.59924c13.21833-6.44385,18.32709-17.43414,17.67218-31.63434l-.00006-.00012c-.02807-.09821-.05737-.19592-.08557-.29407-1.44818-5.04626-3.04339-10.02514-6.45416-14.16955-.0954-.116-.17688-.23835-.27521-.353l-.00177-.00226c-2.55115-3.4292-6.434-5.254-9.58587-7.95868l-.00257-.00195c-.107-.03052-.21356-.06293-.32049-.09375-4.76233-1.37378-9.47388-3.00726-14.51886-2.92786-.23151.00367-.45978-.0097-.69275.00147l-.00019.00006c-2.54925.62579-5.15014,1.09351-7.63879,1.905-10.40588,3.39319-21.35791,13.61932-20.30926,32.13428.043.19293.09655.38159.14215.57348a51.56588,51.56588,0,0,0,5.71716,13.90961c.08209.142.15967.286.24286.42761l.00207.00189q3.87663,3.3968,7.75312,6.79364l.26275.23023c5.028,1.98138,9.94361,4.394,15.57642,4.06238h.00085C890.52631,587.85278,890.66522,587.84637,890.80542,587.84631Z"/><path class="cls-20" d="M1067.37341,250.25708c-8.9198-7.70349-19.39709-9.54071-30.77441-7.99164l-.00037.00006c-.09509.03467-.18908.0716-.28418.10651a58.85579,58.85579,0,0,0-13.08954,6.43481c-.17395.1189-.35168.23011-.52417.352-14.32165,15.13337-16.059,29.11316-5.83074,46.91675l.00012-.00012c.08941.11908.18768.22766.27856.345,3.36633,4.34473,7.7229,7.51038,12.39392,10.30188,6.33423,2.63678,12.98865,3.3421,19.771,3.27649l.00268.00372-.00109-.0025c4.97192-1.50555,9.97973-2.9259,14.37768-5.84412l.00012.00037c13.43567-10.3241,17.67639-23.65753,13.12207-39.86987-.01123-.03986-.01855-.07849-.0299-.11841l.00048-.00037a42.71993,42.71993,0,0,0-9.09387-13.64557l-.00061-.00067C1067.58643,250.42889,1067.47852,250.3479,1067.37341,250.25708Z"/><path class="cls-21" d="M910.81525,413.93323q2.28579,1.52829,4.56866,3.05578c.23071.098.46283.19086.694.2873a44.00636,44.00636,0,0,0,14.016,3.75238c.23969.01593.47589.0448.71717.05481l-.00019.00073q3.82581-.00513,7.65088-.01087l.00189-.00012c.27955-.009.556-.029.83191-.05127,4.88422-.395,9.20966-2.78082,13.84265-4.07123.181-.05041.36152-.103.54352-.14984l.00012-.00006q2.31108-1.84451,4.622-3.69043c9.10975-7.273,14.765-16.43982,15.5174-28.294l-.00092.00128c-.03039-.48651-.05041-.97418-.06671-1.46234-.18347-5.486.35608-11.05561-2.04986-16.27338q-1.28523-2.72881-2.57044-5.45764l-.00006-.00134a43.87079,43.87079,0,0,0-10.13-12.46033c-.148-.12628-.28937-.25806-.43934-.38269l.00007-.00006h-.00013q-4.46538-2.4462-8.93054-4.89185l-.00128-.00049c-.16425-.0664-.33014-.12378-.49469-.18835a37.75107,37.75107,0,0,0-14.89044-2.83936c-.20685.00544-.41138-.0011-.619.00837h-.00171q-1.53808.01272-3.07464.02453c-.2121.02918-.42188.06586-.63343.09693a43.64545,43.64545,0,0,0-14.56946,4.5083c-.20471.11029-.41308.20886-.61633.32391l-.00012-.00037c-20.03534,11.45337-26.38965,33.71979-15.75964,55.11621.03021.0608.05639.12171.08685.18244a45.82451,45.82451,0,0,0,11.4173,12.58661l.00085.00067Z"/><path class="cls-10" d="M914.7323,345.82153l.00012.00037c.20325-.11505.41162-.21362.61633-.32391a43.64545,43.64545,0,0,1,14.56946-4.5083c.21155-.03107.42133-.06775.63343-.09693q-5.27463-16.45734-10.54938-32.91437l-.32831-1.02429V306.954c-4.94763,1.93207-9.71777,4.5094-15.282,4.198l.00036.00122q.1767.59235.3534,1.18487Q909.73929,329.07828,914.7323,345.82153Z"/><path class="cls-10" d="M1040.98633,351.901c-11.43714,2.55158-22.85425,5.189-34.316,7.61517-11.23541,2.3783-22.26068,5.72712-33.65479,7.36683-.43792.063-.87262.14123-1.3117.199,2.40594,5.21777,1.86639,10.78735,2.04986,16.27338.0163.48816.03632.97583.06671,1.46234l.00092-.00128c1.691-2.59961,4.63605-2.24134,7.09064-2.82032,21.15185-4.9895,42.3302-9.86755,63.5014-14.77594q.57276-.13284,1.14575-.2655h.00012c-2.50866-4.75555-2.02649-10.28491-3.93493-15.19556l-.00049-.00109C1041.41125,351.80536,1041.199,351.85358,1040.98633,351.901Z"/><path class="cls-10" d="M1071.39062,322.31622q-3.63042-8.56293-7.259-17.125-.21918-.51745-.4386-1.035l-.00012-.00037c-4.398,2.91822-9.40576,4.33857-14.37768,5.84412l.00109.0025q.17964.43625.359.87238,3.27063,7.94385,6.53846,15.88568.24041.58392.48071,1.16791c4.629-2.75507,9.91455-3.51642,14.98388-4.93323h.00013Z"/><path class="cls-12" d="M725.25684,638.08044a43.3431,43.3431,0,0,0-4.29706-14.68859c-.08289-.1753-.1601-.35218-.24463-.527l-.00031-.00031q-2.64084-3.06729-5.28155-6.1347l-.00006-.00006c-.14185-.10022-.28668-.1944-.42908-.29346a44.218,44.218,0,0,0-13.49261-6.61511c-.205-.05646-.40516-.12287-.61194-.17572a49.39124,49.39124,0,0,0-16.86524,1.45477l-.00085.00024c-.09857.05726-.19635.11548-.29486.1728-4.36011,2.53613-8.63184,5.18438-11.89966,9.12176-.15137.18237-.31268.352-.4596.54016l-.00183.00214c-8.63726,13.046-7.919,25.804,1.179,38.306l.00006.00006c.14954.1524.30829.2904.46039.43884a42.05274,42.05274,0,0,0,12.204,7.89569c.15948.07288.31665.14935.47668.22132l.00165.00073c10.943,2.986,20.837.80456,29.78577-6.03992l.00012-.00006c.05261-.061.10327-.12317.15576-.18427a43.45668,43.45668,0,0,0,7.965-12.375c.10467-.26824.22039-.5296.3175-.80261l.00006-.00055q.70239-4.814,1.405-9.62933l-.0025.0011C725.30994,638.53766,725.27759,638.31079,725.25684,638.08044Z"/><path class="cls-22" d="M791.0506,592.61444c-.1-.13745-.18878-.27923-.29151-.41571l-.00042-.00037a26.26185,26.26185,0,0,0-19.18543-7.42205l-.00061.00018c-.092.02087-.18109.04712-.27283.06848-5.28955,1.23389-10.13793,3.31854-13.99993,7.30457-.022.02264-.0459.0415-.06781.06427-4.36884,4.97851-5.955,10.88488-5.795,17.37347.022.17731.06214.34564.08777.52118a24.86031,24.86031,0,0,0,6.68866,13.51929c.16467.17761.31708.36145.48682.53656l.001.00048c5.89435,4.81586,12.70307,6.26124,20.12177,5.45649l.0003-.00013c.15107-.05236.29615-.11389.44611-.16784a29.30279,29.30279,0,0,0,12.665-8.40534c.12964-.151.2677-.28936.39477-.44427l.00007-.00006c2.51092-3.97357,3.55346-8.42395,4.21923-12.99646-.01892-.26367-.05786-.52-.08331-.78119A28.42234,28.42234,0,0,0,791.0506,592.61444Z"/><path class="cls-10" d="M790.75909,592.19873c.10273.13648.19147.27826.29151.41571a28.42234,28.42234,0,0,1,5.41467,14.21155c.02545.26123.06439.51752.08331.78119q35.122-15.42114,70.24323-30.842l-.00122-.00214c-.08319-.1416-.16077-.28558-.24286-.42761a51.56588,51.56588,0,0,1-5.71716-13.90961c-.0456-.19189-.09919-.38055-.14215-.57348q-34.96491,15.173-69.92975,30.3457Z"/><path class="cls-10" d="M751.52484,610.10846c-.02563-.17554-.06573-.34387-.08777-.52118Q736.076,616.22586,720.715,622.8645l.00018.00037c.08453.1748.16174.35168.24463.527a43.3431,43.3431,0,0,1,4.29706,14.68859c.02075.23035.0531.45722.06915.68891l.0025-.0011q16.68366-7.29978,33.37329-14.60236l-.00146-.00158c-.16974-.17511-.32215-.359-.48682-.53656A24.86031,24.86031,0,0,1,751.52484,610.10846Z"/><path class="cls-10" d="M930.09393,421.02869a44.00636,44.00636,0,0,1-14.016-3.75238c-.23114-.09644-.46326-.18927-.694-.2873-2.81836,11.44312-5.68835,22.87384-8.44446,34.332q-9.19683,38.23518-18.303,76.492h.00019c.233-.01117.46124.0022.69275-.00147,5.045-.0794,9.75653,1.55408,14.51886,2.92786.10693.03082.2135.06323.32049.09375l.00312.00092q13.31973-54.87561,26.639-109.74982l.00019-.00073C930.56982,421.07349,930.33362,421.04462,930.09393,421.02869Z"/><path class="cls-10" d="M1017.14868,296.42041c-.09088-.11731-.18915-.22589-.27856-.345l-.00012.00012c-2.04657,1.93054-4.05518,3.90375-6.14557,5.78607q-26.06745,23.4733-52.1604,46.91828l-.00007.00006c.15.12463.29133.25641.43934.38269a43.87079,43.87079,0,0,1,10.13,12.46033l.00336.00579a6.17475,6.17475,0,0,1,.66412-1.22992c1.04846-1.54779,2.66113-2.58319,4.027-3.80963q27.39963-24.60168,54.87659-49.11737.41893-.37482.83825-.74957C1024.87158,303.93079,1020.515,300.76514,1017.14868,296.42041Z"/></svg>