<svg class="vm-logo-slider" version="1.1" id="SVGLogo" xmlns="http://www.w3.org/2000/svg" xmlns:xlink="http://www.w3.org/1999/xlink" x="0px" y="0px" width="408.544px" height="61.603px" viewBox="112.879 359.183 408.544 61.603" enable-background="new 112.879 359.183 408.544 61.603" xml:space="preserve">
<g>
	<path d="M288.252,417.114l-17.748-49.878c-0.306-0.612-0.612-1.53-0.612-2.448c0-2.142,1.836-4.284,4.59-4.284
		c2.142,0,3.672,1.53,4.59,3.672l14.688,42.84l14.994-43.146c0.612-2.142,2.143-3.672,4.284-3.672h0.612
		c2.447,0,3.978,1.53,4.59,3.672l14.688,43.146l14.994-43.146c0.612-1.836,1.836-3.366,4.284-3.366s4.284,1.836,4.284,3.978
		c0,0.918-0.307,1.836-0.612,2.448l-18.054,49.877c-0.918,2.755-2.754,3.979-4.896,3.979h-0.306c-2.142,0-3.979-1.224-4.896-3.979
		l-14.688-42.228l-14.688,42.228c-0.918,2.755-2.448,3.979-4.896,3.979h-0.306C291.006,421.092,289.17,419.562,288.252,417.114"></path>
	<path d="M418.608,365.094c0-2.448,1.836-4.59,4.283-4.59c2.448,0,4.591,1.836,4.591,4.59v10.098
		c4.283-9.792,14.075-14.382,20.195-14.382c2.754,0,4.284,1.836,4.284,4.59c0,2.448-1.53,3.978-3.978,4.59
		c-11.322,1.224-20.809,9.792-20.809,26.928v19.89c0,2.448-1.836,4.591-4.284,4.591c-2.447,0-4.59-1.836-4.59-4.591v-51.714"></path>
	<path d="M480.42,421.398c-15.912,0-28.764-12.24-28.764-30.294v-0.306c0-16.83,11.628-30.294,27.846-30.294
		c17.136,0,26.928,14.076,26.928,29.682c0,2.448-1.836,3.978-3.978,3.978H460.53c1.224,12.546,10.098,19.89,20.502,19.89
		c7.038,0,12.546-2.754,16.523-6.731c0.612-0.612,1.53-0.918,2.448-0.918c2.143,0,3.672,1.836,3.672,3.672
		c0,0.918-0.306,2.142-1.224,2.754C496.638,418.032,490.212,421.398,480.42,421.398 M497.556,387.738
		c-0.918-10.71-7.038-19.89-18.359-19.89c-10.099,0-17.748,8.568-18.666,19.89H497.556z"></path>
	<path d="M356.184,403.344L356.184,403.344c0-12.546,10.099-19.278,25.093-19.278c7.649,0,12.852,0.918,18.054,2.448
		v-2.142c0-10.71-6.426-15.912-17.442-15.912c-5.813,0-9.485,0.612-13.77,2.754c-0.612,0.306-1.225,0.306-1.53,0.306
		c-2.142,0-3.978-1.836-3.978-3.672s0.918-3.06,2.447-3.672c5.814-2.448,10.099-3.366,17.748-3.366
		c8.263,0,14.688,2.142,18.973,6.426c3.978,3.978,6.12,9.792,6.12,17.136v32.436c0,2.448-1.837,4.284-4.284,4.284
		c-2.448,0-4.284-1.836-4.284-3.978V411.3c-3.979,5.508-11.016,10.099-21.42,10.099S356.184,415.278,356.184,403.344
		 M399.636,398.754v-5.814c-4.284-1.224-10.098-2.448-17.441-2.448c-11.017,0-17.137,4.896-17.137,12.24v0.306
		c0,7.344,6.732,11.628,14.688,11.628C390.762,414.666,399.636,407.934,399.636,398.754"></path>
	<path d="M128.826,364.176c-1.836-4.284-6.732-6.12-11.016-4.284c-4.59,1.836-6.12,7.038-3.978,11.016l18.666,40.698
		c3.06,6.426,6.12,9.792,11.934,9.792c6.12,0,8.874-3.673,11.934-9.792c0,0,16.218-35.497,16.524-35.802
		c0.306-0.306,0.612-1.53,2.448-1.53c1.53,0,2.448,1.224,2.448,2.754v34.579c0,5.201,3.06,9.792,8.568,9.792
		c5.814,0,8.874-4.284,8.874-9.792v-28.458c0-5.508,3.978-9.18,9.18-9.18c5.202,0,8.874,3.672,8.874,9.18v28.458
		c0,5.201,3.06,9.792,8.568,9.792c5.814,0,8.874-4.284,8.874-9.792v-28.458c0-5.508,3.978-9.18,9.18-9.18
		c5.202,0,8.874,3.672,8.874,9.18v28.458c0,5.201,3.06,9.792,8.568,9.792c5.814,0,8.874-4.284,8.874-9.792v-32.13
		c0-11.934-9.486-20.196-21.114-20.196s-18.666,7.956-18.666,7.956c-3.978-4.896-9.18-7.956-18.054-7.956
		c-9.486,0-17.748,7.956-17.748,7.956c-3.672-4.896-10.404-7.956-15.606-7.956c-8.262,0-14.994,3.672-18.972,12.852l-11.934,28.152
		L128.826,364.176"></path>
	<path d="M506.736,367.848L506.736,367.848c0-3.978,3.365-7.344,7.344-7.344c3.978,0,7.344,3.366,7.344,7.344l0,0
		c0,3.978-3.366,7.344-7.344,7.344C509.796,375.192,506.736,371.826,506.736,367.848 M519.894,367.848L519.894,367.848
		c0-3.366-2.447-5.814-5.813-5.814s-5.814,2.754-5.814,5.814l0,0c0,3.366,2.448,5.814,5.814,5.814S519.894,370.908,519.894,367.848"></path>
	<path d="M511.326,364.788c0-0.306,0.306-0.918,0.918-0.918h2.448c0.918,0,1.529,0.306,2.142,0.612
		c0.306,0.306,0.612,0.918,0.612,1.53l0,0c0,1.224-0.612,1.836-1.53,2.142l1.224,1.224c0,0.306,0.307,0.306,0.307,0.612
		c0,0.306-0.307,0.612-0.612,0.612s-0.612-0.306-0.612-0.306l-1.529-1.836h-1.225v1.53c0,0.306-0.306,0.918-0.918,0.918
		c-0.306,0-0.918-0.306-0.918-0.918v-5.202H511.326z M514.386,367.542c0.612,0,1.225-0.306,1.225-0.918l0,0
		c0-0.612-0.307-0.918-1.225-0.918h-1.529v2.142h1.529V367.542z"></path>
</g>
</svg>