<svg id="Layer_1" data-name="Layer 1" xmlns="http://www.w3.org/2000/svg" xmlns:xlink="http://www.w3.org/1999/xlink" viewBox="0 0 647.28433 264"><defs><style>.cls-1{fill:none;}.cls-2{fill:url(#linear-gradient);}.cls-3{fill:url(#linear-gradient-2);}.cls-4{fill:url(#linear-gradient-3);}.cls-5{fill:url(#linear-gradient-4);}.cls-6{fill:url(#linear-gradient-5);}.cls-7{fill:url(#linear-gradient-6);}.cls-8{fill:url(#linear-gradient-7);}</style><linearGradient id="linear-gradient" x1="209.67277" y1="92.18779" x2="488.78922" y2="92.18779" gradientUnits="userSpaceOnUse"><stop offset="0" stop-color="#481aa4"/><stop offset="0.15728" stop-color="#661bad"/><stop offset="0.42586" stop-color="#931dba"/><stop offset="0.66555" stop-color="#b41fc4"/><stop offset="0.86512" stop-color="#c820ca"/><stop offset="1" stop-color="#cf20cc"/></linearGradient><linearGradient id="linear-gradient-2" x1="209.67277" y1="61.28018" x2="488.78922" y2="61.28018" xlink:href="#linear-gradient"/><linearGradient id="linear-gradient-3" x1="209.67277" y1="66.35458" x2="488.78922" y2="66.35458" xlink:href="#linear-gradient"/><linearGradient id="linear-gradient-4" x1="209.67277" y1="71.19116" x2="488.78922" y2="71.19116" xlink:href="#linear-gradient"/><linearGradient id="linear-gradient-5" x1="209.67277" y1="77.97248" x2="488.78922" y2="77.97248" xlink:href="#linear-gradient"/><linearGradient id="linear-gradient-6" x1="209.67277" y1="85.20573" x2="488.78922" y2="85.20573" xlink:href="#linear-gradient"/><linearGradient id="linear-gradient-7" x1="209.67277" y1="91.98691" x2="488.78922" y2="91.98691" xlink:href="#linear-gradient"/></defs><path class="cls-1" d="M343.68976,200.08783c-11.18585.04913-20.48919,8.23651-20.27282,18.19891h38.45849C361.97675,210.33752,355.32294,200.03668,343.68976,200.08783Z"/><path class="cls-1" d="M270.10669,200.13617c-12.38018-.01263-21.60821,9.38446-21.632,22.02826-.02375,12.6,9.22625,22.23962,21.42974,22.33264,12.23157.09326,21.61231-9.58508,21.66742-22.35486C291.62543,209.734,282.2757,200.14862,270.10669,200.13617Z"/><path class="cls-1" d="M407.64606,200.13617c-12.35406-.01581-21.77508,9.60577-21.77783,22.24158-.00281,12.50854,9.39813,22.11114,21.65527,22.11993,12.24189.00879,21.43909-9.52893,21.4375-22.23126C428.95948,209.72687,419.73694,200.15167,407.64606,200.13617Z"/><path class="cls-1" d="M127.08967,200.13617c-12.413-.01929-21.64417,9.33514-21.67707,21.96643-.03338,12.8327,9.10834,22.348,21.51593,22.395,12.28253.04651,21.53382-9.43829,21.57923-22.1239C148.55323,209.66663,139.3924,200.15527,127.08967,200.13617Z"/><path class="cls-1" d="M575.58783,203.1817c-6.6986-4.35248-13.86981-4.34314-20.75939-.56689-5.99366,3.28521-8.88178,8.837-9.83814,15.70825H583.872C583.24958,211.92914,580.9004,206.63361,575.58783,203.1817Z"/><path d="M299.2046,199.24274c-.005-8.66156-.00025-17.32318-.03412-25.98468-.01215-3.11389-1.81073-4.65021-4.751-4.17182-2.02734.33-3.09589,1.73944-3.10223,4.29431-.02271,9.11353-.01026,18.22712-.01117,27.3407V203.078q-.45182.2808-.90369.56153a6.39662,6.39662,0,0,0-.79254-1.58167c-7.42829-8.058-16.67346-10.42541-27.1507-8.208-11.51861,2.43781-21.04834,12.95179-21.6159,27.23786-.63568,16.002,10.96112,29.22583,26.782,30.31292,19.78265,1.35944,32.19086-13.9721,31.62585-29.78985C298.98511,214.1637,299.20887,206.69928,299.2046,199.24274Zm-29.30018,45.25433c-12.20349-.093-21.45349-9.73267-21.42974-22.33264.0238-12.6438,9.25183-22.04089,21.632-22.02826,12.169.01245,21.51874,9.59778,21.46515,22.006C291.51673,234.912,282.136,244.59033,269.90442,244.49707Z"/><path d="M436.24671,216.56281c-3.84253-19.08216-22.40088-27.47034-38.93793-21.76282-14.26983,4.92511-21.91394,19.72241-18.06512,35.24054,2.63189,10.61169,9.391,17.93329,20.11688,20.52466,10.66742,2.57727,20.34.26159,27.94653-8.26087a13.85756,13.85756,0,0,1,1.08478-.9892c.21167.23444.38593.337.38886.44416.04907,1.80383.04974,3.60931.11584,5.41241.08984,2.44788,1.43372,3.735,3.8421,3.744,2.635.00983,4.05164-1.53082,4.061-4.57251.02527-8.20844.03845-16.41718-.01642-24.62531A27.19748,27.19748,0,0,0,436.24671,216.56281ZM407.5235,244.49768c-12.25714-.00879-21.65808-9.61139-21.65527-22.11993.00275-12.63581,9.42377-22.25739,21.77783-22.24158,12.09088.0155,21.31342,9.5907,21.31494,22.13025C428.96259,234.96875,419.76539,244.50647,407.5235,244.49768Z"/><path d="M353.16175,194.98242c-9.8161-3.69269-19.33844-2.57763-27.63855,4.194-6.92365,5.64868-9.55872,13.367-9.95734,22.11768-.74463,16.3454,10.57672,29.17816,26.73584,30.08826a31.13789,31.13789,0,0,0,20.78113-6.12415c2.10406-1.54553,2.3501-3.52643.83575-5.19482-1.4439-1.59076-3.29522-1.62836-5.46521-.07239a23.19842,23.19842,0,0,1-20.14862,3.77307c-8.606-2.20172-15.446-10.68579-15.04907-18.84845.91553-.05939,1.86273-.173,2.81-.17413q16.06137-.019,32.12262-.00861c2.48834-.00018,4.97772.03821,7.46478-.0188,2.676-.06128,3.72089-1.08917,3.70288-3.712a35.93088,35.93088,0,0,0-.37024-4.93293C367.5412,206.184,362.70917,198.574,353.16175,194.98242Zm-29.74481,23.30432c-.21637-9.9624,9.087-18.14978,20.27282-18.19891,11.63318-.05115,18.287,10.24969,18.18567,18.19891Z"/><path d="M548.85871,197.93036c-10.02265,7.04077-13.57111,20.18439-10.47632,32.574,5.37909,21.53431,30.36212,26.42041,46.18872,14.98633,2.28394-1.65,2.70191-3.3258,1.40778-5.121-1.31269-1.82062-3.39484-2.05969-5.5799-.48132a23.68057,23.68057,0,0,1-17.6911,4.40173,20.59478,20.59478,0,0,1-17.8053-19.37286c.99958-.06647,1.88031-.1731,2.76123-.17566,5.50531-.01569,11.01062-.00775,16.516-.00843,7.69233-.00085,15.38483.01941,23.077-.01507,2.85114-.01282,3.97174-1.155,3.93732-3.98346a36.86015,36.86015,0,0,0-.37787-4.4859C587.60438,192.53607,562.9585,188.02539,548.85871,197.93036Zm-3.86841,20.3927c.95636-6.87122,3.84448-12.423,9.83814-15.70825,6.88958-3.77625,14.06079-3.78559,20.75939.56689,5.31257,3.45191,7.66175,8.74744,8.28418,15.14136Z"/><path d="M126.86609,193.11182c-16.89227.05059-29.002,12.1839-29.05792,29.11438-.05627,17.04718,12.0553,29.17736,29.135,29.17981,16.03455.50952,29.22888-11.82935,29.20789-28.67493C156.12946,205.4043,143.95447,193.06061,126.86609,193.11182Zm.06244,51.38574c-12.40759-.047-21.54931-9.56226-21.51593-22.395.0329-12.63129,9.2641-21.98572,21.67707-21.96643,12.30273.0191,21.46356,9.53046,21.41809,22.23749C148.46235,235.05927,139.21106,244.54407,126.92853,244.49756Z"/><path d="M220.3274,193.61328c-2.4419.14472-3.68421,1.7785-3.68927,4.98486-.01593,10.01429-.058,20.02912.01837,30.04285a13.80571,13.80571,0,0,1-4.51605,10.43622,18.302,18.302,0,0,1-10.668,4.96411c-12.029,1.55139-22.42725-5.01868-22.27655-18.46851.06579-5.87231.01159-11.74591.01074-17.619-.00043-3.38831.06427-6.77838-.02661-10.16431-.07007-2.61334-1.71558-4.20441-4.06464-4.17932-2.35559.02515-3.76361,1.62341-3.77685,4.3529-.01862,3.84-.05377,7.68091.00543,11.52009.10895,7.066-.18915,14.18042.54761,21.18389.903,8.58326,5.52948,15.17865,13.64361,18.52021,10.65711,4.38879,20.75751,3.35717,29.68067-4.5127.31494-.27783.6632-.518,1.41784-1.10248,0,1.251-.02649,2.04609.0047,2.83881.12134,3.08929,1.5149,4.59509,4.1369,4.498,2.53064-.09369,3.72645-1.54737,3.72779-4.58075q.008-17.73222.0022-35.46442c-.00007-4.44244.02935-8.88519-.01337-13.32727A3.65587,3.65587,0,0,0,220.3274,193.61328Z"/><path d="M487.57923,222.47369a42.39777,42.39777,0,0,0-8.42835-3.09491c-4.68829-1.3222-9.51409-2.18109-14.15686-3.63385a7.16863,7.16863,0,0,1-5.41949-7.2561c.0553-3.5946,2.37445-5.69458,5.46686-7.0564,5.77856-2.54461,15.78113-1.85528,21.01629,3.81568a9.02188,9.02188,0,0,0,1.86817,1.614,4.26661,4.26661,0,0,0,5.18811-.56006c1.383-1.65545.80218-3.24127-.33423-4.71008a18.19006,18.19006,0,0,0-2.28516-2.49347c-7.9953-7.08374-23.00946-8.15277-31.97162-2.30682-8.87554,5.78936-9.03295,17.77966.04963,23.17822,3.71911,2.21057,8.19415,3.19592,12.38256,4.5639,4.19056,1.36872,8.74958,1.93646,12.615,3.89972,6.0528,3.07422,5.86774,10.21857.0326,13.73633a11.02987,11.02987,0,0,1-3.52179,1.46295c-8.62952,1.63452-16.802,1.28809-23.45215-5.57458a4.03232,4.03232,0,0,0-6.25635.77441c-1.19745,1.85877-.57513,3.43549.88184,4.8277a28.32359,28.32359,0,0,0,18.64142,7.7442c9.66833.00513,14.5426-1.26648,18.80236-4.14825C498.259,240.788,497.73939,227.87988,487.57923,222.47369Z"/><path d="M38.35889,200.48218c4.83911.88147,8.56391,3.44439,11.90436,6.86853,1.8075,1.85272,3.7522,1.78229,5.35614.13214,1.40662-1.44721,1.30426-3.09491-.31018-4.99225-8.70148-10.226-24.44629-12.59973-35.67053-5.2-9.18787,6.05713-12.728,14.98291-12.721,25.70044.01013,15.53564,12.23968,28.95263,28.73016,28.41272a26.0334,26.0334,0,0,0,18.52491-6.43823c1.75921-1.55256,1.9646-3.18281.74054-4.74225a3.64635,3.64635,0,0,0-5.04212-.742c-.57141.36109-1.08472.81324-1.629,1.2179-8.55932,6.36365-22.44366,4.58905-28.9635-3.81378-4.5216-5.82758-5.52063-12.494-4.39026-19.65729C16.71583,205.64832,26.89429,198.39386,38.35889,200.48218Z"/><path d="M87.27985,243.33374c-5.31952-.07526-7.94842-2.44916-8.54883-7.79608a41.34415,41.34415,0,0,1-.25976-4.50128c-.02313-9.265-.01166-18.53015-.01361-27.79523-.002-9.943.01873-19.88605-.01367-29.829-.01075-3.29523-1.39417-4.63769-4.28553-4.368-2.30694.21521-3.327,1.56366-3.32776,4.473q-.0075,29.49006.01746,58.9801a34.9312,34.9312,0,0,0,.46692,5.60553c1.40393,8.5058,8.24121,13.8194,16.2746,12.73969,2.03167-.27307,3.35907-1.25134,3.5086-3.42554C91.28333,244.72687,90.009,243.37238,87.27985,243.33374Z"/><path d="M639.21369,194.79846a4.38108,4.38108,0,0,0-2.60614-1.18762c-8.22376-1.56769-15.562-.00244-21.51086,6.26538-.54059.56958-1.08088,1.1394-1.57172,1.65686-.29663-.16315-.41425-.19568-.416-.2334-.06353-1.4237-.0877-2.84967-.17755-4.27148a3.3521,3.3521,0,0,0-3.45154-3.41687c-2.5299-.14325-4.08477,1.08148-4.09411,3.65655-.06049,16.64136-.03961,33.283-.0401,49.92456a7.1313,7.1313,0,0,0,.101.89716,2.93194,2.93194,0,0,0,2.78937,2.75391c3.14136.44744,4.7-.86744,4.70422-4.08576.01355-10.31659-.00677-20.63324.01166-30.94983a14.03654,14.03654,0,0,1,6.42108-12.262c4.4466-3.00464,9.441-3.72363,14.69159-3.19837a10.6073,10.6073,0,0,0,3.8.09809c.997-.28607,2.34253-1.26795,2.4903-2.12207A5.31029,5.31029,0,0,0,639.21369,194.79846Z"/><path d="M519.261,197.36237a3.50624,3.50624,0,0,0-3.62732-3.75122,3.61208,3.61208,0,0,0-3.9566,3.45318,18.09749,18.09749,0,0,0-.07434,2.02966q-.00578,23.2685.00342,46.53693a4.96055,4.96055,0,0,0,.20629,2.43622c.66907,1.0415,1.57624,2.30725,2.64612,2.64221,2.847.89148,4.801-.79193,4.81293-3.87341.03143-8.13257.01062-16.26532.00812-24.39795C519.27717,214.07941,519.302,205.7207,519.261,197.36237Z"/><path d="M515.4256,171.04016a5.47255,5.47255,0,0,0-5.49469,5.61694,5.22514,5.22514,0,0,0,5.43787,5.55762,5.41126,5.41126,0,0,0,5.67029-5.63354A5.57178,5.57178,0,0,0,515.4256,171.04016Z"/><path class="cls-2" d="M411.01349,41.8382c-.10778-14.83472-13.07208-27.69977-27.88922-27.739q-69.821-.18456-139.6427-.10687c-15.36627.02106-28.26916,13.28717-28.27569,28.63141q-.01439,34.01349.00183,68.02692a19.9824,19.9824,0,0,0,.1087,2.70568c2.15253,15.67566,14.22229,26.14655,30.12329,26.13092q43.68063-.04284,87.36121-.04541a7.59481,7.59481,0,0,1,4.30151,1.37806c7.62439,5.787,15.124,11.73785,22.66937,17.62878,5.03663,3.93225,10.082,7.85327,15.3592,11.96283a10.20875,10.20875,0,0,0,.49548-1.45135c1.24872-8.85138,2.55054-17.69629,3.67322-26.56373.28473-2.24908.9635-3.11206,3.42517-3.15936,15.3866-.29584,28.1853-12.7633,28.29071-27.79089Q411.25983,76.64356,411.01349,41.8382ZM379.90113,95.70526a24.14586,24.14586,0,0,1-23.5517,18.78186q-43.3451.02911-86.69018-.03674c-10.95966-.01813-19.59333-7.58429-21.39576-18.58167-1.5755-9.61316,4.61029-19.60016,14.4029-22.94348,1.67175-.57074,1.95453-1.50775,2.07733-2.9433,1.51929-17.7594,13.41424-31.4682,30.73578-35.46032,15.53265-3.5799,32.11175,3.24322,41.07635,16.90588.45185.6886.89685,1.38165,1.41828,2.18555,9.26239-2.68952,16.916-.01075,21.11963,7.26953a2.71858,2.71858,0,0,1,.42108.79523,11.88788,11.88788,0,0,1,.68884,2.21185c1.178,2.46435,3.47894,3.69855,6.352,4.92987C376.92408,73.26312,382.40168,84.88751,379.90113,95.70526Z"/><path class="cls-3" d="M359.09376,60.88257c.15057.26086.3023.53607.42108.79523A2.71858,2.71858,0,0,0,359.09376,60.88257Z"/><path class="cls-4" d="M366.55573,68.81952c-2.87311-1.23132-5.174-2.46552-6.352-4.92987a32.66435,32.66435,0,0,1,.55151,3.33172A41.34144,41.34144,0,0,1,366.55573,68.81952Z"/><path class="cls-5" d="M285.1991,63.26318c-4.72693-.0357-8.051,3.15827-8.10492,7.7876a7.63111,7.63111,0,0,0,7.82617,8.06848c4.7511.02741,8.04895-3.15143,8.0832-7.79162C293.03846,66.59979,289.84333,63.29828,285.1991,63.26318Z"/><path class="cls-6" d="M334.278,70.08252a7.8907,7.8907,0,1,0,8.03387,7.81519C342.29517,73.23035,339.02875,70.05286,334.278,70.08252Z"/><path class="cls-7" d="M307.24805,77.2937a7.912,7.912,0,1,0,7.92273,7.91461A7.60285,7.60285,0,0,0,307.24805,77.2937Z"/><path class="cls-8" d="M358.95814,84.11743c-4.73334-.0235-7.99335,3.16028-8.00806,7.8208a7.52283,7.52283,0,0,0,7.68738,7.91791c4.78814.04034,8.06775-3.0816,8.10083-7.71136C366.77228,87.38483,363.628,84.14056,358.95814,84.11743Z"/></svg>