<svg xmlns="http://www.w3.org/2000/svg" role="img" viewBox="-4.28 -4.28 222.82 63.82"><title>Apptio (FOSP) logo</title><style>svg {enable-background:new 0 0 215.2 56.9}</style><path fill="#103a5e" d="M3.5 10.6H.9l4.9-7.8h3.1l4.9 7.8h-2.9L10 9.4H4.3l-.8 1.2zm3.7-5.9L5.4 7.6h3.5L7.2 4.7zm8-1.9H22c2.1 0 3.6.5 3.6 3s-1.5 3-3.6 3h-4.2v1.8h-2.6V2.8zm6.6 4.1c.9 0 1.2-.3 1.2-1.1s-.3-1.1-1.2-1.1h-4v2.2h4zm5.7-4.1h6.8c2.1 0 3.6.5 3.6 3s-1.5 2.9-3.6 2.9h-4.2v1.8h-2.6V2.8zm6.6 4.1c.9 0 1.2-.3 1.2-1.1s-.3-1.1-1.2-1.1h-4v2.2h4zm9.6-2.1h-4.4v-2h11.3v2h-4.4v5.8h-2.6V4.8zm9.1-2h2.7v7.7h-2.6l-.1-7.7zm4.7 3.9c0-3.4 2-4.1 6.4-4.1s6.4.7 6.4 4.1-2 4.1-6.4 4.1-6.4-.7-6.4-4.1zm10 0c0-2-.8-2.1-3.6-2.1s-3.5.1-3.5 2.1.8 2.2 3.6 2.2c2.7 0 3.4-.2 3.5-2.2zM26.3 28.5h-6c-.9-2.8-3.7-4.7-6.7-4.6-4.7 0-8 3.8-8 9.3 0 5.1 3.2 9.4 8.1 9.4 3.2.1 6-2 6.9-5h6.2c-1.7 5.3-5.9 9.7-13.1 9.7C5.4 47.3 0 41.2 0 33.2s5.8-14 13.7-14c7.3 0 11.6 4.9 12.6 9.3zm4.4-9.9H36v27.9h-5.2V18.6zm18.7 8.7c5.3-.2 9.7 3.9 9.9 9.2v.7c.2 5.5-4.1 10-9.6 10.2s-10-4.1-10.2-9.6v-.6c-.1-5.3 4-9.7 9.3-9.9h.6zm0 15.2c2.8 0 4.6-2.3 4.6-5.3S52.4 32 49.4 32s-4.6 2.2-4.6 5.3 2 5.2 4.6 5.2zm30.7 4h-5.2v-2.3h-.1c-1.1 1.9-3.2 3-5.4 2.9-3 0-6.7-1.9-6.7-8.2v-11h5.2v10.3c0 2.7 1.3 4.2 3.3 4.2 2.3 0 3.7-1.6 3.7-4.7v-9.8h5.2v18.6zm23.2 0h-5v-2h-.2c-1.5 1.7-3.8 2.7-6.1 2.7-3.6 0-8.4-2.9-8.4-10 0-5.9 4.1-9.9 8.8-9.9 2.2-.1 4.3.9 5.6 2.8h.2V18.6h5.1v27.9zm-9.6-3.9c2.5 0 4.7-2.2 4.7-5.3s-2-5.5-4.6-5.5c-3.2 0-4.8 2.8-4.8 5.5s1.5 5.3 4.7 5.3zm32.9 3.9h-5v-2.3h-.2c-1.4 1.9-3.6 3-6 2.9-3.6 0-8.4-2.9-8.4-9.9 0-6 4.1-9.8 8.8-9.8 2.3-.1 4.4 1 5.6 2.9h.2v-2.4h5v18.6zm-9.6-4c2.5 0 4.6-2.2 4.6-5.3s-2-5.4-4.6-5.4c-3.2 0-4.8 2.7-4.8 5.3s1.6 5.4 4.8 5.4zm14.6-23.9h5v11.5h.2c1.5-1.8 3.8-2.8 6.1-2.7 3.6 0 8.4 3 8.4 9.9 0 6.1-4.3 9.8-8.8 9.8-2.2.1-4.3-.9-5.6-2.7h-.1v2h-5.1l-.1-27.8zm9.5 13.4c-2.5 0-4.6 2.1-4.6 5.3s2.1 5.3 4.6 5.3c3.2 0 4.8-2.7 4.8-5.3 0-2.8-1.5-5.3-4.8-5.3zm13.6-12.9h5.5v5h-5.5v-5zm.1 8.8h5.2v18.5h-5.2V27.9zm10-9.3h5.2v27.9h-5.2V18.6zm9.9.5h5.5v5h-5.5v-5zm.1 8.8h5.2v18.5h-5.2V27.9zm8.1 0h2.2V22h5.3v5.9h4.4v4.4h-4.4v7.2c0 2.2.7 2.8 2.3 2.8.8 0 1.5-.1 2.2-.3v4.3c-1.2.3-2.4.5-3.6.5-4.6 0-6.2-2.6-6.2-6.7v-7.7h-2.2v-4.5zm21.3 27.6h-4.9l3.4-9.2-6.7-18.4h5.4l2.7 8c.5 1.5.9 3.1 1.2 4.6h.2c.3-1.5.7-3.1 1.2-4.6l2.6-8h5.1l-10.2 27.6zM73.4 0c1.1 0 2 .9 2 2s-.9 2-2 2-2-.9-2-2 .9-2 2-2zm0 3.6c.8 0 1.5-.7 1.5-1.5S74.3.5 73.4.5h-.1c-.8 0-1.5.7-1.5 1.5.1.8.7 1.5 1.6 1.6 0-.1 0 0 0 0zm1-.5h-.7l-.5-.7h-.1v.7h-.6V.9h.9c.6 0 .8.3.8.7 0 .3-.2.6-.5.6l.7.9zm-1-1.8h-.2v.5h.2c.2 0 .3-.1.3-.3s0-.2-.3-.2z"/></svg>