<svg id="Layer_1" data-name="Layer 1" xmlns="http://www.w3.org/2000/svg" xmlns:xlink="http://www.w3.org/1999/xlink" viewBox="0 0 1384.50201 262.70666"><defs><style>.cls-1{fill:#5795e5;}.cls-2{fill:url(#linear-gradient);}.cls-3{fill:url(#linear-gradient-2);}.cls-4{fill:#6abee8;}.cls-5{fill:#ecb147;}.cls-6{fill:url(#linear-gradient-3);}.cls-7{fill:url(#linear-gradient-4);}.cls-8{fill:url(#linear-gradient-5);}.cls-9{fill:url(#linear-gradient-6);}.cls-10{fill:#457bb2;}.cls-11{fill:#fcfdfc;}.cls-12{fill:#f2f2f0;}.cls-13{fill:none;}.cls-14{fill:url(#linear-gradient-7);}.cls-15{fill:url(#linear-gradient-8);}.cls-16{fill:#3a3c3c;}.cls-17{fill:url(#linear-gradient-9);}.cls-18{fill:url(#linear-gradient-10);}.cls-19{fill:url(#linear-gradient-11);}.cls-20{fill:url(#linear-gradient-12);}.cls-21{fill:url(#linear-gradient-13);}.cls-22{fill:url(#linear-gradient-14);}.cls-23{fill:url(#linear-gradient-15);}.cls-24{fill:url(#linear-gradient-16);}.cls-25{fill:url(#linear-gradient-17);}.cls-26{fill:#65b3e8;}</style><linearGradient id="linear-gradient" x1="181.71328" y1="97.11066" x2="223.78846" y2="97.11066" gradientUnits="userSpaceOnUse"><stop offset="0" stop-color="#4287bc"/><stop offset="1" stop-color="#344a90"/><stop offset="1" stop-color="#93dae8"/></linearGradient><linearGradient id="linear-gradient-2" x1="85.56362" y1="96.33126" x2="127.6388" y2="96.33126" xlink:href="#linear-gradient"/><linearGradient id="linear-gradient-3" x1="207.8135" y1="45.62775" x2="230.78725" y2="5.83603" gradientUnits="userSpaceOnUse"><stop offset="0" stop-color="#344a90"/><stop offset="0" stop-color="#5288e4"/><stop offset="1" stop-color="#6bbee3"/></linearGradient><linearGradient id="linear-gradient-4" x1="69.96657" y1="30.01835" x2="123.78665" y2="30.01835" xlink:href="#linear-gradient-3"/><linearGradient id="linear-gradient-5" x1="54.94636" y1="117.69531" x2="55.03761" y2="117.69531" xlink:href="#linear-gradient"/><linearGradient id="linear-gradient-6" x1="11.68035" y1="134.11358" x2="91.58506" y2="134.11358" gradientUnits="userSpaceOnUse"><stop offset="0" stop-color="#6bbee3"/><stop offset="1" stop-color="#5288e4"/><stop offset="1" stop-color="#344a90"/></linearGradient><linearGradient id="linear-gradient-7" x1="289.9268" y1="131.94942" x2="290.88701" y2="131.94942" xlink:href="#linear-gradient-3"/><linearGradient id="linear-gradient-8" x1="224.16203" y1="139.69194" x2="305.13135" y2="139.69194" xlink:href="#linear-gradient-3"/><linearGradient id="linear-gradient-9" x1="308.38744" y1="160.57218" x2="1238.7756" y2="103.8628" gradientUnits="userSpaceOnUse"><stop offset="0" stop-color="#fff"/><stop offset="0" stop-color="#517dd2"/><stop offset="1" stop-color="#75d7ea"/></linearGradient><linearGradient id="linear-gradient-10" x1="308.77595" y1="166.9462" x2="1239.16411" y2="110.23683" xlink:href="#linear-gradient-9"/><linearGradient id="linear-gradient-11" x1="309.17146" y1="173.43493" x2="1239.55961" y2="116.72556" xlink:href="#linear-gradient-9"/><linearGradient id="linear-gradient-12" x1="309.6135" y1="180.68729" x2="1240.00166" y2="123.97792" xlink:href="#linear-gradient-9"/><linearGradient id="linear-gradient-13" x1="310.00483" y1="187.10749" x2="1240.39299" y2="130.39812" xlink:href="#linear-gradient-9"/><linearGradient id="linear-gradient-14" x1="310.60793" y1="197.00212" x2="1240.99609" y2="140.29275" xlink:href="#linear-gradient-9"/><linearGradient id="linear-gradient-15" x1="311.06586" y1="204.515" x2="1241.45402" y2="147.80563" xlink:href="#linear-gradient-9"/><linearGradient id="linear-gradient-16" x1="311.35575" y1="209.27099" x2="1241.74391" y2="152.56162" xlink:href="#linear-gradient-9"/><linearGradient id="linear-gradient-17" x1="311.76426" y1="215.97321" x2="1242.15242" y2="159.26383" xlink:href="#linear-gradient-9"/></defs><rect class="cls-1" x="80.01563" y="117.85907" width="167.67991" height="48.52136"/><circle class="cls-2" cx="202.75087" cy="97.11066" r="21.03759"/><circle class="cls-3" cx="106.60121" cy="96.33126" r="21.03759"/><path class="cls-1" d="M178.088,151.804a7.38929,7.38929,0,0,0,4.31113,1.68745c11.23549,1.46058,22.51.56247,33.76317.77719,7.62613-3.56683,10.61329-5.62582,11.114-4.94823,9.652,13.062,4.975,34.61742,5.61532,50.75014a39.924,39.924,0,0,1-5.56847,7.1424c-9.05154,10.23806-20.26754,17.4708-32.44557,23.36807q-5.39147,1.74589-10.78295,3.4918c-.33464-1.98024-.55158-3.9898-1.03583-5.93275-.52439-2.10411-1.231-4.31192-3.56752-5.05187-2.60677-.82549-3.39513,1.84226-4.83137,3.27779-2.11383-2.93832-4.11341-5.43656-7.09319-1.38338-1.23092,1.67437-1.7979.38182-2.53893-.46712-2.599-2.97747-4.61484-1.61684-6.01456,1.09487-1.96776,3.81229-2.05077,8.03293-2.0033,12.2289q-1.38516-.00693-2.7694-.014c.02187-4.07192.0085-8.15773-1.81513-11.9267-1.64781-3.40557-3.44728-3.73359-6.27835-1.21568-.727.64652-1.23276,1.92554-2.25974.46994-3.13736-4.4468-5.20111-1.57041-7.261,1.16094-1.51456-1.33476-2.12975-3.93507-4.6957-3.27112-2.44108.63168-3.07948,2.89117-3.71921,4.96814-.46738,1.51738-.72169,3.10039-1.071,4.65413-23.21185-8.36353-40.81172-23.1903-52.12526-45.257,2.3675-2.96407,1.96686-6.81674,3.23925-10.17444,2.89527-7.64022,7.82266-14.08679,11.59159-21.19825l.8346-.85215.04248-.043q.41426-.41446.82844-.829l.03344-.04162c8.05906.00938,16.12375.21222,24.17568-.02257,9.34461-.27246,18.87888-.17137,26.214-7.63716.70052-.71305,2.14355-.69665,3.24188-1.01887-2.08215,3.75232-1.88647,7.371.25681,11.105,2.734,4.76322,5.16288,9.70057,7.83616,14.5,2.03975,3.662,3.74424,3.6877,5.70729.04859,2.26426-4.19751,4.16623-8.59479,6.51609-12.74063a13.80309,13.80309,0,0,0,.76373-12.86973,5.51318,5.51318,0,0,1,2.91418.56829"/><path class="cls-4" d="M54.30784,82.86547C57.41592,69.90041,64.961,59.92191,75.49539,52.14786c2.51464-1.85572,3.8063-3.674,3.28029-6.70977,1.88615,2.7786,3.87491,2.37306,6.69214.97465a47.46869,47.46869,0,0,1,25.5236-5.156c5.66029.5204,9.00047-2.46491,12.79523-5.33325C141.6,27.03137,160.04456,24.95267,179.274,30.60656c3.27174.96195,6.16289,3.31974,9.85467,2.79065.06694,1.79877,1.57549,2.20053,2.77526,2.98219a29.671,29.671,0,0,0,15.614,5.069c8.51654.34088,16.49429,3.665,24.14669,7.46152,6.8873,5.10729,13.36218,10.62066,18.113,17.90206a39.94231,39.94231,0,0,1,5.90174,12.49931c-2.15342.22286-4.42047-.32951-6.41866.94468a1.74635,1.74635,0,0,1-.27662-.334c-8.89279-18.75807-23.49629-29.70336-44.37855-30.53608-19.57159-.78044-34.52043,8.07666-45.00183,24.57252-2.64011,4.155-4.69219,4.15178-7.30545-.1142a52.22594,52.22594,0,0,0-18.049-17.84633c-25.299-15.09418-60.65684-3.45137-70.79193,23.30741l-1.28415,1.89646C59.41252,81.09962,56.38514,79.73685,54.30784,82.86547Z"/><path class="cls-5" d="M127.14052,232.66485c.34927-1.55374.60358-3.13675,1.071-4.65413.63973-2.077,1.27813-4.33646,3.71921-4.96814,2.566-.66395,3.18114,1.93636,4.6957,3.27112,2.05987-2.73135,4.12362-5.60774,7.261-1.16094,1.027,1.4556,1.53273.17658,2.25974-.46994,2.83107-2.51791,4.63054-2.18989,6.27835,1.21568,1.82363,3.769,1.837,7.85478,1.8155,11.9268a14.9134,14.9134,0,0,0-1.36407,6.2726q-1.14477,1.29693-2.28954,2.59383-.70273.11391-1.407.22761c-1.44784-.52884-3.50018-1.94526-4.24069-1.43981-4.30988,2.94172-9.14447-1.51057-13.30081,1.25489l-.048-.01186q-1.27851-1.38982-2.55606-2.77928A28.6172,28.6172,0,0,1,127.14052,232.66485Z"/><path class="cls-5" d="M157.01042,237.83913c-.0479-4.19587.03511-8.41651,2.00287-12.2288,1.39972-2.71171,3.41557-4.07234,6.01456-1.09487.741.84894,1.308,2.14149,2.53893.46712,2.97978-4.05318,4.97936-1.55494,7.09319,1.38338,1.43624-1.43553,2.2246-4.10328,4.83137-3.27779,2.33657.74,3.04313,2.94776,3.56752,5.05187.48425,1.94295.70119,3.95251,1.03533,5.93068a33.7142,33.7142,0,0,1-1.88477,10.05568l-2.24988,2.5514-.13773.12918a54.7232,54.7232,0,0,0-18.5307-.04635l-.00032-.06577q-1.24677-1.31254-2.49271-2.625Q157.90428,240.95451,157.01042,237.83913Z"/><path class="cls-6" d="M239.83337,11.05881q-13.14374,5.87856-26.2874,11.75707-12.46227,4.7055-24.41727,10.58135c.0669,1.79876,1.57546,2.20053,2.77522,2.9822a29.67124,29.67124,0,0,0,15.614,5.069c8.51654.34087,16.49432,3.665,24.1467,7.46152a35.92125,35.92125,0,0,0,1.01225-8.71972A156.791,156.791,0,0,1,239.83337,11.05881Z"/><path class="cls-7" d="M97.65687,24.57067l-27.156-12.03313q-.26722.53486-.53434,1.06969c2.68014,3.70936,4.0414,7.9781,5.06546,12.32188,1.31739,5.58831,2.34326,11.24539,3.49473,16.87284q.12444,1.31808.24893,2.63611c1.88613,2.77863,3.8749,2.37309,6.69214.97466a47.46876,47.46876,0,0,1,25.5236-5.156c5.66026.52041,9.00045-2.46487,12.79522-5.33321Q110.96981,29.67627,97.65687,24.57067Z"/><path class="cls-5" d="M161.29111,246.76063a54.7232,54.7232,0,0,1,18.5307.04635A48.447,48.447,0,0,1,161.29111,246.76063Z"/><path class="cls-5" d="M131.63887,246.73442c4.15634-2.76546,8.99093,1.68683,13.30081-1.25489.74051-.50545,2.79285.911,4.24069,1.43981C143.32472,247.75472,137.47333,248.04621,131.63887,246.73442Z"/><path class="cls-8" d="M54.98289,117.70863l.0526.014c.00138-.01851.00085-.03659.00212-.0551-.032.01229-.05573.01521-.091.03127l-.00016-.00005.00006.00005-.00011.00006.00026.00005.00585.00521c.02744.00675.056.01165.08312.01888Z"/><path class="cls-9" d="M86.72109,143.7346a58.28707,58.28707,0,0,1-20.24037-18.50005,10.04738,10.04738,0,0,0-3.10935,2.86638,10.04844,10.04844,0,0,1,3.10956-2.8668c-7.81064-14.05385-9.31926-28.7242-4.30783-44.03242-2.7606-.10211-5.78794-1.46486-7.86526,1.66374C51.66849,90.7373,51.92864,98.765,52.837,106.87186c.41267,3.683,2.46371,7.00074,2.20063,10.79571.75-.28769.61453.43086.78481.8021q-.435-.38281-.87-.76551a6.37727,6.37727,0,0,1-1.54308-.4325c-9.75676-5.35449-19.67088-10.44181-28.95456-16.61274a8.86115,8.86115,0,0,0-9.42871-.77593c-3.12163,1.60051-3.48468,4.793-3.30967,7.92625a22.56044,22.56044,0,0,0,3.87969,12.21366,71.59789,71.59789,0,0,0,10.44947,11.764c-.88127.04839-1.43486.10349-1.98866.10545-7.06944.02526-8.88129,2.71375-5.34731,8.78684,4.16329,7.15442,10.621,12.02148,17.72194,16.062,1.21444,1.77377,3.85432,1.78494,5.092,4.06018-.69909.24866-1.20407.40729-1.693.60538-5.82219,2.35895-6.22188,4.85541-1.24129,8.74207,3.88793,3.034,8.3796,5.04387,12.85771,7.04173,6.68363,3.15,13.4951,5.87176,21.00066,6.268q1.28385,1.97433,2.56772,3.94914c2.36751-2.96406,1.96686-6.81673,3.23921-10.17442,2.8953-7.64021,7.82266-14.08677,11.59163-21.19822l.8349-.8524.04217-.04276q.41448-.4147.82874-.82921l.03313-.04142"/><path class="cls-5" d="M145.21662,145.59076q3.34491-5.06581,6.68892-10.13221c3.37078-5.12079,4.90253-5.06226,8.18942.273,2.04288,3.316,4.13324,6.60268,6.202,9.90251a13.8039,13.8039,0,0,1-.764,12.86973c-2.34986,4.14584-4.25183,8.54312-6.51609,12.74063-1.963,3.63911-3.66754,3.61344-5.70729-.04859-2.67328-4.79943-5.10211-9.73678-7.83616-14.5C143.33015,152.96173,143.13447,149.34308,145.21662,145.59076Z"/><path class="cls-10" d="M89.8461,156.03514q.41758-.42631.83492-.85236Q90.26327,155.60917,89.8461,156.03514Z"/><path class="cls-10" d="M90.72318,155.14q.41452-.41468.82873-.82921Q91.13727,154.7256,90.72318,155.14Z"/><path class="cls-11" d="M156.98652,120.84483q-.94094-.0266-1.88158-.0551c.22558-2.23521-.16295-3.4137-2.79734-2.11884-11.39632,5.60142-23.3036,8.13224-36.03376,6.03236-21.2-3.49707-36.89487-14.46356-46.87263-33.65277-2.02535-3.89513-2.54606-8.55936-5.94382-11.74517,10.13509-26.75878,45.4929-38.40159,70.79193-23.30741a52.22594,52.22594,0,0,1,18.049,17.84633c2.61326,4.266,4.66534,4.26925,7.30545.1142,10.4814-16.49586,25.43024-25.353,45.00183-24.57252,20.88226.83272,35.48576,11.778,44.37855,30.53608a1.74635,1.74635,0,0,0,.27662.334c4.1264,12.129,4.82735,24.26714.0756,36.41218-.25937.66294-.63787,1.27926-.96093,1.91729a16.08809,16.08809,0,0,0-2.92916.63551c-11.06191,4.62694-22.25979,7.21928-34.52261,5.61585-17.36129-2.27-31.03183-10.39677-41.82377-23.77287-5.26892-6.53053-8.65738-14.12965-10.99213-22.177-1.51568.45067-1.68057,1.52643-2.00128,2.437a51.26374,51.26374,0,0,0-.54,32.77208C156.24293,116.31348,157.1261,118.46505,156.98652,120.84483ZM117.06113,78.65137a11.85826,11.85826,0,0,0-8.05951-2.53423c-14.366-1.51042-25.70369,11.56262-21.72878,25.05451a14.27483,14.27483,0,0,0,4.54838,8.71286,15.66408,15.66408,0,0,0,10.19923,6.10742c8.08923,2.27995,14.96144-.05739,20.33161-6.15819,5.63405-6.40061,6.85437-13.80179,3.23013-21.74994A16.074,16.074,0,0,0,117.06113,78.65137Zm96.56564,1.11268a14.06991,14.06991,0,0,0-9.67688-3.05591c-14.2914-.832-24.98674,12.1228-20.91427,25.33248a14.1236,14.1236,0,0,0,4.81186,8.82506,14.385,14.385,0,0,0,8.17988,5.25c8.37257,3.115,15.722,1.06469,21.60049-5.218,5.89153-6.29667,7.38041-13.78692,3.74335-21.93078C220.25022,84.67031,217.05369,82.12024,213.62677,79.76405Z"/><path class="cls-12" d="M63.45739,79.30531c3.39776,3.18581,3.91847,7.85,5.94382,11.74517,9.97776,19.18921,25.67263,30.1557,46.87263,33.65277,12.73016,2.09988,24.63744-.43094,36.03376-6.03236,2.63439-1.29486,3.02292-.11637,2.79734,2.11884a24.90164,24.90164,0,0,0-2.78939,3.28c-8.30662,14.00147-21.04431,22.11117-36.57485,24.63944a44.43614,44.43614,0,0,1-29.01963-4.97459,58.28782,58.28782,0,0,1-20.24035-18.50007c-7.81043-14.05428-9.31905-28.72465-4.30762-44.03283Q62.81537,80.25357,63.45739,79.30531Z"/><path class="cls-12" d="M156.98652,120.84483c.13958-2.37978-.74359-4.53135-1.42006-6.7488a51.26374,51.26374,0,0,1,.54-32.77208c.32071-.9106.4856-1.98636,2.00128-2.437,2.33475,8.04735,5.72321,15.64647,10.99213,22.177,10.79194,13.3761,24.46248,21.50284,41.82377,23.77287,12.26282,1.60343,23.4607-.98891,34.52261-5.61585.9064-.37913,4.03633-2.29247,5.016-2.49662-.33571,3.25374-2.80593,7.16251-5.70106,10.53625-6.81154,8.12972-14.66259,14.69206-24.82277,18.511-22.56288,8.4808-44.95.25688-58.06664-18.33691C160.29648,125.20154,159.27489,122.55062,156.98652,120.84483Z"/><path class="cls-13" d="M289.9268,131.87523c.13984.12427.30085.3667.41468.34625.19293-.0346.35614-.23516.54553-.37615a3.24858,3.24858,0,0,0-.63812-.16895C290.14635,131.66967,290.03447,131.80449,289.9268,131.87523Z"/><path class="cls-14" d="M289.9268,131.87523c.13984.12427.30085.3667.41468.34625.19293-.0346.35614-.23516.54553-.37615a3.24858,3.24858,0,0,0-.63812-.16895C290.14635,131.66967,290.03447,131.80449,289.9268,131.87523Z"/><path class="cls-15" d="M293.25847,132.482c-.72711-.00262-1.4577-.03942-1.83966-1.05407,1.74-1.75989,3.62256-3.50293,5.3197-5.41083,4.88709-5.49432,9.03748-11.27765,8.30957-19.28156-.24377-2.68035-.16565-5.35638-2.88354-6.75055a8.43148,8.43148,0,0,0-9.04938.40711c-7.38544,5.06445-15.37708,9.09161-23.06372,13.63916L254.8969,121.795q-.49429.08039-.98865.16083.17532-.47736.3504-.955c.55335-1.63177,1.13025-3.2558,1.65662-4.89612,3.94336-12.28875,4.45386-24.55847-.2359-36.79345-2.15338.22284-4.42047-.32953-6.41864.9447,4.1264,12.129,4.82733,24.26709.07556,36.41217-.25934.6629-.43781,1.57922-.76087,2.21729-1.45751,3.16-1.47485,5.2808-3.81427,8.37518-5.93066,7.84456-20.59912,25.0083-20.59912,25.0083.58905.61224.2544,3.16815.75513,3.84576,9.6521,13.062,7.33423,27.82312,7.97516,43.958,4.32013-4.93,7.38263-10.63354,10.15625-16.51459,1.32037-4.3435,2.96936-8.58209,4.34882-12.90722-1.37946,4.32525-3.02839,8.564-4.34858,12.908,10.71045-.41541,20.15424-4.58942,29.23139-9.85077a19.15313,19.15313,0,0,0,7.37982-4.45819c3.54065-3.10364,3.071-5.45649-1.29352-7.37525-.90369-.39728-1.84076-.71857-3.36822-1.30908,5.9552-3.73261,11.8-6.892,16.27978-11.83356q-.13119-.60059-.3006-1.1792.16892.57944.30091,1.18012,1.5898-1.57929,3.17968-3.15857,1.34373-1.30417,2.68763-2.60834c.37567-.75415.7583-1.505,1.12591-2.26306C301.2603,134.53972,300.01817,132.50689,293.25847,132.482Zm-2.917-.26056c-.11383.02045-.27484-.222-.41468-.34625.10767-.07074.21955-.20556.32209-.19885a3.24858,3.24858,0,0,1,.63812.16895C290.69762,131.98632,290.53441,132.18688,290.34148,132.22148Z"/><path class="cls-16" d="M213.71479,88.92172a4.14084,4.14084,0,0,1,1.57429,2.69059c-.22643,9.04577-1.38457,10.621-9.62038,13.08616-2.866.00662-5.138-1.63177-7.59843-2.74425a13.82609,13.82609,0,0,1-3.06216-8.64889c.81749-3.83088,2.45847-7.062,6.322-8.67286q.976-.02649,1.95091-.05268c-2.20621,2.29748-3.77329,4.81242-2.25772,8.10108,1.43281,3.10907,3.97292,4.68445,7.32785,3.94913C212.31634,95.76093,213.88882,92.85936,213.71479,88.92172Z"/><path class="cls-16" d="M106.54934,83.293q2.94406-.0012,5.88818-.00245c-5.09047.57244-7.79079,3.5392-7.02178,7.7146a6.45741,6.45741,0,0,0,8.164,5.06042c3.96742-1.16784,5.27535-4.13511,4.86553-8.04734a5.4671,5.4671,0,0,1,1.84864,3.60456c.03794,6.57739-3.42516,10.3957-9.5482,12.11806-3.5505.39527-6.041-1.73778-8.63592-3.62169a16.62084,16.62084,0,0,1-2.61105-7.652A12.84336,12.84336,0,0,1,106.54934,83.293Z"/><path class="cls-12" d="M213.71479,88.92172c.174,3.93764-1.39845,6.83921-5.36366,7.70828-3.35493.73532-5.895-.84006-7.32785-3.94913-1.51557-3.28866.05151-5.8036,2.25772-8.10108,2.54959-.95536,5.07438-1.16482,7.548.23886Q212.27185,86.87026,213.71479,88.92172Z"/><path class="cls-12" d="M118.4453,88.01826c.40982,3.91223-.89811,6.8795-4.86553,8.04734a6.45741,6.45741,0,0,1-8.164-5.06042c-.769-4.1754,1.93131-7.14216,7.02178-7.7146q1.29142.3222,2.58285.64434Q116.73279,85.97666,118.4453,88.01826Z"/><path class="cls-17" d="M363.65259,153.97852v-.31934c0-31.80762,23.97558-57.86035,58.34033-57.86035,21.09814,0,33.7251,7.03222,44.11475,17.26172L450.4436,131.12207c-8.63134-7.832-17.42236-12.627-28.61084-12.627-18.86035,0-32.44629,15.66406-32.44629,34.84472v.31934c0,19.17969,13.26612,35.16406,32.44629,35.16406,12.78711,0,20.61914-5.11523,29.41016-13.10644L466.90649,191.54c-11.50781,12.30762-24.29492,19.97949-45.87255,19.97949C388.10767,211.51953,363.65259,186.10547,363.65259,153.97852Z"/><path class="cls-18" d="M486.56763,97.7168h24.61474v89.50781H566.9646v22.37695h-80.397Z"/><path class="cls-19" d="M574.15894,153.97852v-.31934c0-31.80762,25.09375-57.86035,59.61816-57.86035s59.29883,25.7334,59.29883,57.541v.31934c0,31.80762-25.09375,57.86035-59.61817,57.86035S574.15894,185.78613,574.15894,153.97852Zm93.18359,0v-.31934c0-19.18066-14.06543-35.16406-33.88477-35.16406s-33.56543,15.66406-33.56543,34.84472v.31934c0,19.17969,14.06543,35.16406,33.88477,35.16406C653.59741,188.82324,667.34253,173.15918,667.34253,153.97852Z"/><path class="cls-20" d="M713.21655,161.65039V97.7168h24.61524v63.29492c0,18.2207,9.11035,27.65137,24.13476,27.65137s24.13477-9.11036,24.13477-26.85254V97.7168h24.61523v63.13476c0,33.88574-19.02051,50.50782-49.06933,50.50782C731.59741,211.35938,713.21655,194.57715,713.21655,161.65039Z"/><path class="cls-21" d="M835.81226,97.7168H879.448c35.16406,0,59.459,24.13476,59.459,55.623v.31934c0,31.4873-24.29492,55.94238-59.459,55.94238H835.81226Zm43.63574,89.668c20.13965,0,33.72558-13.58594,33.72558-33.40625v-.31934c0-19.81934-13.58593-33.72559-33.72558-33.72559H860.42749v67.45118Z"/><path class="cls-22" d="M955.37183,97.7168h9.2705L999.80542,197.294l32.7666-99.89747h6.39356l32.7666,99.89747,35.16406-99.57715h8.63086l-40.59863,112.68359h-6.71289L1035.449,113.2207l-32.7666,97.17969h-6.71289Z"/><path class="cls-23" d="M1141.26343,97.7168h8.31152V209.60156h-8.31152Z"/><path class="cls-24" d="M1178.18433,204.9668l76.56152-99.73828h-73.84473V97.7168H1266.573v4.63476l-76.56153,99.73731H1266.573v7.51269h-88.38867Z"/><path class="cls-25" d="M1293.905,97.7168h79.59766v7.67187h-71.28614v43.95508h64.09375v7.67188h-64.09375v44.91406h72.08594v7.67187H1293.905Z"/><path class="cls-26" d="M81.81354,198.74217S70.827,182.51556,66.36733,167.14465c-5.23172-18.032-2.00585-41.70791-2.00585-41.70791s3.98738,11.41164,11.96214,16.72815,19.93689,10.633,19.93689,10.633.10508-1.66252-6.24488,18.60777C85.56362,185.61735,81.81354,198.74217,81.81354,198.74217Z"/><path class="cls-26" d="M235.19845,197.39219s10.98657-16.22661,15.44621-31.59753c5.23171-18.032,2.00585-41.70791,2.00585-41.70791s-3.98738,11.41165-11.96214,16.72815-19.93689,10.633-19.93689,10.633-.10508-1.66252,6.24488,18.60776C231.44837,184.26737,235.19845,197.39219,235.19845,197.39219Z"/></svg>