<svg id="Layer_1" data-name="Layer 1" xmlns="http://www.w3.org/2000/svg" xmlns:xlink="http://www.w3.org/1999/xlink" viewBox="0 0 1000 326.10423"><defs><style>.cls-1{fill:#6b6a68;}.cls-2{fill:url(#linear-gradient);}.cls-3{fill:url(#linear-gradient-2);}.cls-4{fill:url(#linear-gradient-3);}.cls-5{fill:url(#linear-gradient-4);}.cls-6{fill:url(#linear-gradient-5);}.cls-7{fill:url(#linear-gradient-6);}.cls-8{fill:url(#linear-gradient-7);}.cls-9{fill:url(#linear-gradient-8);}.cls-10{fill:url(#linear-gradient-9);}.cls-11{fill:url(#linear-gradient-10);}.cls-12{fill:url(#linear-gradient-11);}.cls-13{fill:url(#linear-gradient-12);}</style><linearGradient id="linear-gradient" x1="-20.40647" y1="97.15531" x2="947.19721" y2="86.5223" gradientUnits="userSpaceOnUse"><stop offset="0" stop-color="#46d0a9"/><stop offset="1" stop-color="#1f3076"/></linearGradient><linearGradient id="linear-gradient-2" x1="-20.44599" y1="93.559" x2="947.15769" y2="82.92599" xlink:href="#linear-gradient"/><linearGradient id="linear-gradient-3" x1="-20.40713" y1="97.09546" x2="947.19655" y2="86.46245" xlink:href="#linear-gradient"/><linearGradient id="linear-gradient-4" x1="-20.36016" y1="101.36976" x2="947.24352" y2="90.73675" xlink:href="#linear-gradient"/><linearGradient id="linear-gradient-5" x1="-20.16171" y1="119.42821" x2="947.44197" y2="108.7952" xlink:href="#linear-gradient"/><linearGradient id="linear-gradient-6" x1="-20.26891" y1="109.67325" x2="947.33477" y2="99.04024" xlink:href="#linear-gradient"/><linearGradient id="linear-gradient-7" x1="-20.15146" y1="120.36118" x2="947.45222" y2="109.72818" xlink:href="#linear-gradient"/><linearGradient id="linear-gradient-8" x1="-20.21124" y1="114.92151" x2="947.39244" y2="104.28851" xlink:href="#linear-gradient"/><linearGradient id="linear-gradient-9" x1="-20.18824" y1="117.01414" x2="947.41544" y2="106.38113" xlink:href="#linear-gradient"/><linearGradient id="linear-gradient-10" x1="-20.27694" y1="108.94232" x2="947.32674" y2="98.30931" xlink:href="#linear-gradient"/><linearGradient id="linear-gradient-11" x1="-20.37512" y1="100.00873" x2="947.22857" y2="89.37572" xlink:href="#linear-gradient"/><linearGradient id="linear-gradient-12" x1="-20.45139" y1="93.06808" x2="947.1523" y2="82.43507" xlink:href="#linear-gradient"/></defs><path class="cls-1" d="M568.82412,265.16507q0-9.65972-.00148-19.31944a19.86738,19.86738,0,0,0-.04269-2.02,3.10362,3.10362,0,0,0-2.45013-2.84461,2.77522,2.77522,0,0,0-3.0524,1.77915c-.89351,1.81231-1.69533,3.66978-2.537,5.50765q-8.183,17.868-16.36908,35.73437a47.94666,47.94666,0,0,1-3.7153,6.66153,13.11762,13.11762,0,0,1-21.71651.04955,47.75221,47.75221,0,0,1-3.79668-6.87061q-7.41056-16.122-14.83346-32.23818c-2.22167-4.829-4.45255-9.65369-6.65107-14.49314a9.842,9.842,0,0,1,7.44038-14.32953,9.67071,9.67071,0,0,1,10.77958,5.85555c2.53605,5.7548,4.95513,11.5611,7.41651,17.3487q4.65894,10.95489,9.317,21.91013c.27494.64305.336,1.68413,1.248,1.63745.71541-.03664.81609-.98149,1.07078-1.58008q6.37383-14.98515,12.72625-29.97937a26.91183,26.91183,0,0,1,7.01878-10.03574c8.52329-7.39792,22.89609-7.13775,31.82638,1.46095,2.39521,2.3063,2.36954,2.27419,4.94345.32056a32.98991,32.98991,0,0,1,9.98153-5.52536c9.01177-2.814,17.59135-2.06023,25.42507,3.59508a23.94351,23.94351,0,0,1,2.64485,2.42469c1.48838,1.46174,1.474,1.4714,3.01554.172a31.17372,31.17372,0,0,1,15.19564-7.33014c9.315-1.51341,17.54229.6346,24.17059,7.65819a22.52551,22.52551,0,0,1,6.12637,15.75057c.11879,12.72875.0642,25.45944.01443,38.18909a13.294,13.294,0,0,1-2.164,7.44107c-3.95359,5.986-14.394,5.79012-17.5678-1.18355a15.89192,15.89192,0,0,1-1.41036-6.74781c.02085-10.78288-.00345-21.5659.01646-32.34878a12.70533,12.70533,0,0,0-1.33046-6.07347,7.9714,7.9714,0,0,0-3.18815-3.38973,11.34042,11.34042,0,0,0-11.39161-.15736c-3.51208,1.89508-5.12736,5.08642-5.12111,9.10613.01718,11.00757-.00872,22.0152.00971,33.02274a14.014,14.014,0,0,1-1.61451,6.91742c-2.06584,3.773-5.42665,5.33071-9.52488,5.13312a9.45512,9.45512,0,0,1-8.91415-6.43426,19.38728,19.38728,0,0,1-1.09718-7.0622c-.00828-10.5583-.02732-21.11664.00593-31.67483.00971-3.07627-.78344-5.79062-3.15473-7.85616-3.49222-3.042-7.5-3.18177-11.58831-1.62393-3.98849,1.51983-5.97456,4.627-5.98938,8.887q-.05422,15.6126-.01037,31.22551a31.20987,31.20987,0,0,1-.43438,5.59069c-1.81153,10.07887-12.125,10.66789-16.8541,6.73459-2.8782-2.39379-3.81395-5.66685-3.848-9.22653-.063-6.589-.01805-13.179-.01805-19.76856Z"/><path class="cls-1" d="M729.99475,241.99989c-.63739.3207-.62746.998-.81439,1.53307q-7.51936,21.52265-15.00816,43.056c-.59124,1.69671-1.19033,3.39112-1.81466,5.07591-1.14014,3.07684-3.15567,4.69605-5.87926,4.75833-2.80249.06412-5.0252-1.49813-6.22212-4.64063-1.78531-4.68714-3.46176-9.416-5.15846-14.13649q-8.09144-22.51093-16.15411-45.03217a16.80777,16.80777,0,0,1-.83519-3.02366,5.03625,5.03625,0,0,1,3.18574-5.58335,5.506,5.506,0,0,1,6.48355,1.665,13.08186,13.08186,0,0,1,1.71476,3.64445q5.80158,16.88853,11.60416,33.77668,2.22721,6.47862,4.47741,12.94935a5.891,5.891,0,0,0,1.165,2.39787c.97575-2.73656,1.91732-5.31505,2.81609-7.90837q6.95067-20.05613,13.88773-40.11691c.39191-1.13074.817-2.25212,1.27867-3.35605,1.05833-2.53,2.9875-3.55227,5.70856-3.429a5.65369,5.65369,0,0,1,5.32016,3.78987c.58028,1.37829,1.0529,2.80345,1.53968,4.21926q7.59524,22.09106,15.18807,44.18286a4.79465,4.79465,0,0,0,.99095,2.18018c.75189-.44792.77653-1.17741.98864-1.78266q6.46379-18.44132,12.90122-36.89192c1.2345-3.53417,2.45216-7.07421,3.69841-10.60424a14.47983,14.47983,0,0,1,.96889-2.26755,5.262,5.262,0,0,1,6.73573-2.46435,4.93232,4.93232,0,0,1,2.98223,6.24882c-1.05954,3.50825-2.34951,6.94861-3.59043,10.4002q-6.611,18.38866-13.25594,36.76511c-1.54894,4.29638-3.079,8.59961-4.63893,12.89195a20.95835,20.95835,0,0,1-1.15023,2.67985,5.97823,5.97823,0,0,1-5.64212,3.42313,5.785,5.785,0,0,1-5.57381-3.83867c-.85367-2.075-1.56326-4.21056-2.30089-6.33175q-7.41451-21.32139-14.82025-42.64576C730.58089,243.03667,730.55648,242.38986,729.99475,241.99989Z"/><path class="cls-1" d="M833.46375,285.91794c-.92637-.002-1.22528.5916-1.62515.99482a31.08013,31.08013,0,0,1-20.57007,9.34508,31.6657,31.6657,0,0,1-19.17107-4.23982c-7.44735-4.499-10.78078-11.224-10.17055-19.833.59465-8.38893,4.99623-14.256,12.52867-17.77153a37.78049,37.78049,0,0,1,15.02034-3.34922,76.82412,76.82412,0,0,1,22.04077,2.21191c1.88.49528,2.07282.28565,2.13882-1.62791.19549-5.66364-1.307-10.65508-5.72875-14.49885a17.6304,17.6304,0,0,0-10.011-4.17052c-5.21789-.52062-10.48017-.60811-15.61548.80164-1.799.49388-3.53063,1.23163-5.29624,1.849a5.80622,5.80622,0,0,1-3.27736.49537,5.045,5.045,0,0,1-3.85868-3.928,4.412,4.412,0,0,1,2.40679-4.88446,28.82043,28.82043,0,0,1,7.55352-2.828,52.91517,52.91517,0,0,1,24.90734-.30787c11.19881,2.69954,18.16349,10.84522,19.318,22.3156a80.01575,80.01575,0,0,1,.3585,8.066q-.00658,17.06812.00017,34.13629a11.14635,11.14635,0,0,1-.39565,3.55367,5.04689,5.04689,0,0,1-5.32373,3.60858,4.88606,4.88606,0,0,1-4.72716-4.046,14.78317,14.78317,0,0,1-.30966-3.34654A8.01238,8.01238,0,0,0,833.46375,285.91794Zm-18.92823-26.59826c-1.7204,0-3.44958-.11128-5.15951.02268a22.60888,22.60888,0,0,0-10.58271,3.33985c-6.75548,4.29014-6.76651,12.89652-4.11918,17.48332a12.77383,12.77383,0,0,0,6.75312,5.66537,26.20311,26.20311,0,0,0,24.6279-2.74164,16.73808,16.73808,0,0,0,7.78374-12.54308,54.34483,54.34483,0,0,0,.1398-6.27372c-.00494-2.09335-.10644-2.21161-2.15243-2.74663A59.5805,59.5805,0,0,0,814.53552,259.31968Z"/><path class="cls-1" d="M932.49222,263.71613q-11.00617,0-22.01224.00027c-.52409,0-1.04938-.01892-1.572.00971-1.588.087-1.75508.25359-1.52464,1.9581a24.898,24.898,0,0,0,5.10941,12.29623c4.83092,6.12245,11.35842,8.9612,19.01641,8.96142a26.92024,26.92024,0,0,0,17.59074-6.37643c.80632-.669,1.59179-1.36973,2.44355-1.97622a4.45071,4.45071,0,0,1,6.24175.69252,4.36815,4.36815,0,0,1-.26347,6.26675c-3.79426,3.67157-7.96534,6.85441-13.03482,8.56388-11.4969,3.87681-22.60074,3.21168-32.89419-3.56793-8.70067-5.73053-13.37247-14.15133-15.00147-24.28683a39.66276,39.66276,0,0,1,3.72272-24.894c5.37991-10.52044,13.85617-17.00777,25.70378-18.394,12.93365-1.51325,24.77512,4.26813,31.203,15.968a41.95856,41.95856,0,0,1,4.88995,18.27466c.22286,4.17524-2.06673,6.45439-6.48318,6.48447-7.71142.05252-15.4235.01465-23.13525.01465Zm-3.59158-8.16249c6.73106,0,13.462.01262,20.19307-.0074,2.10008-.00626,2.13224-.08954,1.85845-2.20607a30.24142,30.24142,0,0,0-3.40064-10.61683,20.46388,20.46388,0,0,0-27.246-8.59072c-5.81468,2.92626-9.32933,7.79783-11.56187,13.721a24.13541,24.13541,0,0,0-1.44892,6.09516c-.14013,1.39255-.01679,1.51291,1.41293,1.596.52189.03033,1.04686.01014,1.5704.0102Q919.58935,255.55553,928.90064,255.55364Z"/><path class="cls-1" d="M868.345,238.8097a35.61793,35.61793,0,0,1,5.80178-7.37357,28.55689,28.55689,0,0,1,15.235-7.58754,13.35447,13.35447,0,0,1,2.68365-.14074,5.39093,5.39093,0,0,1,5.213,4.93355,5.59515,5.59515,0,0,1-3.985,5.819c-.93208.2656-1.90454.39038-2.859.57662-10.03657,1.95851-16.76335,7.83647-20.37354,17.32a34.24329,34.24329,0,0,0-2.25541,12.07317c-.041,8.23042-.031,16.46109-.04,24.69167a10.73924,10.73924,0,0,1-.34281,3.334,5.45317,5.45317,0,0,1-10.555-.35092,12.74918,12.74918,0,0,1-.29765-3.11943q.00338-29.0692-.00055-58.13838a10.65828,10.65828,0,0,1,.39548-3.32827,5.49614,5.49614,0,0,1,5.37453-3.965,5.2804,5.2804,0,0,1,5.18135,4.44768,29.52276,29.52276,0,0,1,.238,5.81837c.03061,1.622.00631,3.24511.00631,4.86773Z"/><path class="cls-1" d="M391.38183,257.56231a24.87245,24.87245,0,0,1,3.15172-3.45366c5.79437-5.04821,15.14448-5.07892,21.03871-1.39107a19.063,19.063,0,0,1,7.86527,9.24663c3.03693,7.64688,2.86673,15.21076-1.06941,22.53675a18.59574,18.59574,0,0,1-22.70038,8.71788,16.12972,16.12972,0,0,1-5.67885-3.53334c-.92344-.87056-1.93576-1.64683-2.957-2.50686a19.51594,19.51594,0,0,0-.08984,3.64529c-.07174,2.36041-.23118,2.53862-2.58012,2.58927-3.86786.0834-3.87069.0834-3.871-3.76459q-.00165-24.92256.00055-49.84511c.00044-3.56924.00587-3.57133,3.64519-3.52761.5231.00628,1.04836.01963,1.56814.073a1.18559,1.18559,0,0,1,1.151,1.16424c.05936.66924.077,1.344.07777,2.01635.00612,5.16416-.00486,10.32832.01344,15.49243A4.06844,4.06844,0,0,0,391.38183,257.56231Zm-.46049,14.10865c.03484,4.76517,1.07248,8.58559,3.65791,11.92933,4.92628,6.37116,15.17158,6.433,20.24051.19685,4.57705-5.631,5.07485-15.26506,1.18891-21.5919a13.03252,13.03252,0,0,0-20.64932-2.2851C391.983,263.36389,391.06484,267.676,390.92134,271.671Z"/><path class="cls-1" d="M453.412,284.77336a4.47485,4.47485,0,0,0,1.20142-2.20658q5.69229-14.28081,11.35606-28.573c.221-.556.47778-1.0981.69017-1.65717a1.81536,1.81536,0,0,1,1.9103-1.24989c1.272.01626,2.54669-.04448,3.816.01648,1.36838.06574,1.574.38652,1.06672,1.69151-.86717,2.231-1.79074,4.44021-2.70092,6.65434q-7.80726,18.9927-15.62531,37.981a21.40722,21.40722,0,0,1-4.318,7.01991c-3.92,4.02378-10.37372,3.96259-14.04579,2.608-1.30468-.48127-1.45364-.85915-1.183-2.23143.02886-.14647.077-.28914.11341-.43424.7722-3.075.77209-3.075,3.9085-2.58839,4.51987.70127,6.61128-.4039,8.64251-4.56669,1.87408-3.84067,1.87584-3.84143.19807-7.70365q-7.68948-17.7016-15.38142-35.40218c-1.31565-3.0283-1.30232-3.06919,1.94009-3.04967,4.46243.02688,3.73594-.43456,5.47072,3.68166q6.05745,14.37288,12.11755,28.74465A2.57422,2.57422,0,0,0,453.412,284.77336Z"/><path class="cls-1" d="M961.666,231.97466a8.919,8.919,0,0,1,8.66029-8.79939,8.82574,8.82574,0,0,1,8.91652,8.76338,9.143,9.143,0,0,1-8.70265,8.88092A8.8334,8.8334,0,0,1,961.666,231.97466Zm8.75445-6.81766a6.85889,6.85889,0,0,0-6.76124,6.90953,6.968,6.968,0,0,0,6.7428,6.74942,6.62342,6.62342,0,0,0,6.61145-6.97671A6.44949,6.44949,0,0,0,970.42045,225.157Z"/><path class="cls-1" d="M967.0187,231.68942c0-.6697-.025-1.34056.00483-2.00891.08592-1.92533.454-2.27874,2.44443-2.34374a6.54645,6.54645,0,0,1,2.85658.36068,2.73463,2.73463,0,0,1,1.574,3.99364c-.54252,1.0254-.853,1.83022-.01,2.80617a.8742.8742,0,0,1-.126,1.21956,1.00938,1.00938,0,0,1-1.42127.02407,12.21869,12.21869,0,0,1-1.07-1.12672c-1.0563-1.087-1.34566-1.05233-2.094.23727a1.47968,1.47968,0,0,0-.07988.20823c-.201.51391-.47647.9663-1.12247.86475-.74542-.11721-.89927-.71767-.91979-1.334-.03226-.966-.00856-1.93386-.00856-2.90095Zm4.75-1.31884c-.1691-.66-.67343-.75068-1.21233-.71953-.56458.03258-1.06332.25392-.98936.92094.07363.66556.62767.75315,1.173.70776C971.29777,231.23333,971.73879,231.0113,971.76874,230.37058Z"/><path class="cls-2" d="M588.76727,26.4362c-5.39343-.0199-10.78686-.00977-16.18036-.00464-3.326.00311-3.33325.009-3.33386,3.3902q-.00431,24.15014-.003,48.30023c-.00061,3.09228-.00873,3.1004-3.097,3.10113q-26.1807.00642-52.36133.00489c-3.27588-.00013-3.281-.00568-3.28144-3.37989q-.0032-23.81313-.00262-47.62622-.00018-1.12289-.03473-2.2456a1.40285,1.40285,0,0,0-1.56171-1.51111c-.59906-.01141-1.19805-.02881-1.79711-.029q-7.416-.00285-14.832.00109c-3.50959.00318-3.51593.00739-3.5163,3.43586q-.00312,30.44027-.00073,60.88049.00036,30.88962.00305,61.7793c.00085,2.95764.05743,3.0083,3.02521,3.01428q7.64081.01538,15.28149.00293c3.427-.00238,3.43274-.00672,3.43329-3.51679q.00357-23.58846.00268-47.17694c.00061-3.19561.00824-3.20245,3.23047-3.20257q25.84361-.00083,51.68714.00671c4.03515.00171,3.82336-.34393,3.82336,3.7193q0,23.58848.00342,47.17694c.00128,2.94049.06018,2.99213,3.04169,2.99768q7.64072.01419,15.28143.00287c3.75653-.00079,3.75952-.00214,3.75964-3.87341q.0012-60.7684.00037-121.53687c0-.37439.00568-.749-.00275-1.12323C591.28229,26.63438,591.12457,26.44486,588.76727,26.4362Z"/><path class="cls-3" d="M144.07245,115.35533c-4.76734-1.56495-9.55048-3.082-14.314-4.65827-3.441-1.13861-2.99395-.98083-4.10705,1.9148-4.23719,11.02264-11.64685,18.89679-22.98822,22.71307a40.73145,40.73145,0,0,1-18.83832,1.72968c-15.28912-2.129-26.03827-10.2945-32.33917-24.32245a47.49027,47.49027,0,0,1-3.62592-15.22181,54.19887,54.19887,0,0,1,2.91815-23.86419A38.87959,38.87959,0,0,1,65.24976,54.38462c10.176-7.05139,21.40789-8.886,33.41174-6.52484a32.98825,32.98825,0,0,1,20.80493,13.07648,36.4522,36.4522,0,0,1,5.43951,11.02759c.73652,2.37194.98462,2.47808,3.38782,1.6726q7.88205-2.64194,15.74188-5.34967c1.91352-.65759,1.9936-.8089,1.36731-2.78131-5.99707-18.88672-18.57788-31.05853-37.58886-36.50885a66.07461,66.07461,0,0,0-24.905-2.15307,62.97993,62.97993,0,0,0-37.273,16.62292A59.74237,59.74237,0,0,0,29.0498,69.51988a73.06632,73.06632,0,0,0-3.26892,29.46728,70.78382,70.78382,0,0,0,5.44544,22.363A59.31863,59.31863,0,0,0,60.096,151.553a64.36292,64.36292,0,0,0,29.04565,6.645,62.49946,62.49946,0,0,0,17.58844-2.2591c19.55261-5.55853,32.514-18.08661,39.10266-37.25927C146.64648,116.31175,146.54028,116.16538,144.07245,115.35533Z"/><path class="cls-4" d="M468.63776,137.57755q-.02153-53.00838-.00782-106.0169c0-.67383.0055-1.34772-.00213-2.02149-.03314-2.92242-.18012-3.08795-3.02619-3.09613-4.71838-.01349-9.43683-.00628-14.15521-.0025-3.502.00281-3.50818.00653-3.50879,3.44977q-.00421,22.34884-.01111,44.69775a6.01634,6.01634,0,0,1-.155,2.36194c-.20184-.02692-.2948-.01074-.33575-.0495a4.83,4.83,0,0,1-.61945-.63745,22.7867,22.7867,0,0,0-10.36-7.60474,36.39185,36.39185,0,0,0-18.79145-2.02642c-15.50531,2.11914-26.12554,10.905-32.28009,25.07684-5.36694,12.35846-5.35833,25.05926-1.24426,37.7464a40.013,40.013,0,0,0,13.04132,19.27405,39.483,39.483,0,0,0,31.57892,8.48889,27.1671,27.1671,0,0,0,18.15-10.21924c.33252-.426.56256-1.07056,1.34747-1.09692.21307,2.49859.38605,4.955.64343,7.40252.18945,1.80158.55115,2.20276,2.16919,2.21546q8.08814.06363,16.17706.00232c1.69434-.013,1.89392-.30225,1.91907-2.02027a11.024,11.024,0,0,0-.05884-1.57025A111.74455,111.74455,0,0,1,468.63776,137.57755Zm-25.03705-8.53839A20.42855,20.42855,0,0,1,424.5141,139.1378a20.76917,20.76917,0,0,1-18.42157-11.32221,30.27405,30.27405,0,0,1-3.553-12.8775,36.58033,36.58033,0,0,1,1.1272-12.67139c2.12658-7.38806,6.38977-13.03332,13.78015-15.78778,10.38025-3.86871,23.55829-.60724,28.619,12.84247a29.87638,29.87638,0,0,1,1.91748,12.10468A30.09119,30.09119,0,0,1,443.60071,129.03916Z"/><path class="cls-5" d="M960.87616,89.1168c-3.3515-12.33032-11.04218-20.15033-23.82562-22.49164a35.565,35.565,0,0,0-11.17243-.29492,32.34944,32.34944,0,0,0-17.16058,7.1521,9.85381,9.85381,0,0,1-2.40247,1.95941,5.51076,5.51076,0,0,1-.32068-2.788q-.01939-21.56223-.01184-43.12452c-.00122-3.06457-.058-3.11395-3.16265-3.11822q-7.18992-.01007-14.3797-.00122c-3.6764.00152-3.67945.00354-3.67957,3.71313q-.00119,53.45646-.00037,106.91291c0,5.31555-.01269,10.63122.00769,15.94671.00934,2.41663.16736,2.57843,2.533,2.589q7.41441.03315,14.829.00238c3.54969-.017,3.86811.59375,3.86243-3.76758-.0199-15.34808.00427-30.69628-.01581-46.04437a26.64507,26.64507,0,0,1,1.011-7.98675c1.933-6.2497,5.77155-10.63306,12.35193-12.06763a21.9666,21.9666,0,0,1,9.37311.05609c5.8667,1.27918,9.61731,4.90985,11.32989,10.647a23.6971,23.6971,0,0,1,.98621,6.86536c-.00971,4.49207.00842,8.98419.00921,13.47632q.0033,17.9685.00647,35.93707c.00275,2.78845.11524,2.8841,2.9336,2.88977q7.63915.0153,15.27832.00171c2.962-.00513,3.00659-.0448,3.00726-3.02356q.006-26.39127.00208-52.78259A40.44321,40.44321,0,0,0,960.87616,89.1168Z"/><path class="cls-6" d="M675.23242,74.44932c-10.33349-7.8692-22.18493-10.125-34.67352-7.7243-15.67743,3.01367-26.14313,12.71466-31.83258,27.463-3.918,10.15625-4.01111,20.6311-1.41315,31.14123a42.38262,42.38262,0,0,0,12.68311,21.56757c13.90374,12.70221,34.7904,14.54217,50.15466,6.831A37.02125,37.02125,0,0,0,688.71338,132.977c.88135-2.34131.80719-2.46533-1.47876-3.19983q-6.41473-2.06121-12.85-4.058c-2.71338-.83985-2.57428-.84186-3.6419,1.61377a19.40158,19.40158,0,0,1-7.73108,9.37732,24.56644,24.56644,0,0,1-16.88141,2.9649,22.72574,22.72574,0,0,1-19.0882-19.15686c-.33221-2.288-.04114-2.63776,2.24414-2.67755.599-.01044,1.19831-.00287,1.79749-.00287q13.70553-.00009,27.411-.00006l29.20843-.00269c2.27594-.00335,2.41584-.161,2.6496-2.34875a54.44531,54.44531,0,0,0-2.58459-22.80182A36.41494,36.41494,0,0,0,675.23242,74.44932Zm-6.19159,26.66925a1.10077,1.10077,0,0,1-1.10888,1.16736c-.59546.04468-1.1944.05792-1.79181.05829q-9.08451.00594-18.16913.00244V102.35q-8.636,0-17.27191-.00074c-.59815-.00012-1.19928.02655-1.79364-.02374-1.29547-.10968-1.54175-.40558-1.33277-1.72345a19.64268,19.64268,0,0,1,3.53546-8.40033c4.02387-5.62762,9.59681-8.36157,16.45795-8.55463,4.96668-.1397,9.67737.75153,13.84583,3.6485a18.269,18.269,0,0,1,7.5545,12.25971A7.24337,7.24337,0,0,1,669.04083,101.11857Z"/><path class="cls-7" d="M630.6991,102.34928q8.63589.00183,17.27191.00074v-.00336q9.0845,0,18.16913-.00244l-37.23468-.01868C629.49982,102.37583,630.101,102.34916,630.6991,102.34928Z"/><path class="cls-8" d="M772.96411,141.51347c.029-13.62708-.00317-27.25421.02167-40.88123a53.62824,53.62824,0,0,0-.45209-7.83734A30.86162,30.86162,0,0,0,767.012,78.72245c-4.16516-5.68933-9.88861-9.03332-16.54266-10.94519a52.52268,52.52268,0,0,0-15.9997-1.84387,40.75568,40.75568,0,0,0-19.34088,5.12073c-8.18451,4.63147-13.52441,11.44861-15.54767,20.70978-.58282,2.66784-.49554,2.76214,2.09925,3.36737q6.45153,1.50493,12.92218,2.92742c3.59045.79035,3.55328.75452,4.53436-2.67511,1.67322-5.84948,5.3559-9.79174,11.29016-11.402a22.21369,22.21369,0,0,1,13.47864.528c4.95477,1.75226,7.64062,5.316,8.19391,10.50391.3883,3.64068-1.17438,5.8869-4.69232,6.81549a18.90358,18.90358,0,0,1-1.97431.43091c-7.17578,1.09094-14.35675,2.14819-21.52954,3.25854a39.85609,39.85609,0,0,0-13.21863,4.15167c-5.15881,2.81946-9.21826,6.70893-11.426,12.21839a25.68217,25.68217,0,0,0,12.41247,32.84906,34.22964,34.22964,0,0,0,22.30921,2.86365,29.289,29.289,0,0,0,18.16131-10.7165c.30054-.37616.45929-.95886,1.36914-1.02594,0,.89417.00153,1.76728-.0003,2.64038a26.55207,26.55207,0,0,0,.4397,5.13862c.32751,1.685.49676,1.90307,2.17712,1.914q7.864.05127,15.72852.00079c1.84417-.01276,2.03765-.30353,1.81378-2.1701A97.7661,97.7661,0,0,1,772.96411,141.51347ZM750.28546,130.245a16.66219,16.66219,0,0,1-11.1817,10.2287,21.2119,21.2119,0,0,1-7.29749,1.01752,14.49824,14.49824,0,0,1-6.82305-1.03845c-3.9469-1.8266-6.18207-4.83142-6.39673-9.24317a10.33919,10.33919,0,0,1,5.81921-10.30224,22.50031,22.50031,0,0,1,7.534-2.08692c5.9154-.90686,11.83679-1.77423,17.7561-2.65558,2.11005-.3142,2.43018-.07916,2.46051,1.95978A31.36265,31.36265,0,0,1,750.28546,130.245Z"/><path class="cls-9" d="M251.03571,68.298a46.82263,46.82263,0,0,0-21.94928-1.82647c-11.61567,1.7146-21.25159,6.99108-28.45063,16.35528-6.636,8.6319-9.6004,18.499-9.42572,29.98737a45.152,45.152,0,0,0,5.40723,22.268,41.87951,41.87951,0,0,0,19.58545,18.79077,45.99088,45.99088,0,0,0,29.38122,3.39838c13.85114-2.81415,24.32764-10.37335,30.5495-23.10687,7.14051-14.61347,7.0932-29.50287.02808-44.167C270.9624,79.20616,262.37665,72.08714,251.03571,68.298Zm9.01269,43.79987c-.09314,6.39612-1.25073,12.5199-5.1347,17.8067a22.06026,22.06026,0,0,1-17.58026,9.371,23.01582,23.01582,0,0,1-15.19239-4.48364c-5.48254-4.05206-8.232-9.75116-9.47-16.28638a33.78146,33.78146,0,0,1,.82056-16.43182c2.07647-6.74225,6.02429-11.9931,12.61377-14.967,11.85309-5.34949,27.29736-.63776,32.11169,13.5202a26.75592,26.75592,0,0,1,1.28656,4.76209A29.6432,29.6432,0,0,1,260.0484,112.09782Z"/><path class="cls-10" d="M369.40039,135.06858q.04486-31.67568.00879-63.3515c-.00073-3.00207-.05774-3.05688-2.97382-3.063q-7.19118-.015-14.38244-.00061c-3.52295.00281-3.52667.00617-3.527,3.6416q-.00229,21.79112.01221,43.58222a54.44415,54.44415,0,0,1-.42481,8.06494c-.99017,6.70715-4.15875,11.82294-10.84137,14.1676a20.474,20.474,0,0,1-7.96814,1.07453c-7.64557-.424-12.75189-4.416-14.93347-11.7414a30.07874,30.07874,0,0,1-1.15454-8.64953q.00741-23.139.0011-46.278c-.00006-.674.02575-1.35022-.02094-2.02124-.10211-1.46667-.319-1.78857-1.71454-1.79974q-8.65108-.06959-17.30316-.004c-1.44708.01025-1.67608.32043-1.80822,1.71582-.03516.37158-.0221.74823-.022,1.12256q.00384,26.62105.00647,53.24219a35.45027,35.45027,0,0,0,2.92688,14.19928c3.45746,8.006,9.10022,13.83416,17.37256,16.87854a34.91592,34.91592,0,0,0,17.89984,1.78381A31.88155,31.88155,0,0,0,342.54,153.37376a27.70988,27.70988,0,0,0,6.76312-6.25116c.23706,2.27643.42291,4.04553.605,5.815.243,2.36054.42676,2.57623,2.70612,2.58734q7.64045.03735,15.28119-.00042c2.18567-.01166,2.49267-.36591,2.2774-2.52192A177.76742,177.76742,0,0,1,369.40039,135.06858Z"/><path class="cls-11" d="M870.579,137.47752a38.6836,38.6836,0,0,1-5.36676.37121c-7.15442-.05981-10.34912-3.1604-10.37274-10.2641-.04181-12.57281-.01843-25.14587-.01026-37.71887.00165-2.48218.08088-2.5581,2.488-2.5672,4.342-.01635,8.68433.011,13.02625-.014,2.22046-.01275,2.42566-.213,2.43939-2.45825q.04183-6.8475.00134-13.69543c-.0133-2.35578-.178-2.503-2.60791-2.51337-4.26721-.01819-8.53454.00482-12.80176-.009-2.46478-.008-2.538-.07416-2.54492-2.50671-.01556-5.4632-.00378-10.92652-.00647-16.38977-.001-1.94568.03888-3.89338-.03515-5.83655-.05439-1.42713-.33332-1.72534-1.766-1.73706q-7.74774-.06336-15.49627.00183c-1.46387.01245-1.68628.29455-1.78858,1.71094-.0592.81933-.02368,1.64556-.02777,2.46875a109.18682,109.18682,0,0,1-.33874,11.66027,11.23028,11.23028,0,0,1-9.24457,10.20874,25.99,25.99,0,0,1-5.35669.43354c-2.8631-.00647-2.939.071-2.949,2.84887q-.02288,6.39862-.00128,12.79749c.00782,2.9599.06311,3.00329,3.01593,3.02154.44922.00281.89838.00068,1.34754.0008,3.14435.00116,6.28882-.01868,9.43286.01086,2.10266.01972,2.24719.19672,2.30066,2.34833.013.52356.00464,1.04767.0047,1.57153q.00027,10.21555.00012,20.43109l.05023.00007c0,7.25915-.15423,14.5224.03528,21.77667.30322,11.60949,8.03442,20.45758,19.39471,22.61346a44.21405,44.21405,0,0,0,12.51117.29663,20.75449,20.75449,0,0,0,5.04853-1.0307c1.70184-.60876,1.88079-.767,1.89349-2.56683q.04715-6.62292-.00116-13.24628C872.837,137.55314,872.49225,137.22666,870.579,137.47752Z"/><path class="cls-12" d="M807.56006,26.41947c-5.09247-.01526-10.18506-.00555-15.27759-.0025-.5238.00031-1.04773.02393-1.57147.03906a1.37289,1.37289,0,0,0-1.4718,1.37592c-.07825.96789-.09009,1.943-.09015,2.915q-.0066,60.30386-.00427,120.60779c0,.59887-.0127,1.1983.00659,1.79663.07159,2.20935.2453,2.40381,2.50958,2.41333,5.09247.02142,10.18506.01172,15.27759.009,3.4118-.00183,3.41711-.00617,3.41742-3.51129q.00265-30.545.00042-61.09-.00054-30.88192-.00439-61.76379C810.351,26.54417,810.22943,26.42747,807.56006,26.41947Z"/><path class="cls-13" d="M179.15778,30.78141c0-.52392.00811-1.048-.00422-1.57165-.05773-2.44788-.29663-2.71918-2.71777-2.73047-4.94116-.02307-9.88238-.00934-14.82361-.00647-3.575.002-3.5791.00506-3.57934,3.601q-.00211,30.42325-.00067,60.8465,0,18.41107.00006,36.8222.00009,12.46125.00494,24.92243c.00385,2.68914.14331,2.82739,2.7547,2.84155,3.44379.01868,6.88776.00806,10.3316.00592,2.02131-.00128,4.04419.03546,6.06348-.03156,1.50183-.04986,1.80536-.3822,1.9325-1.88531.06915-.818.03723-1.64526.03729-2.46838Q179.15866,90.95423,179.15778,30.78141Z"/></svg>