<svg id="Layer_1" data-name="Layer 1" xmlns="http://www.w3.org/2000/svg" viewBox="0 0 261.93266 79.2431"><defs><style>.cls-1{fill:#3e4263;}.cls-2{fill:#3f4364;}.cls-3{fill:#c6271d;}</style></defs><path class="cls-1" d="M258.97311,23.14766c-2.58908.01238-5.17824.0414-7.76712.02428-.57447-.0038-.77975.117-.777.74.02587,5.76618.01259,11.53253.02306,17.29881a9.961,9.961,0,0,0,.44893,3.10458,3.73323,3.73323,0,0,0,3.70732,2.83987,11.085,11.085,0,0,0,3.22031-.26906c.40232-.09978.57407-.01392.59286.42147.05018,1.16307.11475,2.326.20494,3.48661a.50935.50935,0,0,1-.44329.59681,13.25547,13.25547,0,0,1-8.14008.1706c-2.989-1.01914-4.51944-3.28783-5.0661-6.29873a22.61959,22.61959,0,0,1-.34744-4.06755c.00436-5.70948-.01117-11.419.01681-17.12839.00337-.69009-.14607-.90546-.87519-.90012q-7.17229.05246-14.34508.001c-.76127-.00534-1.00114.16472-.99826.97.03133,8.74876.01021,17.4977.03615,26.24649.00225.7559-.154,1.03836-.96732.99518-1.36236-.07235-2.73322-.0618-4.09685-.00244-.70448.03066-.82626-.22361-.82482-.86215.01972-8.77723.00077-17.55457.03386-26.33172.00311-.82383-.19244-1.08137-1.0233-1.01718-1.01854.07869-2.04822.003-3.07237.0259-.40388.009-.54559-.1143-.53677-.52832.02423-1.1357.02831-2.27278-.0016-3.40821-.01195-.45234.13437-.58442.57878-.57288,1.08086.02806,2.16486-.02984,3.24381.02354.63534.03143.82763-.14445.80557-.79427a22.03725,22.03725,0,0,1,.862-7.323c1.91218-6.17916,7.25992-8.36022,12.42025-7.82548a14.98655,14.98655,0,0,1,2.99512.64542.55962.55962,0,0,1,.458.743c-.23249,1.168-.46453,2.33807-.629,3.51675-.07559.54183-.27576.45992-.65925.32844a9.05185,9.05185,0,0,0-4.45214-.419,5.13964,5.13964,0,0,0-4.014,3.07743c-1.14061,2.41595-1.12075,5.00724-1.1387,7.59311-.00283.40881.22755.4458.54876.44552q7.55693-.00645,15.1138.00737c.512.00174.52978-.24588.52705-.628-.01138-1.59062-.004-3.18137-.00529-4.77207-.00025-.33813-.04685-.63235.43186-.77236,1.76711-.51686,3.51741-1.09112,5.38186-1.67771v6.347c0,1.49314,0,1.49016,1.529,1.49383q3.50033.0084,7.00068.024Z"/><path class="cls-2" d="M60.512,76.66814A22.99945,22.99945,0,0,1,54.66736,71.783,15.18006,15.18006,0,0,1,54.682,52.146a15.40081,15.40081,0,0,1,8.48338-4.7466A1.66463,1.66463,0,0,0,64.645,45.85758c1.13133-5.04785,3.52608-9.31607,7.93367-12.261a21.13793,21.13793,0,0,1,9.48258-3.30286c.64737-.07555.84548.09222.81226.75163-.05567,1.10483-.05433,2.21639,0,3.32135.03083.62717-.183.81311-.791.8898a14.7845,14.7845,0,0,0-7.52907,2.92073c-3.08258,2.4387-4.59288,5.7721-5.32044,9.52054a24.68354,24.68354,0,0,0-.35432,7.62642c.0681.57761-.10464.80327-.68176.87134-1.1.12973-2.19977.2878-3.2851.50609-.6821.13719-.91171-.108-.92857-.74367-.02637-.99325-.13642-1.98768-.103-2.978.02418-.71674-.20954-.692-.77341-.52374C54.98912,54.879,54.1315,64.18242,58.837,69.1184a14.51143,14.51143,0,0,0,3.334,2.76506c.58508.3279.553.59855.28341,1.11586-.6273,1.20386-1.18543,2.44362-1.77159,3.66882Z"/><path class="cls-3" d="M146.77589,45.8416c-.22389.02508-.24728.22213-.32956.35481-2.7828,4.48713-6.96824,6.234-12.05173,5.81763-5.38147-.44078-9.08445-3.48165-11.14684-8.32473a20.74363,20.74363,0,0,1,.31874-17.5017,13.8394,13.8394,0,0,1,17.31679-7.468,10.20737,10.20737,0,0,1,5.36616,4.38218V22.0395c0-5.93686.01192-11.87377-.01632-17.81049-.00322-.67831.18025-.86146.84792-.83717,1.42129.05171,2.84761.05883,4.26818-.00191.73827-.03157.87587.22849.87333.90933-.02483,6.6753-.0176,13.35073-.01426,20.02611q.00549,10.90783.02776,21.81563c.00527,1.53251.09422,3.06586.18644,4.59631.02987.49567-.116.64009-.60321.63057q-2.04859-.04-4.09837-.00014c-.48926.00957-.61976-.167-.63041-.6366-.0309-1.36248-.10809-2.72412-.18239-4.08526C146.89347,46.37736,146.98472,46.08,146.77589,45.8416Zm-.51518-10.97971a26.327,26.327,0,0,0-.27477-5.34456,8.81362,8.81362,0,0,0-7.39993-6.85322,8.67549,8.67549,0,0,0-9.06438,4.605,16.32871,16.32871,0,0,0-.44824,14.84913,8.58153,8.58153,0,0,0,8.74063,5.16025,8.96813,8.96813,0,0,0,8.08558-6.7402C146.42465,38.66752,146.18408,36.75732,146.26071,34.86189Z"/><path class="cls-2" d="M199.83572,17.92788c8.1945.04821,14.26279,5.33653,15.43217,13.472.66341,4.61537.22269,9.07776-2.19433,13.16415a15.08176,15.08176,0,0,1-11.57011,7.378,15.75769,15.75769,0,0,1-10.28138-1.92474,14.75587,14.75587,0,0,1-6.98989-9.369,20.61633,20.61633,0,0,1,.36186-12.07552A15.40476,15.40476,0,0,1,199.83572,17.92788ZM189.58691,35.06359a16.84415,16.84415,0,0,0,.22591,2.96833,14.35931,14.35931,0,0,0,1.66807,4.70285c3.80482,6.5424,12.306,6.61179,15.98456-.00276a15.39317,15.39317,0,0,0-.14346-15.84635,8.98972,8.98972,0,0,0-15.58888-.11138A15.34136,15.34136,0,0,0,189.58691,35.06359Z"/><path class="cls-3" d="M109.65628,46.128c-.472.60253-.914,1.22352-1.41322,1.79471a12.50971,12.50971,0,0,1-13.45418,3.50717c-3.7206-1.33641-5.63928-4.21624-6.59422-7.8729a23.08632,23.08632,0,0,1-.66269-5.82106c-.01078-6.07635.008-12.1528-.02193-18.229-.00343-.69512.211-.851.86056-.83,1.42109.04595,2.84705.06281,4.26635-.00551.75174-.03618.86325.22984.86.90356-.02713,5.65034-.01344,11.30085-.01642,16.95131a21.23543,21.23543,0,0,0,.50824,4.983c1.178,4.92093,5.61842,7.09281,10.20786,4.8846a8.13862,8.13862,0,0,0,4.97732-7.70334c.03627-6.3885.0195-12.77739-.00341-19.166-.0023-.64107.12227-.88136.8226-.8515,1.42.06054,2.84588.0564,4.26636.00173.69913-.02691.90152.15783.89815.879q-.04514,9.62544-.01487,19.25121c.00592,3.91759-.08927,7.838.20879,11.74942.0478.62724-.08429.8501-.75605.82034-1.24941-.05537-2.50418-.04738-3.75442-.0024-.61079.022-.77382-.20675-.789-.77576-.03333-1.24793-.124-2.49458-.20591-3.74079C109.83052,46.61736,109.92113,46.34039,109.65628,46.128Z"/><path class="cls-3" d="M2.80673,35.37806c.11653-5.98393,2.11952-11.0546,7.2753-14.49757A18.734,18.734,0,0,1,22.564,18.11412a19.23759,19.23759,0,0,1,5.29214,1.23147c.56407.21967.82515.41808.56984,1.0922a28.92192,28.92192,0,0,0-.895,3.01217c-.15633.6045-.29463.79389-1.00066.48578a14.38058,14.38058,0,0,0-9.83531-.68431A10.12393,10.12393,0,0,0,9.673,29.995a14.76722,14.76722,0,0,0-.27552,9.28679,10.86249,10.86249,0,0,0,11.53067,8.01087,16.76515,16.76515,0,0,0,5.8623-1.34366c.63473-.28768.76055-.06408.8714.4759.21646,1.05454.473,2.10086.70943,3.15137.0701.31153.12072.58513-.28507.76284C23.04735,52.5459,14.5015,53.30989,8.821,48.86933A15.69534,15.69534,0,0,1,2.95736,38.01016c-.06994-.53417-.11243-1.07266-.14661-1.61047C2.78919,36.06042,2.80673,35.71869,2.80673,35.37806Z"/><path class="cls-2" d="M159.65911,45.30527a17.13623,17.13623,0,0,0,5.65743,2.12457,10.59269,10.59269,0,0,0,4.981-.181,4.468,4.468,0,0,0,3.46565-3.58592,4.674,4.674,0,0,0-2.049-4.96106,16.59529,16.59529,0,0,0-3.96725-1.93449,20.11222,20.11222,0,0,1-4.98333-2.55646c-5.71218-4.16134-4.07024-11.27925.316-14.20925a12.58621,12.58621,0,0,1,6.66968-2.04967,16.97159,16.97159,0,0,1,8.0234,1.61989c.54015.25561.69779.5135.45225,1.10566a30.47365,30.47365,0,0,0-1.02755,2.97c-.15743.528-.3273.57065-.80644.31438a11.33331,11.33331,0,0,0-8.06065-1.31381,4.24458,4.24458,0,0,0-3.48378,4.73627,3.91581,3.91581,0,0,0,1.8499,2.91693,17.20587,17.20587,0,0,0,3.80831,1.87793,22.17165,22.17165,0,0,1,5.44318,2.77494,9.17715,9.17715,0,0,1-.86434,15.29125,13.85725,13.85725,0,0,1-6.16164,1.79,19.381,19.381,0,0,1-10.1-1.87189c-.498-.24288-.65776-.4669-.44985-1.02505C158.83525,47.89524,159.22192,46.62364,159.65911,45.30527Z"/><path class="cls-3" d="M35.44162,27.32293c0-7.66909.01287-15.33825-.01973-23.00721-.00329-.77445.21537-.95414.952-.92494,1.47768.05857,2.95952.031,4.4392.00916.43235-.00637.6498.10477.59031.56708a3.36074,3.36074,0,0,0-.00256.42571q0,23.0073.01874,46.01457c.0013.7882-.20617,1.00819-.98182.96957a39.258,39.258,0,0,0-3.92592-.00025c-.82368.04158-1.10035-.13816-1.09516-1.04652C35.46042,42.66124,35.44163,34.992,35.44162,27.32293Z"/><path class="cls-3" d="M81.33466,26.19c-1.50237.61237-2.95351,1.18435-4.38552,1.80062-.37986.16348-.5616.02655-.79319-.226-6.28719-6.85647-20.10544-4.94364-23.306,6.48895a12.80359,12.80359,0,0,0,1.76558,11.22032.57971.57971,0,0,1-.07708.9108c-.88417.8846-1.758,1.7819-2.58984,2.7151-.38137.42783-.56455.36908-.87452-.066a18.40771,18.40771,0,0,1-3.60005-11.48586A18.94537,18.94537,0,0,1,81.33466,26.19Z"/></svg>