<?xml version="1.0" encoding="utf-8"?>
<!-- Generator: Adobe Illustrator 23.0.6, SVG Export Plug-In . SVG Version: 6.00 Build 0)  -->
<svg version="1.1" id="Layer_1" xmlns:sketchjs="https://sketch.io/dtd/"
	 xmlns="http://www.w3.org/2000/svg" xmlns:xlink="http://www.w3.org/1999/xlink" x="0px" y="0px" viewBox="0 0 400 245"
	 style="enable-background:new 0 0 400 245;" xml:space="preserve">
<style type="text/css">
	.st0{opacity:0.59;}
	.st1{fill:#0D78FE;}
	.st2{opacity:0.87;enable-background:new    ;}
	.st3{fill:#636363;}
</style>
<g transform="matrix(2.0861230139370126,0,0,2.0861230139370126,227.7095780139558,85.97077094114509)" sketchjs:tool="clipart" class="st0">
	<path sketchjs:uid="1" class="st1" d="M-60.7,19.8l-0.2-0.2l-0.2-0.3l-0.5-0.5l-1-1.1l-0.1-0.1l0-0.1c0,0-0.1-0.1-0.1-0.1
		c-0.1-0.2-0.1-0.5,0-0.8c0,0,0.2-0.3,0.4-0.4l0.5-0.5l0.9-1c0.2-0.2,0.4-0.5,0.5-0.8c0.5-1,0.5-2.2-0.1-3.2
		c-0.2-0.3-0.4-0.6-0.7-0.8c-0.1-0.1-0.3-0.2-0.5-0.3c-0.2-0.1-0.3-0.2-0.4-0.2L-63.4,9l-1.2-0.5c-0.2-0.1-0.3-0.2-0.4-0.4
		c-0.1-0.2-0.1-0.4-0.1-0.5c0,0,0,0,0-0.1c0,0,0-0.1,0-0.1l0.1-0.3l0.2-0.6l0.4-1.2l0.1-0.3c0-0.1,0.1-0.2,0.1-0.4
		c0.1-0.3,0.1-0.6,0.1-1c-0.1-1.3-1.1-2.4-2.4-2.7C-66.7,1-66.9,1-67,1c-0.1,0-0.3,0-0.4,0l-0.6,0l-1.2,0.1l-0.6,0l-0.5,0
		c-0.4,0-0.7-0.2-0.9-0.6c0,0,0-0.1,0-0.1V0.4V0.3l-0.1-0.5l-0.4-2.2C-72.1-4-73.6-5-75.1-4.7c0,0-0.1,0-0.1,0
		c-0.2,0.1-0.4,0.1-0.6,0.3C-76-4.3-76-4.3-76.1-4.3l-0.2,0.1l-1.7,1l-0.4,0.2c-0.1,0.1-0.2,0.1-0.3,0.1c-0.2,0.1-0.4,0.1-0.5,0.1
		c-0.2,0-0.3-0.1-0.5-0.2c-0.1,0-0.1-0.1-0.2-0.2c0,0-0.1-0.1-0.1-0.1c0,0-0.1-0.1-0.1-0.2l-1-1.3c-0.3-0.5-0.9-0.7-1.2-0.4
		c-0.3,0.4-0.2,0.9,0.1,1.2l0.9,1.4c0,0.1,0.1,0.1,0.1,0.2c0.1,0.1,0.1,0.2,0.2,0.2c0.1,0.2,0.3,0.3,0.4,0.4
		c0.7,0.5,1.5,0.7,2.3,0.4c0.2-0.1,0.4-0.1,0.6-0.2l0.4-0.2l1.7-0.9l0.2-0.1c0.1,0,0.1-0.1,0.2-0.1c0.1,0,0.2-0.1,0.3-0.1
		c0.2,0,0.4,0,0.6,0c0.4,0.1,0.6,0.4,0.7,0.8l0.3,2.1l0.1,0.6v0.1l0,0.2c0,0.1,0.1,0.3,0.1,0.4c0.4,1.1,1.4,1.9,2.6,1.9
		c0.3,0,0.5,0,0.7,0l0.6,0l1.2-0.1l0.6,0c0.1,0,0.2,0,0.3,0c0.5,0.1,0.8,0.6,0.7,1c0,0,0,0,0,0.1c0,0,0,0.1-0.1,0.2l-0.1,0.3
		l-0.4,1.2l-0.2,0.6l-0.1,0.3c0,0,0,0.1-0.1,0.2c0,0.1,0,0.2,0,0.2c-0.1,0.7,0,1.4,0.3,2c0.3,0.6,0.9,1.1,1.5,1.4l1.2,0.5l1.3,0.5
		c0.1,0,0.1,0.1,0.2,0.1c0,0,0.1,0,0.1,0.1c0.1,0.1,0.1,0.1,0.2,0.2c0.1,0.2,0.1,0.5,0,0.8c-0.1,0.1-0.2,0.2-0.3,0.3l-0.9,1
		l-0.5,0.5c-0.2,0.2-0.4,0.4-0.6,0.6c-0.7,1-0.8,2.2-0.3,3.3c0.1,0.2,0.2,0.3,0.3,0.5l0.2,0.2l0.1,0.2l1,1.1l0.5,0.5l0.2,0.3
		c0,0,0.1,0.1,0.1,0.1c0,0,0,0,0,0.1c0.2,0.3,0.1,0.7-0.2,0.9c0,0-0.1,0-0.1,0.1l-0.1,0l-0.2,0.1l-0.7,0.3l-1.4,0.5l-0.4,0.1
		c-0.2,0.1-0.4,0.2-0.6,0.3c-1.1,0.7-1.6,2-1.4,3.3c0,0.2,0.1,0.3,0.1,0.5l0.1,0.4l0.2,0.7l0.4,1.5c0.1,0.2,0,0.3-0.1,0.5
		c-0.1,0.1-0.2,0.3-0.4,0.3c0,0-0.1,0-0.1,0c0,0,0,0-0.1,0h-0.1l-0.8,0l-1.6-0.1l-0.4,0c-0.2,0-0.4,0-0.6,0
		c-1.4,0.2-2.5,1.2-2.8,2.5l-0.1,0.3l0,0.2l-0.1,0.4l-0.1,0.8l-0.1,0.8l-0.1,0.4l0,0.2c0,0,0,0.1,0,0.1c-0.1,0.3-0.4,0.5-0.7,0.4
		c0,0,0,0,0,0c0,0-0.1,0-0.1,0c0,0-0.1,0-0.1-0.1l-0.2-0.1l-0.7-0.4l-1.4-0.8l-0.1,0l-0.1-0.1c-0.1-0.1-0.2-0.1-0.3-0.1
		c-0.6-0.2-1.3-0.3-2-0.1c-0.4,0.1-0.8,0.3-1.2,0.6c-0.2,0.1-0.3,0.3-0.5,0.5c-0.1,0.1-0.1,0.2-0.2,0.3l-0.1,0.2l-0.9,1.3l-0.5,0.7
		l-0.1,0.2c0,0.1,0,0-0.1,0.1c0,0-0.1,0.1-0.1,0.1c-0.3,0.2-0.6,0.2-0.8-0.1c0,0,0,0,0,0l-0.9-1.3l-0.5-0.7l-0.2-0.3
		c-0.1-0.2-0.3-0.3-0.4-0.5c-0.6-0.7-1.5-1-2.5-1c-0.5,0-0.9,0.1-1.3,0.3c-0.2,0.1-0.3,0.2-0.4,0.2l-0.3,0.2l-1.4,0.8l-0.3,0.2
		l-0.2,0.1l-0.1,0c-0.1,0-0.2,0-0.2,0c-0.2,0-0.3-0.1-0.4-0.2c-0.1-0.1-0.1-0.1-0.1-0.2c0,0,0-0.1,0-0.1l-0.1-0.4l-0.2-1.6l-0.1-0.8
		c-0.2-1.4-1.2-2.4-2.6-2.7c-0.2,0-0.4-0.1-0.7,0h-0.3h-0.2l-0.8,0.1l-1.6,0.1h-0.2h-0.1c0,0-0.1,0-0.1,0c-0.1,0-0.2,0-0.2-0.1
		c-0.1-0.1-0.2-0.2-0.3-0.4c0-0.1,0-0.2,0-0.2v0l0-0.1l0.1-0.2l0.1-0.4l0.4-1.5l0.1-0.4l0.1-0.2l0.1-0.3c0.1-0.4,0.1-0.9,0-1.3
		c-0.2-0.8-0.7-1.6-1.4-2.1c-0.2-0.1-0.4-0.2-0.6-0.3l-0.2-0.1l-0.2-0.1l-0.7-0.3l-1.4-0.6l-0.2-0.1l-0.1,0c0,0-0.1,0-0.1-0.1
		c-0.1,0-0.1-0.1-0.2-0.2c-0.1-0.1-0.1-0.3-0.1-0.5c0-0.1,0.1-0.2,0.1-0.2c0,0,0.2-0.3,0.4-0.4l1-1.1l0.5-0.5l0.1-0.1l0.1-0.1
		c0.1-0.1,0.1-0.2,0.2-0.2c0.1-0.2,0.2-0.3,0.3-0.5c0.5-1.1,0.3-2.4-0.5-3.4c-0.1-0.1-0.1-0.1-0.2-0.2l-0.1-0.1l-0.2-0.3l-1-1.1
		l-0.5-0.5c-0.1-0.1-0.1-0.1-0.2-0.2c-0.1-0.3,0-0.7,0.3-0.9l0.1,0h0l0.1,0l0.3-0.1l0.6-0.3l1.3-0.5l0.3-0.1
		c0.2-0.1,0.3-0.2,0.5-0.3c1.1-0.7,1.7-2,1.4-3.3l-0.1-0.2l0-0.2l-0.2-0.6l-0.4-1.3l-0.2-0.6c0-0.1,0-0.2,0-0.3
		c0-0.2,0.1-0.4,0.2-0.5c0.1-0.1,0.3-0.3,0.5-0.3c0,0,0.1,0,0.1,0h0.2l0.6,0l1.2,0.1l0.6,0h0.2h0.2c0.2,0,0.3,0,0.5,0
		c1.3-0.2,2.3-1.1,2.5-2.3l0-0.2V0.6l0-0.3l0.1-0.6l0.2-1.1L-94-2c0-0.1,0-0.2,0.1-0.3c0.1-0.2,0.2-0.3,0.3-0.4
		c0.3-0.2,0.8-0.2,1.1,0l1.8,1c0.3,0.2,0.7,0.4,1,0.5c0.9,0.3,1.9,0.1,2.7-0.5c0.2-0.1,0.3-0.3,0.5-0.5l0.1-0.1l0.1-0.1l0.1-0.2
		l1-1.5l0.2-0.4l0.1-0.2l0.1-0.1c0.1-0.1,0.3-0.2,0.4-0.3c0.3-0.1,0.7-0.1,1,0c0.2,0.1,0.4,0.1,0.6,0.1c0.2,0,0.4,0,0.5-0.1
		c0.1-0.1,0.2-0.4,0.1-0.6c-0.1-0.3-0.3-0.5-0.6-0.7c-0.7-0.3-1.5-0.4-2.2-0.1c-0.4,0.1-0.7,0.4-1,0.7L-86-5.6l-0.1,0.2L-86.4-5
		l-1.1,1.5l-0.1,0.2l-0.1,0.1l0,0.1c-0.1,0.1-0.1,0.1-0.2,0.2c-0.1,0.1-0.3,0.2-0.5,0.2c-0.2,0-0.4,0-0.6-0.1
		c-0.1,0-0.5-0.3-0.8-0.4l-1.8-1.1c-0.4-0.3-1-0.4-1.5-0.4c-1.1,0-2.2,0.7-2.6,1.7c-0.1,0.1-0.1,0.3-0.1,0.4c0,0.1-0.1,0.3-0.1,0.4
		L-96-1.8l-0.4,2.2c-0.1,0.4-0.4,0.7-0.8,0.7c0,0-0.1,0-0.1,0h-0.1h-0.2l-0.6-0.1L-99.4,1l-0.6,0h-0.4c-0.2,0-0.3,0-0.5,0.1
		c-1.4,0.3-2.4,1.4-2.4,2.8c0,0.3,0,0.7,0.1,1l0.2,0.6l0.4,1.3l0.2,0.6l0,0.2v0.1c0,0,0,0.1,0,0.1c0,0.2-0.1,0.4-0.2,0.5
		c-0.1,0.1-0.1,0.1-0.2,0.2l-0.1,0.1l-0.3,0.1l-1.3,0.5l-0.6,0.2l-0.3,0.1l0,0.1l-0.1,0.1l-0.3,0.1c-1.4,0.8-2,2.5-1.4,3.9
		c0.1,0.4,0.4,0.7,0.6,1l0.5,0.5l1,1.1l0.2,0.3l0.1,0.1l0.1,0.1c0.1,0.1,0.1,0.1,0.1,0.2c0.1,0.2,0,0.3,0,0.5c0,0,0,0.1-0.1,0.1
		c0,0,0,0,0,0v0l-0.1,0.1l-0.5,0.5l-1,1.1c-0.2,0.2-0.4,0.4-0.7,0.7c-0.2,0.3-0.4,0.7-0.5,1.1c-0.2,0.8-0.1,1.7,0.3,2.4
		c0.2,0.4,0.5,0.7,0.8,1c0.2,0.1,0.3,0.2,0.5,0.3l0.3,0.1l0.2,0.1l1.4,0.6l0.7,0.3l0.2,0.1l0.1,0.1c0,0,0.1,0,0.1,0.1
		c0.1,0.1,0.2,0.2,0.3,0.4c0,0.1,0,0.2,0,0.2v0.1l-0.1,0.2l-0.1,0.4l-0.5,1.5l-0.1,0.4l-0.1,0.2l0,0.1l0,0.2
		c-0.1,0.4-0.1,0.9-0.1,1.3c0.1,0.9,0.6,1.7,1.3,2.2c0.4,0.3,0.8,0.4,1.2,0.5c0.2,0,0.4,0.1,0.7,0.1h0.3h0.2l1.6-0.1l0.8-0.1h0.2
		h0.1h0.1c0.2,0,0.3,0.1,0.4,0.3c0,0.1,0.1,0.2,0.1,0.2l0.1,0.8l0.2,1.6l0.1,0.4c0,0.2,0.1,0.4,0.2,0.6c0.1,0.4,0.4,0.8,0.7,1.2
		c0.6,0.7,1.5,1,2.4,1.1c0.5,0,0.9-0.1,1.3-0.3l0.3-0.1l0.2-0.1l0.3-0.2l1.4-0.8l0.3-0.2l0.3-0.1c0.1,0,0.1-0.1,0.2-0.1
		c0.2,0,0.3,0.1,0.4,0.2c0,0,0.1,0.1,0.1,0.1l0.2,0.3l0.5,0.7l0.9,1.3c1.1,1.5,3.1,1.9,4.6,0.8c0.1,0,0.1-0.1,0.2-0.1
		c0.2-0.1,0.4-0.3,0.5-0.5c0.1-0.1,0.2-0.2,0.2-0.2l0.1-0.2l0.4-0.7l0.9-1.3l0.1-0.2l0,0c0,0,0.1-0.1,0.1-0.1c0.1,0,0.1-0.1,0.2-0.1
		c0.1,0,0.2,0,0.4,0h0.1h0l0.1,0l1.4,0.8l0.7,0.4l0.2,0.1c0.1,0,0.1,0.1,0.2,0.1c1.6,0.9,3.6,0.2,4.5-1.4c0.1-0.3,0.2-0.5,0.3-0.8
		c0-0.1,0.1-0.2,0.1-0.3l0-0.2l0.1-0.4l0.1-0.8l0.2-1.4c0.1-0.2,0.3-0.4,0.5-0.5h0.1l0.4,0l1.6,0.1l0.8,0.1h0.3c0.1,0,0.2,0,0.3,0
		c0.2,0,0.4-0.1,0.6-0.1c1.7-0.5,2.7-2.3,2.2-4.1c0,0,0,0,0,0l-0.9-2.8c0-0.3,0.1-0.5,0.3-0.7l0.1-0.1l0.3-0.1l1.4-0.6l0.7-0.3
		l0.2-0.1l0.3-0.1c0.2-0.1,0.3-0.2,0.5-0.3c1.3-1,1.7-2.9,0.7-4.4C-60.6,20-60.6,19.9-60.7,19.8z"/>
	<path sketchjs:uid="2" class="st1" d="M-94.6,24.7c-0.8-1.1-1.5-2.3-1.9-3.6c-0.2-0.6-0.4-1.2-0.5-1.8c-0.1-0.3-0.1-0.6-0.2-0.8
		l-0.1-0.8c-0.1-0.3-0.4-0.5-0.8-0.5c-0.3,0-0.6,0.2-0.6,0.6v0.9c0,0.3,0.1,0.6,0.1,0.9c0.1,0.7,0.2,1.4,0.4,2
		c0.4,1.5,1.1,2.9,1.9,4.2c2.1,3.2,5.4,5.5,9.2,6.4c4.4,1,9,0,12.6-2.7c0.9-0.7,1.8-1.5,2.6-2.4c0.4-0.5,0.7-0.9,1.1-1.4
		c0.3-0.5,0.6-1,0.9-1.6c2.2-4.4,2.2-9.5,0-13.9c-1.1-2.1-2.6-4-4.5-5.4c-3.6-2.7-8.2-3.7-12.7-2.7c-3.8,0.9-7,3.1-9.1,6.4
		c-0.9,1.3-1.5,2.8-1.9,4.3c-0.2,0.7-0.3,1.3-0.4,2c0,0.3-0.1,0.6-0.1,0.9v0.9c0,0.3,0.3,0.6,0.6,0.5c0,0,0,0,0,0
		c0.3,0,0.6-0.2,0.6-0.5l0.1-0.8c0-0.3,0.1-0.6,0.2-0.8c0.1-0.6,0.3-1.2,0.5-1.8c0.5-1.3,1.1-2.5,1.9-3.6c3.1-4.2,8.4-6.2,13.5-5.1
		c1.9,0.4,3.6,1.2,5.1,2.4c5.7,4.4,6.7,12.5,2.4,18.1c-1.9,2.4-4.5,4.1-7.5,4.7C-86.2,30.9-91.5,28.9-94.6,24.7z"/>
	<path sketchjs:uid="3" class="st1" d="M-88.3,12.4c-0.2,0.4-0.3,0.9-0.3,1.4c-0.1,1.1,0.3,2.1,1,2.9c0.3,0.4,0.7,0.7,1.1,1
		c0.8,0.4,1.6,0.8,2.4,0.9c0.6,0.1,1.1,0.3,1.7,0.6c0.4,0.2,0.7,0.5,0.8,0.9c0.1,0.4,0.1,0.8,0,1.2c-0.1,0.4-0.4,0.7-0.7,0.9
		c-0.4,0.3-0.8,0.4-1.2,0.5c-0.4,0.1-0.8,0.1-1.2,0c-0.7-0.2-1.3-0.6-1.7-1.2c0-0.1-0.4,0-0.7,0.2c-0.4,0.2-0.5,0.3-0.5,0.4
		c0.4,1.1,1.2,2,2.2,2.4c0.1,0,0.2,0.1,0.3,0.1c-0.1,0.8,0.1,1.8,0.6,2.2c0.2,0,0.5,0,0.7,0c0.2,0,0.4,0,0.6,0
		c0.5-0.5,0.8-1.3,0.7-2c0.5-0.1,1-0.3,1.4-0.5c0.8-0.5,1.4-1.2,1.8-2.1c0.2-0.4,0.3-0.9,0.3-1.4c0.1-1.1-0.3-2.1-1-2.9
		c-0.3-0.4-0.7-0.7-1.1-0.9c-0.8-0.4-1.6-0.8-2.4-0.9c-0.6-0.1-1.1-0.3-1.7-0.6c-0.4-0.2-0.7-0.5-0.8-0.9c-0.1-0.4-0.1-0.8,0-1.2
		c0.1-0.4,0.4-0.7,0.7-1c0.4-0.3,0.8-0.4,1.2-0.5c0.4-0.1,0.8-0.1,1.2,0c0.7,0.2,1.3,0.6,1.7,1.2c0,0.1,0.4,0,0.7-0.1
		c0.3-0.1,0.5-0.3,0.5-0.4c-0.4-1.1-1.2-1.9-2.2-2.4c-0.1,0-0.2-0.1-0.3-0.1c0.1-0.8-0.1-1.8-0.7-2.2c-0.2,0-0.5,0-0.7,0
		c-0.2,0-0.4,0-0.6,0c-0.6,0.5-0.8,1.3-0.7,2c-0.5,0.1-1,0.3-1.4,0.5C-87.3,10.8-88,11.5-88.3,12.4z"/>
</g>
<g class="st2">
	<path class="st3" d="M129.6,127.3l4.1-5.8l10.4-12.5h8.5l-13.9,16.7l14.8,22.2h-8.6l-11.1-17.1l-4,3.7v13.3h-7.3V93.2h7.3v26.7
		l-0.4,7.5H129.6z"/>
	<path class="st3" d="M182.1,147.9l-1-5.1h-0.4c-1,1.8-2.5,3.2-4.4,4.3c-1.9,1-4,1.5-6.4,1.5c-4.2,0-7.3-1.2-9.4-3.5
		c-2.1-2.3-3.1-5.9-3.1-10.7V109h7.4v24c0,3,0.5,5.2,1.6,6.7c1.1,1.5,2.8,2.2,5.1,2.2c3.1,0,5.3-1,6.8-3.1c1.4-2.1,2.2-5.5,2.2-10.4
		V109h7.4v38.9H182.1z"/>
	<path class="st3" d="M215.9,108.3c4.3,0,7.7,1.8,10.1,5.3c2.4,3.5,3.6,8.5,3.6,14.8c0,6.4-1.2,11.3-3.7,14.9
		c-2.4,3.6-5.8,5.3-10.1,5.3c-4.4,0-7.8-1.8-10.2-5.3h-0.5l-1.3,4.6h-5.5V93.2h7.3v13c0,1,0,2.4-0.1,4.3c-0.1,1.9-0.1,3.1-0.2,3.6
		h0.3C208,110.2,211.4,108.3,215.9,108.3z M214,115c-3,0-5.1,1-6.4,2.9c-1.3,2-2,5.2-2,9.8v0.6c0,4.7,0.7,8.2,2,10.3
		c1.3,2.1,3.5,3.2,6.5,3.2c2.6,0,4.6-1.2,5.9-3.5s2-5.7,2-10.1C222.1,119.5,219.4,115,214,115z"/>
	<path class="st3" d="M253.2,148.6c-5.4,0-9.6-1.8-12.6-5.3c-3-3.5-4.5-8.4-4.5-14.6c0-6.4,1.4-11.3,4.2-15
		c2.8-3.6,6.7-5.5,11.6-5.5c4.6,0,8.2,1.6,10.8,4.7c2.6,3.1,4,7.4,4,12.9v4.5h-23c0.1,3.8,1,6.7,2.7,8.7c1.7,2,4.1,3,7.2,3
		c2,0,3.9-0.2,5.7-0.7c1.8-0.4,3.6-1.2,5.7-2.2v6.7c-1.8,1-3.6,1.6-5.4,2S255.5,148.6,253.2,148.6z M251.8,114.5
		c-2.3,0-4.2,0.8-5.6,2.5c-1.4,1.7-2.2,4.1-2.5,7.3h15.7c0-3.2-0.7-5.6-2.1-7.3C256,115.4,254.2,114.5,251.8,114.5z"/>
	<path class="st3" d="M289.5,148.6c-5.2,0-9.2-1.7-11.9-5.2s-4.1-8.4-4.1-14.8c0-6.5,1.4-11.6,4.3-15.1c2.8-3.5,6.9-5.3,12.3-5.3
		c3.6,0,6.9,0.8,9.8,2.3l-2.2,6.6c-3.1-1.4-5.7-2-7.7-2c-6,0-9,4.5-9,13.4c0,4.4,0.7,7.6,2.2,9.8c1.5,2.2,3.7,3.3,6.5,3.3
		c3.3,0,6.4-0.9,9.3-2.7v7.2c-1.3,0.9-2.7,1.5-4.2,1.9C293.4,148.4,291.6,148.6,289.5,148.6z"/>
	<path class="st3" d="M338.4,128.4c0,6.4-1.4,11.3-4.3,14.9s-6.9,5.3-12.1,5.3c-3.2,0-6.1-0.8-8.5-2.5c-2.5-1.6-4.4-4-5.7-7.1
		c-1.3-3.1-2-6.6-2-10.7c0-6.3,1.4-11.2,4.3-14.8c2.9-3.5,6.9-5.3,12.1-5.3c5,0,8.9,1.8,11.9,5.4C337,117.3,338.4,122.2,338.4,128.4
		z M313.3,128.4c0,9,2.9,13.5,8.8,13.5c5.8,0,8.7-4.5,8.7-13.5c0-8.9-2.9-13.3-8.8-13.3c-3.1,0-5.3,1.1-6.7,3.4
		C314,120.8,313.3,124.1,313.3,128.4z"/>
	<path class="st3" d="M370,136.8c0,3.8-1.2,6.7-3.7,8.7c-2.5,2-6,3-10.5,3c-4.6,0-8.3-0.8-11.1-2.4v-7.1c4.1,2.1,7.8,3.2,11.3,3.2
		c4.5,0,6.8-1.5,6.8-4.6c0-1-0.2-1.8-0.7-2.5c-0.5-0.7-1.3-1.3-2.5-2c-1.1-0.7-2.7-1.5-4.8-2.4c-4-1.7-6.7-3.5-8.1-5.2
		c-1.4-1.7-2.1-4-2.1-6.8c0-3.3,1.2-5.9,3.6-7.8c2.4-1.8,5.6-2.8,9.7-2.8c4.1,0,7.9,0.9,11.5,2.8l-2.4,6.2c-3.7-1.7-6.9-2.6-9.4-2.6
		c-3.9,0-5.8,1.2-5.8,3.7c0,1.2,0.5,2.3,1.5,3.1s3.2,2,6.6,3.5c2.8,1.2,4.9,2.4,6.2,3.4c1.3,1,2.2,2.2,2.9,3.6
		C369.7,133.3,370,134.9,370,136.8z"/>
	<path class="st3" d="M390.8,141.9c1.8,0,3.6-0.3,5.4-0.9v6.2c-0.8,0.4-1.9,0.7-3.1,1c-1.3,0.3-2.6,0.4-4,0.4
		c-6.9,0-10.4-4.1-10.4-12.4v-21h-4.7v-3.7l5.1-3l2.5-8.2h4.5v8.7h9.8v6.3H386v20.8c0,2,0.4,3.5,1.3,4.4
		C388.2,141.4,389.4,141.9,390.8,141.9z"/>
</g>
</svg>
