<svg id="Layer_1" data-name="Layer 1" xmlns="http://www.w3.org/2000/svg" xmlns:xlink="http://www.w3.org/1999/xlink" viewBox="0 0 1425 248"><defs><style>.cls-1{fill:#fff;}.cls-1,.cls-3,.cls-5{fill-rule:evenodd;}.cls-2{mask:url(#mask);}.cls-3{fill:#5c54ff;}.cls-4{mask:url(#mask-2-2);}.cls-5{fill:#05004d;}.cls-6{mask:url(#mask-3);}</style><mask id="mask" x="-0.0006" y="-0.0001" width="184.683" height="184.682" maskUnits="userSpaceOnUse"><g id="mask-2"><polygon id="path-1" class="cls-1" points="0 0 184.682 0 184.682 184.682 0 184.682 0 0"/></g></mask><mask id="mask-2-2" x="-0.0006" y="184.6816" width="61.585" height="61.585" maskUnits="userSpaceOnUse"><g id="mask-4"><polygon id="path-3" class="cls-1" points="0 184.682 61.584 184.682 61.584 246.267 0 246.267 0 184.682"/></g></mask><mask id="mask-3" x="1332.0965" y="98.1261" width="92.415" height="108.451" maskUnits="userSpaceOnUse"><g id="mask-6"><polygon id="path-5" class="cls-1" points="1332.097 98.126 1424.511 98.126 1424.511 206.577 1332.097 206.577 1332.097 98.126"/></g></mask></defs><g id="Branding_Logo_Colored" data-name="Branding/Logo_Colored"><g id="Group-28"><g id="Group-3"><g class="cls-2"><path id="Fill-1" class="cls-3" d="M92.3414,123.1699a30.79252,30.79252,0,1,1,30.829-30.829,30.81549,30.81549,0,0,1-30.829,30.829m0-123.17a92.341,92.341,0,1,0,92.341,92.341A92.38161,92.38161,0,0,0,92.3414-.0001"/></g></g><g id="Group-6"><g class="cls-4"><path id="Fill-4" class="cls-3" d="M30.7554,184.6816a30.79252,30.79252,0,1,0,30.829,30.83,30.76942,30.76942,0,0,0-30.829-30.83"/></g></g><path id="Fill-7" class="cls-5" d="M1124.861,182.0459c-28.55993,0-50.089-23.58-50.089-52.358,0-28.706,21.52906-52.286,50.089-52.286,28.77808,0,50.454,23.58,50.454,52.286,0,28.778-21.6759,52.358-50.454,52.358m0-128.882a76.56,76.56,0,1,0,76.59705,76.524,76.34995,76.34995,0,0,0-76.59705-76.524"/><g id="Group-11"><g class="cls-6"><path id="Fill-9" class="cls-5" d="M1394.0485,143.1611l-19.113-3.002c-10.985-2.051-14.499-6.811-14.499-11.79,0-6.004,6.371-10.984,18.38-10.984,11.716,0,21.163,4.613,22.115,14.938l23.067-.145c-2.344-27.901-27.68-34.052-45.182-34.052-25.484,0-43.058,12.375-43.058,32.953,0,18.526,14.792,26.581,30.316,29.437l22.262,3.662c7.982,1.464,12.302,5.419,12.302,10.837,0,6.884-8.348,11.205-20.431,11.205-13.986,0-23.066-5.273-25.19-17.356l-22.921-.22c2.417,28.194,24.019,37.933,47.452,37.933,25.703,0,44.963-11.937,44.963-33.759,0-19.918-14.866-26.801-30.463-29.657"/></g></g><path id="Fill-12" class="cls-5" d="M375.149,137H347.255V80h27.894c19.918,0,33.318,11.072,33.318,27.182,0,17.648-13.4,29.818-33.318,29.818m.952-80H321.255V204h26V160h25.038c37.273,0,61.951-20.671,61.951-52.672C434.244,76.865,411.031,57,376.101,57"/><path id="Fill-14" class="cls-5" d="M1034.25549,98.9312c-8-.732-24-1.538-36,9.228v-7.159h-26v103h26v-60.693c0-7.322,3.255-14.022,9.04-17.683,5.492-2.71,11.75-3.624,18.561-3.624h8.399V98.9312Z"/><path id="Fill-16" class="cls-5" d="M877.93408,142c2.856-13,12.083-23.579,28.047-23.579,14.938,0,24.018,10.579,26.069,23.579Zm29.438-43.435c-32.66,0-54.335,23.141-54.335,53.676,0,30.171,21.675,53.876,54.335,53.876,23.28705,0,42.18-12.117,47.96405-30.117h-26.581c-3.66205,5-10.838,9.464-20.723,9.464-17.356,0-26.802-9.464-29.805-22.464h78.501a105.03982,105.03982,0,0,0,.513-12.007c-.147-30.682-21.53-52.428-49.869-52.428Z"/><path id="Fill-18" class="cls-5" d="M1269.25549,184.09669c-39,0-39-63.855,0-63.855,18,0,30.24305,14.865,30.24305,32,0,16.77-12.24305,31.855-30.24305,31.855m2.385-85.531c-12.303,0-23.385,3.515-31.385,9.593v-7.159h-25v147h25v-51.894c8,6.151,19.082,9.519,31.385,9.519,28.486,0,51.406-23.725,51.406-53.383,0-29.877-22.92-53.676-51.406-53.676"/><path id="Fill-20" class="cls-5" d="M565.39612,183.8037c-17.722,0-29.65705-14.134-29.65705-31.562,0-17.355,11.935-30.902,29.65705-30.902,17.501,0,29.437,13.547,29.437,30.902,0,17.428-11.936,31.562-29.437,31.562m0-85.238c-31.122,0-54.482,22.774-54.482,53.676,0,31.123,23.36,54.335,54.482,54.335,30.902,0,54.188-23.212,54.188-54.335,0-30.902-23.286-53.676-54.188-53.676"/><path id="Fill-22" class="cls-5" d="M473.2554,108.1587v-7.159h-26v103h26v-60.033c0-22.701,21-21.309,36-21.309V98.9307c-5-.731-20-1.537-36,9.228"/><path id="Fill-24" class="cls-5" d="M691.42242,143.1611l-18.967-3.002c-11.131-2.051-14.499-6.811-14.499-11.79,0-6.004,6.225-10.984,18.307-10.984,11.64294,0,21.309,4.613,22.115,14.938l23.141-.145c-2.417-27.901-27.608-34.052-45.256-34.052-25.484,0-42.985,12.375-42.985,32.953,0,18.526,14.646,26.581,30.244,29.437l22.261,3.662c8.128,1.464,12.302,5.419,12.302,10.837,0,6.884-8.421,11.205-20.431,11.205-13.839,0-22.92-5.273-25.117-17.356l-22.921-.22c2.344,28.194,24.02,37.933,47.306,37.933,25.776,0,45.035-11.937,45.035-33.759,0-19.918-14.938-26.801-30.535-29.657"/><path id="Fill-26" class="cls-5" d="M788.25537,184.09669c-38,0-38-63.855,0-63.855,18,0,30.243,14.865,30.243,32,0,16.77-12.243,31.855-30.243,31.855m4.81806-85.531c-12.376,0-22.81806,3.515-30.81806,9.593v-7.159h-25v147h25v-51.894c8,6.151,18.442,9.519,30.81806,9.519,28.412,0,51.33294-23.725,51.33294-53.383,0-29.877-22.921-53.676-51.33294-53.676"/></g></g></svg>