<?xml version="1.0" standalone="no"?>
<!DOCTYPE svg PUBLIC "-//W3C//DTD SVG 20010904//EN"
 "http://www.w3.org/TR/2001/REC-SVG-20010904/DTD/svg10.dtd">
<svg version="1.0" xmlns="http://www.w3.org/2000/svg"
 width="247.000000pt" height="204.000000pt" viewBox="0 0 247.000000 204.000000"
 preserveAspectRatio="xMidYMid meet">

<g transform="translate(0.000000,204.000000) scale(0.100000,-0.100000)"
fill="#000000" stroke="none">
<path d="M847 1749 c-166 -39 -292 -191 -304 -366 l-6 -79 -44 -24 c-61 -32
-128 -110 -153 -178 -18 -46 -21 -72 -18 -132 6 -94 35 -158 100 -222 70 -68
134 -89 288 -95 l125 -5 147 248 c81 137 160 269 174 294 15 25 22 41 17 35
-15 -15 -328 -399 -354 -434 -22 -30 -24 -31 -108 -31 -134 0 -194 26 -249
107 -31 45 -41 140 -22 199 18 52 88 120 142 135 69 20 73 27 73 132 0 74 5
102 23 143 48 106 145 167 269 168 63 1 74 4 84 23 13 24 5 73 -14 85 -16 10
-123 8 -170 -3z"/>
<path d="M1068 1705 c2 -20 -1 -42 -9 -51 -11 -14 -9 -19 16 -38 63 -45 94
-78 115 -122 20 -40 45 -64 68 -64 4 0 34 20 66 44 122 95 269 79 355 -40 35
-48 61 -122 61 -173 0 -51 23 -71 86 -71 63 -1 120 -27 166 -77 87 -98 67
-247 -43 -320 -39 -26 -51 -28 -155 -31 l-113 -4 -26 29 c-13 15 -107 130
-207 255 l-183 227 -3 -297 c-1 -163 0 -303 3 -310 4 -11 65 -13 317 -10 360
4 372 7 462 89 74 67 100 130 101 234 0 91 -20 146 -75 209 -44 49 -123 94
-181 102 l-47 6 -6 47 c-14 105 -100 222 -197 269 -101 49 -221 47 -323 -5
l-50 -25 -20 28 c-32 45 -85 93 -127 114 -52 27 -56 26 -51 -15z"/>
<path d="M1360 435 c0 -57 4 -95 10 -95 6 0 10 38 10 95 0 57 -4 95 -10 95 -6
0 -10 -38 -10 -95z"/>
<path d="M1880 495 c0 -33 -2 -35 -25 -29 -64 16 -111 -36 -83 -93 12 -26 18
-28 71 -29 l57 -2 0 94 c0 56 -4 94 -10 94 -5 0 -10 -16 -10 -35z m-7 -66 c14
-23 1 -67 -23 -74 -42 -13 -75 28 -59 74 7 18 15 22 40 19 18 -2 36 -10 42
-19z"/>
<path d="M568 514 c-5 -4 -8 -45 -8 -91 0 -67 3 -83 15 -83 9 0 15 9 15 25 0
22 4 25 34 25 38 0 86 33 86 60 0 36 -34 62 -86 67 -27 3 -52 1 -56 -3z m100
-30 c12 -8 22 -20 22 -26 0 -24 -34 -48 -67 -48 -33 0 -33 1 -33 45 0 43 2 45
28 45 15 0 38 -7 50 -16z"/>
<path d="M1214 510 c-56 -22 -72 -103 -29 -145 32 -33 96 -37 125 -9 17 16 3
18 -32 5 -16 -6 -34 -5 -56 4 -83 36 -26 160 59 128 17 -7 31 -7 35 -2 6 10
-38 29 -64 28 -9 0 -27 -4 -38 -9z"/>
<path d="M730 465 c0 -2 11 -30 25 -62 32 -72 30 -99 -8 -96 -30 2 -37 -12 -8
-20 31 -8 50 11 80 78 37 82 45 105 33 105 -5 0 -17 -20 -26 -45 -10 -25 -22
-47 -26 -50 -5 -3 -19 17 -31 45 -12 27 -25 50 -30 50 -5 0 -9 -2 -9 -5z"/>
<path d="M890 405 c0 -51 3 -65 15 -65 11 0 15 12 15 50 0 46 3 52 28 62 22 9
24 12 9 15 -10 3 -24 -1 -32 -7 -11 -9 -15 -9 -15 -1 0 6 -4 11 -10 11 -6 0
-10 -28 -10 -65z"/>
<path d="M1002 463 c-22 -9 -2 -22 21 -14 27 10 57 -3 57 -24 0 -10 -11 -15
-32 -15 -44 0 -60 -12 -56 -41 3 -22 8 -24 62 -25 l58 -1 -4 48 c-3 27 -11 55
-18 64 -12 14 -61 19 -88 8z m83 -72 c8 -13 -23 -41 -45 -41 -22 0 -34 15 -26
35 6 16 61 21 71 6z"/>
<path d="M1440 450 c-24 -24 -26 -57 -4 -88 21 -31 87 -31 108 0 35 49 7 108
-50 108 -21 0 -42 -8 -54 -20z m90 -19 c16 -31 12 -49 -15 -67 -23 -15 -27
-15 -50 0 -43 28 -26 86 25 86 19 0 33 -7 40 -19z"/>
<path d="M1600 416 c0 -65 11 -76 76 -75 l49 2 0 63 c0 45 -4 64 -12 64 -9 0
-13 -17 -13 -50 0 -57 -23 -80 -60 -60 -16 8 -20 21 -20 60 0 28 -4 50 -10 50
-5 0 -10 -24 -10 -54z"/>
</g>
</svg>
