<svg id="Layer_1" data-name="Layer 1" xmlns="http://www.w3.org/2000/svg" viewBox="0 0 963 264"><defs><style>.cls-1{fill:#1a4353;}.cls-2{fill:#eb5e36;}</style></defs><path class="cls-1" d="M130.42635,257.58881q-61.0715,0-122.143-.00723c-3.31022-.00091-2.95745.49537-2.9577-2.88669q-.009-122.29381.00312-244.58765C5.32918,6.74049,4.84769,7.219,8.2469,7.2186q122.383-.015,244.76605-.0041c3.29347.00019,2.862-.31075,2.86228,2.74538q.01046,122.41371.00553,244.82744c0,.31972.00575.63958-.00105.95915-.03844,1.80314-.03941,1.80583-1.87052,1.84058-.55972.01063-1.11981.00176-1.67974.00176ZM119.76607,132.02742V169.1827q0,19.53636.00429,39.07274c.00245,3.12048-.34908,2.74672,2.86426,2.754q10.19511.02307,20.39031-.00046c3.3056-.00822,2.88276.38195,2.88343-2.97282q.01281-62.68456.00563-125.36913c0-.63923.05125-1.2834-.01036-1.91663-.116-1.19259.2608-1.8196,1.57512-1.65089a13.27476,13.27476,0,0,0,1.67767.01082q21.22993-.00007,42.45989.00041c2.30538.00015,2.3025.217,2.30021-2.131-.00716-7.35114.00428-14.70232-.00748-22.05345-.00306-1.91225-.02986-1.93683-2.00261-1.93732q-35.02339-.00874-70.04682-.00069c-2.06933.00043-2.07034.0205-2.09269,2.09176-.00519.47937-.00085.95884-.00085,1.43826Q119.76606,94.27286,119.76607,132.02742ZM90.90415,66.04074c0-3.83107-.03536-7.66264.02022-11.4929.01813-1.24937-.43407-1.64905-1.669-1.64183q-10.90218.06371-21.80483-.00083c-1.25324-.00768-1.66.42475-1.654,1.6565q.057,11.49289-.0005,22.98619c-.00641,1.24821.43361,1.64886,1.66849,1.64163q10.90217-.0637,21.80482.00083c1.25322.00767,1.67165-.4238,1.65443-1.65666C90.87031,73.70334,90.90427,69.87181,90.90415,66.04074Z"/><path class="cls-1" d="M493.961,71.72958a4.11384,4.11384,0,0,0-1.41862,2.02154c-8.72132,17.32256-17.47693,34.6282-26.09449,52.00225-1.10678,2.23141-2.3192,3.39491-4.87371,2.99524-1.63512-.25585-3.61992.59893-4.8883-.36908-1.15151-.87882-1.61918-2.67929-2.33139-4.10192q-12.59429-25.15794-25.17176-50.32428a5.02279,5.02279,0,0,0-1.46194-1.92141v2.52425q0,29.37344-.00472,58.74686c-.00126,2.78132.40512,2.60735-2.51856,2.61221-3.51938.00584-7.03931-.03438-10.5578.02074-1.19315.01868-1.83865-.27441-1.65068-1.59875a10.31408,10.31408,0,0,0,.01026-1.43718V54.491c0-.31971-.00361-.63947.00064-.95912.02648-1.9975.027-2.02512,1.91868-2.02911,6.31887-.01334,12.63812.02783,18.95643-.03354a2.23514,2.23514,0,0,1,2.35292,1.50226c3.24123,6.848,6.54735,13.66521,9.82579,20.49559,2.20869,4.60165,4.39872,9.21226,6.61219,13.81162,2.62793,5.4606,5.272,10.91343,7.98527,16.52724,1.34877-1.16708,1.75676-2.73407,2.42145-4.10081,3.66234-7.53044,7.25185-15.09626,10.87154-22.6475,3.72328-7.76744,7.49209-15.51355,11.147-23.313a3.31612,3.31612,0,0,1,3.58483-2.307c5.91427.1657,11.83623.05446,17.75519.063,2.063.003,2.08383.0187,2.08459,2.08608q.00906,23.97849.00328,47.957,0,15.82569-.00023,31.65136c0,.55948-.01992,1.11958-.00023,1.67831.02343.66555-.19834,1.04453-.94061,1.04244q-6.35889-.01794-12.71772-.00466c-.57175.0004-.89683-.23115-.89179-.83971.00527-.6393-.00709-1.27872-.00709-1.9181q-.0007-29.97288-.00041-59.94577Z"/><path class="cls-1" d="M818.67115,105.57352c7.30406,10.13672,14.4198,20.01212,21.5182,29.86335-.52764.70611-1.12793.466-1.635.468-4.87781.01948-9.75668-.03736-14.63326.04369a3.15678,3.15678,0,0,1-2.96057-1.48359c-5.7365-8.15769-11.57215-16.24641-17.24455-24.448a4.76728,4.76728,0,0,0-4.62269-2.45673c-4.55022.189-9.11385.04567-13.67186.0628-1.82074.00683-1.85338.03543-1.85643,1.85281q-.02,11.74644-.006,23.49294c0,.55935-.03516,1.12124.006,1.6775.06563.88659-.22916,1.29225-1.1997,1.28315-3.99791-.03756-7.99653-.0312-11.99467-.00371-.94863.00652-1.28748-.398-1.21635-1.29613.03773-.47641.00516-.95835.00516-1.43779q-.00009-39.43459-.00012-78.8692,0-.23971,0-.47945c-.00147-2.49757-.16588-2.34664,2.32658-2.34623,9.67588.00163,19.35569-.166,29.02641.0573,6.83039.15772,13.66957.52777,20.28357,2.703,9.638,3.16983,14.47454,10.15545,15.58184,20.01165a39.24183,39.24183,0,0,1-.9252,14.42727,22.18717,22.18717,0,0,1-13.43109,15.47423C821.01138,104.604,819.9939,105.02015,818.67115,105.57352ZM783.55919,79.653c0,4.39239-.0106,8.78482.005,13.17716.00639,1.79562.03217,1.82551,1.85385,1.83024,5.75426.01494,11.50934.06551,17.26242-.01568a33.72466,33.72466,0,0,0,11.49229-1.86049,9.93265,9.93265,0,0,0,5.88785-5.2872,20.16265,20.16265,0,0,0,.58371-15.34793,8.92824,8.92824,0,0,0-5.40234-5.41837,26.63887,26.63887,0,0,0-8.60737-1.77556c-7.10261-.412-14.21742-.12125-21.32683-.17673-1.70338-.0133-1.73549.03715-1.74229,1.69741C783.54742,70.86819,783.55937,75.26064,783.55919,79.653Z"/><path class="cls-1" d="M628.361,93.607V55.02354c0-.39941.00129-.79884-.00017-1.19825-.00967-2.63713-.04377-2.32444,2.32676-2.32576,8.71359-.00483,17.43058-.14969,26.13955.051,5.63426.12982,11.3.33186,16.81594,1.81163a32.6893,32.6893,0,0,1,10.05955,4.30914c5.78174,3.92012,8.70123,9.637,9.906,16.29835a42.23223,42.23223,0,0,1-.34511,17.07312c-2.00321,8.75838-7.42957,14.4395-15.77485,17.44478a54.223,54.223,0,0,1-16.40642,2.82426c-5.43288.21353-10.8651.09233-16.29739.1438-2.00291.019-2.01849.0245-2.02107,2.15064q-.01214,9.82559-.00322,19.65118c0,.55917-.01875,1.11883-.001,1.6774.0232.72953-.36041.97857-1.03477.97752q-6.23531-.00976-12.47068-.00124c-.57527.00045-.89221-.23927-.88641-.845.0061-.63894-.00633-1.278-.00633-1.91707Q628.36064,113.378,628.361,93.607Zm14.39995-12.22858c0,5.03019-.01026,10.06041.00533,15.09056.00574,1.83664.03369,1.86482,1.81383,1.87,5.19363.015,10.391.12442,15.57966-.03573a31.39154,31.39154,0,0,0,10.54366-1.75491,11.25319,11.25319,0,0,0,6.23215-5.27362,21.68576,21.68576,0,0,0,1.42576-17.12919,10.89106,10.89106,0,0,0-6.05473-6.74156,28.59488,28.59488,0,0,0-10.397-2.456c-5.82217-.38678-11.65735-.12537-17.48672-.16935-1.623-.01225-1.65135.03608-1.65656,1.74881C642.75132,71.47766,642.761,76.428,642.76093,81.37838Z"/><path class="cls-1" d="M544.12637,112.37017a56.56941,56.56941,0,0,0,10.69588,7.26378,34.96517,34.96517,0,0,0,18.2782,3.79522,16.79979,16.79979,0,0,0,7.69465-2.37887,9.34011,9.34011,0,0,0-.13488-16.29466c-3.94922-2.20512-8.2619-3.32352-12.59479-4.41049a106.824,106.824,0,0,1-14.41722-4.30232,31.53766,31.53766,0,0,1-8.17354-4.92247,17.77565,17.77565,0,0,1-6.12767-9.75582,31.24641,31.24641,0,0,1-.33387-12.572c1.03236-6.24343,4.58771-10.72672,9.77824-14.08534a32.01531,32.01531,0,0,1,14.367-4.81285,48.88227,48.88227,0,0,1,30.49471,6.69523,28.21476,28.21476,0,0,1,4.44838,3.23033c-2.5166,3.57344-5.01609,7.12266-7.63248,10.83775-1.90225-1.13042-3.50918-2.54107-5.4276-3.46461A39.39869,39.39869,0,0,0,565.8537,63.026a17.194,17.194,0,0,0-7.75629,2.15549,8.416,8.416,0,0,0-4.47686,8.0947,8.61111,8.61111,0,0,0,4.58361,7.8439,47.22887,47.22887,0,0,0,10.49268,3.95537c4.89557,1.41421,9.93158,2.32971,14.69361,4.22339a40.55381,40.55381,0,0,1,9.24774,4.964,17.387,17.387,0,0,1,6.69117,9.36685c1.7976,6.32,1.89832,12.57627-.89994,18.65889-2.90936,6.32433-8.06736,10.1473-14.407,12.54072a37.71079,37.71079,0,0,1-11.70452,2.09666,50.462,50.462,0,0,1-24.51756-4.91927A52.69338,52.69338,0,0,1,536.24282,124.4c-.58389-.49986-1.30934-.99121-.50561-1.94552C538.50541,119.16768,541.23676,115.84987,544.12637,112.37017Z"/><path class="cls-1" d="M915.55932,92.79186q0-19.418.00011-38.83607c0-.55936.02994-1.12054-.005-1.67767-.05748-.917.337-1.33829,1.25918-1.26014.15873.01346.31969.00019.47965.00019,11.67533,0,23.35066.01618,35.02582-.02365,1.22766-.00419,1.691.32477,1.66313,1.601-.07125,3.27474-.01,6.55213-.0286,9.82832-.01031,1.82822-.03422,1.85691-1.825,1.86071q-9.47619.02012-18.95238.0053c-.47983,0-.95983-.00934-1.43936.00189-1.73191.04053-1.73478.04307-1.77562,1.67746-.012.47917-.00217.95887-.00217,1.43833q-.00009,32.48327-.00563,64.96651c-.00134,2.92316.362,2.56164-2.51244,2.57868q-5.03779.02987-10.0759-.00133c-1.774-.01073-1.80052-.038-1.80164-1.885Q915.55167,112.92907,915.55932,92.79186Z"/><path class="cls-1" d="M331.87906,93.18952q0,19.409-.00006,38.818c0,.5591-.03457,1.12066.006,1.67677.06443.88252-.22215,1.29551-1.196,1.28591-3.9162-.03861-7.83311-.02854-11.74957-.00644-.79348.00446-1.19634-.24138-1.1424-1.09135.0404-.63632.00416-1.27742.00416-1.91639q-.00036-32.10869-.00018-64.21738c0-.47923.00483-.95853-.00094-1.4377-.02384-1.97572-.025-1.99892-1.923-2.00619-4.0764-.01564-8.15292-.00484-12.22937-.00491-2.71764-.00005-5.43618-.0404-8.15253.01873-1.1485.025-1.752-.1863-1.72008-1.54115.0808-3.43262.0673-6.86913.005-10.3025-.02159-1.19082.44256-1.46887,1.55025-1.46588q17.50468.0472,35.00941-.01149c1.37857-.00641,1.56788.56456,1.55584,1.7069-.043,4.073-.01658,8.1468-.01655,12.2203Q331.87912,79.05212,331.87906,93.18952Z"/><path class="cls-1" d="M867.07931,107.75685q0-12.81636.00358-25.6327c.00193-1.9715.02238-1.99317,1.924-2.00171q5.39394-.02422,10.788-.00089c1.97654.00739,1.99342.02486,2.00209,1.92435.01418,3.11419.00381,6.22849.00381,9.34274q0,20.84153-.00018,41.68306c0,.559-.02965,1.1196.00375,1.67649.04764.79521-.2625,1.17177-1.09213,1.169-4.15535-.01377-8.31082-.0271-12.46588.00929-1.22367.0107-1.1724-.742-1.17128-1.57873q.01256-9.1032.00427-18.20639Q867.07922,111.9491,867.07931,107.75685Z"/><path class="cls-1" d="M735.559,107.51941q.00009,13.05747-.003,26.115c-.00176,2.09929-.01957,2.11335-2.04744,2.12012q-5.15488.01716-10.30981-.00046c-2.01785-.00768-2.03537-.02383-2.03654-2.14723q-.00941-16.7711-.00287-33.54218c.00006-6.22926-.00891-12.45855.00609-18.68777.004-1.68891.037-1.722,1.71029-1.73188q5.51427-.0327,11.02893-.00036c1.61684.00866,1.64689.03916,1.64912,1.75982Q735.57036,94.46189,735.559,107.51941Z"/><path class="cls-1" d="M379.72065,108.01705q.00014,12.94956-.00351,25.89911c-.00191,1.96631-.02283,1.9872-1.9338,1.99582q-5.27946.02385-10.55912.00061c-1.87946-.00733-1.898-.02561-1.89994-1.99625q-.01182-11.99032-.00328-23.98066,0-13.9088.00325-27.81756c.00156-1.97078.02051-1.9893,1.89979-1.9964,3.59968-.0136,7.1995-.01979,10.79909.00323,1.6556.01059,1.68932.0451,1.69172,1.75319Q379.73339,94.94755,379.72065,108.01705Z"/><path class="cls-2" d="M698.65726,193.42134c-.60469.11643-.52459.59924-.6361.947q-2.44583,7.62845-4.87482,15.26224c-.601,1.89583-.58184,1.94164-2.61451,1.91355-4.355-.06017-3.31565.655-4.55209-3.45432-2.31873-7.70615-4.59141-15.42611-6.88823-23.13886a2.11068,2.11068,0,0,1-.10711-1.43393,37.59773,37.59773,0,0,1,5.98471-.08168c.95443.01653.94453.924,1.11217,1.60374q1.65955,6.72741,3.323,13.45385c.15193.6108.37207,1.20469.63545,2.045a44.35145,44.35145,0,0,0,1.77386-5.13916c1.12284-3.5758,2.3325-7.12434,3.45692-10.69967a1.72931,1.72931,0,0,1,1.92064-1.33466c4.51629-.13372,4.52754-.17455,5.86922,4.07975,1.10233,3.49544,2.14365,7.01033,3.273,10.49688a5.95665,5.95665,0,0,0,1.24963,2.75032c.83906-3.19716,1.65861-6.26493,2.44629-9.34088.53361-2.084,1.03389-4.17677,1.52666-6.27089.26185-1.113.71707-1.82669,2.077-1.71565,1.504.1228,3.02572.028,4.54113.028a2.2227,2.2227,0,0,1-.08883,1.8858c-2.37234,8.18593-4.79,16.35884-7.13742,24.55185a1.99168,1.99168,0,0,1-2.32922,1.75446c-4.89252-.19534-3.58728.7612-5.17037-3.77309-1.44428-4.13679-2.65142-8.35622-3.96849-12.53751A4.33607,4.33607,0,0,0,698.65726,193.42134Z"/><path class="cls-2" d="M855.81361,182.76267a14.13355,14.13355,0,0,1,9.156,2.61347,13.161,13.161,0,0,1,5.71576,10.04169c.49259,5.0511-.68748,9.65457-4.65393,13.21386a13.35721,13.35721,0,0,1-6.8148,3.22666c-5.15684.87717-10.04409.293-14.17489-3.24663a12.56065,12.56065,0,0,1-4.50158-9.416c-.103-2.93968-.16283-5.86984,1.26123-8.6392,2.5776-5.0126,6.69692-7.48581,12.2349-7.79038C854.51382,182.73989,854.99394,182.76267,855.81361,182.76267Zm8.227,14.72479c.02121-5.20747-3.49611-9.00095-8.499-8.92389-4.75547.07322-8.57,3.12232-8.5459,8.92524.02349,5.66361,3.88722,8.75414,8.4242,8.78078C860.5075,206.29947,864.0192,202.73974,864.04064,197.48746Z"/><path class="cls-2" d="M767.23034,197.47272c0-4.15462.0375-8.30978-.02261-12.46354-.01828-1.2606.42726-1.73544,1.66265-1.62643,1.41909.12521,3.17075-.55642,4.1853.29993,1.07689.90889.33293,2.70337.40611,4.106.079,1.514.04775,3.03583.01043,4.55293-.02391.97468.28676,1.47544,1.35926,1.46225q4.55669-.056,9.11443.0003c1.05363.013,1.39694-.44363,1.38334-1.43979-.03375-2.4763.02338-4.954-.02185-7.42994-.01981-1.08291.27222-1.64894,1.48359-1.559a20.8702,20.8702,0,0,0,3.355-.00262c1.34555-.11789,1.594.53178,1.58959,1.69857-.03141,8.22922-.00791,16.45864-.02361,24.68794-.00329,1.7367-.0443,1.74914-1.691,1.78766-1.03881.02431-2.08559-.07082-3.11643.023-1.33054.121-1.62451-.50656-1.60119-1.68717.0552-2.79528.03065-5.59248.01231-8.38875-.01231-1.88086-.03188-1.91013-1.792-1.92591-2.7982-.02508-5.59763.03451-8.39478-.02542-1.20668-.02585-1.712.3212-1.67438,1.62025.08309,2.87386.04354,5.752.01746,8.628-.01546,1.707-.04658,1.7173-1.72254,1.75663-.95894.02253-1.92328-.05428-2.87718.01856-1.23381.09422-1.683-.36711-1.66465-1.62987C767.26808,205.78252,767.23034,201.62735,767.23034,197.47272Z"/><path class="cls-2" d="M910.60094,197.37412c.00011-4.077-.01565-8.15406.00761-12.23091.00967-1.698.04729-1.73736,1.734-1.74373,5.27988-.01993,10.56017.02271,15.83959-.02913,1.25-.01226,1.67918.40706,1.64642,1.65253-.13271,5.04068.66194,4.03048-3.93345,4.12683q-3.59843.07543-7.19936-.00753c-1.1823-.02829-1.74205.2943-1.716,1.60347.08374,4.22159-.32876,3.46436,3.37254,3.52143,2.31938.03576,4.64075.04566,6.95942-.00876,1.14721-.02691,1.752.20571,1.71058,1.56119-.16511,5.41134.7619,4.23438-4.16168,4.362-2.07855.05391-4.16173.06518-6.23894-.01013-1.27389-.04618-1.66647.46327-1.63817,1.68224.10061,4.33811-.48462,3.53013,3.5018,3.5933q4.19889.06653,8.39947-.0082c1.09858-.0209,1.52842.29382,1.58215,1.4741.21147,4.64132.25424,4.6394-4.40015,4.63939-4.48,0-8.96.00968-13.43989-.00458-1.98539-.00633-2.01205-.02821-2.02048-1.94262C910.58834,205.52816,910.60088,201.45111,910.60094,197.37412Z"/><path class="cls-2" d="M876.20113,183.39159c1.71533,0,3.389.08705,5.04885-.02655a2.21691,2.21691,0,0,1,2.59582,1.77121c1.56135,4.42989,3.2734,8.80681,4.93441,13.20149.28061.74255.59573,1.47206.93528,2.30693.99668-.42123,1.02814-1.37576,1.31689-2.11175,1.7165-4.37433,3.38965-8.7656,5.08248-13.14926.76436-1.97938.76969-1.981,2.88545-1.99084,1.43285-.00669,2.86565-.00127,4.20891-.00127.46593.69712.13968,1.18617-.06938,1.69155-3.40951,8.24237-6.8509,16.47192-10.19109,24.74227a2.31933,2.31933,0,0,1-2.60737,1.75672c-3.95824-.1537-3.06451.48873-4.4557-2.92262-3.06779-7.522-6.0583-15.07546-9.0566-22.6255A4.61722,4.61722,0,0,1,876.20113,183.39159Z"/><path class="cls-1" d="M601.48075,189.67791v2.28188c-.00012,5.99157.007,11.98316-.012,17.97467-.00187.57852.28319,1.45823-.65525,1.53515-1.082.08865-2.23131.36927-3.25752-.21649-.37025-.21134-.231-.73114-.23127-1.11834-.00586-8.46809.00914-16.93621-.02109-25.4042-.00387-1.08486.462-1.3062,1.43719-1.34964,3.81884-.17,3.815-.19952,5.94281,2.97534q5.86512,8.75144,11.73767,17.49781c.34336.51122.72211.99872,1.12166,1.54854.66288-.587.39944-1.26088.40166-1.83495.02368-6.07136.00862-12.14287.024-18.21428.00158-.6127-.29186-1.47861.35256-1.76849a5.33443,5.33443,0,0,1,3.06111-.08245c.40834.06906.41092.623.4118,1.02674q.00369,1.67761.00474,3.35523.00053,10.90465-.0055,21.80932c-.00334,1.81372-.03463,1.815-1.838,1.84752a9.21415,9.21415,0,0,0-1.19783.01018,2.71821,2.71821,0,0,1-2.90907-1.521c-4.241-6.37887-8.57467-12.69628-12.88066-19.032-.33451-.49224-.70008-.96347-1.05117-1.44448Z"/><path class="cls-1" d="M418.48484,182.76278c7.98472-.47221,14.599,5.93472,14.603,14.55338.004,8.65077-6.08924,14.86377-14.64234,14.86485-8.61894.00105-14.66485-6.10326-14.73522-14.77354C403.6419,188.98361,410.244,182.196,418.48484,182.76278Zm-.07081,25.5804c5.19208.175,10.25517-3.78085,10.39119-10.754.111-5.68874-3.51143-11.03806-10.28232-11.153-6.90779-.11728-10.4918,5.77616-10.53018,10.92365C407.94687,203.50454,412.76126,208.67054,418.414,208.34318Z"/><path class="cls-1" d="M446.11894,189.39066c0,6.83264.006,13.53535-.01028,20.238-.00146.60779.29886,1.48714-.37016,1.74993a5.44535,5.44535,0,0,1-3.057.04009c-.31365-.06449-.38774-.46854-.39293-.79919q-.00941-.5987-.00893-1.19753-.0007-11.97617.00307-23.95231c.00217-2.04526.02168-2.04523,2.11538-2.0682,3.08508-.03386,3.08333-.0327,4.76962,2.48479q5.9927,8.94639,11.99031,17.88951c.34968.52134.7265,1.02454,1.08123,1.52287.861-.33333.50256-.98492.50455-1.45445.0259-6.14764.00685-12.2955.03211-18.44316.00269-.66348-.36487-1.67838.49359-1.89184a8.89868,8.89868,0,0,1,3.081.01265c.40769.04679.4016.62289.40312,1.02247q.00685,1.79638.00522,3.59281.00061,10.77856-.00545,21.55709c-.0034,1.813-.03475,1.813-1.8368,1.84815-3.24357.06329-3.23455.05723-5.10258-2.71671q-6.21447-9.22836-12.45512-18.4391C447.111,190.021,446.97374,189.49254,446.11894,189.39066Z"/><path class="cls-1" d="M656.31313,186.44923c-.93843.987-1.81535,1.90922-2.75924,2.90192a13.51323,13.51323,0,0,0-6.6805-2.82353,10.217,10.217,0,0,0-11.0567,7.47572,11.02892,11.02892,0,0,0,4.99,13.005c3.52992,1.96346,7.19607,1.67544,10.88414.4677a1.60475,1.60475,0,0,0,1.16437-1.82875,40.12627,40.12627,0,0,1,.012-4.55133c.10716-1.37945-.54663-1.62723-1.69993-1.55775-1.03558.06238-2.08464-.06163-3.11554.03155-1.22924.11109-1.5661-.46567-1.45219-1.54438a4.71606,4.71606,0,0,0,.00176-.47913c.00486-1.79944.0048-1.81637,1.82338-1.82862,2.39847-.01617,4.79771.02774,7.19537-.01674.94224-.01748,1.2389.34467,1.231,1.2569-.0331,3.83462-.04547,7.67013.007,11.50431a1.85467,1.85467,0,0,1-1.40455,1.9399,22.50831,22.50831,0,0,1-14.29359,1.13918,13.87308,13.87308,0,0,1-9.94963-12.67227c-.20789-4.22851.52266-8.09543,3.36791-11.36508a12.96575,12.96575,0,0,1,9.58951-4.71395,20.02049,20.02049,0,0,1,7.13.512A10.298,10.298,0,0,1,656.31313,186.44923Z"/><path class="cls-2" d="M752.359,200.1334c-.00059,3.27063-.04219,6.54206.02068,9.81147.02414,1.25169-.41777,1.71732-1.66148,1.624a26.97556,26.97556,0,0,0-3.35092-.00563c-1.01836.05069-1.45008-.33344-1.41662-1.37359.04869-1.51406.01025-3.03091.01013-4.54657q-.00052-7.05977-.00228-14.11954c-.00422-2.53637.30867-2.52636-2.4044-2.51589-1.437.00553-2.87437-.0244-4.31062.00754-.89244.01986-1.23305-.32533-1.31215-1.24525-.37646-4.38066-.40312-4.37841,3.92162-4.37839,5.50822,0,11.01651-.00924,16.52473.00509,1.95562.0051,2.00109.03175,1.98357,1.97278-.039,4.336.5618,3.53581-3.67365,3.648-1.34262.03556-3.04172-.56695-3.937.28724-1.00612.95991-.33281,2.7206-.37371,4.12842C752.312,195.66483,752.35954,197.8998,752.359,200.1334Z"/><path class="cls-1" d="M503.08127,193.64666c.00018-2.877.04488-5.755-.021-8.63041-.028-1.21921.3283-1.67905,1.61841-1.6459,2.21977.05708,2.23495-.02526,2.23934,2.21781q.01362,6.95265.001,13.90534a11.35754,11.35754,0,0,0,.86068,4.90385,6.65762,6.65762,0,0,0,12.202-.04945,10.29,10.29,0,0,0,.86789-4.41691q-.03507-7.31211.0092-14.62441c.00422-.643-.38871-1.62529.58078-1.82436a5.72448,5.72448,0,0,1,3.06088.09369c.42211.15042.3341.681.33281,1.06884-.01939,5.9122.13225,11.8322-.12586,17.73421a10.24,10.24,0,0,1-8.7314,9.68644c-5.44647.84925-10.15717-1.58019-12.21328-6.2923a9.02336,9.02336,0,0,1-.68737-3.73533C503.09387,199.24085,503.081,196.44372,503.08127,193.64666Z"/><path class="cls-1" d="M397.24179,207.11769a11.94363,11.94363,0,0,1-8.19659,4.89906c-10.9289,1.76127-19.05158-7.79851-16.60306-18.32959,2.47233-10.63345,13.71524-13.13387,20.96575-9.38889.21281.10993.42387.22463.62821.3494,2.93224,1.79042,2.899,2.78194-.03674,4.57144-.649.39558-.94479.21337-1.42072-.17856-5.23969-4.31462-12.37055-2.83666-15.099,3.22437a12.38909,12.38909,0,0,0,.25807,11.07378c2.71111,5.49853,11.34246,6.74185,14.91238,2.55175,1.13595-1.33327,1.26858-1.22786,2.71839-.18526C395.94772,206.12172,396.50873,206.56356,397.24179,207.11769Z"/><path class="cls-1" d="M478.481,205.43979a7.41785,7.41785,0,0,0,6.50279,2.8939,5.19181,5.19181,0,0,0,4.21213-2.35776,3.375,3.375,0,0,0-1.07549-4.97176,12.95433,12.95433,0,0,0-3.52242-1.44783,30.69445,30.69445,0,0,1-4.65528-1.85906c-5.0298-2.54205-4.84019-10.39874-.75474-13.14815,3.67717-2.47461,10.3739-2.531,13.53961.1,1.29094,1.07289,1.30512,1.2028.1009,2.40749-.39276.39285-.87188.69955-1.26369,1.09316-.64629.64919-1.16081.58373-1.7884-.08-1.66172-1.75761-3.80215-1.84817-5.95495-1.37855a3.93857,3.93857,0,0,0-3.26138,3.12651c-.3852,1.8623.20806,3.06655,1.99652,4.203a19.085,19.085,0,0,0,4.69418,1.73192,14.88667,14.88667,0,0,1,4.669,2.32172c3.25,2.47911,3.00961,9.27369-1.03019,12.1864-3.81024,2.74723-10.78008,2.54951-14.36936-.51971-1.42857-1.22161-1.43115-1.52439.01782-2.7423C477.14416,206.48934,477.77275,206.00667,478.481,205.43979Z"/><path class="cls-2" d="M817.00164,197.22756c0-4.07183.03416-8.14412-.02069-12.21522-.01664-1.23664.3876-1.73615,1.65-1.6379a26.47168,26.47168,0,0,0,3.35367.00615c1.013-.05015,1.45553.319,1.42524,1.36738-.04846,1.67522-.01072,3.35288-.01055,5.02952.00041,4.55087-.0092,9.10178.00475,13.6526.00609,1.98453.0276,2.00521,1.93711,2.02008,2.63648.02057,5.274.044,7.90951-.01125,1.12787-.02362,1.49771.37036,1.54605,1.51149.19512,4.60349.23379,4.602-4.43127,4.60181-3.915-.00015-7.83076-.04427-11.74459.024-1.27248.02219-1.65439-.42959-1.63933-1.65442C817.03369,205.691,817.00164,201.45907,817.00164,197.22756Z"/><path class="cls-1" d="M874.2056,65.72768c-1.91537,0-3.83179-.03819-5.7457.01537-1.02926.02881-1.40719-.343-1.396-1.38318q.06205-5.74123.00059-11.48348c-.01067-1.0279.34506-1.40456,1.38521-1.394q5.98493.06057,11.97071.00052c1.02791-.01,1.407.34343,1.3957,1.38361q-.062,5.74125-.00059,11.48349c.01067,1.02791-.34394,1.42091-1.38539,1.39372C878.35656,65.68956,876.28058,65.72766,874.2056,65.72768Z"/><path class="cls-1" d="M372.36752,65.72727c-1.9191-.00034-3.83883-.02923-5.757.01241-.89627.01945-1.30526-.26907-1.29858-1.21907.02754-3.91511.02089-7.83058.00311-11.74581-.00393-.86561.2431-1.30165,1.22528-1.29158,3.9977.041,7.99617.03379,11.99408.00636.98341-.00674,1.20032.47544,1.1952,1.33552-.02288,3.83527-.03138,7.671.0048,11.506.00949,1.00694-.30425,1.4449-1.37015,1.41345C376.36686,65.68566,374.36659,65.72762,372.36752,65.72727Z"/><path class="cls-1" d="M728.23192,65.24811c-1.83908.00039-3.67962-.04295-5.51677.01686-1.08088.03518-1.59744-.23468-1.57776-1.45428.062-3.83435.0375-7.67042.01254-11.50559-.00592-.89253.28946-1.30248,1.2361-1.296q5.99677.04091,11.994.00189c.78844-.00426,1.18248.24712,1.17949,1.08558-.01429,3.99506-.02115,7.99033.00727,11.98526.007.98629-.4817,1.19171-1.33793,1.17694C732.23042,65.22425,730.231,65.24772,728.23192,65.24811Z"/><path class="cls-1" d="M565.96116,199.32728c-.00047,3.43316.01177,6.86636-.00522,10.29943-.00943,1.90989-.03135,1.90987-2.02535,1.91551-.23971.00067-.48129-.02051-.71871.00266-.992.09677-1.47662-.26153-1.42676-1.33874.0627-1.35437.01424-2.71388.01418-4.07117q-.00026-8.6228-.0048-17.24557c-.00381-1.77783-.02877-1.79052-1.84559-1.80552-1.91748-.01584-3.83684-.05275-5.75209.01435-1.12066.03927-1.54828-.31019-1.54488-1.48707.00633-2.1537-.04465-2.20071,2.00191-2.20508q9.10847-.01942,18.21692.00789c.59742.002,1.44767-.32541,1.7315.38211a4.682,4.682,0,0,1,.03861,2.828c-.14548.59176-.76341.44614-1.21564.44923-1.99734.01369-3.99727.0653-5.99151-.01471-1.15347-.04627-1.51628.33689-1.49572,1.49059C566.00223,192.14089,565.96157,195.73446,565.96116,199.32728Z"/><path class="cls-1" d="M341.95859,199.29423c-.0005,3.59227-.0365,7.18509.02033,10.77647.01825,1.15253-.37163,1.50268-1.51708,1.49926-2.32951-.007-2.33894.05919-2.34079-2.34972q-.0077-9.93859-.00463-19.8772c-.00319-2.52485.23745-2.24517-2.35166-2.26077-1.75743-.0106-3.51732-.05718-5.27168.01673-1.15148.0485-1.52429-.36347-1.5196-1.51187.00873-2.13867-.04362-2.17709,2.0238-2.18129q9.107-.0185,18.214.00843c.59409.00205,1.44247-.327,1.71891.39888a4.70264,4.70264,0,0,1,.02558,2.8288c-.15033.5745-.77362.42908-1.228.43217-1.8373.01253-3.67474.0078-5.51212.00566-2.44172-.00282-2.26066-.09286-2.25768,2.15611Q341.96467,194.26506,341.95859,199.29423Z"/><path class="cls-2" d="M731.23937,197.49464c-.00024,4.07181.01435,8.14369-.00692,12.2154-.00943,1.801-.04242,1.80081-1.87933,1.842-4.36383.09791-4.36377.09793-4.36377-4.16289q.00009-10.89807.00322-21.79616c.00252-2.18183.01992-2.18181,2.24883-2.20146,3.9982-.03524,3.9982-.03524,3.9982,4.0433Q731.2396,192.46477,731.23937,197.49464Z"/><path class="cls-1" d="M535.24151,197.382c-.00047-3.98723-.00955-7.97448.00328-11.96166.00656-2.04008.02426-2.04,2.14183-2.019a3.59786,3.59786,0,0,0,.47842-.00177c1.0374-.12955,1.41205.32937,1.38756,1.35709-.04945,2.07217-.01365,4.14637-.01359,6.21972.00023,4.8644-.0068,9.72884.00345,14.59323.00446,2.10731.02051,2.1224,2.054,2.13142,3.11226.0138,6.22465-.00421,9.33685.01313.51774.00288,1.27366-.17884,1.34127.59642a4.6089,4.6089,0,0,1-.24252,3.00122c-.11578.1855-.57457.2174-.8755.21822-4.78817.0132-9.57657-.01869-14.3642.03046-1.17768.01211-1.26276-.60231-1.25871-1.49918C535.25241,205.83491,535.242,201.60842,535.24151,197.382Z"/><path class="cls-1" d="M586.60063,197.39611c-.00006,4.149.01459,8.29812-.00732,12.447-.00879,1.66164-.0453,1.66321-1.75793,1.69784-.39909.00808-.80034-.02533-1.19737.00413-.97119.07208-1.26527-.44421-1.20047-1.31116.01782-.238.00188-.47852.00188-.7179-.00012-8.05867-.01-16.11739.01875-24.176.00228-.63977-.41367-1.63146.56291-1.83463a5.10441,5.10441,0,0,1,3.272.12775c.54873.26565.29766,1.01824.29959,1.55524C586.60749,189.25762,586.60069,193.32687,586.60063,197.39611Z"/><path class="cls-1" d="M321.31876,197.72085c.00015,3.98806.01234,7.97616-.00527,11.96413-.00809,1.83581-.03454,1.83568-1.82355,1.85727-2.13958.02583-2.16241.02589-2.16487-1.99621q-.01463-12.0838.01169-24.16756c.002-.657-.38458-1.66721.51129-1.87482a7.319,7.319,0,0,1,3.06838.04665c.607.12763.3934.95558.395,1.48854C321.3243,189.26617,321.31862,193.49351,321.31876,197.72085Z"/><path class="cls-2" d="M90.90421,66.04074c.00006,3.83107-.0339,7.6626.01966,11.49293.01722,1.23286-.40121,1.66433-1.65443,1.65666q-10.90212-.06678-21.80482-.00083c-1.23488.00723-1.6749-.39342-1.66849-1.64163q.059-11.49288.0005-22.98619c-.0061-1.23175.40071-1.66418,1.654-1.6565q10.90214.06679,21.80483.00083c1.23489-.00722,1.68709.39246,1.669,1.64183C90.86879,58.3781,90.90415,62.20967,90.90421,66.04074Z"/></svg>