<svg id="Layer_1" data-name="Layer 1" xmlns="http://www.w3.org/2000/svg" xmlns:xlink="http://www.w3.org/1999/xlink" viewBox="0 0 603.95213 237.52501"><defs><style>.cls-1{fill:none;}.cls-2{fill:#2b3f50;}.cls-3{fill:#d2e4f4;}.cls-4{clip-path:url(#clip-path);}.cls-5{fill:#43af5a;}.cls-6{fill:#fc0;}</style><clipPath id="clip-path"><path class="cls-1" d="M89.35136,224.37184,5,175.67148v-96.334L89.0647,128.196ZM96.39577,115.4975l85.26994-49.23327L96.54117,17.11749,11.55232,66.18589Zm7.332,12.69785.28618,96.01306,84.06828-48.53693V79.49038Z"/></clipPath></defs><title>finops-landscape</title><path class="cls-2" d="M228.0491,27.14194H290.068V41.06455H242.7711v28.6446H283.14V82.76577H242.7711v41.50137h-14.722Z"/><path class="cls-2" d="M301.142,55.12039h13.92262v69.14675H301.142Z"/><path class="cls-2" d="M329.358,55.12039h13.92262v7.32769h.26646a22.32428,22.32428,0,0,1,17.98615-8.19369,23.72075,23.72075,0,0,1,15.72122,6.062q7.06054,6.1293,7.39431,17.98615v45.9646H370.72617V83.09884q0-7.26039-3.8637-11.05815A13.13233,13.13233,0,0,0,357.07,68.177a13.35377,13.35377,0,0,0-9.85908,3.86369q-3.931,3.79708-3.9303,11.05815v41.1683H329.358Z"/><path class="cls-2" d="M396.20414,75.70454q0-16.92.99923-22.64923a26.81636,26.81636,0,0,1,3.26415-9.25953A33.53959,33.53959,0,0,1,411.79213,31.805q7.66008-5.32888,19.11861-5.46246,11.59109.13392,19.31846,5.46246a32.65624,32.65624,0,0,1,11.05815,11.99077,22.31342,22.31342,0,0,1,3.39738,9.25953q.86532,5.72961.866,22.64923,0,16.65418-.866,22.516a22.46768,22.46768,0,0,1-3.39738,9.39277,31.67161,31.67161,0,0,1-11.05815,11.85753q-7.72807,5.32992-19.31846,5.59569-11.45818-.26681-19.11861-5.59569a32.52618,32.52618,0,0,1-11.32461-11.85753q-1.06618-2.19831-1.93184-4.19677a27.32324,27.32324,0,0,1-1.33231-5.196Q396.20415,92.35907,396.20414,75.70454Zm14.78861,0q0,14.323,1.06585,19.38507a16.17084,16.17084,0,0,0,3.79707,8.19369,19.97579,19.97579,0,0,0,15.05507,7.06123,18.15115,18.15115,0,0,0,9.12631-2.19831,16.26387,16.26387,0,0,0,5.86215-4.86292,17.0702,17.0702,0,0,0,3.93031-8.19369q.99922-5.06208.99923-19.38507,0-14.322-.99923-19.5183a16.995,16.995,0,0,0-3.93031-8.06046,17.53845,17.53845,0,0,0-5.86215-4.99616,21.43529,21.43529,0,0,0-9.12631-2.06507,20.36178,20.36178,0,0,0-8.92646,2.06507,18.57528,18.57528,0,0,0-6.12861,4.99616,16.07081,16.07081,0,0,0-3.79707,8.06046Q410.9924,61.38223,410.99275,75.70454Z"/><path class="cls-2" d="M477.37874,55.12039h13.92261v7.19446a23.92722,23.92722,0,0,1,17.85292-8.06046q12.72318.33376,18.58568,9.05969a18.15609,18.15609,0,0,1,3.93031,8.59338q.99923,5.263.99923,17.85292,0,12.25757-.99923,17.58645a19.07945,19.07945,0,0,1-3.93031,8.72662,20.76843,20.76843,0,0,1-7.52753,6.39507,24.19459,24.19459,0,0,1-11.05815,2.598,19.28237,19.28237,0,0,1-9.526-2.33154,30.17419,30.17419,0,0,1-8.32692-5.86215v35.37276H477.37874Zm27.57876,56.02352a14.151,14.151,0,0,0,7.794-1.86523,10.639,10.639,0,0,0,4.06353-4.92954,25.59081,25.59081,0,0,0,1.79862-6.928q.13288-3.73013.13323-7.66077,0-4.12981-.13323-8.06046a23.97945,23.97945,0,0,0-1.79862-6.928,9.839,9.839,0,0,0-4.06353-4.92954,15.5162,15.5162,0,0,0-7.794-1.66538,12.587,12.587,0,0,0-7.39431,1.93185,11.36153,11.36153,0,0,0-4.19677,5.06276,25.38968,25.38968,0,0,0-1.66538,6.79477,75.70154,75.70154,0,0,0-.39969,7.794,67.51122,67.51122,0,0,0,.39969,7.32769,25.62021,25.62021,0,0,0,1.66538,6.99461,11.35424,11.35424,0,0,0,4.19677,5.06277A12.27075,12.27075,0,0,0,504.9575,111.14391Z"/><path class="cls-2" d="M569.104,112.00991a18.47438,18.47438,0,0,0,9.79246-2.33154,7.28282,7.28282,0,0,0,3.79708-6.5283q0-3.73013-2.26493-5.196a11.90879,11.90879,0,0,0-6.19522-1.66539l-12.25723-1.06584q-8.7273-.79938-14.18907-5.86215-5.59569-4.92919-5.72892-13.78938.13289-10.65777,7.52753-15.98769,7.19446-5.32889,18.25261-5.32923a55.48736,55.48736,0,0,1,8.59338.59954,42.93091,42.93091,0,0,1,7.12785,1.86523,40.69655,40.69655,0,0,1,11.45784,6.99461L586.424,73.77269a42.89757,42.89757,0,0,0-8.46015-4.72969,28.485,28.485,0,0,0-10.12554-1.66538q-6.529,0-9.1263,2.33153a7.5234,7.5234,0,0,0-2.73123,5.99539,4.69954,4.69954,0,0,0,2.06507,4.06353q1.99847,1.93254,7.06123,2.46477l11.45784.866q10.79169.7994,15.588,6.52831,4.46255,5.59569,4.46323,14.18907-.13392,10.05927-8.19369,15.52138-7.99384,5.59569-20.45092,5.72892-16.921,0-30.44322-12.39046l9.72584-9.526Q555.7136,112.01026,569.104,112.00991Z"/><polygon class="cls-2" points="307.157 28.913 316.376 34.176 307.096 39.44 297.878 34.176 307.157 28.913"/><polygon class="cls-2" points="307.129 34.416 307.129 44.844 297.878 39.605 297.878 29.178 307.129 34.416"/><polygon class="cls-2" points="307.129 34.416 307.129 44.844 316.38 39.605 316.38 29.178 307.129 34.416"/><polygon class="cls-2" points="307.158 23.937 316.377 29.2 307.098 34.464 297.879 29.2 307.158 23.937"/><path class="cls-2" d="M232.837,201.67446H260.6v4.0158H228.0491V149.46973H232.837Z"/><path class="cls-2" d="M295.00449,205.69026a21.83475,21.83475,0,0,1-.88831-5.83076,16.10743,16.10743,0,0,1-6.19746,4.88494,18.98853,18.98853,0,0,1-7.97347,1.71819,14.00365,14.00365,0,0,1-9.74977-3.3597,10.94088,10.94088,0,0,1-3.7264-8.49476,11.18189,11.18189,0,0,1,5.07788-9.653q5.07678-3.552,14.15176-3.55262h8.37879v-4.7492a9.15311,9.15311,0,0,0-2.76076-7.04744q-2.7611-2.5669-8.05076-2.56722a12.59832,12.59832,0,0,0-7.993,2.47107,7.34352,7.34352,0,0,0-3.16645,5.9464l-4.63356-.039q0-4.98109,4.63356-8.62988a17.84074,17.84074,0,0,1,11.391-3.64878q6.98853,0,11.02427,3.49418,4.03419,3.49545,4.15092,9.75041v19.76979q0,6.06234,1.2742,9.07419v.46317Zm-14.51875-3.32073a15.51161,15.51161,0,0,0,8.28266-2.2398,13.17545,13.17545,0,0,0,5.30915-5.98473v-9.18983h-8.2632q-6.91219.07731-10.81154,2.52889a7.59057,7.59057,0,0,0-3.90017,6.73824,7.46738,7.46738,0,0,0,2.6065,5.83013A9.81855,9.81855,0,0,0,280.48574,202.36953Z"/><path class="cls-2" d="M315.39238,163.91089l.15429,7.14359a16.58335,16.58335,0,0,1,5.86941-5.88858,15.24607,15.24607,0,0,1,7.761-2.02738q6.719,0,10.00084,3.7839,3.28149,3.78485,3.32073,11.35233v27.41552h-4.59491V178.23641q-.03909-5.59856-2.3746-8.34078-2.33687-2.74131-7.47165-2.7413a11.68983,11.68983,0,0,0-7.58759,2.68348,15.72806,15.72806,0,0,0-4.88463,7.23975v28.61271H310.9904V163.91089Z"/><path class="cls-2" d="M352.57653,184.41408q0-9.73029,4.34416-15.50324a13.98106,13.98106,0,0,1,11.7957-5.77232q8.45678,0,12.89706,6.6798V146.38027h4.59523v59.31h-4.325l-.19293-5.56053q-4.44091,6.33384-13.051,6.3329a13.92948,13.92948,0,0,1-11.64173-5.81128q-4.42206-5.8116-4.42146-15.69618Zm4.67222.81134q0,7.99294,3.2048,12.60734a10.36444,10.36444,0,0,0,9.03521,4.61408q8.53312,0,12.12469-7.52946V175.30155q-3.59062-8.1466-12.04739-8.14723a10.48854,10.48854,0,0,0-9.07357,4.57574q-3.24372,4.57577-3.24374,13.49535Z"/><path class="cls-2" d="M423.39283,195.07134a6.585,6.585,0,0,0-2.76075-5.52157,21.29279,21.29279,0,0,0-8.32068-3.26291,37.50466,37.50466,0,0,1-8.63051-2.703,11.48746,11.48746,0,0,1-4.55626-3.726,9.29492,9.29492,0,0,1-1.48629-5.32863,9.94021,9.94021,0,0,1,4.13144-8.16671,16.69478,16.69478,0,0,1,10.58-3.224q6.98805,0,11.21721,3.45585a11.0919,11.0919,0,0,1,4.22821,9.01637H423.1616a7.48313,7.48313,0,0,0-3.07-6.101,13.85538,13.85538,0,0,0-15.05893-.40535,6.25467,6.25467,0,0,0-2.76074,5.27081,5.69876,5.69876,0,0,0,2.297,4.846q2.29731,1.71849,8.37913,3.14665a39.4031,39.4031,0,0,1,9.11316,3.0505,11.808,11.808,0,0,1,4.49845,3.90016,10.7254,10.7254,0,0,1-2.79975,13.978q-4.26656,3.16647-11.13991,3.16614-7.29819,0-11.835-3.53315a10.87219,10.87219,0,0,1-4.53678-8.93908h4.63356a8.03214,8.03214,0,0,0,3.41689,6.31341,13.96861,13.96861,0,0,0,8.32131,2.25865,13.13031,13.13031,0,0,0,7.7997-2.12353A6.37286,6.37286,0,0,0,423.39283,195.07134Z"/><path class="cls-2" d="M453.85884,202.56247a12.20461,12.20461,0,0,0,8.08941-2.72183,9.58242,9.58242,0,0,0,3.53315-7.04744H469.922a13.08711,13.08711,0,0,1-2.3944,6.97014,14.99366,14.99366,0,0,1-5.84961,4.92328,17.64045,17.64045,0,0,1-7.81918,1.776q-8.22484,0-13.03217-5.71513-4.80765-5.71357-4.807-15.36749v-1.39014a26.11524,26.11524,0,0,1,2.16187-10.92748,16.65875,16.65875,0,0,1,6.19777-7.33654,17.10788,17.10788,0,0,1,9.44059-2.58733,16.11311,16.11311,0,0,1,11.33347,4.0931A14.92447,14.92447,0,0,1,469.922,178.0045H465.4814a11.1806,11.1806,0,0,0-11.42059-10.93532q-.1205.00261-.24093.00783a11.52071,11.52071,0,0,0-9.71082,4.51793q-3.45679,4.51728-3.45585,12.66516v1.35117q0,7.99293,3.45585,12.47221A11.59613,11.59613,0,0,0,453.85884,202.56247Z"/><path class="cls-2" d="M505.52374,205.69026a21.83745,21.83745,0,0,1-.888-5.83076,16.1106,16.1106,0,0,1-6.19778,4.88494,18.98889,18.98889,0,0,1-7.97378,1.71819,14.00365,14.00365,0,0,1-9.74977-3.3597,10.94167,10.94167,0,0,1-3.726-8.49476,11.18191,11.18191,0,0,1,5.07788-9.653q5.07726-3.552,14.15145-3.55262h8.37912v-4.7492a9.15292,9.15292,0,0,0-2.76074-7.04744q-2.7611-2.5669-8.05108-2.56722a12.59939,12.59939,0,0,0-7.99263,2.47107,7.34253,7.34253,0,0,0-3.16613,5.9464l-4.63356-.039q0-4.98109,4.63356-8.62988a17.83894,17.83894,0,0,1,11.39066-3.64878q6.98805,0,11.02428,3.49418,4.03464,3.49545,4.15091,9.75041v19.76979q0,6.06234,1.27387,9.07419v.46317Zm-14.51846-3.32073a15.51129,15.51129,0,0,0,8.28235-2.2398,13.17372,13.17372,0,0,0,5.30914-5.98473v-9.18983h-8.26286q-6.91264.07731-10.81186,2.52889a7.5906,7.5906,0,0,0-3.90016,6.73824,7.46774,7.46774,0,0,0,2.60681,5.83013A9.817,9.817,0,0,0,491.00528,202.36953Z"/><path class="cls-2" d="M555.10218,185.22541q0,9.76895-4.32436,15.50324a13.77613,13.77613,0,0,1-11.58423,5.734q-8.57175,0-13.12832-6.0237v21.31452h-4.5946V163.91089h4.286l.23127,5.90743q4.51824-6.6798,13.09-6.6798a13.89711,13.89711,0,0,1,11.75767,5.67616q4.26655,5.67585,4.26655,15.754Zm-4.63356-.81134q0-7.993-3.28177-12.6262a10.58434,10.58434,0,0,0-9.15149-4.63356,12.19179,12.19179,0,0,0-11.97009,7.99263v20.04065a12.2683,12.2683,0,0,0,4.74919,5.48323,13.69711,13.69711,0,0,0,7.2982,1.89164,10.48448,10.48448,0,0,0,9.09367-4.653q3.26261-4.65209,3.26229-13.49533Z"/><path class="cls-2" d="M581.5141,206.46263A18.13264,18.13264,0,0,1,571.88,203.837a17.89341,17.89341,0,0,1-6.69928-7.317,22.81084,22.81084,0,0,1-2.39377-10.52215v-1.66036a24.58187,24.58187,0,0,1,2.33595-10.85083,18.58956,18.58956,0,0,1,6.50635-7.58725,16.05389,16.05389,0,0,1,9.03519-2.76075q7.60644,0,12.06687,5.19351,4.4598,5.1932,4.46012,14.19041v2.58664H567.38147v.88863a17.49221,17.49221,0,0,0,4.07425,11.835,12.95689,12.95689,0,0,0,10.25128,4.72971,15.05324,15.05324,0,0,0,6.54531-1.35116,14.5118,14.5118,0,0,0,5.15455-4.325l2.8959,2.20083Q591.20665,206.46359,581.5141,206.46263Zm-.84966-39.38561a11.55254,11.55254,0,0,0-8.78448,3.82286,17.658,17.658,0,0,0-4.34385,10.27079H592.5962v-.5015a15.33614,15.33614,0,0,0-3.43637-9.80822,10.65118,10.65118,0,0,0-8.49543-3.78393Z"/><path class="cls-3" d="M89.35136,224.37184,5,175.67148v-96.334L89.0647,128.196ZM96.39577,115.4975l85.26994-49.23327L96.54117,17.11749,11.55232,66.18589Zm7.332,12.69785.28618,96.01306,84.06828-48.53693V79.49038Z"/><g class="cls-4"><path class="cls-5" d="M198.33115,183.83552s-53.375-55.65245-60.66877-51.79727c-8.33906,4.40768-30.74072,25.02943-38.58135,31.302-3.27876,2.56606-8.59938.56606-11.5931-2.57026-14.25579-14.39831-28.93915-28.5115-43.05233-43.05233-3.564-3.7065-6.13-3.7065-9.97905-.57026-14.41821,11.85081-28.90635,23.56477-43.413,35.283V206.7049l88.67074,35.56376H133.316V206.70481l-.00009-.00133h39.00661Z"/><path class="cls-6" d="M124.67568,101.49551a33.29542,33.29542,0,1,0-.32921.00162Q124.51108,101.49713,124.67568,101.49551Z"/><path class="cls-6" d="M124.51083,34.90711a32.93159,32.93159,0,0,1,33.29641,32.56268h0q.00495.44818-.00222.89635a33.3767,33.3767,0,1,1-66.75325-.14439l0-.01141v-.009h0a33.03046,33.03046,0,0,1,32.7629-33.29588h0Q124.16269,34.90258,124.51083,34.90711Z"/></g></svg>