<svg id="Layer_1" data-name="Layer 1" xmlns="http://www.w3.org/2000/svg" viewBox="0 0 504 155.06469"><defs><style>.cls-1{fill:#45a66a;}.cls-2{fill:#2b3f50;}</style></defs><title>finops-foundation-stacked-color</title><polygon class="cls-1" points="57.812 78.598 2.679 46.555 2.679 109.734 58 141.673 57.812 78.598"/><polygon class="cls-1" points="62.62 70.27 118.542 37.981 62.715 5.749 6.977 37.93 62.62 70.27"/><polygon class="cls-1" points="67.428 78.597 67.616 141.566 122.75 109.734 122.75 46.655 67.428 78.597"/><path class="cls-2" d="M167.93884,6.085h56.09827V18.67848H181.2554v25.91h36.51509V56.39869H181.2554V93.93814H167.93884Z"/><path class="cls-2" d="M234.05388,31.39248h12.59349V93.93814H234.05388Z"/><path class="cls-2" d="M259.57631,31.39248H272.1698v6.62815h.241a20.19309,20.19309,0,0,1,16.2691-7.41148,21.4563,21.4563,0,0,1,14.2204,5.48329q6.3865,5.54417,6.68841,16.2691v41.5766H296.99524V56.7q0-6.56727-3.49485-10.00248a11.8786,11.8786,0,0,0-8.85762-3.49485,12.07888,12.07888,0,0,0-8.91787,3.49485Q272.16916,50.13207,272.1698,56.7V93.93814H259.57631Z"/><path class="cls-2" d="M320.041,50.01156q0-15.3047.90384-20.487a24.25624,24.25624,0,0,1,2.95254-8.37558A30.33761,30.33761,0,0,1,334.14085,10.3029q6.9288-4.82016,17.29345-4.941,10.48453.12113,17.47422,4.941A29.53876,29.53876,0,0,1,378.911,21.149a20.1834,20.1834,0,0,1,3.07306,8.37558q.7827,5.18262.78332,20.487,0,15.06429-.78332,20.36651a20.32279,20.32279,0,0,1-3.07306,8.49608,28.648,28.648,0,0,1-10.00248,10.72556q-6.99032,4.82109-17.47422,5.0615-10.36434-.24133-17.29345-5.0615a29.42084,29.42084,0,0,1-10.24351-10.72556q-.96441-1.98844-1.74742-3.79612a24.71561,24.71561,0,0,1-1.20512-4.7Q320.041,65.07617,320.041,50.01156Zm13.37681,0q0,12.95565.9641,17.53448a14.6271,14.6271,0,0,0,3.43459,7.41148,18.0688,18.0688,0,0,0,13.61784,6.38713,16.41836,16.41836,0,0,0,8.25506-1.98845,14.7111,14.7111,0,0,0,5.30252-4.39868A15.44041,15.44041,0,0,0,368.547,67.546q.90384-4.57884.90384-17.53448,0-12.95471-.90384-17.655a15.37232,15.37232,0,0,0-3.5551-7.291,15.864,15.864,0,0,0-5.30252-4.5192,19.38875,19.38875,0,0,0-8.25506-1.86793,18.41777,18.41777,0,0,0-8.0743,1.86793,16.80189,16.80189,0,0,0-5.54354,4.5192,14.53655,14.53655,0,0,0-3.43459,7.291Q333.41746,37.05653,333.41777,50.01156Z"/><path class="cls-2" d="M393.46623,31.39248h12.59349v6.50764a21.643,21.643,0,0,1,16.14859-7.291q11.50857.30191,16.8114,8.19481a16.423,16.423,0,0,1,3.5551,7.773q.90384,4.76054.90384,16.14859,0,11.0874-.90384,15.90757a17.25825,17.25825,0,0,1-3.5551,7.89353,18.78586,18.78586,0,0,1-6.80892,5.78457,21.88489,21.88489,0,0,1-10.00248,2.35,17.44163,17.44163,0,0,1-8.6166-2.109,27.29366,27.29366,0,0,1-7.532-5.30252v31.9959H393.46623Zm24.94595,50.67524a12.80012,12.80012,0,0,0,7.05-1.68717,9.62335,9.62335,0,0,0,3.67561-4.45894,23.1481,23.1481,0,0,0,1.62691-6.26661q.1202-3.374.12051-6.92944,0-3.73555-.12051-7.291a21.69058,21.69058,0,0,0-1.62691-6.26662,8.89972,8.89972,0,0,0-3.67561-4.45894,14.03491,14.03491,0,0,0-7.05-1.5064,11.38542,11.38542,0,0,0-6.68841,1.74742,10.277,10.277,0,0,0-3.79612,4.57945,22.966,22.966,0,0,0-1.5064,6.14611,68.4753,68.4753,0,0,0-.36153,7.04994,61.06694,61.06694,0,0,0,.36153,6.62816,23.1745,23.1745,0,0,0,1.5064,6.32687A10.27033,10.27033,0,0,0,411.72377,80.26,11.09933,11.09933,0,0,0,418.41218,82.06772Z"/><path class="cls-2" d="M476.43492,82.851a16.71083,16.71083,0,0,0,8.85762-2.10895,6.5876,6.5876,0,0,0,3.43459-5.90508q0-3.374-2.0487-4.7a10.7721,10.7721,0,0,0-5.60381-1.5064l-11.08709-.96409A21.09538,21.09538,0,0,1,457.153,62.364q-5.0615-4.45863-5.182-12.473.12019-9.64033,6.80892-14.46142,6.50765-4.82018,16.51012-4.82048a50.18957,50.18957,0,0,1,7.773.54231,38.833,38.833,0,0,1,6.44738,1.68716,36.81134,36.81134,0,0,1,10.364,6.32687l-7.773,9.09865A38.80186,38.80186,0,0,0,484.449,43.986a25.76578,25.76578,0,0,0-9.15891-1.5064q-5.9057,0-8.25506,2.109a6.80515,6.80515,0,0,0-2.47049,5.423,4.2509,4.2509,0,0,0,1.86793,3.67561q1.80768,1.74805,6.38713,2.22947l10.364.78333q9.76146.72308,14.09989,5.90508,4.03653,5.0615,4.03715,12.83451a16.251,16.251,0,0,1-7.41148,14.03964q-7.23072,5.06149-18.49857,5.182-15.30564,0-27.537-11.20761L456.671,74.837Q464.32286,82.85135,476.43492,82.851Z"/><path class="cls-2" d="M166.10649,116.566H188.597v5.04889H171.44527v10.38767h14.63937v4.73485H171.44527v15.05005h-5.33878Z"/><path class="cls-2" d="M189.00619,139.22559a21.85765,21.85765,0,0,1,.65225-6.08766,8.78787,8.78787,0,0,1,2.07753-3.50282,9.47986,9.47986,0,0,1,2.89889-2.24664,10.70429,10.70429,0,0,1,4.71069-.99045,10.95054,10.95054,0,0,1,4.80732.99045,9.00329,9.00329,0,0,1,2.80225,2.24664,7.89689,7.89689,0,0,1,2.12585,3.50282,23.53236,23.53236,0,0,1,.60394,6.08766,22.94841,22.94841,0,0,1-.60394,6.03934,8.60219,8.60219,0,0,1-2.12585,3.59945,7.83385,7.83385,0,0,1-1.18371,1.08709,5.49825,5.49825,0,0,1-1.61854,1.03876,10.05894,10.05894,0,0,1-4.80732,1.08708,9.836,9.836,0,0,1-4.71069-1.08708,9.52551,9.52551,0,0,1-2.89889-2.12585,9.64488,9.64488,0,0,1-2.07753-3.59945A21.31707,21.31707,0,0,1,189.00619,139.22559Zm15.62982.04831a22.55012,22.55012,0,0,0-.24157-3.91349,4.62185,4.62185,0,0,0-.99045-2.07754,3.69636,3.69636,0,0,0-1.6427-1.32865,5.44282,5.44282,0,0,0-2.41574-.50731,5.52786,5.52786,0,0,0-2.36742.50731,4.48106,4.48106,0,0,0-1.691,1.32865,5.84008,5.84008,0,0,0-.94214,2.07754,18.52493,18.52493,0,0,0-.28989,3.86518,17.99369,17.99369,0,0,0,.28989,3.81687,6.32178,6.32178,0,0,0,.94214,2.17416,6.13906,6.13906,0,0,0,1.691,1.28034,5.3154,5.3154,0,0,0,2.36742.53146,5.23352,5.23352,0,0,0,2.41574-.53146,4.74578,4.74578,0,0,0,1.6427-1.28034,4.98014,4.98014,0,0,0,.99045-2.17416A21.14273,21.14273,0,0,0,204.636,139.2739Z"/><path class="cls-2" d="M213.49131,126.71207h5.04889v14.92926a5.354,5.354,0,0,0,1.42529,3.96181,4.79787,4.79787,0,0,0,3.57529,1.42528,4.71888,4.71888,0,0,0,3.55114-1.42528,5.4091,5.4091,0,0,0,1.40112-3.96181V126.71207h5.0489v25.07536H228.493V149.106h-.09663a8.071,8.071,0,0,1-6.49833,2.97135,8.49148,8.49148,0,0,1-5.62867-2.27079,7.84352,7.84352,0,0,1-2.7781-6.42586Z"/><path class="cls-2" d="M238.72855,126.71207h5.04889v2.65731h.09663a8.09567,8.09567,0,0,1,6.52249-2.97136,8.60209,8.60209,0,0,1,5.70114,2.19832,8.50773,8.50773,0,0,1,2.68147,6.5225v16.66859h-5.04889V136.85817a5.37732,5.37732,0,0,0-1.40113-4.01013,4.7623,4.7623,0,0,0-3.55113-1.40113,4.8426,4.8426,0,0,0-3.57529,1.40113,5.32253,5.32253,0,0,0-1.42529,4.01013v14.92926h-5.04889Z"/><path class="cls-2" d="M277.48321,149.15427a8.53994,8.53994,0,0,1-6.49833,2.923,8.30867,8.30867,0,0,1-3.88934-.94213,8.44551,8.44551,0,0,1-2.82642-2.31911,6.3427,6.3427,0,0,1-1.377-3.21293,34.46059,34.46059,0,0,1-.41067-6.37755,34.59888,34.59888,0,0,1,.41067-6.42586,6.24808,6.24808,0,0,1,1.377-3.1163q2.12561-3.1645,6.71576-3.28541a8.08,8.08,0,0,1,3.57529.7972,14.49515,14.49515,0,0,1,2.923,2.17416V116.566h5.04889v35.22146h-5.04889ZM272.531,131.44691a5.08284,5.08284,0,0,0-2.72979.60394,3.83463,3.83463,0,0,0-1.52191,1.78764,9.20717,9.20717,0,0,0-.60394,2.46406,28.88835,28.88835,0,0,0-.14494,2.923,26.06663,26.06663,0,0,0,.14494,2.7781,9.325,9.325,0,0,0,.60394,2.56068,4.17305,4.17305,0,0,0,1.52191,1.78765,4.64543,4.64543,0,0,0,2.72979.6764,4.86511,4.86511,0,0,0,2.82641-.72472,3.55223,3.55223,0,0,0,1.42529-1.836,9.30153,9.30153,0,0,0,.65225-2.53652q.04818-1.377.04831-2.70563,0-1.44945-.04831-2.7781a9.25149,9.25149,0,0,0-.65225-2.464,3.5542,3.5542,0,0,0-1.42529-1.836A4.99418,4.99418,0,0,0,272.531,131.44691Z"/><path class="cls-2" d="M300.73307,149.565h-.09663a4.1925,4.1925,0,0,1-2.17417,1.88427,10.34109,10.34109,0,0,1-4.01012.62809,9.15345,9.15345,0,0,1-6.47418-2.22247,6.94624,6.94624,0,0,1-2.39158-5.43541,7.10591,7.10591,0,0,1,2.07754-5.24215,8.2872,8.2872,0,0,1,6.08766-2.17417h6.98148V134.37q.04818-3.30944-5.14552-3.21293a9.16091,9.16091,0,0,0-2.97136.38651,3.62877,3.62877,0,0,0-1.78765,1.54608l-3.96181-3.01968q2.87462-3.76854,8.47924-3.67192a13.46029,13.46029,0,0,1,7.56126,1.78765q2.82642,1.88427,2.87473,6.47418v17.12758h-5.04889Zm0-8.40677h-6.03935q-4.39689.09675-4.34832,3.01967a2.68186,2.68186,0,0,0,1.13539,2.17417,5.2843,5.2843,0,0,0,3.59945.99045,8.8326,8.8326,0,0,0,4.46912-.74888q1.18345-.79719,1.18371-3.62361Z"/><path class="cls-2" d="M311.50576,119.07834h5.0489v7.63373h3.67192v3.841h-3.67192V145.1683q-.04857,1.90857,1.78764,1.86012h1.88428v4.759h-2.63316a5.979,5.979,0,0,1-4.34832-1.64271,5.80432,5.80432,0,0,1-1.73934-4.54158v-15.05H308.9934v-3.841h2.51236Z"/><path class="cls-2" d="M324.018,116.566h5.04889v5.04889H324.018Zm0,10.1461h5.04889v25.07536H324.018Z"/><path class="cls-2" d="M333.41377,139.22559a21.85727,21.85727,0,0,1,.65225-6.08766,8.78776,8.78776,0,0,1,2.07753-3.50282,9.47986,9.47986,0,0,1,2.89889-2.24664,10.70422,10.70422,0,0,1,4.71068-.99045,10.95047,10.95047,0,0,1,4.80732.99045,9.00334,9.00334,0,0,1,2.80226,2.24664,7.897,7.897,0,0,1,2.12585,3.50282,23.53243,23.53243,0,0,1,.60393,6.08766,22.94848,22.94848,0,0,1-.60393,6.03934,8.6023,8.6023,0,0,1-2.12585,3.59945,7.83433,7.83433,0,0,1-1.18371,1.08709,5.49844,5.49844,0,0,1-1.61855,1.03876,10.05888,10.05888,0,0,1-4.80732,1.08708,9.836,9.836,0,0,1-4.71068-1.08708,9.52551,9.52551,0,0,1-2.89889-2.12585,9.64475,9.64475,0,0,1-2.07753-3.59945A21.31671,21.31671,0,0,1,333.41377,139.22559Zm15.62982.04831a22.55012,22.55012,0,0,0-.24157-3.91349,4.62187,4.62187,0,0,0-.99046-2.07754,3.6963,3.6963,0,0,0-1.6427-1.32865,5.44276,5.44276,0,0,0-2.41574-.50731,5.52789,5.52789,0,0,0-2.36742.50731,4.48111,4.48111,0,0,0-1.691,1.32865,5.8399,5.8399,0,0,0-.94214,2.07754,18.52493,18.52493,0,0,0-.28989,3.86518,17.99369,17.99369,0,0,0,.28989,3.81687,6.32159,6.32159,0,0,0,.94214,2.17416,6.13916,6.13916,0,0,0,1.691,1.28034,5.31543,5.31543,0,0,0,2.36742.53146,5.23347,5.23347,0,0,0,2.41574-.53146,4.74569,4.74569,0,0,0,1.6427-1.28034,4.98015,4.98015,0,0,0,.99046-2.17416A21.14273,21.14273,0,0,0,349.04359,139.2739Z"/><path class="cls-2" d="M358.29462,126.71207h5.04889v2.65731h.09663a8.09567,8.09567,0,0,1,6.52249-2.97136,8.60213,8.60213,0,0,1,5.70115,2.19832,8.5078,8.5078,0,0,1,2.68147,6.5225v16.66859h-5.0489V136.85817a5.37736,5.37736,0,0,0-1.40112-4.01013,4.76233,4.76233,0,0,0-3.55114-1.40113,4.8426,4.8426,0,0,0-3.57529,1.40113,5.32253,5.32253,0,0,0-1.42529,4.01013v14.92926h-5.04889Z"/><polygon class="cls-2" points="239.495 7.687 247.834 12.448 239.44 17.209 231.101 12.448 239.495 7.687"/><polygon class="cls-2" points="239.469 12.665 239.469 22.097 231.102 17.359 231.102 7.927 239.469 12.665"/><polygon class="cls-2" points="239.469 12.665 239.469 22.097 247.837 17.359 247.837 7.927 239.469 12.665"/><polygon class="cls-2" points="239.496 3.186 247.835 7.946 239.441 12.708 231.102 7.946 239.496 3.186"/></svg>